<?xml version="1.0" encoding="UTF-8"?>
<svg id="_레이어_1" data-name="레이어 1" xmlns="http://www.w3.org/2000/svg" width="512" height="512" xmlns:xlink="http://www.w3.org/1999/xlink" viewBox="0 0 512 512">
  <defs>
    <style>
      .cls-1 {
        fill: none;
      }

      .cls-2 {
        fill: #a6c3c4;
      }

      .cls-3 {
        clip-path: url(#clippath-1);
      }

      .cls-4 {
        fill: #3d52ff;
      }

      .cls-5 {
        fill: #bbf9f9;
      }

      .cls-6 {
        clip-path: url(#clippath);
      }
    </style>
    <clipPath id="clippath">
      <rect class="cls-1" x="0" width="512" height="512"/>
    </clipPath>
    <clipPath id="clippath-1">
      <rect class="cls-1" x="0" y="590.73" width="512" height="512"/>
    </clipPath>
  </defs>
  <rect class="cls-4" width="512" height="512"/>
  <g class="cls-6">
    <g>
      <path class="cls-2" d="M343.75,344.19h-175.49v-175.49h175.49v175.49ZM171.51,340.94h168.97v-168.97h-168.97v168.97Z"/>
      <path class="cls-2" d="M171.51,171.96H-3.98V-3.53h175.49v175.49ZM-.72,168.7h168.97V-.27H-.72v168.97Z"/>
      <path class="cls-2" d="M515.98,171.96h-175.49V-3.53h175.49v175.49ZM343.75,168.7h168.97V-.27h-168.97v168.97Z"/>
      <path class="cls-2" d="M171.51,517.36H-3.98v-175.49h175.49v175.49ZM-.72,514.1h168.97v-168.97H-.72v168.97Z"/>
      <path class="cls-2" d="M515.98,517.36h-175.49v-175.49h175.49v175.49ZM343.75,514.1h168.97v-168.97h-168.97v168.97Z"/>
    </g>
  </g>
  <g class="cls-3">
    <g>
      <path class="cls-5" d="M90.1,680.83H-254.51v-344.61H90.1v344.61ZM-248.11,674.42H83.7v-331.8H-248.11v331.8Z"/>
      <path class="cls-5" d="M766.51,680.83h-344.61v-344.61h344.61v344.61ZM428.3,674.42h331.8v-331.8h-331.8v331.8Z"/>
    </g>
  </g>
</svg>