<?xml version="1.0" encoding="UTF-8"?>
<svg id="_레이어_2" data-name="레이어 2" xmlns="http://www.w3.org/2000/svg" width="319.19" height="289.4" xmlns:xlink="http://www.w3.org/1999/xlink" viewBox="0 0 319.19 289.4">
  <defs>
    <style>
      .cls-1, .cls-2 {
        fill: none;
      }

      .cls-3 {
        clip-path: url(#clippath-17);
      }

      .cls-4 {
        clip-path: url(#clippath-19);
      }

      .cls-5 {
        clip-path: url(#clippath-11);
      }

      .cls-6 {
        clip-path: url(#clippath-16);
      }

      .cls-7 {
        clip-path: url(#clippath-18);
      }

      .cls-8 {
        clip-path: url(#clippath-10);
      }

      .cls-9 {
        clip-path: url(#clippath-15);
      }

      .cls-10 {
        clip-path: url(#clippath-13);
      }

      .cls-11 {
        clip-path: url(#clippath-14);
      }

      .cls-12 {
        clip-path: url(#clippath-12);
      }

      .cls-13 {
        clip-path: url(#clippath-31);
      }

      .cls-14 {
        clip-path: url(#clippath-32);
      }

      .cls-15 {
        clip-path: url(#clippath-33);
      }

      .cls-16 {
        clip-path: url(#clippath-34);
      }

      .cls-17 {
        clip-path: url(#clippath-35);
      }

      .cls-18 {
        clip-path: url(#clippath-39);
      }

      .cls-19 {
        clip-path: url(#clippath-30);
      }

      .cls-20 {
        clip-path: url(#clippath-36);
      }

      .cls-21 {
        clip-path: url(#clippath-37);
      }

      .cls-22 {
        clip-path: url(#clippath-38);
      }

      .cls-23 {
        clip-path: url(#clippath-27);
      }

      .cls-24 {
        clip-path: url(#clippath-29);
      }

      .cls-25 {
        clip-path: url(#clippath-26);
      }

      .cls-26 {
        clip-path: url(#clippath-28);
      }

      .cls-27 {
        clip-path: url(#clippath-20);
      }

      .cls-28 {
        clip-path: url(#clippath-21);
      }

      .cls-29 {
        clip-path: url(#clippath-22);
      }

      .cls-30 {
        clip-path: url(#clippath-23);
      }

      .cls-31 {
        clip-path: url(#clippath-24);
      }

      .cls-32 {
        clip-path: url(#clippath-25);
      }

      .cls-33 {
        clip-path: url(#clippath-41);
      }

      .cls-34 {
        clip-path: url(#clippath-42);
      }

      .cls-35 {
        clip-path: url(#clippath-43);
      }

      .cls-36 {
        clip-path: url(#clippath-44);
      }

      .cls-37 {
        clip-path: url(#clippath-45);
      }

      .cls-38 {
        clip-path: url(#clippath-40);
      }

      .cls-39 {
        clip-path: url(#clippath-1);
      }

      .cls-40 {
        clip-path: url(#clippath-3);
      }

      .cls-41 {
        clip-path: url(#clippath-4);
      }

      .cls-42 {
        clip-path: url(#clippath-2);
      }

      .cls-43 {
        clip-path: url(#clippath-7);
      }

      .cls-44 {
        clip-path: url(#clippath-6);
      }

      .cls-45 {
        clip-path: url(#clippath-9);
      }

      .cls-46 {
        clip-path: url(#clippath-8);
      }

      .cls-47 {
        clip-path: url(#clippath-5);
      }

      .cls-48, .cls-49 {
        fill: #fff;
      }

      .cls-49, .cls-2 {
        stroke: #a0a0a0;
        stroke-miterlimit: 10;
      }

      .cls-50 {
        fill: #e6dafd;
      }

      .cls-51 {
        clip-path: url(#clippath);
      }

      .cls-52 {
        fill: #fdb4f4;
      }
    </style>
    <clipPath id="clippath">
      <rect class="cls-1" x="120.6" y="109.43" width="83.01" height="47.48"/>
    </clipPath>
    <clipPath id="clippath-1">
      <rect class="cls-1" x="-1.95" y="59.27" width="37.06" height="37.11"/>
    </clipPath>
    <clipPath id="clippath-2">
      <rect class="cls-1" x="35.1" y="59.24" width="37.06" height="37.11"/>
    </clipPath>
    <clipPath id="clippath-3">
      <rect class="cls-1" x="72.16" y="59.27" width="37.06" height="37.11"/>
    </clipPath>
    <clipPath id="clippath-4">
      <rect class="cls-1" x="109.21" y="59.24" width="37.06" height="37.11"/>
    </clipPath>
    <clipPath id="clippath-5">
      <rect class="cls-1" x="146.27" y="59.27" width="37.06" height="37.11"/>
    </clipPath>
    <clipPath id="clippath-6">
      <rect class="cls-1" x="183.24" y="59.24" width="37.06" height="37.11"/>
    </clipPath>
    <clipPath id="clippath-7">
      <rect class="cls-1" x="220.29" y="59.24" width="37.06" height="37.11"/>
    </clipPath>
    <clipPath id="clippath-8">
      <rect class="cls-1" x="257.35" y="59.24" width="37.06" height="37.11"/>
    </clipPath>
    <clipPath id="clippath-9">
      <rect class="cls-1" x="294.4" y="59.24" width="37.06" height="37.11"/>
    </clipPath>
    <clipPath id="clippath-10">
      <rect class="cls-1" x="-1.95" y="96.42" width="37.06" height="37.11"/>
    </clipPath>
    <clipPath id="clippath-11">
      <rect class="cls-1" x="35.1" y="96.39" width="37.06" height="37.11"/>
    </clipPath>
    <clipPath id="clippath-12">
      <rect class="cls-1" x="72.16" y="96.42" width="37.06" height="37.11"/>
    </clipPath>
    <clipPath id="clippath-13">
      <rect class="cls-1" x="109.21" y="96.39" width="37.06" height="37.11"/>
    </clipPath>
    <clipPath id="clippath-14">
      <rect class="cls-1" x="146.27" y="96.42" width="37.06" height="37.11"/>
    </clipPath>
    <clipPath id="clippath-15">
      <rect class="cls-1" x="183.24" y="96.39" width="37.06" height="37.11"/>
    </clipPath>
    <clipPath id="clippath-16">
      <rect class="cls-1" x="220.29" y="96.39" width="37.06" height="37.11"/>
    </clipPath>
    <clipPath id="clippath-17">
      <rect class="cls-1" x="257.35" y="96.39" width="37.06" height="37.11"/>
    </clipPath>
    <clipPath id="clippath-18">
      <rect class="cls-1" x="294.4" y="96.39" width="37.06" height="37.11"/>
    </clipPath>
    <clipPath id="clippath-19">
      <rect class="cls-1" x="-1.95" y="133.57" width="37.06" height="37.11"/>
    </clipPath>
    <clipPath id="clippath-20">
      <rect class="cls-1" x="35.1" y="133.54" width="37.06" height="37.11"/>
    </clipPath>
    <clipPath id="clippath-21">
      <rect class="cls-1" x="72.16" y="133.57" width="37.06" height="37.11"/>
    </clipPath>
    <clipPath id="clippath-22">
      <rect class="cls-1" x="109.21" y="133.54" width="37.06" height="37.11"/>
    </clipPath>
    <clipPath id="clippath-23">
      <rect class="cls-1" x="146.27" y="133.57" width="37.06" height="37.11"/>
    </clipPath>
    <clipPath id="clippath-24">
      <rect class="cls-1" x="183.24" y="133.54" width="37.06" height="37.11"/>
    </clipPath>
    <clipPath id="clippath-25">
      <rect class="cls-1" x="220.29" y="133.54" width="37.06" height="37.11"/>
    </clipPath>
    <clipPath id="clippath-26">
      <rect class="cls-1" x="257.35" y="133.54" width="37.06" height="37.11"/>
    </clipPath>
    <clipPath id="clippath-27">
      <rect class="cls-1" x="294.4" y="133.54" width="37.06" height="37.11"/>
    </clipPath>
    <clipPath id="clippath-28">
      <rect class="cls-1" x="-1.95" y="170.72" width="37.06" height="37.11"/>
    </clipPath>
    <clipPath id="clippath-29">
      <rect class="cls-1" x="35.1" y="170.69" width="37.06" height="37.11"/>
    </clipPath>
    <clipPath id="clippath-30">
      <rect class="cls-1" x="72.16" y="170.72" width="37.06" height="37.11"/>
    </clipPath>
    <clipPath id="clippath-31">
      <rect class="cls-1" x="109.21" y="170.69" width="37.06" height="37.11"/>
    </clipPath>
    <clipPath id="clippath-32">
      <rect class="cls-1" x="146.27" y="170.72" width="37.06" height="37.11"/>
    </clipPath>
    <clipPath id="clippath-33">
      <rect class="cls-1" x="183.24" y="170.69" width="37.06" height="37.11"/>
    </clipPath>
    <clipPath id="clippath-34">
      <rect class="cls-1" x="220.29" y="170.69" width="37.06" height="37.11"/>
    </clipPath>
    <clipPath id="clippath-35">
      <rect class="cls-1" x="257.35" y="170.69" width="37.06" height="37.11"/>
    </clipPath>
    <clipPath id="clippath-36">
      <rect class="cls-1" x="294.4" y="170.69" width="37.06" height="37.11"/>
    </clipPath>
    <clipPath id="clippath-37">
      <rect class="cls-1" x="-1.95" y="207.87" width="37.06" height="37.11"/>
    </clipPath>
    <clipPath id="clippath-38">
      <rect class="cls-1" x="35.1" y="207.83" width="37.06" height="37.11"/>
    </clipPath>
    <clipPath id="clippath-39">
      <rect class="cls-1" x="72.16" y="207.87" width="37.06" height="37.11"/>
    </clipPath>
    <clipPath id="clippath-40">
      <rect class="cls-1" x="109.21" y="207.83" width="37.06" height="37.11"/>
    </clipPath>
    <clipPath id="clippath-41">
      <rect class="cls-1" x="146.27" y="207.87" width="37.06" height="37.11"/>
    </clipPath>
    <clipPath id="clippath-42">
      <rect class="cls-1" x="183.24" y="207.83" width="37.06" height="37.11"/>
    </clipPath>
    <clipPath id="clippath-43">
      <rect class="cls-1" x="220.29" y="207.83" width="37.06" height="37.11"/>
    </clipPath>
    <clipPath id="clippath-44">
      <rect class="cls-1" x="257.35" y="207.83" width="37.06" height="37.11"/>
    </clipPath>
    <clipPath id="clippath-45">
      <rect class="cls-1" x="294.4" y="207.83" width="37.06" height="37.11"/>
    </clipPath>
  </defs>
  <g id="_레이어_1-2" data-name="레이어 1">
    <g>
      <rect class="cls-48" width="319.19" height="289.4"/>
      <g>
        <g class="cls-51">
          <g>
            <g>
              <g>
                <rect class="cls-50" x="-1.95" y="59.27" width="37.05" height="37.05"/>
                <g class="cls-39">
                  <path class="cls-52" d="M27.69,59.27h3.71l-3.71,37.05h-3.71l3.71-37.05ZM16.58,96.32h3.71l3.71-37.05h-3.71l-3.71,37.05ZM9.17,96.32h3.71l3.71-37.05h-3.71l-3.71,37.05ZM1.76,96.32h3.71l3.71-37.05h-3.71l-3.71,37.05ZM31.4,96.32h3.71l3.71-37.05h-3.71l-3.71,37.05ZM-5.65,96.32H-1.95L1.76,59.27H-1.95l-3.71,37.05Z"/>
                </g>
              </g>
              <g>
                <rect class="cls-50" x="35.1" y="59.24" width="37.05" height="37.05"/>
                <g class="cls-42">
                  <path class="cls-52" d="M64.75,59.24h3.71l-3.71,37.05h-3.71l3.71-37.05ZM53.63,96.29h3.71l3.71-37.05h-3.71l-3.71,37.05ZM46.22,96.29h3.71l3.71-37.05h-3.71l-3.71,37.05ZM38.81,96.29h3.71l3.71-37.05h-3.71l-3.71,37.05ZM68.45,96.29h3.71l3.71-37.05h-3.71l-3.71,37.05ZM31.4,96.29h3.71l3.71-37.05h-3.71l-3.71,37.05Z"/>
                </g>
              </g>
              <g>
                <rect class="cls-50" x="72.16" y="59.27" width="37.05" height="37.05"/>
                <g class="cls-40">
                  <path class="cls-52" d="M101.8,59.27h3.71l-3.71,37.05h-3.71l3.71-37.05ZM90.69,96.32h3.71l3.71-37.05h-3.71l-3.71,37.05ZM83.28,96.32h3.71l3.71-37.05h-3.71l-3.71,37.05ZM75.87,96.32h3.71l3.71-37.05h-3.71l-3.71,37.05ZM105.51,96.32h3.71l3.71-37.05h-3.71l-3.71,37.05ZM68.46,96.32h3.71l3.71-37.05h-3.71l-3.71,37.05Z"/>
                </g>
              </g>
              <g>
                <rect class="cls-50" x="109.22" y="59.24" width="37.05" height="37.05"/>
                <g class="cls-41">
                  <path class="cls-52" d="M138.86,59.24h3.71l-3.71,37.05h-3.71l3.71-37.05ZM127.74,96.29h3.71l3.71-37.05h-3.71l-3.71,37.05ZM120.33,96.29h3.71l3.71-37.05h-3.71l-3.71,37.05ZM112.92,96.29h3.71l3.71-37.05h-3.71l-3.71,37.05ZM142.56,96.29h3.71l3.71-37.05h-3.71l-3.71,37.05ZM105.51,96.29h3.71l3.71-37.05h-3.71l-3.71,37.05Z"/>
                </g>
              </g>
              <g>
                <rect class="cls-50" x="146.27" y="59.27" width="37.05" height="37.05"/>
                <g class="cls-47">
                  <path class="cls-52" d="M175.91,59.27h3.71l-3.71,37.05h-3.71l3.71-37.05ZM164.8,96.32h3.71l3.71-37.05h-3.71l-3.71,37.05ZM157.39,96.32h3.71l3.71-37.05h-3.71l-3.71,37.05ZM149.98,96.32h3.71l3.71-37.05h-3.71l-3.71,37.05ZM179.62,96.32h3.71l3.71-37.05h-3.71l-3.71,37.05ZM142.57,96.32h3.71l3.71-37.05h-3.71l-3.71,37.05Z"/>
                </g>
              </g>
              <g>
                <rect class="cls-50" x="183.24" y="59.24" width="37.05" height="37.05"/>
                <g class="cls-44">
                  <path class="cls-52" d="M212.88,59.24h3.71l-3.71,37.05h-3.71l3.71-37.05ZM201.77,96.29h3.71l3.71-37.05h-3.71l-3.71,37.05ZM194.36,96.29h3.71l3.71-37.05h-3.71l-3.71,37.05ZM186.95,96.29h3.71l3.71-37.05h-3.71l-3.71,37.05ZM216.59,96.29h3.71l3.71-37.05h-3.71l-3.71,37.05ZM179.54,96.29h3.71l3.71-37.05h-3.71l-3.71,37.05Z"/>
                </g>
              </g>
              <g>
                <rect class="cls-50" x="220.3" y="59.24" width="37.05" height="37.05"/>
                <g class="cls-43">
                  <path class="cls-52" d="M249.94,59.24h3.71l-3.71,37.05h-3.71l3.71-37.05ZM238.82,96.29h3.71l3.71-37.05h-3.71l-3.71,37.05ZM231.41,96.29h3.71l3.71-37.05h-3.71l-3.71,37.05ZM224,96.29h3.71l3.71-37.05h-3.71l-3.71,37.05ZM253.64,96.29h3.71l3.71-37.05h-3.71l-3.71,37.05ZM216.59,96.29h3.71l3.71-37.05h-3.71l-3.71,37.05Z"/>
                </g>
              </g>
              <g>
                <rect class="cls-50" x="257.35" y="59.24" width="37.05" height="37.05"/>
                <g class="cls-46">
                  <path class="cls-52" d="M286.99,59.24h3.71l-3.71,37.05h-3.71l3.71-37.05ZM275.88,96.29h3.71l3.71-37.05h-3.71l-3.71,37.05ZM268.47,96.29h3.71l3.71-37.05h-3.71l-3.71,37.05ZM261.06,96.29h3.71l3.71-37.05h-3.71l-3.71,37.05ZM290.7,96.29h3.71l3.71-37.05h-3.71l-3.71,37.05ZM253.65,96.29h3.71l3.71-37.05h-3.71l-3.71,37.05Z"/>
                </g>
              </g>
              <g>
                <rect class="cls-50" x="294.41" y="59.24" width="37.05" height="37.05"/>
                <g class="cls-45">
                  <path class="cls-52" d="M324.05,59.24h3.71l-3.71,37.05h-3.71l3.71-37.05ZM312.93,96.29h3.71l3.71-37.05h-3.71l-3.71,37.05ZM305.52,96.29h3.71l3.71-37.05h-3.71l-3.71,37.05ZM298.11,96.29h3.71l3.71-37.05h-3.71l-3.71,37.05ZM327.75,96.29h3.71l3.71-37.05h-3.71l-3.71,37.05ZM290.7,96.29h3.71l3.71-37.05h-3.71l-3.71,37.05Z"/>
                </g>
              </g>
            </g>
            <g>
              <g>
                <rect class="cls-50" x="-1.95" y="96.42" width="37.05" height="37.05"/>
                <g class="cls-8">
                  <path class="cls-52" d="M27.69,96.42h3.71l-3.71,37.05h-3.71l3.71-37.05ZM16.58,133.47h3.71l3.71-37.05h-3.71l-3.71,37.05ZM9.17,133.47h3.71l3.71-37.05h-3.71l-3.71,37.05ZM1.76,133.47h3.71l3.71-37.05h-3.71l-3.71,37.05ZM31.4,133.47h3.71l3.71-37.05h-3.71l-3.71,37.05ZM-5.65,133.47H-1.95l3.71-37.05H-1.95l-3.71,37.05Z"/>
                </g>
              </g>
              <g>
                <rect class="cls-50" x="35.1" y="96.39" width="37.05" height="37.05"/>
                <g class="cls-5">
                  <path class="cls-52" d="M64.75,96.39h3.71l-3.71,37.05h-3.71l3.71-37.05ZM53.63,133.44h3.71l3.71-37.05h-3.71l-3.71,37.05ZM46.22,133.44h3.71l3.71-37.05h-3.71l-3.71,37.05ZM38.81,133.44h3.71l3.71-37.05h-3.71l-3.71,37.05ZM68.45,133.44h3.71l3.71-37.05h-3.71l-3.71,37.05ZM31.4,133.44h3.71l3.71-37.05h-3.71l-3.71,37.05Z"/>
                </g>
              </g>
              <g>
                <rect class="cls-50" x="72.16" y="96.42" width="37.05" height="37.05"/>
                <g class="cls-12">
                  <path class="cls-52" d="M101.8,96.42h3.71l-3.71,37.05h-3.71l3.71-37.05ZM90.69,133.47h3.71l3.71-37.05h-3.71l-3.71,37.05ZM83.28,133.47h3.71l3.71-37.05h-3.71l-3.71,37.05ZM75.87,133.47h3.71l3.71-37.05h-3.71l-3.71,37.05ZM105.51,133.47h3.71l3.71-37.05h-3.71l-3.71,37.05ZM68.46,133.47h3.71l3.71-37.05h-3.71l-3.71,37.05Z"/>
                </g>
              </g>
              <g>
                <rect class="cls-50" x="109.22" y="96.39" width="37.05" height="37.05"/>
                <g class="cls-10">
                  <path class="cls-52" d="M138.86,96.39h3.71l-3.71,37.05h-3.71l3.71-37.05ZM127.74,133.44h3.71l3.71-37.05h-3.71l-3.71,37.05ZM120.33,133.44h3.71l3.71-37.05h-3.71l-3.71,37.05ZM112.92,133.44h3.71l3.71-37.05h-3.71l-3.71,37.05ZM142.56,133.44h3.71l3.71-37.05h-3.71l-3.71,37.05ZM105.51,133.44h3.71l3.71-37.05h-3.71l-3.71,37.05Z"/>
                </g>
              </g>
              <g>
                <rect class="cls-50" x="146.27" y="96.42" width="37.05" height="37.05"/>
                <g class="cls-11">
                  <path class="cls-52" d="M175.91,96.42h3.71l-3.71,37.05h-3.71l3.71-37.05ZM164.8,133.47h3.71l3.71-37.05h-3.71l-3.71,37.05ZM157.39,133.47h3.71l3.71-37.05h-3.71l-3.71,37.05ZM149.98,133.47h3.71l3.71-37.05h-3.71l-3.71,37.05ZM179.62,133.47h3.71l3.71-37.05h-3.71l-3.71,37.05ZM142.57,133.47h3.71l3.71-37.05h-3.71l-3.71,37.05Z"/>
                </g>
              </g>
              <g>
                <rect class="cls-50" x="183.24" y="96.39" width="37.05" height="37.05"/>
                <g class="cls-9">
                  <path class="cls-52" d="M212.88,96.39h3.71l-3.71,37.05h-3.71l3.71-37.05ZM201.77,133.44h3.71l3.71-37.05h-3.71l-3.71,37.05ZM194.36,133.44h3.71l3.71-37.05h-3.71l-3.71,37.05ZM186.95,133.44h3.71l3.71-37.05h-3.71l-3.71,37.05ZM216.59,133.44h3.71l3.71-37.05h-3.71l-3.71,37.05ZM179.54,133.44h3.71l3.71-37.05h-3.71l-3.71,37.05Z"/>
                </g>
              </g>
              <g>
                <rect class="cls-50" x="220.3" y="96.39" width="37.05" height="37.05"/>
                <g class="cls-6">
                  <path class="cls-52" d="M249.94,96.39h3.71l-3.71,37.05h-3.71l3.71-37.05ZM238.82,133.44h3.71l3.71-37.05h-3.71l-3.71,37.05ZM231.41,133.44h3.71l3.71-37.05h-3.71l-3.71,37.05ZM224,133.44h3.71l3.71-37.05h-3.71l-3.71,37.05ZM253.64,133.44h3.71l3.71-37.05h-3.71l-3.71,37.05ZM216.59,133.44h3.71l3.71-37.05h-3.71l-3.71,37.05Z"/>
                </g>
              </g>
              <g>
                <rect class="cls-50" x="257.35" y="96.39" width="37.05" height="37.05"/>
                <g class="cls-3">
                  <path class="cls-52" d="M286.99,96.39h3.71l-3.71,37.05h-3.71l3.71-37.05ZM275.88,133.44h3.71l3.71-37.05h-3.71l-3.71,37.05ZM268.47,133.44h3.71l3.71-37.05h-3.71l-3.71,37.05ZM261.06,133.44h3.71l3.71-37.05h-3.71l-3.71,37.05ZM290.7,133.44h3.71l3.71-37.05h-3.71l-3.71,37.05ZM253.65,133.44h3.71l3.71-37.05h-3.71l-3.71,37.05Z"/>
                </g>
              </g>
              <g>
                <rect class="cls-50" x="294.41" y="96.39" width="37.05" height="37.05"/>
                <g class="cls-7">
                  <path class="cls-52" d="M324.05,96.39h3.71l-3.71,37.05h-3.71l3.71-37.05ZM312.93,133.44h3.71l3.71-37.05h-3.71l-3.71,37.05ZM305.52,133.44h3.71l3.71-37.05h-3.71l-3.71,37.05ZM298.11,133.44h3.71l3.71-37.05h-3.71l-3.71,37.05ZM327.75,133.44h3.71l3.71-37.05h-3.71l-3.71,37.05ZM290.7,133.44h3.71l3.71-37.05h-3.71l-3.71,37.05Z"/>
                </g>
              </g>
            </g>
            <g>
              <g>
                <rect class="cls-50" x="-1.95" y="133.57" width="37.05" height="37.05"/>
                <g class="cls-4">
                  <path class="cls-52" d="M27.69,133.57h3.71l-3.71,37.05h-3.71l3.71-37.05ZM16.58,170.62h3.71l3.71-37.05h-3.71l-3.71,37.05ZM9.17,170.62h3.71l3.71-37.05h-3.71l-3.71,37.05ZM1.76,170.62h3.71l3.71-37.05h-3.71l-3.71,37.05ZM31.4,170.62h3.71l3.71-37.05h-3.71l-3.71,37.05ZM-5.65,170.62H-1.95l3.71-37.05H-1.95l-3.71,37.05Z"/>
                </g>
              </g>
              <g>
                <rect class="cls-50" x="35.1" y="133.53" width="37.05" height="37.05"/>
                <g class="cls-27">
                  <path class="cls-52" d="M64.75,133.53h3.71l-3.71,37.05h-3.71l3.71-37.05ZM53.63,170.59h3.71l3.71-37.05h-3.71l-3.71,37.05ZM46.22,170.59h3.71l3.71-37.05h-3.71l-3.71,37.05ZM38.81,170.59h3.71l3.71-37.05h-3.71l-3.71,37.05ZM68.45,170.59h3.71l3.71-37.05h-3.71l-3.71,37.05ZM31.4,170.59h3.71l3.71-37.05h-3.71l-3.71,37.05Z"/>
                </g>
              </g>
              <g>
                <rect class="cls-50" x="72.16" y="133.57" width="37.05" height="37.05"/>
                <g class="cls-28">
                  <path class="cls-52" d="M101.8,133.57h3.71l-3.71,37.05h-3.71l3.71-37.05ZM90.69,170.62h3.71l3.71-37.05h-3.71l-3.71,37.05ZM83.28,170.62h3.71l3.71-37.05h-3.71l-3.71,37.05ZM75.87,170.62h3.71l3.71-37.05h-3.71l-3.71,37.05ZM105.51,170.62h3.71l3.71-37.05h-3.71l-3.71,37.05ZM68.46,170.62h3.71l3.71-37.05h-3.71l-3.71,37.05Z"/>
                </g>
              </g>
              <g>
                <rect class="cls-50" x="109.22" y="133.53" width="37.05" height="37.05"/>
                <g class="cls-29">
                  <path class="cls-52" d="M138.86,133.53h3.71l-3.71,37.05h-3.71l3.71-37.05ZM127.74,170.59h3.71l3.71-37.05h-3.71l-3.71,37.05ZM120.33,170.59h3.71l3.71-37.05h-3.71l-3.71,37.05ZM112.92,170.59h3.71l3.71-37.05h-3.71l-3.71,37.05ZM142.56,170.59h3.71l3.71-37.05h-3.71l-3.71,37.05ZM105.51,170.59h3.71l3.71-37.05h-3.71l-3.71,37.05Z"/>
                </g>
              </g>
              <g>
                <rect class="cls-50" x="146.27" y="133.57" width="37.05" height="37.05"/>
                <g class="cls-30">
                  <path class="cls-52" d="M175.91,133.57h3.71l-3.71,37.05h-3.71l3.71-37.05ZM164.8,170.62h3.71l3.71-37.05h-3.71l-3.71,37.05ZM157.39,170.62h3.71l3.71-37.05h-3.71l-3.71,37.05ZM149.98,170.62h3.71l3.71-37.05h-3.71l-3.71,37.05ZM179.62,170.62h3.71l3.71-37.05h-3.71l-3.71,37.05ZM142.57,170.62h3.71l3.71-37.05h-3.71l-3.71,37.05Z"/>
                </g>
              </g>
              <g>
                <rect class="cls-50" x="183.24" y="133.53" width="37.05" height="37.05"/>
                <g class="cls-31">
                  <path class="cls-52" d="M212.88,133.53h3.71l-3.71,37.05h-3.71l3.71-37.05ZM201.77,170.59h3.71l3.71-37.05h-3.71l-3.71,37.05ZM194.36,170.59h3.71l3.71-37.05h-3.71l-3.71,37.05ZM186.95,170.59h3.71l3.71-37.05h-3.71l-3.71,37.05ZM216.59,170.59h3.71l3.71-37.05h-3.71l-3.71,37.05ZM179.54,170.59h3.71l3.71-37.05h-3.71l-3.71,37.05Z"/>
                </g>
              </g>
              <g>
                <rect class="cls-50" x="220.3" y="133.53" width="37.05" height="37.05"/>
                <g class="cls-32">
                  <path class="cls-52" d="M249.94,133.53h3.71l-3.71,37.05h-3.71l3.71-37.05ZM238.82,170.59h3.71l3.71-37.05h-3.71l-3.71,37.05ZM231.41,170.59h3.71l3.71-37.05h-3.71l-3.71,37.05ZM224,170.59h3.71l3.71-37.05h-3.71l-3.71,37.05ZM253.64,170.59h3.71l3.71-37.05h-3.71l-3.71,37.05ZM216.59,170.59h3.71l3.71-37.05h-3.71l-3.71,37.05Z"/>
                </g>
              </g>
              <g>
                <rect class="cls-50" x="257.35" y="133.53" width="37.05" height="37.05"/>
                <g class="cls-25">
                  <path class="cls-52" d="M286.99,133.53h3.71l-3.71,37.05h-3.71l3.71-37.05ZM275.88,170.59h3.71l3.71-37.05h-3.71l-3.71,37.05ZM268.47,170.59h3.71l3.71-37.05h-3.71l-3.71,37.05ZM261.06,170.59h3.71l3.71-37.05h-3.71l-3.71,37.05ZM290.7,170.59h3.71l3.71-37.05h-3.71l-3.71,37.05ZM253.65,170.59h3.71l3.71-37.05h-3.71l-3.71,37.05Z"/>
                </g>
              </g>
              <g>
                <rect class="cls-50" x="294.41" y="133.53" width="37.05" height="37.05"/>
                <g class="cls-23">
                  <path class="cls-52" d="M324.05,133.53h3.71l-3.71,37.05h-3.71l3.71-37.05ZM312.93,170.59h3.71l3.71-37.05h-3.71l-3.71,37.05ZM305.52,170.59h3.71l3.71-37.05h-3.71l-3.71,37.05ZM298.11,170.59h3.71l3.71-37.05h-3.71l-3.71,37.05ZM327.75,170.59h3.71l3.71-37.05h-3.71l-3.71,37.05ZM290.7,170.59h3.71l3.71-37.05h-3.71l-3.71,37.05Z"/>
                </g>
              </g>
            </g>
            <g>
              <g>
                <rect class="cls-50" x="-1.95" y="170.72" width="37.05" height="37.05"/>
                <g class="cls-26">
                  <path class="cls-52" d="M27.69,170.72h3.71l-3.71,37.05h-3.71l3.71-37.05ZM16.58,207.77h3.71l3.71-37.05h-3.71l-3.71,37.05ZM9.17,207.77h3.71l3.71-37.05h-3.71l-3.71,37.05ZM1.76,207.77h3.71l3.71-37.05h-3.71l-3.71,37.05ZM31.4,207.77h3.71l3.71-37.05h-3.71l-3.71,37.05ZM-5.65,207.77H-1.95l3.71-37.05H-1.95l-3.71,37.05Z"/>
                </g>
              </g>
              <g>
                <rect class="cls-50" x="35.1" y="170.68" width="37.05" height="37.05"/>
                <g class="cls-24">
                  <path class="cls-52" d="M64.75,170.68h3.71l-3.71,37.05h-3.71l3.71-37.05ZM53.63,207.73h3.71l3.71-37.05h-3.71l-3.71,37.05ZM46.22,207.73h3.71l3.71-37.05h-3.71l-3.71,37.05ZM38.81,207.73h3.71l3.71-37.05h-3.71l-3.71,37.05ZM68.45,207.73h3.71l3.71-37.05h-3.71l-3.71,37.05ZM31.4,207.73h3.71l3.71-37.05h-3.71l-3.71,37.05Z"/>
                </g>
              </g>
              <g>
                <rect class="cls-50" x="72.16" y="170.72" width="37.05" height="37.05"/>
                <g class="cls-19">
                  <path class="cls-52" d="M101.8,170.72h3.71l-3.71,37.05h-3.71l3.71-37.05ZM90.69,207.77h3.71l3.71-37.05h-3.71l-3.71,37.05ZM83.28,207.77h3.71l3.71-37.05h-3.71l-3.71,37.05ZM75.87,207.77h3.71l3.71-37.05h-3.71l-3.71,37.05ZM105.51,207.77h3.71l3.71-37.05h-3.71l-3.71,37.05ZM68.46,207.77h3.71l3.71-37.05h-3.71l-3.71,37.05Z"/>
                </g>
              </g>
              <g>
                <rect class="cls-50" x="109.22" y="170.68" width="37.05" height="37.05"/>
                <g class="cls-13">
                  <path class="cls-52" d="M138.86,170.68h3.71l-3.71,37.05h-3.71l3.71-37.05ZM127.74,207.73h3.71l3.71-37.05h-3.71l-3.71,37.05ZM120.33,207.73h3.71l3.71-37.05h-3.71l-3.71,37.05ZM112.92,207.73h3.71l3.71-37.05h-3.71l-3.71,37.05ZM142.56,207.73h3.71l3.71-37.05h-3.71l-3.71,37.05ZM105.51,207.73h3.71l3.71-37.05h-3.71l-3.71,37.05Z"/>
                </g>
              </g>
              <g>
                <rect class="cls-50" x="146.27" y="170.72" width="37.05" height="37.05"/>
                <g class="cls-14">
                  <path class="cls-52" d="M175.91,170.72h3.71l-3.71,37.05h-3.71l3.71-37.05ZM164.8,207.77h3.71l3.71-37.05h-3.71l-3.71,37.05ZM157.39,207.77h3.71l3.71-37.05h-3.71l-3.71,37.05ZM149.98,207.77h3.71l3.71-37.05h-3.71l-3.71,37.05ZM179.62,207.77h3.71l3.71-37.05h-3.71l-3.71,37.05ZM142.57,207.77h3.71l3.71-37.05h-3.71l-3.71,37.05Z"/>
                </g>
              </g>
              <g>
                <rect class="cls-50" x="183.24" y="170.68" width="37.05" height="37.05"/>
                <g class="cls-15">
                  <path class="cls-52" d="M212.88,170.68h3.71l-3.71,37.05h-3.71l3.71-37.05ZM201.77,207.73h3.71l3.71-37.05h-3.71l-3.71,37.05ZM194.36,207.73h3.71l3.71-37.05h-3.71l-3.71,37.05ZM186.95,207.73h3.71l3.71-37.05h-3.71l-3.71,37.05ZM216.59,207.73h3.71l3.71-37.05h-3.71l-3.71,37.05ZM179.54,207.73h3.71l3.71-37.05h-3.71l-3.71,37.05Z"/>
                </g>
              </g>
              <g>
                <rect class="cls-50" x="220.3" y="170.68" width="37.05" height="37.05"/>
                <g class="cls-16">
                  <path class="cls-52" d="M249.94,170.68h3.71l-3.71,37.05h-3.71l3.71-37.05ZM238.82,207.73h3.71l3.71-37.05h-3.71l-3.71,37.05ZM231.41,207.73h3.71l3.71-37.05h-3.71l-3.71,37.05ZM224,207.73h3.71l3.71-37.05h-3.71l-3.71,37.05ZM253.64,207.73h3.71l3.71-37.05h-3.71l-3.71,37.05ZM216.59,207.73h3.71l3.71-37.05h-3.71l-3.71,37.05Z"/>
                </g>
              </g>
              <g>
                <rect class="cls-50" x="257.35" y="170.68" width="37.05" height="37.05"/>
                <g class="cls-17">
                  <path class="cls-52" d="M286.99,170.68h3.71l-3.71,37.05h-3.71l3.71-37.05ZM275.88,207.73h3.71l3.71-37.05h-3.71l-3.71,37.05ZM268.47,207.73h3.71l3.71-37.05h-3.71l-3.71,37.05ZM261.06,207.73h3.71l3.71-37.05h-3.71l-3.71,37.05ZM290.7,207.73h3.71l3.71-37.05h-3.71l-3.71,37.05ZM253.65,207.73h3.71l3.71-37.05h-3.71l-3.71,37.05Z"/>
                </g>
              </g>
              <g>
                <rect class="cls-50" x="294.41" y="170.68" width="37.05" height="37.05"/>
                <g class="cls-20">
                  <path class="cls-52" d="M324.05,170.68h3.71l-3.71,37.05h-3.71l3.71-37.05ZM312.93,207.73h3.71l3.71-37.05h-3.71l-3.71,37.05ZM305.52,207.73h3.71l3.71-37.05h-3.71l-3.71,37.05ZM298.11,207.73h3.71l3.71-37.05h-3.71l-3.71,37.05ZM327.75,207.73h3.71l3.71-37.05h-3.71l-3.71,37.05ZM290.7,207.73h3.71l3.71-37.05h-3.71l-3.71,37.05Z"/>
                </g>
              </g>
            </g>
            <g>
              <g>
                <rect class="cls-50" x="-1.95" y="207.86" width="37.05" height="37.05"/>
                <g class="cls-21">
                  <path class="cls-52" d="M27.69,207.86h3.71l-3.71,37.05h-3.71l3.71-37.05ZM16.58,244.91h3.71l3.71-37.05h-3.71l-3.71,37.05ZM9.17,244.91h3.71l3.71-37.05h-3.71l-3.71,37.05ZM1.76,244.91h3.71l3.71-37.05h-3.71l-3.71,37.05ZM31.4,244.91h3.71l3.71-37.05h-3.71l-3.71,37.05ZM-5.65,244.91H-1.95l3.71-37.05H-1.95l-3.71,37.05Z"/>
                </g>
              </g>
              <g>
                <rect class="cls-50" x="35.1" y="207.83" width="37.05" height="37.05"/>
                <g class="cls-22">
                  <path class="cls-52" d="M64.75,207.83h3.71l-3.71,37.05h-3.71l3.71-37.05ZM53.63,244.88h3.71l3.71-37.05h-3.71l-3.71,37.05ZM46.22,244.88h3.71l3.71-37.05h-3.71l-3.71,37.05ZM38.81,244.88h3.71l3.71-37.05h-3.71l-3.71,37.05ZM68.45,244.88h3.71l3.71-37.05h-3.71l-3.71,37.05ZM31.4,244.88h3.71l3.71-37.05h-3.71l-3.71,37.05Z"/>
                </g>
              </g>
              <g>
                <rect class="cls-50" x="72.16" y="207.86" width="37.05" height="37.05"/>
                <g class="cls-18">
                  <path class="cls-52" d="M101.8,207.86h3.71l-3.71,37.05h-3.71l3.71-37.05ZM90.69,244.91h3.71l3.71-37.05h-3.71l-3.71,37.05ZM83.28,244.91h3.71l3.71-37.05h-3.71l-3.71,37.05ZM75.87,244.91h3.71l3.71-37.05h-3.71l-3.71,37.05ZM105.51,244.91h3.71l3.71-37.05h-3.71l-3.71,37.05ZM68.46,244.91h3.71l3.71-37.05h-3.71l-3.71,37.05Z"/>
                </g>
              </g>
              <g>
                <rect class="cls-50" x="109.22" y="207.83" width="37.05" height="37.05"/>
                <g class="cls-38">
                  <path class="cls-52" d="M138.86,207.83h3.71l-3.71,37.05h-3.71l3.71-37.05ZM127.74,244.88h3.71l3.71-37.05h-3.71l-3.71,37.05ZM120.33,244.88h3.71l3.71-37.05h-3.71l-3.71,37.05ZM112.92,244.88h3.71l3.71-37.05h-3.71l-3.71,37.05ZM142.56,244.88h3.71l3.71-37.05h-3.71l-3.71,37.05ZM105.51,244.88h3.71l3.71-37.05h-3.71l-3.71,37.05Z"/>
                </g>
              </g>
              <g>
                <rect class="cls-50" x="146.27" y="207.86" width="37.05" height="37.05"/>
                <g class="cls-33">
                  <path class="cls-52" d="M175.91,207.86h3.71l-3.71,37.05h-3.71l3.71-37.05ZM164.8,244.91h3.71l3.71-37.05h-3.71l-3.71,37.05ZM157.39,244.91h3.71l3.71-37.05h-3.71l-3.71,37.05ZM149.98,244.91h3.71l3.71-37.05h-3.71l-3.71,37.05ZM179.62,244.91h3.71l3.71-37.05h-3.71l-3.71,37.05ZM142.57,244.91h3.71l3.71-37.05h-3.71l-3.71,37.05Z"/>
                </g>
              </g>
              <g>
                <rect class="cls-50" x="183.24" y="207.83" width="37.05" height="37.05"/>
                <g class="cls-34">
                  <path class="cls-52" d="M212.88,207.83h3.71l-3.71,37.05h-3.71l3.71-37.05ZM201.77,244.88h3.71l3.71-37.05h-3.71l-3.71,37.05ZM194.36,244.88h3.71l3.71-37.05h-3.71l-3.71,37.05ZM186.95,244.88h3.71l3.71-37.05h-3.71l-3.71,37.05ZM216.59,244.88h3.71l3.71-37.05h-3.71l-3.71,37.05ZM179.54,244.88h3.71l3.71-37.05h-3.71l-3.71,37.05Z"/>
                </g>
              </g>
              <g>
                <rect class="cls-50" x="220.3" y="207.83" width="37.05" height="37.05"/>
                <g class="cls-35">
                  <path class="cls-52" d="M249.94,207.83h3.71l-3.71,37.05h-3.71l3.71-37.05ZM238.82,244.88h3.71l3.71-37.05h-3.71l-3.71,37.05ZM231.41,244.88h3.71l3.71-37.05h-3.71l-3.71,37.05ZM224,244.88h3.71l3.71-37.05h-3.71l-3.71,37.05ZM253.64,244.88h3.71l3.71-37.05h-3.71l-3.71,37.05ZM216.59,244.88h3.71l3.71-37.05h-3.71l-3.71,37.05Z"/>
                </g>
              </g>
              <g>
                <rect class="cls-50" x="257.35" y="207.83" width="37.05" height="37.05"/>
                <g class="cls-36">
                  <path class="cls-52" d="M286.99,207.83h3.71l-3.71,37.05h-3.71l3.71-37.05ZM275.88,244.88h3.71l3.71-37.05h-3.71l-3.71,37.05ZM268.47,244.88h3.71l3.71-37.05h-3.71l-3.71,37.05ZM261.06,244.88h3.71l3.71-37.05h-3.71l-3.71,37.05ZM290.7,244.88h3.71l3.71-37.05h-3.71l-3.71,37.05ZM253.65,244.88h3.71l3.71-37.05h-3.71l-3.71,37.05Z"/>
                </g>
              </g>
              <g>
                <rect class="cls-50" x="294.41" y="207.83" width="37.05" height="37.05"/>
                <g class="cls-37">
                  <path class="cls-52" d="M324.05,207.83h3.71l-3.71,37.05h-3.71l3.71-37.05ZM312.93,244.88h3.71l3.71-37.05h-3.71l-3.71,37.05ZM305.52,244.88h3.71l3.71-37.05h-3.71l-3.71,37.05ZM298.11,244.88h3.71l3.71-37.05h-3.71l-3.71,37.05ZM327.75,244.88h3.71l3.71-37.05h-3.71l-3.71,37.05ZM290.7,244.88h3.71l3.71-37.05h-3.71l-3.71,37.05Z"/>
                </g>
              </g>
            </g>
          </g>
        </g>
        <g>
          <g>
            <line class="cls-2" x1="124.09" y1="156.79" x2="168.97" y2="156.79"/>
            <line class="cls-2" x1="168.97" y1="159.14" x2="124.09" y2="159.14"/>
          </g>
          <polyline class="cls-2" points="40.56 159.78 91.96 159.78 91.96 158.5 91.96 156.88 85.04 156.88 85.04 148.47"/>
          <rect class="cls-2" x="135.99" y="156.79" width="3.31" height="2.3"/>
          <rect class="cls-2" x="155.7" y="156.79" width="3.31" height="2.3"/>
          <polyline class="cls-2" points="189.76 159.49 189.76 156.79 190.72 156.79 194.99 156.79"/>
          <polyline class="cls-2" points="184.77 159.49 184.77 156.79 174.77 156.79 174.77 167.07 119.98 167.07 119.98 159.78"/>
          <polyline class="cls-2" points="123.2 195.15 196.76 180.22 197.24 180.13 194.99 159.34"/>
          <line class="cls-2" x1="203.74" y1="109.33" x2="182.99" y2="109.33"/>
          <line class="cls-2" x1="199.51" y1="75.49" x2="203.54" y2="77.84"/>
          <line class="cls-2" x1="219.42" y1="114.26" x2="219.42" y2="146.96"/>
          <line class="cls-2" x1="219.42" y1="151.11" x2="219.42" y2="158.54"/>
          <line class="cls-2" x1="231.61" y1="114.26" x2="231.61" y2="146.96"/>
          <line class="cls-2" x1="231.61" y1="151.11" x2="231.61" y2="158.54"/>
          <path class="cls-2" d="M204.69,67.64l13.87,4.75.17-.27c3.85-5.9,16.57-17.11,18.75-19.01l6.68,8.05,4.79-3.57"/>
          <line class="cls-49" x1="219.73" y1="226.48" x2="218.78" y2="221.65"/>
          <line class="cls-49" x1="230.06" y1="224.35" x2="229.42" y2="221.09"/>
          <line class="cls-2" x1="205.85" y1="204.71" x2="193.95" y2="207.12"/>
          <polyline class="cls-2" points="196.47 219.95 208.77 217.5 207.39 210.48"/>
          <polyline class="cls-2" points="205.26 199.59 204.16 193.68 191.86 196.13 193.95 207.12 196.47 219.95 196.47 219.95 198.54 230.66 210.84 228.21 209.69 222.18"/>
          <polyline class="cls-49" points="211.01 175.59 210.84 178.4 214.09 195.51"/>
          <line class="cls-49" x1="225.43" y1="178.01" x2="211.41" y2="180.76"/>
          <line class="cls-49" x1="229.78" y1="184.74" x2="212.75" y2="188.16"/>
          <polyline class="cls-2" points="242.84 182.18 229.41 184.81 227.94 177.31"/>
          <line class="cls-49" x1="223.8" y1="191.81" x2="222.68" y2="186.13"/>
          <polyline class="cls-2" points="231.61 158.46 209.96 158.46 209.96 171.66"/>
          <line class="cls-49" x1="209.96" y1="167.21" x2="240.38" y2="167.07"/>
          <polyline class="cls-49" points="162.64 201.85 169.35 236.37 170.16 236.22"/>
          <line class="cls-49" x1="186.35" y1="196.96" x2="162.64" y2="201.85"/>
          <polyline class="cls-2" points="155.79 203.26 123.54 209.91 123.2 208.17 106.41 211.48"/>
          <polyline class="cls-2" points="129.37 244.21 130.18 244.05 123.54 209.91"/>
          <polyline class="cls-2" points="127.85 232.16 105.57 236.53 101.05 212.47 94.91 213.68"/>
          <polyline class="cls-2" points="88.03 215.16 81.4 216.53 87.44 245.11"/>
          <path class="cls-2" d="M102.54,148.47h15.72v-39.14M118.2,122.98l-69.04-.12v25.62h53.83v8.86h-6.9v2.46h13.06v-2.46h-6.16"/>
          <polyline class="cls-2" points="118.26 148.47 120.99 148.47 120.99 109.33"/>
          <g>
            <line class="cls-49" x1="120.34" y1="194.54" x2="118.24" y2="159.55"/>
            <line class="cls-49" x1="120.15" y1="194.54" x2="117" y2="159.82"/>
          </g>
          <polyline class="cls-49" points="79.01 204.93 53.74 210.14 53.2 207.33 122.89 193.68 123.4 196.06 95.97 201.39"/>
          <rect class="cls-2" x="115.79" y="156.79" width="4.82" height="3"/>
          <line class="cls-49" x1="290.07" y1="71.64" x2="279.85" y2="46.58"/>
          <path class="cls-2" d="M235.08,78.73c-4.33,5-9.19,10.53-11.75,17.28"/>
          <polyline class="cls-2" points="248.06 102.71 245.82 101.19 243.61 104.55 224.68 92.86"/>
          <path class="cls-2" d="M257.89,92.03l-18.52-18.45c4.74-4.62,9.52-8.16,9.56-8.19"/>
          <polyline class="cls-2" points="196.36 171.66 199.8 171.34 198.07 166.55 198.07 158.93"/>
          <polygon class="cls-2" points="198.07 158.98 194.99 158.98 194.99 158.14 194.99 156.79 198.07 156.79 198.07 158.98"/>
          <path class="cls-2" d="M231.61,158.54h8.11l.12,5.07,3.35,21.22,6.84,35.73L14.06,266.81l-9.49-48.4,40.38-7.91-4.38-51.86h-2.25v-49.32h144.73c10.79-31.65,30.95-57.83,58.91-77.16l13.34,19.37c18.97-13.75,36.46-18.5,45.63-20.41l8.54,42.12c-5.9,1.22-16.56,5.02-16.56,5.02l-2.91-6.76s-32.97,10.93-49.36,42.77h-21.99v-2.57l2.24-9.03h1.52v9.69s15.62,0,15.62,0v-5.81s2.43-3.94,2.43-3.94"/>
          <g>
            <g>
              <rect class="cls-2" x="128.23" y="159.14" width="2.67" height="7.93"/>
              <rect class="cls-2" x="130.83" y="159.14" width="2.67" height="7.93"/>
              <rect class="cls-2" x="133.44" y="159.14" width="2.67" height="7.93"/>
              <rect class="cls-2" x="136.04" y="159.14" width="2.67" height="7.93"/>
              <rect class="cls-2" x="138.64" y="159.14" width="2.67" height="7.93"/>
              <rect class="cls-2" x="141.24" y="159.14" width="2.67" height="7.93"/>
            </g>
            <g>
              <rect class="cls-2" x="151.44" y="159.14" width="2.67" height="7.93"/>
              <rect class="cls-2" x="154.04" y="159.14" width="2.67" height="7.93"/>
              <rect class="cls-2" x="156.64" y="159.14" width="2.67" height="7.93"/>
              <rect class="cls-2" x="159.25" y="159.14" width="2.67" height="7.93"/>
              <rect class="cls-2" x="161.85" y="159.14" width="2.67" height="7.93"/>
              <rect class="cls-2" x="164.44" y="159.14" width="2.67" height="7.93"/>
            </g>
          </g>
          <polyline class="cls-2" points="246.52 202.25 227.18 205.95 225.83 199.05 225.8 199.05 225.8 199.05 214.98 201.17 215.12 201.84 215.14 201.84 216.61 209.39"/>
          <polyline class="cls-2" points="216.96 211.14 217.56 214.21 217.53 214.21 217.66 214.88 217.69 214.88 217.69 214.88 218.36 214.75 218.36 214.75 228.48 212.76 228.45 212.61 228.48 212.61 227.18 205.95"/>
          <g>
            <rect class="cls-2" x="204.57" y="78.32" width="2.67" height="7.93" transform="translate(31.32 219) rotate(-59.85)"/>
            <rect class="cls-2" x="205.88" y="76.07" width="2.67" height="7.93" transform="translate(33.92 219.01) rotate(-59.85)"/>
            <rect class="cls-2" x="207.19" y="73.82" width="2.67" height="7.93" transform="translate(36.52 219.02) rotate(-59.85)"/>
            <rect class="cls-2" x="208.5" y="71.57" width="2.67" height="7.93" transform="translate(39.12 219.03) rotate(-59.85)"/>
            <rect class="cls-2" x="209.8" y="69.32" width="2.67" height="7.93" transform="translate(41.71 219.04) rotate(-59.85)"/>
            <polygon class="cls-2" points="216.54 71.88 215.2 74.19 208.34 70.21 208.98 69.11 216.54 71.88"/>
          </g>
        </g>
      </g>
    </g>
  </g>
</svg>