<?xml version="1.0" encoding="UTF-8"?>
<svg id="_레이어_1" data-name="레이어 1" xmlns="http://www.w3.org/2000/svg" width="512" height="512" viewBox="0 0 512 512">
  <defs>
    <style>
      .cls-1 {
        fill: #beeafc;
        stroke: #beeafc;
        stroke-miterlimit: 10;
        stroke-width: 5px;
      }

      .cls-2 {
        fill: #f9f3a5;
      }
    </style>
  </defs>
  <rect class="cls-2" x="0" y="0" width="255.87" height="255.87"/>
  <rect class="cls-2" x="255.47" y="0" width="255.87" height="255.87"/>
  <rect class="cls-2" x="0" y="255.73" width="255.87" height="255.87"/>
  <rect class="cls-2" x="255.47" y="255.73" width="255.87" height="255.87"/>
  <g>
    <rect class="cls-1" x="86.34" width="3" height="255.87"/>
    <rect class="cls-1" x="171.63" width="3" height="255.87"/>
    <rect class="cls-1" x="2.55" y="0" width="3" height="255.87"/>
    <rect class="cls-1" x="2.55" y="169.08" width="255.87" height="3"/>
    <rect class="cls-1" x="2.55" y="83.79" width="255.87" height="3"/>
    <rect class="cls-1" x="2.55" y="169.08" width="255.87" height="3"/>
    <rect class="cls-1" x="2.55" y="252.84" width="255.87" height="3.03"/>
  </g>
  <g>
    <rect class="cls-1" x="341.81" width="3" height="255.87"/>
    <rect class="cls-1" x="427.1" width="3" height="255.87"/>
    <rect class="cls-1" x="258.02" y="0" width="3" height="255.87"/>
    <rect class="cls-1" x="258.02" y="169.08" width="255.87" height="3"/>
    <rect class="cls-1" x="258.02" y="83.79" width="255.87" height="3"/>
    <rect class="cls-1" x="258.02" y="169.08" width="255.87" height="3"/>
    <rect class="cls-1" x="258.02" y="252.84" width="255.87" height="3.03"/>
  </g>
  <g>
    <rect class="cls-1" x="86.34" y="255.73" width="3" height="255.87"/>
    <rect class="cls-1" x="171.63" y="255.73" width="3" height="255.87"/>
    <rect class="cls-1" x="2.55" y="255.73" width="3" height="255.87"/>
    <rect class="cls-1" x="2.55" y="424.82" width="255.87" height="3"/>
    <rect class="cls-1" x="2.55" y="339.52" width="255.87" height="3"/>
    <rect class="cls-1" x="2.55" y="424.82" width="255.87" height="3"/>
    <rect class="cls-1" x="2.55" y="508.57" width="255.87" height="3.03"/>
  </g>
  <g>
    <rect class="cls-1" x="341.81" y="255.73" width="3" height="255.87"/>
    <rect class="cls-1" x="427.1" y="255.73" width="3" height="255.87"/>
    <rect class="cls-1" x="258.02" y="255.73" width="3" height="255.87"/>
    <rect class="cls-1" x="258.02" y="424.82" width="255.87" height="3"/>
    <rect class="cls-1" x="258.02" y="339.52" width="255.87" height="3"/>
    <rect class="cls-1" x="258.02" y="424.82" width="255.87" height="3"/>
    <rect class="cls-1" x="258.02" y="508.57" width="255.87" height="3.03"/>
  </g>
</svg>