<?xml version="1.0" encoding="UTF-8"?>
<svg id="_레이어_2" data-name="레이어 2" xmlns="http://www.w3.org/2000/svg" width="234.79" height="97.68" xmlns:xlink="http://www.w3.org/1999/xlink" viewBox="0 0 234.79 97.68">
  <defs>
    <style>
      .cls-1, .cls-2, .cls-3 {
        fill: none;
      }

      .cls-4 {
        fill: #a8a2a0;
      }

      .cls-5 {
        fill: #474747;
      }

      .cls-6 {
        fill: #ff991d;
      }

      .cls-2 {
        stroke: #d2cccb;
        stroke-width: .78px;
      }

      .cls-2, .cls-3 {
        stroke-miterlimit: 10;
      }

      .cls-7 {
        clip-path: url(#clippath-1);
      }

      .cls-8 {
        fill: #ffb700;
      }

      .cls-9 {
        clip-path: url(#clippath);
      }

      .cls-3 {
        stroke: #474747;
        stroke-width: 1.5px;
      }

      .cls-10 {
        fill: #d2cccb;
      }
    </style>
    <clipPath id="clippath">
      <polygon class="cls-1" points="20.48 86.27 15.75 86.27 12.41 89.61 12.41 94.34 15.75 97.68 20.48 97.68 23.82 94.34 23.82 89.61 20.48 86.27"/>
    </clipPath>
    <clipPath id="clippath-1">
      <polygon class="cls-1" points="76.2 86.27 71.47 86.27 68.13 89.61 68.13 94.34 71.47 97.68 76.2 97.68 79.54 94.34 79.54 89.61 76.2 86.27"/>
    </clipPath>
  </defs>
  <g id="_레이어_1-2" data-name="레이어 1">
    <g>
      <g>
        <g>
          <path class="cls-4" d="M84.87,91.5H1.66l-1.66-1.66V1.66L1.66,0h83.22l1.66,1.66v88.19l-1.66,1.66Z"/>
          <g>
            <polygon class="cls-4" points="20.01 85.8 15.28 85.8 11.94 89.14 11.94 93.87 15.28 97.21 20.01 97.21 23.35 93.87 23.35 89.14 20.01 85.8"/>
            <polygon class="cls-4" points="75.72 85.8 71 85.8 67.65 89.14 67.65 93.87 71 97.21 75.72 97.21 79.07 93.87 79.07 89.14 75.72 85.8"/>
          </g>
          <polygon class="cls-4" points="20.48 86.27 15.75 86.27 12.41 89.61 12.41 94.34 15.75 97.68 20.48 97.68 23.82 94.34 23.82 89.61 20.48 86.27"/>
          <polygon class="cls-4" points="76.2 86.27 71.47 86.27 68.13 89.61 68.13 94.34 71.47 97.68 76.2 97.68 79.54 94.34 79.54 89.61 76.2 86.27"/>
          <path class="cls-10" d="M88.29,91.5H5.08l-1.66-1.66V1.66l1.66-1.66h83.22l1.66,1.66v88.19l-1.66,1.66Z"/>
          <rect class="cls-4" x="11.75" y="7.91" width="34.93" height="42.51"/>
          <g class="cls-9">
            <line class="cls-2" x1="13.63" y1="96.41" x2="13.63" y2="86.63"/>
          </g>
          <g class="cls-7">
            <line class="cls-2" x1="69.35" y1="96.41" x2="69.35" y2="86.63"/>
          </g>
        </g>
        <g>
          <g>
            <rect class="cls-6" x="69.54" y="50.7" width="29.04" height="29.04" transform="translate(168.12 130.44) rotate(180)"/>
            <path class="cls-8" d="M93.74,50.7h4.84v29.04h-29.04v-4.84c0-13.36,10.84-24.2,24.2-24.2Z"/>
          </g>
          <rect class="cls-6" x="98.58" y="38.92" width="11.78" height="11.78" transform="translate(208.94 89.62) rotate(180)"/>
        </g>
      </g>
      <g>
        <path class="cls-5" d="M145.23,54.48h-5.66v3.37c2.59-.02,4.83-.13,7.37-.56l.2,1.69c-2.79.51-5.23.61-8.2.62h-1.44v-6.8h5.66v-2.98h-5.67v-1.71h7.75v6.37ZM150.3,63.59h-2.06v-16.96h2.06v16.96Z"/>
        <path class="cls-5" d="M167.32,61.53h-15.01v-1.74h6.46v-3.65h-4.82v-8.19h11.66v8.19h-4.8v3.65h6.51v1.74ZM155.95,54.45h7.66v-4.82h-7.66v4.82Z"/>
        <path class="cls-5" d="M175.13,49.18h-4.37v4.12c1.98,0,3.34-.07,4.93-.36l.15,1.67c-1.86.34-3.4.36-5.97.36h-1.13v-7.48h6.38v1.69ZM182.18,60.48h-9.19v1.22h9.71v1.67h-11.73v-4.44h9.19v-1.12h-9.2v-1.63h11.22v4.31ZM178.89,55.42h-1.91v-3.56h-2.82v-1.59h2.82v-3.32h1.91v8.47ZM182.18,55.53h-1.95v-8.88h1.95v8.88Z"/>
        <path class="cls-5" d="M192.16,52.65h-5.55v1.8c2.83-.02,4.85-.1,7.17-.49l.24,1.69c-2.56.44-4.74.52-8,.51h-1.4v-5.1h5.53v-1.69h-5.57v-1.71h7.58v4.98ZM197.56,60.41c0,2-2.16,3.16-5.64,3.15-3.49,0-5.63-1.15-5.62-3.15,0-1.98,2.12-3.12,5.62-3.11,3.49,0,5.63,1.13,5.64,3.11ZM188.32,60.41c0,.99,1.27,1.51,3.6,1.5,2.31,0,3.58-.51,3.58-1.5s-1.29-1.47-3.58-1.46c-2.31,0-3.6.5-3.6,1.46ZM197.45,56.96h-2.06v-10.31h2.06v10.31Z"/>
        <path class="cls-5" d="M218.61,55.98h-14.93v-1.69h5.77v-3.05h2.04v3.05h7.13v1.69ZM216.91,60.39c0,1.97-2.28,3.17-5.84,3.17s-5.84-1.2-5.84-3.17,2.28-3.17,5.84-3.17,5.84,1.2,5.84,3.17ZM216.8,48.83c0,1.35,0,2.77-.45,4.52l-2.02-.23c.42-1.6.45-2.79.44-4.01h-9.37v-1.69h11.4v1.41ZM207.27,60.39c0,1,1.43,1.56,3.8,1.56,2.37,0,3.81-.55,3.82-1.56,0-1-1.43-1.56-3.82-1.57-2.38,0-3.8.57-3.8,1.57Z"/>
        <path class="cls-5" d="M229.25,58.05l-1.24,1.69c-1.76-.95-3.04-2.73-3.73-4.89-.75,2.31-2.09,4.22-3.97,5.19l-1.24-1.69c2.65-1.31,4.16-4.55,4.15-7.68v-2.66h2.06v2.66c0,3.02,1.42,6.09,3.97,7.38ZM232.26,53.27h2.53v1.76h-2.53v8.53h-2.06v-16.9h2.06v6.61Z"/>
        <path class="cls-5" d="M145.37,79.27h2.93v-3.82h2.06v9.07h-2.06v-3.54h-2.91c-.39,1.9-2.08,3.18-4.26,3.17-2.49,0-4.34-1.64-4.33-3.99,0-2.32,1.84-3.98,4.33-3.99,2.15,0,3.83,1.26,4.24,3.11ZM138.75,80.16c0,1.36.99,2.24,2.38,2.25,1.36,0,2.36-.89,2.36-2.25s-1-2.23-2.36-2.23-2.37.87-2.38,2.23ZM141.55,87.11h6.77v-1.8h2.04v6.86h-10.86v-6.86h2.06v1.8ZM148.32,90.46v-1.74h-6.77v1.74h6.77Z"/>
        <path class="cls-5" d="M167.3,90.07h-14.99v-1.74h14.99v1.74ZM165.39,78.97c0,2.3,0,4.65-.6,8.19l-2.06-.21c.63-3.31.63-5.76.62-7.98v-.21h-9.48v-1.69h11.51v1.89Z"/>
        <path class="cls-5" d="M174.36,83.43h-3.87v3.17c1.69-.03,3.27-.11,5.13-.43l.16,1.71c-2.2.38-4.04.45-6.11.45h-1.16v-6.56h3.89v-2.9h-3.91v-1.69h5.88v6.26ZM178.78,91.51h-1.91v-8.47h-1.8v-1.74h1.8v-5.51h1.91v15.72ZM182.2,92.35h-1.96v-16.92h1.96v16.92Z"/>
        <path class="cls-5" d="M192.87,82.65c0,3.66-1.81,6-4.31,6s-4.29-2.33-4.29-6,1.82-5.99,4.29-6c2.5,0,4.3,2.34,4.31,6ZM186.23,82.65c0,2.6.95,4.09,2.33,4.1,1.39,0,2.34-1.51,2.35-4.1,0-2.59-.96-4.08-2.35-4.08-1.38,0-2.32,1.5-2.33,4.08ZM197.42,92.39h-2.04v-16.96h2.04v16.96Z"/>
        <path class="cls-5" d="M214.49,90.24h-15.01v-1.72h15.01v1.72ZM212.83,85.05h-11.55v-8.15h11.4v1.71h-9.37v4.74h9.51v1.71Z"/>
      </g>
      <g>
        <path class="cls-5" d="M145.96,7.82h2.73v11.03h-2.73v-7.92h-.04c-.86.72-1.73,1.39-2.54,1.81v-2.86c.85-.55,1.71-1.21,2.58-2.06Z"/>
        <path class="cls-5" d="M158.4,15.71l-1.27,1.89c-1.4-.64-2.33-1.83-2.9-3.23-.58,1.52-1.57,2.8-3.09,3.47l-1.27-1.92c2.37-1.08,3.12-3.46,3.13-5.38v-.14h-2.6v-1.93h2.6v-1.83h2.41v1.83h2.56v1.93h-2.56v.14c0,1.84.72,4.07,2.98,5.16ZM161.12,11.55h1.83v2.03h-1.83v6.78h-2.41V6.29h2.41v5.27Z"/>
        <path class="cls-5" d="M178.74,18.83h-12.47v-2.01h5.02v-2.5h-3.83v-7.1h10v7.1h-3.78v2.5h5.05v2.01ZM169.85,12.38h5.24v-3.18h-5.24v3.18Z"/>
        <path class="cls-5" d="M190.15,8.01c0,1.13,0,2.28-.3,3.81h1.67v1.95h-12.47v-1.95h8.4c.24-1.19.3-2.14.31-3.03h-7.22v-1.95h9.6v1.17ZM190.03,20.23h-9.56v-5.27h9.56v5.27ZM182.82,18.29h4.84v-1.4h-4.84v1.4Z"/>
      </g>
      <rect class="cls-3" x="134.4" y="1.44" width="66.31" height="24.62" rx="8.57" ry="8.57"/>
    </g>
  </g>
</svg>