<?xml version="1.0" encoding="UTF-8"?>
<svg id="_레이어_2" data-name="레이어 2" xmlns="http://www.w3.org/2000/svg" width="290.82" height="91.7" viewBox="0 0 290.82 91.7">
  <defs>
    <style>
      .cls-1 {
        fill: #a8a2a0;
      }

      .cls-2 {
        fill: #474747;
      }

      .cls-3 {
        fill: #ff86b5;
      }

      .cls-4 {
        fill: #ff5b91;
      }

      .cls-5 {
        fill: none;
        stroke: #474747;
        stroke-miterlimit: 10;
        stroke-width: 1.5px;
      }

      .cls-6 {
        fill: #d2cccb;
      }
    </style>
  </defs>
  <g id="_레이어_1-2" data-name="레이어 1">
    <g>
      <g>
        <g>
          <path class="cls-1" d="M57.14,83.33h-22.96c-.43-.49-.63-.71-1.06-1.21l4.82-22.54h15.44l4.82,22.54-1.06,1.21Z"/>
          <path class="cls-6" d="M59.82,83.33h-22.96l-1.06-1.21,4.82-22.54h15.44l4.82,22.54c-.43.49-.63.71-1.06,1.21Z"/>
          <path class="cls-1" d="M87.42,62.24H3.91l-3.91-3.91V6.96l3.91-3.91h83.51l3.91,3.91v51.37l-3.91,3.91Z"/>
          <path class="cls-6" d="M90.09,62.24H6.58l-3.91-3.91V6.96l3.91-3.91h83.51l3.91,3.91v51.37l-3.91,3.91Z"/>
          <polygon class="cls-1" points="90.09 62.24 6.57 62.24 2.67 58.34 2.67 51.34 94 51.34 94 58.34 90.09 62.24"/>
          <rect class="cls-6" x="46.32" y="54.75" width="4" height="4" transform="translate(54.28 -17.55) rotate(45)"/>
          <path class="cls-1" d="M76.26,89.46H20.41l-.61-.61v-7.54l.61-.61h55.86l.61.61v7.54l-.61.61Z"/>
          <path class="cls-6" d="M76.26,89.46H22.56l-.61-.61v-7.54l.61-.61h53.7l.61.61v7.54l-.61.61Z"/>
          <rect class="cls-1" x="35.61" y="79.49" width="19.41" height="1.2"/>
        </g>
        <g>
          <g>
            <rect class="cls-4" x="73.59" y="15.87" width="29.04" height="29.04" transform="translate(176.22 60.78) rotate(180)"/>
            <rect class="cls-3" x="79.43" y="15.87" width="4.51" height="29"/>
            <rect class="cls-3" x="92.28" y="15.87" width="4.51" height="29"/>
          </g>
          <rect class="cls-4" x="102.63" y="4.09" width="11.78" height="11.78" transform="translate(217.04 19.96) rotate(180)"/>
        </g>
      </g>
      <g>
        <path class="cls-2" d="M142.77,59.82l-1.15-1.59c3.93-2.05,6.11-4.9,6.51-8.81h-5.66v-1.72h7.73c0,4.98-1.98,9.33-7.44,12.12ZM154.57,52.55h2.44v1.74h-2.44v8.54h-2.06v-16.9h2.06v6.61Z"/>
        <path class="cls-2" d="M170.55,48.45c0,1.6,0,3.34-.42,5.75h2.27v1.71h-6.53v6.97h-2.06v-6.97h-6.4v-1.71h10.66c.45-2.29.46-4.03.47-5.57h-9.35v-1.67h11.35v1.48Z"/>
        <path class="cls-2" d="M174.8,63.91h-1.87l1.27-4.85h2.29l-1.69,4.85Z"/>
        <path class="cls-2" d="M191.75,48.6h-3.44c.03,1.97,1.44,3.89,4,4.67l-1,1.63c-1.9-.58-3.27-1.81-4.02-3.39-.75,1.71-2.15,3.04-4.11,3.69l-1.02-1.67c2.63-.8,4.02-2.84,4.06-4.93h-3.51v-1.67h9.04v1.67ZM186.88,57.59h6.84v-1.71h2.04v6.78h-10.9v-6.78h2.02v1.71ZM193.71,60.97v-1.72h-6.84v1.72h6.84ZM195.75,55.12h-2.06v-9.16h2.06v9.16Z"/>
        <path class="cls-2" d="M198.96,59.9l-1.09-1.69c4.3-2.1,6.28-4.95,6.64-8.81h-5.8v-1.69h7.88c0,5.07-1.87,9.33-7.62,12.18ZM211.49,62.86h-2.04v-16.92h2.04v16.92Z"/>
        <path class="cls-2" d="M215.16,63.91h-1.87l1.27-4.85h2.29l-1.69,4.85Z"/>
        <path class="cls-2" d="M151.55,86.15l-1.24,1.69c-1.76-.95-3.04-2.73-3.73-4.89-.75,2.31-2.09,4.22-3.97,5.19l-1.24-1.69c2.65-1.31,4.16-4.55,4.15-7.68v-2.66h2.06v2.66c0,3.02,1.42,6.09,3.97,7.38ZM154.57,81.37h2.53v1.76h-2.53v8.53h-2.06v-16.9h2.06v6.61Z"/>
        <path class="cls-2" d="M166.53,81.95c0,3.66-1.81,6-4.31,6s-4.29-2.33-4.29-6,1.82-5.99,4.29-6c2.5,0,4.3,2.34,4.31,6ZM159.89,81.95c0,2.6.95,4.09,2.33,4.1,1.39,0,2.34-1.51,2.35-4.1,0-2.59-.96-4.08-2.35-4.08-1.38,0-2.32,1.5-2.33,4.08ZM171.08,91.7h-2.04v-16.96h2.04v16.96Z"/>
        <path class="cls-2" d="M176.11,85.63c2.26-.03,4.74-.22,7.26-.75l.25,1.76c-2.86.6-5.57.8-8.11.79h-1.44v-11.06h2.04v9.26ZM186.87,91.66h-2.04v-16.92h2.04v16.92Z"/>
        <path class="cls-2" d="M199.31,86.37l-1.15,1.67c-1.91-.87-3.34-2.65-4.09-4.8-.75,2.32-2.18,4.27-4.13,5.21l-1.16-1.67c2.62-1.23,4.22-4.38,4.22-7.25v-1.39h-3.6v-1.74h9.28v1.74h-3.6v1.39c0,2.77,1.59,5.7,4.24,6.84ZM202.53,91.66h-2.04v-16.9h2.04v16.9Z"/>
        <path class="cls-2" d="M219.23,86.21l-1.2,1.71c-1.91-.93-3.29-2.73-4.04-4.95-.76,2.39-2.18,4.33-4.17,5.3l-1.24-1.74c2.73-1.25,4.34-4.5,4.33-7.76v-2.66h2.06v2.66c0,3.16,1.59,6.24,4.26,7.44ZM222.43,91.7h-2.04v-16.96h2.04v16.96Z"/>
        <path class="cls-2" d="M239.5,89.52h-15.01v-1.72h15.01v1.72ZM238.9,82.89l-.89,1.76c-2.76-.59-5.02-2.3-6.09-4.57-1.08,2.26-3.32,3.99-6.08,4.57l-.89-1.76c3.41-.63,5.88-3.27,5.87-5.85v-1.26h2.18v1.26c0,2.61,2.46,5.24,5.89,5.85Z"/>
        <path class="cls-2" d="M247.15,77.46h-4.29v1.61h3.67v1.61h-3.67v1.74c1.95-.02,3.34-.1,4.93-.39l.18,1.65c-1.88.37-3.46.41-5.98.41h-1.09v-8.3h6.26v1.67ZM254.28,91.47h-11.11v-5.88h11.11v5.88ZM245.19,89.79h7.09v-2.53h-7.09v2.53ZM251.02,84.73h-1.93v-4.14h-1.84v-1.71h1.84v-3.88h1.93v9.72ZM254.28,84.86h-1.95v-10.1h1.95v10.1Z"/>
        <path class="cls-2" d="M273.26,77.25c0,1.6,0,3.34-.42,5.75h2.27v1.71h-6.53v6.97h-2.06v-6.97h-6.4v-1.71h10.66c.45-2.29.46-4.03.47-5.57h-9.35v-1.67h11.35v1.48Z"/>
        <path class="cls-2" d="M290.82,84.82h-6.48v1.61h4.66v5.21h-2.06v-3.54h-9.46v-1.67h4.82v-1.61h-6.48v-1.69h14.99v1.69ZM284.34,76.33h5v1.63h-4.86c.22,1.41,2.13,2.61,5.58,2.87l-.62,1.59c-2.94-.25-5.11-1.18-6.13-2.64-1.04,1.46-3.21,2.39-6.15,2.64l-.62-1.59c3.46-.25,5.37-1.45,5.62-2.87h-4.88v-1.63h5v-1.61h2.04v1.61Z"/>
      </g>
      <g>
        <path class="cls-2" d="M153.21,11.08c0-.78-.46-1.36-1.27-1.37-.59,0-1.12.33-1.36,1.39l-2.61-.62c.51-2.2,1.99-3.27,3.97-3.27,2.57,0,3.97,1.77,3.97,3.79,0,1.71-1.09,3.33-3.6,4.89v.06h3.75v2.5h-7.95v-2.44c3.58-2.06,5.1-3.5,5.1-4.92Z"/>
        <path class="cls-2" d="M165.01,15.3l-1.27,1.89c-1.4-.64-2.33-1.83-2.9-3.23-.58,1.52-1.57,2.8-3.09,3.47l-1.27-1.92c2.37-1.08,3.12-3.46,3.13-5.38v-.14h-2.6v-1.93h2.6v-1.83h2.41v1.83h2.56v1.93h-2.56v.14c0,1.84.72,4.07,2.98,5.16ZM167.73,11.14h1.83v2.03h-1.83v6.78h-2.41V5.87h2.41v5.27Z"/>
        <path class="cls-2" d="M185.35,18.42h-12.47v-2.01h5.02v-2.5h-3.83v-7.1h10v7.1h-3.78v2.5h5.05v2.01ZM176.46,11.97h5.24v-3.18h-5.24v3.18Z"/>
        <path class="cls-2" d="M196.76,7.59c0,1.13,0,2.28-.3,3.81h1.67v1.95h-12.47v-1.95h8.4c.24-1.19.3-2.14.31-3.03h-7.22v-1.95h9.6v1.17ZM196.64,19.82h-9.56v-5.27h9.56v5.27ZM189.43,17.87h4.84v-1.4h-4.84v1.4Z"/>
      </g>
      <rect class="cls-5" x="139.34" y=".75" width="66.31" height="24.62" rx="8.57" ry="8.57"/>
    </g>
  </g>
</svg>