<?xml version="1.0" encoding="UTF-8"?>
<svg id="_레이어_2" data-name="레이어 2" xmlns="http://www.w3.org/2000/svg" width="247.83" height="91.7" xmlns:xlink="http://www.w3.org/1999/xlink" viewBox="0 0 247.83 91.7">
  <defs>
    <style>
      .cls-1, .cls-2, .cls-3, .cls-4 {
        fill: none;
      }

      .cls-5 {
        fill: #a8a2a0;
      }

      .cls-6 {
        fill: #474747;
      }

      .cls-2 {
        stroke: #d2cccb;
        stroke-width: .76px;
      }

      .cls-2, .cls-3, .cls-4 {
        stroke-miterlimit: 10;
      }

      .cls-3 {
        stroke: #a8a2a0;
        stroke-width: 1.01px;
      }

      .cls-7 {
        fill: #0e7;
      }

      .cls-8 {
        fill: #17c675;
      }

      .cls-9 {
        clip-path: url(#clippath);
      }

      .cls-4 {
        stroke: #474747;
        stroke-width: 1.5px;
      }

      .cls-10 {
        fill: #d2cccb;
      }
    </style>
    <clipPath id="clippath">
      <polygon class="cls-1" points="43.2 70.84 41.58 66.92 36.65 67.65 32.77 63.77 23.16 63.77 19.27 67.65 14.34 66.92 12.73 70.84 14.34 74.76 16.36 75.06 16.36 80.18 23.16 86.98 32.77 86.98 39.57 80.18 39.57 75.06 41.58 74.76 43.2 70.84"/>
    </clipPath>
  </defs>
  <g id="_레이어_1-2" data-name="레이어 1">
    <g>
      <g>
        <g>
          <rect class="cls-7" x="78.5" y="14.22" width="15.63" height="15.63" transform="translate(64.28 108.35) rotate(-90)"/>
          <rect class="cls-8" x="48.31" y="29.85" width="30.22" height="30.22" transform="translate(18.45 108.38) rotate(-90)"/>
          <rect class="cls-7" x="48.31" y="44.96" width="15.11" height="15.11" transform="translate(3.34 108.38) rotate(-90)"/>
          <rect class="cls-7" x="63.42" y="29.85" width="15.11" height="15.11" transform="translate(33.56 108.38) rotate(-90)"/>
        </g>
        <g>
          <polygon class="cls-5" points="14.34 66.92 27.96 64.88 41.58 66.92 27.96 68.95 14.34 66.92"/>
          <polygon class="cls-10" points="39.55 3.1 16.38 3.1 0 19.48 0 42.64 16.38 59.02 39.55 59.02 55.93 42.64 55.93 19.48 39.55 3.1"/>
          <polygon class="cls-5" points="32.77 63.77 23.16 63.77 16.36 70.57 16.36 80.18 23.16 86.98 32.77 86.98 39.57 80.18 39.57 70.57 32.77 63.77"/>
          <rect class="cls-10" x="16.36" y="58.9" width="23.21" height="10.52"/>
          <polygon class="cls-5" points="41.58 74.76 27.96 76.79 14.34 74.76 12.73 70.84 14.34 66.92 27.96 68.95 41.58 66.92 43.2 70.84 41.58 74.76"/>
          <path class="cls-5" d="M30.27,46.92l-1.36-1.16h-1.9l-1.36,1.16v23.87h4.61v-23.87Z"/>
          <polyline class="cls-3" points="27.2 48.73 16.54 35.83 16.54 31.06"/>
          <polyline class="cls-3" points="29.01 48.73 39.67 35.83 39.67 31.06"/>
          <line class="cls-3" x1="16.54" y1="33.87" x2="39.67" y2="33.87"/>
          <g class="cls-9">
            <line class="cls-2" x1="15.25" y1="75.34" x2="27.96" y2="77.24"/>
          </g>
        </g>
      </g>
      <g>
        <path class="cls-6" d="M128.17,53.88l-.93,1.65c-1.9-.53-3.27-1.67-4.02-3.13-.73,1.59-2.1,2.84-4.06,3.43l-.96-1.65c2.61-.75,3.96-2.65,3.97-4.65v-.15h-3.42v-1.65h3.42v-1.85h2.04v1.85h3.42v1.65h-3.42v.15c0,1.86,1.39,3.64,3.96,4.35ZM132.06,62.67h-10.93v-5.98h10.93v5.98ZM123.13,60.99h6.93v-2.64h-6.93v2.64ZM132.06,55.89h-2.06v-3.71h-2.8v-1.71h2.8v-4.52h2.06v9.93Z"/>
        <path class="cls-6" d="M142.07,49.01h-5.35v4.61c3.1-.02,4.8-.12,6.73-.52l.22,1.67c-2.1.47-3.97.58-7.66.58h-1.33v-8.02h7.38v1.69ZM147.64,62.54h-11.2v-5.62h2.06v3.92h9.15v1.71ZM146.96,50.72h2.31v1.72h-2.31v5.73h-2.04v-12.24h2.04v4.78Z"/>
        <path class="cls-6" d="M150.92,59.9l-1.09-1.69c4.3-2.1,6.28-4.95,6.64-8.81h-5.8v-1.69h7.88c0,5.07-1.87,9.33-7.62,12.18ZM163.45,62.86h-2.04v-16.92h2.04v16.92Z"/>
        <path class="cls-6" d="M175.46,57.57l-1.15,1.67c-1.85-.89-3.23-2.72-3.96-4.83-.74,2.31-2.16,4.31-4.06,5.25l-1.16-1.67c2.58-1.27,4.17-4.45,4.18-7.25v-1.39h-3.56v-1.74h9.02v1.74h-3.44v1.39c0,2.6,1.54,5.6,4.13,6.84ZM178.34,52.53h2.53v1.74h-2.53v8.58h-2.06v-16.9h2.06v6.58Z"/>
        <path class="cls-6" d="M189.7,57.33l-1.18,1.61c-1.55-.87-2.57-2.34-3.16-4.18-.55,2.11-1.58,3.79-3.2,4.78l-1.24-1.61c2.44-1.41,3.4-4.37,3.4-7.68v-.79h-2.93v-1.71h7.6v1.71h-2.71v.79c0,2.96.97,5.78,3.42,7.08ZM195.44,62.86h-1.95v-8.58h-1.67v7.79h-1.91v-15.83h1.91v6.31h1.67v-6.61h1.95v16.92Z"/>
        <path class="cls-6" d="M210.91,52.7l-1.06,1.63c-1.79-.61-3.07-1.82-3.78-3.35-.74,1.71-2.09,3.06-4.02,3.71l-1.06-1.65c2.65-.87,4-2.95,4-5.21v-1.35h2.04v1.35c0,2.08,1.34,4.07,3.87,4.87ZM214.86,59.73h-8.8v1.27h9.33v1.67h-11.33v-4.5h8.79v-1.18h-8.82v-1.65h10.84v4.38ZM214.86,54.6h-2.06v-4.27h-3.24v-1.69h3.24v-2.68h2.06v8.64Z"/>
        <path class="cls-6" d="M227.29,57.78l-1.11,1.61c-1.89-.82-3.29-2.52-4.04-4.57-.74,2.17-2.14,3.99-4.06,4.87l-1.13-1.63c2.62-1.2,4.12-4.08,4.13-6.78v-.84h-3.6v-1.67h3.58v-2.45h2.06v2.45h3.53v1.67h-3.53v.84c0,2.58,1.53,5.34,4.17,6.5ZM230.49,62.86h-2.06v-16.92h2.06v16.92Z"/>
        <path class="cls-6" d="M241.89,51.07c0,2.06-1.39,3.61-3.42,3.99v2.49c1.37-.06,2.76-.16,4.04-.34l.15,1.54c-3.45.64-7.23.65-10.04.64l-.27-1.72c1.21,0,2.62,0,4.09-.04v-2.57c-2.04-.37-3.46-1.92-3.46-3.99,0-2.4,1.9-4.1,4.46-4.1s4.47,1.71,4.46,4.1ZM234.96,51.07c0,1.42,1.06,2.3,2.47,2.29,1.42,0,2.47-.86,2.47-2.29s-1.05-2.3-2.47-2.3-2.46.88-2.47,2.3ZM245.47,52.7h2.36v1.74h-2.36v8.41h-2.02v-16.92h2.02v6.76Z"/>
        <path class="cls-6" d="M128.11,82.72l-.93,1.65c-1.88-.53-3.22-1.67-3.97-3.11-.72,1.62-2.07,2.9-4.04,3.5l-.96-1.63c2.59-.78,3.94-2.73,3.95-4.78v-.08h-3.42v-1.67h3.42v-1.93h2.04v1.93h3.42v1.67h-3.42v.08c0,1.85,1.34,3.64,3.91,4.37ZM131.42,88.51c0,1.99-2.09,3.14-5.53,3.13-3.44,0-5.56-1.14-5.55-3.13,0-2,2.11-3.14,5.55-3.15,3.43,0,5.54,1.15,5.53,3.15ZM122.36,88.51c0,.99,1.26,1.52,3.53,1.52s3.52-.52,3.53-1.52c0-1.01-1.28-1.54-3.53-1.54s-3.53.52-3.53,1.54ZM131.24,78.86h2.31v1.74h-2.31v4.4h-2.04v-10.25h2.04v4.1Z"/>
        <path class="cls-6" d="M144.69,85.87l.15,1.54c-3.64.72-7.61.76-10.49.77l-.25-1.74c2.91,0,7.06-.02,10.6-.56ZM143.87,80c0,2.41-1.93,4.11-4.53,4.1-2.58,0-4.52-1.7-4.51-4.1,0-2.4,1.93-4.09,4.51-4.1,2.6,0,4.52,1.71,4.53,4.1ZM136.81,80c0,1.41,1.08,2.3,2.53,2.3s2.52-.89,2.51-2.3c0-1.42-1.06-2.28-2.51-2.29-1.45,0-2.52.87-2.53,2.29ZM147.69,91.7h-2.04v-16.96h2.04v16.96Z"/>
        <path class="cls-6" d="M164.74,89.64h-15.01v-1.74h15.01v1.74ZM163.45,77.98h-2.38v5.36h2.33v1.69h-12.39v-1.69h2.31v-5.36h-2.36v-1.71h12.5v1.71ZM159.03,83.34v-5.36h-3.66v5.36h3.66Z"/>
        <path class="cls-6" d="M180.47,89.71h-15.01v-1.72h6.46v-2.75h-4.67v-5.55h9.44v-2.1h-9.48v-1.69h11.51v5.45h-9.46v2.19h9.84v1.69h-5.15v2.75h6.51v1.72Z"/>
        <path class="cls-6" d="M196.17,89.37h-14.99v-1.74h14.99v1.74ZM194.26,78.28c0,2.3,0,4.65-.6,8.19l-2.06-.21c.63-3.31.63-5.76.62-7.98v-.21h-9.48v-1.69h11.51v1.89Z"/>
        <path class="cls-6" d="M203.84,80.68h-4.27v1.8c1.88,0,3.35-.09,5.02-.43l.18,1.67c-1.96.38-3.64.44-6.04.45h-1.13v-5.04h4.26v-1.69h-4.29v-1.65h6.27v4.89ZM210.97,91.47h-11.11v-5.96h11.11v5.96ZM201.87,89.79h7.09v-2.62h-7.09v2.62ZM210.97,84.76h-1.95v-4.23h-1.67v4.08h-1.93v-9.56h1.93v3.78h1.67v-4.08h1.95v10.01Z"/>
        <path class="cls-6" d="M231.82,84.78h-6.35v3.09h-2.07v-3.09h-6.6v-1.69h15.02v1.69ZM230.2,78.56c0,2.15-2.36,3.48-5.91,3.47-3.54,0-5.89-1.32-5.89-3.47s2.36-3.47,5.89-3.47,5.9,1.35,5.91,3.47ZM230.16,91.34h-11.55v-5.02h2.06v3.32h9.49v1.71ZM220.58,78.56c0,1.14,1.46,1.79,3.71,1.78,2.26,0,3.71-.64,3.71-1.78s-1.46-1.78-3.71-1.78-3.71.63-3.71,1.78Z"/>
        <path class="cls-6" d="M240.38,77.04h3.87v-2.29h2.06v9.93h-2.06v-2.16h-3.89c-.78.84-1.95,1.34-3.27,1.35-2.47,0-4.34-1.71-4.33-4.1,0-2.38,1.86-4.09,4.33-4.1,1.34,0,2.5.52,3.29,1.37ZM234.68,79.78c0,1.42,1.03,2.31,2.4,2.32,1.37,0,2.38-.91,2.38-2.32s-1.01-2.31-2.38-2.32c-1.37,0-2.4.91-2.4,2.32ZM246.36,88.34c0,2.1-2.16,3.32-5.6,3.32s-5.63-1.22-5.62-3.32c0-2.06,2.16-3.28,5.62-3.28s5.61,1.22,5.6,3.28ZM237.16,88.34c0,1.11,1.29,1.68,3.6,1.67,2.29,0,3.59-.56,3.6-1.67,0-1.08-1.31-1.65-3.6-1.65s-3.61.57-3.6,1.65ZM244.25,80.85v-2.12h-2.96c.08.33.13.68.13,1.05s-.05.73-.13,1.07h2.96Z"/>
      </g>
      <g>
        <path class="cls-6" d="M123.98,15.48l2.58-.73c.25.89.88,1.37,1.77,1.37,1,0,1.65-.56,1.65-1.31,0-.82-.78-1.31-2.02-1.31h-.35v-1.93h.35c1.08,0,1.74-.39,1.74-1.05,0-.61-.55-1.07-1.37-1.07s-1.33.42-1.51,1.2l-2.61-.7c.54-1.87,2.04-2.89,4.19-2.89,2.38,0,4.06,1.22,4.06,2.98,0,1.16-.72,2.01-1.99,2.45v.05c1.47.49,2.31,1.45,2.3,2.74,0,1.92-1.82,3.23-4.37,3.23-2.3,0-3.87-1.08-4.43-3.03Z"/>
        <path class="cls-6" d="M141.55,15.16l-1.27,1.89c-1.4-.64-2.33-1.83-2.9-3.23-.58,1.52-1.57,2.8-3.09,3.47l-1.27-1.92c2.37-1.08,3.12-3.46,3.13-5.38v-.14h-2.6v-1.93h2.6v-1.83h2.41v1.83h2.56v1.93h-2.56v.14c0,1.84.72,4.07,2.98,5.16ZM144.27,11h1.83v2.03h-1.83v6.78h-2.41V5.73h2.41v5.27Z"/>
        <path class="cls-6" d="M161.89,18.28h-12.47v-2.01h5.02v-2.5h-3.83v-7.1h10v7.1h-3.78v2.5h5.05v2.01ZM153,11.82h5.24v-3.18h-5.24v3.18Z"/>
        <path class="cls-6" d="M173.29,7.45c0,1.13,0,2.28-.3,3.81h1.67v1.95h-12.47v-1.95h8.4c.24-1.19.3-2.14.31-3.03h-7.22v-1.95h9.6v1.17ZM173.17,19.68h-9.56v-5.27h9.56v5.27ZM165.96,17.73h4.84v-1.4h-4.84v1.4Z"/>
      </g>
      <rect class="cls-4" x="115.42" y=".75" width="66.31" height="24.62" rx="8.57" ry="8.57"/>
    </g>
  </g>
</svg>