<?xml version="1.0" encoding="UTF-8"?>
<svg id="_레이어_1" xmlns="http://www.w3.org/2000/svg" version="1.1" viewBox="0 0 240.9 182.7">
  <!-- Generator: Adobe Illustrator 30.3.0, SVG Export Plug-In . SVG Version: 2.1.3 Build 182)  -->
  <defs>
    <style>
      .st0 {
        font-size: 13.4px;
      }

      .st0, .st1 {
        font-family: UniversLTStd, 'Univers LT Std';
      }

      .st0, .st1, .st2, .st3 {
        fill: #565452;
      }

      .st1, .st2 {
        font-size: 22.9px;
      }

      .st2 {
        font-family: UniversLTStd-Bold, 'Univers LT Std';
        font-weight: 700;
      }

      .st4 {
        letter-spacing: 0em;
      }

      .st5 {
        letter-spacing: 0em;
      }

      .st6 {
        letter-spacing: 0em;
      }

      .st7 {
        letter-spacing: 0em;
      }

      .st8 {
        letter-spacing: 0em;
      }

      .st9 {
        letter-spacing: 0em;
      }

      .st10 {
        letter-spacing: 0em;
      }
    </style>
  </defs>
  <path class="st3" d="M44.3,130.6c-.6-1.4-2.8-.5-2.8-.5,1.8,1.2,2.8.5,2.8.5M40.8,130.4c.2,0,.4-.2.4-.4s-.2-.4-.4-.4-.4.2-.4.4.2.4.4.4M45.7,130.8s-.8,0-1.5.4h2.4s-1.1-3.1-4.2-3.5c0,0,.7,2.3,3.3,3.1M47.2,131.3c0-.2-.2-.3-.3-.3s-.3.2-.3.3.2.3.3.3.3-.2.3-.3M35.1,131.3h2.3c-.7-.5-1.5-.5-1.5-.5,2.5-.8,3.3-3.1,3.3-3.1-3,.4-4.2,3.5-4.2,3.5h0M34.4,131.6c0,.2.2.3.3.3s.3-.2.3-.3-.2-.3-.3-.3-.3.2-.3.3M34.6,133.9c-1.7-1.2-4-.2-4-.2,2.1-1.7,2.1-4.2,2.1-4.2-2.7,1.4-2.8,4.6-2.8,4.6,3.3.9,4.6-.2,4.6-.2M35.5,133.3v-1.1c-1.2-.4-2.4-.2-2.4-.2,2.4-1.3,2.8-3.8,2.8-3.8-2.9.9-3.5,4.1-3.5,4.1,1.3.6,2.4.9,3.1.9M48.6,131.9s-1-.3-2.2.2v1.1c.8,0,1.5-.2,2.9-.9,0,0-.6-3.2-3.6-4,0,0,.5,2.5,2.9,3.7M37.2,130.8s1,.6,2.8-.6c0,0-2.2-.9-2.8.6M52.5,146.1h-1.3v1.6h1.3v-1.6ZM49,135.1l-.6.8,3.5,3.5.7-.7s-3.6-3.6-3.6-3.6ZM56,135l-3.2-3.2-2.9,3.1,3.1,3.1,3.1-3h0ZM29.5,134.6c0,.2.2.3.3.3s.3-.2.3-.3-.2-.3-.3-.3-.3.2-.3.3M53.5,138c.6.2,1.3.3,2.1.3,0,0,.4-1.1.2-2.5l-1.1,1c.2.3.2.6.5.9,0,0-.3-.2-.8-.6l-.9.9h0ZM52.5,154h-1.3v1.6h1.3v-1.6ZM50.7,133.1l.7-.7c-.3-1-.9-2.4-2.5-3.1,0,0,0,2.3,1.8,3.9M57.3,144.4c0,.2.2.3.3.3s.3-.2.3-.3-.2-.3-.3-.3-.3.2-.3.3M53.4,129.5c.9.5,1.7,0,1.7,0,1-.6,1.8.2,1.8.2.7.6.6,1.3.6,1.3,0,.6-.2.6-.2.6-.3.2-.2-.2-.2-.2v-.3c.2-1.3-.9-1.5-.9-1.5-1.3-.2-1.6.9-1.6.9v.9l-1.6-1.6v1.3l3.5,3.5h1.3l-1.3-1.3c.7.2,1.3.2,1.3.2,1.8,0,2-1.8,2-1.8.5-1.8-1.2-3.2-1.2-3.2-1.1-.9-2.8-1-2.8-1-2.4-.3-3.3-1.8-3.3-1.8-.3.7-.2,1.7-.2,1.7.2,1.6,1.2,2,1.2,2M57.7,143.9s2-2.6.8-5.3c0,0-1.7,2-.9,4.6,0,0-1.3-2.2-3.3-2.3,0,0,.3,1.7,3.5,3.1M55.7,139.2c.2,0,.3-.2.3-.3s-.2-.3-.3-.3-.3.2-.3.3.2.3.3.3M49.6,134.3l.9-.9c-.8-.2-2.2-.5-3.4.5,0,0,.6.7,2.5.5M56.9,141s1.6-2.9-.2-5.3c0,0-1.3,2.3-.2,4.7,0,0-1.7-2-3.7-1.7,0,0,.6,1.7,4,2.4M46.3,163c0,.2.2.3.3.3s.3-.2.3-.3-.2-.3-.3-.3-.3.2-.3.3M47.8,162.7s1.7-1.5,1.7-3.3h-.6c-.6.5-1.3,1.5-1.8,3.6,0,0,2.9,1.6,5.4-.2,0,0-2.3-1.3-4.7-.2M45,163.7s2.2-1.3,2.3-3.3c0,0-1.7.3-3.1,3.5,0,0,2.6,2,5.3.8,0,0-2-1.7-4.6-.9M42,164.3c2.3-1,2.8-2.8,2.8-2.8-1.8.2-3.3,2.8-3.3,2.8,2,2,4.6,1.8,4.6,1.8-1.2-1.6-4.1-1.7-4.1-1.7M40.7,163.3v.8c-.3-.6-1.7-2.5-3.2-2.6,0,0,.6,1.8,2.8,2.8,0,0-2.9.2-4,1.7,0,0,2.5.2,4.5-1.7v1.3h.8v-2.2h-.9ZM51.2,156.4v1.6l7.2,6h1.4l-7.3-7.6h-1.3,0ZM50.4,161.3s.6-.8.9-1.9h-1.3c-.2.6-.3,1.3-.4,2.3,0,0,2.7.9,4.8-.6l-.8-.6c-.9,0-2.1,0-3.3.9M36.1,163.1c0-.2-.2-.3-.3-.3s-.3.2-.3.3.2.3.3.3.3-.2.3-.3M56.2,154.7s.4-2.5-1-3.9c0,0-.9,1.6.7,4.6,0,0,3.2-.6,4-3.5,0,0-2.5.5-3.7,2.9M53.2,160l-1-.9v.9h.9M51.6,160.4c.2,0,.3-.2.3-.3s-.2-.3-.3-.3-.3.2-.3.3.2.3.3.3M26.5,156c0,.2.2.3.3.3s.3-.2.3-.3-.2-.3-.3-.3-.3.2-.3.3M24.3,150.2c2.5-2.4,2.1-4.1,2.1-4.1-1.8.9-2.2,3.4-2.2,3.4-.3-2.7-2.6-3.9-2.6-3.9-.2,3.1,2.7,4.6,2.7,4.6M24.3,150.6c0,.2.2.3.3.3s.3-.2.3-.3-.2-.3-.3-.3-.3.2-.3.3M28.5,131.8l-2.4-2.4c-1.4-1.4-3.1-.5-3.1-.5l4.6,4.6c.3-1.2.9-1.7.9-1.7M26.7,133.2l-3.9-3.9s-1.7,1.2-.4,3.9h4.3ZM25.1,153c2-2.8,1.4-4.4,1.4-4.4-1.7,1.2-1.7,3.7-1.7,3.7-.8-2.5-3.2-3.4-3.2-3.4.4,3,3.5,4.2,3.5,4.2M26.9,160.9s.5-.3,1.2-.4l-.8-.2h0l-3.4,3.5s-.4.6,0,.9c0,0,.3.2.8,0l3.2-2.8c-.3-.2-1-.8-1.1-.9M33.2,159.5h-.4c0,1.9,1.8,3.4,1.8,3.4-2.4-1-4.7.2-4.7.2,2.5,1.7,5.4,0,5.4,0-.6-2.3-1.5-3.3-2-3.7M26.3,155.7c1.6-3.1.6-4.6.6-4.6-1.4,1.4-.9,3.9-.9,3.9-1.3-2.4-3.8-2.8-3.8-2.8.9,2.9,4.1,3.5,4.1,3.5M35,160.5c.2,2,2.4,3.2,2.4,3.2-2.6-.6-4.6,1.1-4.6,1.1,2.8,1.2,5.3-.9,5.3-.9-1.3-3.1-3.1-3.5-3.1-3.5M27.9,136.3c3.5.4,4.6-1,4.6-1-1.8-.9-4,.5-4,.5,1.8-2,1.3-4.5,1.3-4.5-2.4,1.8-1.9,5-1.9,5M28,158.2c.9-3.3-.2-4.6-.2-4.6-1.2,1.7-.2,4-.2,4-1.7-2.1-4.2-2.1-4.2-2.1,1.4,2.7,4.6,2.8,4.6,2.8M53.1,155.5s-.2.2-.3.6l.6.6c0-.4-.2-.9-.3-1.3M31.7,142.3l1.2,1h2.7c-.2-.2,0-1,0-1h-3.9ZM38.4,134.5v-1.5h4.6v2.1h1.5v1.5h-1.5v.7h1.5v1.7h-1.5v5h-1.3l-1.7-1.7-1.6,1.6-1.2-1.2,2.7-2.7,1.3,1.3v-6.8h-2.9ZM36,141.6c0,3.5,2.2,5.1,4.9,5.1s5-1.7,5-5.1v-10h-9.8v10M32.4,135.8s-.3.5-1.4.7l1.4,1.3v-2h0ZM44.9,150.4c.3,0,.3-.2.3-.5v-2.3h.6v2.4c0,.3,0,.9-1,.9s-.9-.3-.9-.9v-2.4h.6v2.1c0,.2,0,.6.3.6M46.6,151.6v.6h-.6v.7h.6v.6h-.6v.7h.7v.6h-1.3v-3.3h1.3,0ZM46.5,147.6h.7l.2.5c0,.2.2.3.2.5h0c0-.2,0-.3.2-.5l.2-.5h.7l-.7,1.6.8,1.7h-.8l-.2-.6c0-.2,0-.3-.2-.5h0c0,.2,0,.3-.2.5l-.2.6h-.7l.7-1.7-.7-1.6ZM48.4,155l-.2-.6h-.6l-.2.6h-.6l.8-3.3h.7l.8,3.3h-.7ZM44.2,155l-.2-2.4h0v.8l-.4,1.6h-.5l-.3-1.6v-.7h0v2.4h-.8l.3-3.3h.9l.3,2h0l.2-2h.9l.3,3.3h-.8ZM42.1,147.6h.6v2.7h.7v.6h-1.3v-3.3ZM41.3,147.1v11.2s.6-.6,1.5-.6h7v-13.9h-3.8s-1.1,3.3-4.7,3.3M38.4,148.6c0-.2,0-.4-.5-.4h0v.9h0c.3,0,.4-.2.4-.5M47.9,152.5h0v.5l-.2.9h.5l-.2-.9v-.5h0ZM30.3,137.8h0c-.2,0-.9.9-2.2,1l.5.4h4.6l-1.4-1.4h0l-.7-.7s-.5.6-.6.7M55.7,155.7c0-.2-.2-.3-.3-.3s-.3.2-.3.3.2.3.3.3.3-.2.3-.3M57.5,150.5c.2,0,.3-.2.3-.3s-.2-.3-.3-.3-.3.2-.3.3.2.3.3.3M55.6,148.3s-.6,1.7,1.5,4.4c0,0,3.1-1.2,3.4-4.2,0,0-2.4.9-3.1,3.5,0,0,0-2.5-1.7-3.6M57.9,149s-.5-2.5-2.3-3.3c0,0-.3,1.7,2.3,4.1,0,0,2.8-1.7,2.6-4.7,0,0-2.2,1.3-2.5,4M54.3,153.2s-1.2,1.3,0,4.6c0,0,3.3,0,4.6-2.8,0,0-2.6,0-4.2,2.2,0,0,.9-2.4-.4-4M58,146.1s-.9-2.4-2.8-2.8c0,0,0,1.8,2.9,3.6,0,0,2.4-2.2,1.7-5.1,0,0-2,1.7-1.7,4.3M55.9,159.3c.5-.3.9-.7,1.3-1.3,0,0-1.1-.2-2.4.3l1,1ZM36.9,153v-.5h0v.5l-.2.9h.5l-.2-.9h0ZM27.1,133.4c-2,2.2-.9,5.3-.9,5.3,3.5-.2,4.3-1.7,4.3-1.7-2-.6-3.9,1.1-3.9,1.1,1.4-2.3.6-4.6.6-4.6M40.1,160h2s.2-.9.7-.9h8.3v-14.5l-.8-.9v14.3h-7.4s-1,0-1.7,1c0,0-.6-.9-1.9-1h-7.2v-14.2l-.9.9v14.3h8s1,0,1,.9M24.7,144.8c0-.2-.2-.3-.3-.3s-.3.2-.3.3.2.3.3.3.3-.2.3-.3M24.4,143.5c.6-2.6-1.1-4.6-1.1-4.6-1.2,2.8.9,5.3.9,5.3,3.1-1.3,3.5-3.1,3.5-3.1-2,.2-3.2,2.4-3.2,2.4M22.1,142.2c-.7,3,1.8,5,1.8,5,2.9-1.9,2.8-3.7,2.8-3.7-2,.5-2.8,2.9-2.8,2.9.2-2.7-1.9-4.3-1.9-4.3M25.5,136.3s-.2-1.1.9-2.7h-3.8s.2.5,2.8,2.7M35.4,141.9v-.4l-2-2h-4.6l2.6,2.4h4ZM30.6,158.5c0,.2,0,0,0,0v-2l-.3.4c.2.5.2,1.2.3,1.7M25.8,139.2c0,.2.2.3.3.3s.3-.2.3-.3-.2-.3-.3-.3-.3.2-.3.3M30.6,160.7c.2,0,.3-.2.3-.3s-.2-.3-.3-.3-.3.2-.3.3.2.3.3.3M32.8,138.3l2.7,2.6v-2l-2.7-2.7v2h0ZM30.7,153.8h-1.3v1.6h1.3v-1.6ZM48.3,136.6l-2,2.3v3.6s0,.6-.2.9h1.3l3.8-3.8-2.9-2.9h0ZM37.1,147.6v.6h-.6v.7h.6v.6h-.6v.7h.7v.6h-1.3v-3.3l-.9,3.3h-.6l-.9-3.3h.7l.4,1.6v.6h0v-.6l.4-1.6h2.2ZM38,154.9h-.7l-.2-.6h-.6l-.2.6h-.6l.8-3.3h.7l.8,3.3ZM37.2,147.6h.6c.4,0,1.2,0,1.2.9s-.2.7-.5.9l.6,1.5h-.7l-.6-1.5h0v1.5h-.6v-3.3ZM39.3,147.6h.6v3.3h-.6v-3.3ZM38.8,155c-.2,0-.4,0-.6-.2v-.6c.2,0,.3.2.5.2s.4-.2.4-.4-.2-.3-.4-.5c-.4-.2-.6-.5-.6-1s.3-.9.9-.9.4,0,.6.2v.6c-.2,0-.3-.2-.5-.2s-.3.2-.3.3c0,.6,1,.6,1,1.5s-.3,1-.9,1M35.6,152.3h-.6v2.7h-.6v-2.7h-.6v-.6h1.7v.6h0ZM32.3,143.8v13.9h6.9c.8,0,1.6.6,1.6.6v-11.2c-4.2,0-5-3.4-5-3.4,0,0-3.5,0-3.5,0ZM32.6,161.9c0-1.1-.2-1.8-.5-2.4h-1.3c.3,1.2,1.1,2,1.1,2-2.3-1.4-4.6-.6-4.6-.6,2.2,2,5.3.9,5.3.9M28.4,139.6l-.6-.6c-1.5.4-2.6,1.7-2.6,1.7.7-1.7.3-3.2,0-4.1l-.5-.4c-1.3,2.4.2,5.1.2,5.1,2-.5,3-1.3,3.5-1.8M25.1,158.4c1.8,2.4,5,1.9,5,1.9.4-3.5-1-4.6-1-4.6-.9,1.8.5,4,.5,4-2-1.8-4.5-1.3-4.5-1.3M30.6,146.2h-1.3v1.6h1.3v-1.6Z"/>
  <g>
    <text class="st0" transform="translate(23.1 71.4)"><tspan class="st7" x="0" y="0">F</tspan><tspan x="7.2" y="0">aculty of Cra</tspan><tspan class="st6" x="86.6" y="0">f</tspan><tspan x="90.8" y="0">t and Design </tspan></text>
    <text class="st0" transform="translate(23.1 88.6)"><tspan x="0" y="0">College of Fine</tspan><tspan class="st8" x="94.3" y="0"> </tspan><tspan x="97.4" y="0">A</tspan><tspan class="st6" x="107" y="0">r</tspan><tspan x="111.9" y="0">ts</tspan></text>
    <text class="st0" transform="translate(23.1 105.8)"><tspan class="st7" x="0" y="0">S</tspan><tspan x="8.7" y="0">eoul National Un</tspan><tspan class="st10" x="115.6" y="0">i</tspan><tspan class="st4" x="119.6" y="0">ve</tspan><tspan class="st9" x="134.4" y="0">r</tspan><tspan class="st4" x="139.9" y="0">sity</tspan></text>
  </g>
  <text class="st2" transform="translate(22.4 33.5)"><tspan x="0" y="0">SNU</tspan></text>
  <text class="st1" transform="translate(73.3 33.5)"><tspan class="st5" x="0" y="0"> </tspan><tspan x="4.1" y="0">DESIGN</tspan></text>
</svg>