<?xml version="1.0" encoding="UTF-8"?>
<svg id="_레이어_1" data-name="레이어_1" xmlns="http://www.w3.org/2000/svg" version="1.1" viewBox="0 0 448.5 182.7">
  <!-- Generator: Adobe Illustrator 30.3.0, SVG Export Plug-In . SVG Version: 2.1.3 Build 182)  -->
  <defs>
    <style>
      .st0 {
        fill: #655b52;
      }
    </style>
  </defs>
  <path class="st0" d="M17.4,136h-2.1v2.6h2.1v-2.6ZM8.4,155.8c3,3.9,8.2,3,8.2,3,.6-5.6-1.6-7.4-1.6-7.4-1.4,3,.7,6.5.7,6.5-3.2-2.9-7.3-2.2-7.3-2.2ZM13.8,125.2l-1-.9c-2.4.6-4.2,2.8-4.2,2.8,1.1-2.7.5-5.3,0-6.6l-.7-.6c-2.1,4,.2,8.4.2,8.4,3.2-.8,4.9-2.1,5.7-3ZM20.6,161.6c-.1-1.7-.4-3-.8-4h-2c.5,1.9,1.8,3.3,1.8,3.3-3.7-2.4-7.6-.9-7.6-.9,3.6,3.4,8.6,1.6,8.6,1.6ZM20.1,132v22.7h11.3c1.3,0,2.6,1,2.6,1v-18.2c-6.8-.1-8.2-5.6-8.2-5.6h-5.7ZM25.4,145.8h-.8v4.4h-1.1v-4.4h-.8v-1h2.8v1ZM30.7,150.3c-.3,0-.7,0-.9-.3v-1c.3.2.5.3.8.3s.6-.2.6-.6-.3-.6-.6-.8c-.6-.4-1-.8-1-1.6s.5-1.6,1.4-1.6.7,0,.9.3v1c-.2-.2-.5-.3-.8-.3s-.5.2-.5.5c0,.9,1.6.9,1.6,2.4s-.6,1.7-1.6,1.7ZM31.5,138.3h1.1v5.4h-1.1v-5.4ZM28.2,138.3h1.1c.7,0,1.9,0,1.9,1.5s-.2,1.1-.8,1.4l.9,2.5h-1.1l-.9-2.5h0v2.5h-1.1v-5.4ZM29.3,150.2h-1.1l-.2-.9h-1.1l-.2.9h-1.1l1.3-5.4h1.1l1.3,5.4ZM28,138.3v1h-1.1v1.2h1v1h-1v1.2h1.1v1h-2.2v-5.4l-1.5,5.4h-.9l-1.6-5.4h1.1l.6,2.6c0,.3.1.6.2.9h0c0-.3,0-.6.2-.9l.7-2.6h3.3ZM46.3,120.3l-3.4,3.7v5.9s0,1-.3,1.4h2.2l6.2-6.2-4.7-4.8ZM17.5,148.4h-2.1v2.6h2.1v-2.6ZM20.9,123l4.3,4.3v-3.3l-4.3-4.3v3.4ZM17.4,159.6c.3,0,.5-.2.5-.5s-.2-.5-.5-.5-.5.2-.5.5.2.5.5.5ZM9.6,124.6c0,.3.2.5.5.5s.5-.2.5-.5-.2-.5-.5-.5-.5.2-.5.5ZM17.5,156c0,.2,0,0,0,0v-3.2l-.5.6c.3.8.4,2,.5,2.7ZM25.2,128.9v-.7l-3.2-3.2h-7.5l4.2,3.9h6.5ZM8.9,119.8s-.3-1.7,1.5-4.4h-6.2s.3.7,4.6,4.4ZM3.6,129.4c-1.1,4.8,3,8.3,3,8.3,4.7-3.1,4.6-6,4.6-6-3.2.8-4.5,4.8-4.5,4.8.2-4.3-3-7-3-7ZM7.2,131.6c1-4.2-1.8-7.4-1.8-7.4-1.9,4.6,1.5,8.7,1.5,8.7,5.2-2.2,5.6-5.1,5.6-5.1-3.3.3-5.3,3.9-5.3,3.9ZM7.6,133.6c0-.3-.2-.5-.5-.5s-.5.2-.5.5.2.5.5.5.5-.2.5-.5ZM32.8,158.5h3.2s.2-1.4,1.1-1.4h13.4v-23.6l-1.3-1.4v23.4h-12s-1.6.1-2.9,1.7c0,0-1-1.5-3.1-1.6h-11.7v-23.3l-1.4,1.4v23.4h13.1s1.6,0,1.6,1.4ZM11.7,115.1c-3.4,3.6-1.6,8.6-1.6,8.6,5.6-.3,7-2.9,7-2.9-3.2-.9-6.3,1.8-6.3,1.8,2.4-3.7.9-7.6.9-7.6ZM27.5,147v-.8h-.1v.8c-.1,0-.3,1.4-.3,1.4h.8l-.3-1.4ZM58.6,157.2c.8-.5,1.6-1.2,2.2-2.1,0,0-1.8-.2-3.9.5l1.6,1.7ZM62,135.8s-1.5-3.9-4.7-4.6c0,0,0,2.9,4.8,5.9,0,0,4-3.5,2.8-8.3,0,0-3.2,2.8-2.9,7.1ZM56,147.4s-1.9,2.2-.1,7.6c0,0,5.3-.2,7.5-4.6,0,0-4.2,0-6.8,3.6,0,0,1.4-3.9-.6-6.6ZM61.8,140.6s-.8-4.1-3.8-5.4c0,0-.5,2.9,3.7,6.6,0,0,4.5-2.8,4.2-7.7,0,0-3.6,2.2-4.1,6.5ZM58.1,139.4s-1,2.7,2.5,7.2c0,0,5-2,5.5-6.9,0,0-3.9,1.5-5.1,5.7,0,0,0-4.2-2.8-6ZM61.2,143c.3,0,.5-.2.5-.5s-.2-.5-.5-.5-.5.2-.5.5.2.5.5.5ZM58.4,151.4c0-.3-.2-.5-.5-.5s-.5.2-.5.5.2.5.5.5.5-.2.5-.5ZM16.9,122.2h0c-.2.2-1.6,1.4-3.6,1.7l.7.7h7.4s-2.3-2.3-2.3-2.3h0l-1.2-1.2s-.8,1.1-1,1.2ZM45.6,146.3h0v.8c-.1,0-.3,1.4-.3,1.4h.8l-.3-1.4v-.8ZM30.1,139.8c0-.4-.2-.7-.7-.7h-.1v1.4h.2c.5,0,.7-.3.7-.8ZM34.7,137.5v18.3s1-1,2.5-1h11.4v-22.7h-6.1s-1.7,5.4-7.7,5.4ZM36.1,138.3h1.1v4.4h1.1v1h-2.2v-5.4ZM39.5,150.3l-.3-3.9h0l-.2,1.3-.5,2.6h-.8l-.5-2.6-.2-1.2h0c0-.1,0-.1,0-.1l-.2,3.9h-1.1l.5-5.4h1.4l.5,3.2h0l.4-3.2h1.4l.6,5.4h-1.1ZM46.4,150.3l-.2-.9h-1.1l-.2.9h-1.1l1.3-5.4h1.1l1.3,5.4h-1.1ZM43.1,138.3h1.2l.3.8c0,.3.2.5.3.8h0c0-.3.1-.6.2-.8l.3-.8h1.2l-1.2,2.6,1.2,2.8h-1.2l-.3-.9c0-.3-.2-.5-.2-.8h0c0,.3-.1.5-.2.8l-.3.9h-1.2l1.1-2.8-1.1-2.6ZM43.4,144.9v1h-1.1v1.2h1v1h-1v1.2h1.1v1h-2.2v-5.4h2.1ZM40.7,142.8c.5,0,.5-.4.5-.8v-3.7h1.1v3.9c0,.6,0,1.5-1.6,1.5s-1.6-.5-1.6-1.5v-4h1.1v3.5c0,.4,0,1,.5,1ZM20.2,119s-.5.7-2.3,1.1l2.3,2.2v-3.3ZM26.1,128.4c0,5.7,3.6,8.4,8,8.4s8-2.6,8-8.4v-16.3h-16s0,10.6,0,16.3ZM30,116.9v-2.4h7.5v3.4h2.5v2.5h-2.4v1.1h2.4v2.7h-2.4v8.1h-2.1l-2.9-2.9-2.6,2.6-1.9-1.9,4.3-4.3,2.2,2.2v-11.1h-4.7ZM19.2,129.5l1.9,1.7h4.3c-.2-.3-.1-1.7-.1-1.7h-6.1ZM54,151.1s-.3.4-.5.9l1,1.1c0-.7-.2-1.4-.6-2ZM13.2,155.5c1.6-5.4-.3-7.6-.3-7.6-1.9,2.7-.4,6.6-.4,6.6-2.6-3.5-6.8-3.4-6.8-3.4,2.3,4.4,7.6,4.4,7.6,4.4ZM12.9,119.8c5.6.6,7.4-1.6,7.4-1.6-3-1.4-6.5.7-6.5.7,2.9-3.2,2.2-7.3,2.2-7.3-3.9,3-3,8.2-3,8.2ZM24.6,159.2c.3,3.3,3.9,5.3,3.9,5.3-4.2-1-7.4,1.8-7.4,1.8,4.6,1.9,8.7-1.5,8.7-1.5-2.2-5.2-5.1-5.6-5.1-5.6ZM10.3,151.5c2.5-5,1-7.5,1-7.5-2.3,2.3-1.6,6.4-1.6,6.4-2-3.9-6.1-4.6-6.1-4.6,1.5,4.7,6.7,5.7,6.7,5.7ZM21.6,157.6h-.7c0,3.1,2.9,5.5,2.9,5.5-4-1.7-7.6.4-7.6.4,4.2,2.7,8.8,0,8.8,0-.9-3.8-2.5-5.4-3.4-6ZM11.3,159.9s.8-.5,1.9-.6l-1.2-.3v.2c0,0,0-.2,0-.2l-5.5,5.7s-.6.9,0,1.5c0,0,.6.4,1.3,0l5.3-4.6c-.5-.3-1.7-1.3-1.8-1.6ZM8.3,147.1c3.3-4.5,2.3-7.2,2.3-7.2-2.7,1.9-2.6,6-2.6,6-1.3-4.2-5.3-5.6-5.3-5.6.6,4.9,5.6,6.8,5.6,6.8ZM11.1,114.8l-6.5-6.5s-2.7,1.9-.6,6.5h7.1ZM14,112.5l-3.8-3.8c-2.4-2.4-5.1-.8-5.1-.8l7.5,7.5c.5-1.9,1.5-2.8,1.5-2.8ZM7,143.2c0,.3.2.5.5.5s.5-.2.5-.5-.2-.5-.5-.5-.5.2-.5.5ZM7,142.5c4.1-3.9,3.5-6.7,3.5-6.7-3,1.4-3.7,5.5-3.7,5.5-.5-4.3-4.2-6.4-4.2-6.4-.2,4.9,4.4,7.6,4.4,7.6ZM10.6,152c0,.3.2.5.5.5s.5-.2.5-.5-.2-.5-.5-.5-.5.2-.5.5ZM51.7,159.2c.3,0,.5-.2.5-.5s-.2-.5-.5-.5-.5.2-.5.5.2.5.5.5ZM54.3,158.5l-1.7-1.4c0,.4,0,.9.2,1.4,0,0,.6,0,1.6,0ZM59.1,149.8s.7-4.1-1.7-6.4c0,0-1.4,2.5,1.2,7.5,0,0,5.2-1.1,6.6-5.8,0,0-4.1.8-6,4.7ZM26.3,163.5c0-.3-.2-.5-.5-.5s-.5.2-.5.5.2.5.5.5.5-.2.5-.5ZM49.6,160.6s1.1-1.3,1.6-3.1h-2c-.3.9-.6,2.2-.6,3.8,0,0,4.3,1.4,7.8-1.1l-1.3-1.1c-1.5,0-3.5.1-5.4,1.4ZM51,152.6v2.6l11.7,9.7h2.3l-11.9-12.3h-2.1ZM33.9,163.9v1.2c-.6-.9-2.8-4.1-5.3-4.3,0,0,.8,2.9,4.6,4.6,0,0-4.7.3-6.6,2.9,0,0,4.1.4,7.3-2.8v2h1.2v-3.6h-1.2ZM36,165.4c3.7-1.7,4.5-4.6,4.5-4.6-2.9.2-5.4,4.5-5.4,4.5,3.2,3.3,7.4,2.9,7.4,2.9-1.9-2.6-6.6-2.8-6.6-2.8ZM40.8,164.4s3.6-2.1,3.8-5.4c0,0-2.9.5-5,5.7,0,0,4.2,3.3,8.7,1.3,0,0-3.3-2.6-7.5-1.6ZM45.3,162.9s2.8-2.4,2.8-5.4h-1c-.9.8-2.2,2.5-2.9,5.9,0,0,4.7,2.5,8.8-.2,0,0-3.7-2-7.6-.3ZM42.9,163.3c0,.3.2.5.5.5s.5-.2.5-.5-.2-.5-.5-.5-.5.2-.5.5ZM60.2,127.5s2.5-4.7-.2-8.8c0,0-2,3.7-.3,7.7,0,0-2.7-3.2-6-2.8,0,0,1,2.7,6.5,3.9ZM48.3,116.6l1.5-1.5c-1.3-.3-3.6-.7-5.6.7,0,0,1,1.1,4.1.8ZM58.2,124.5c.3,0,.5-.2.5-.5s-.2-.5-.5-.5-.5.2-.5.5.2.5.5.5ZM61.6,132.2s3.3-4.2,1.3-8.7c0,0-2.6,3.3-1.6,7.5,0,0-2.1-3.6-5.4-3.8,0,0,.5,2.9,5.7,5ZM54.4,108.7c1.5.8,2.8,0,2.8,0,1.7-.8,3,.3,3,.3,1.2.9,1,2.2,1,2.2,0,.9-.3,1-.3,1-.6.4-.4-.3-.4-.3,0,0,.1-.5.1-.5.2-2.1-1.7-2.4-1.7-2.4-2-.4-2.5,1.5-2.5,1.5-.1.5-.1,1,0,1.4l-2.5-2.5v2.2c.1,0,5.8,5.7,5.8,5.7h2l-2.1-2.1c1.1.3,2,.4,2,.4,2.9-.2,3.2-3,3.2-3,.8-2.9-2-5.2-2-5.2-1.8-1.6-4.6-1.7-4.6-1.7-3.9-.5-5.3-3-5.3-3-.5,1.1-.3,2.8-.3,2.8.3,2.6,1.9,3.2,1.9,3.2ZM60.9,133c0,.3.2.5.5.5s.5-.2.5-.5-.2-.5-.5-.5-.5.2-.5.5ZM50.1,114.7l1.2-1.2c-.5-1.7-1.5-3.8-4.1-5,0,0-.1,3.7,2.9,6.2ZM53.1,148.6h-2.1v2.6h2.1v-2.6ZM54.7,122.7c.9.3,2,.5,3.4.5,0,0,.6-1.9.4-4.1l-1.8,1.7c.2.5.4.9.7,1.4,0,0-.5-.4-1.3-.8l-1.4,1.4ZM15.4,117.1c0,.3.2.5.5.5s.5-.2.5-.5-.2-.5-.5-.5-.5.2-.5.5ZM58.7,117.7l-5.3-5.3-4.8,5.2,5.1,5,5-4.9ZM47.4,117.8l-1.1,1.3,5.8,5.8,1.2-1.2-5.9-5.9ZM53,135.8h-2.1v2.6h2.1v-2.6ZM28.2,110.8s1.6,1.1,4.5-.9c0,0-3.5-1.5-4.5.9ZM46.7,112.6s-1.6-.5-3.6.2v1.9c1.2,0,2.5-.3,4.8-1.5,0,0-1.1-5.2-5.8-6.6,0,0,.8,4.1,4.7,6ZM25.3,115v-1.8c-2-.6-4-.2-4-.2,3.9-2,4.6-6.1,4.6-6.1-4.7,1.5-5.7,6.7-5.7,6.7,2.2,1.1,3.9,1.4,5.1,1.4ZM23.8,116c-2.7-1.9-6.6-.4-6.6-.4,3.5-2.6,3.4-6.8,3.4-6.8-4.4,2.3-4.4,7.6-4.4,7.6,5.4,1.6,7.6-.3,7.6-.3ZM23.5,112c0,.3.2.5.5.5s.5-.2.5-.5-.2-.5-.5-.5-.5.2-.5.5ZM24.7,111.5h3.7c-1.2-.7-2.4-.7-2.4-.7,4.2-1.3,5.3-5,5.3-5-4.9.6-6.8,5.6-6.8,5.6,0,0,0,0,.1,0ZM44.5,111.8c0-.3-.2-.5-.5-.5s-.5.2-.5.5.2.5.5.5.5-.2.5-.5ZM41.9,110.8s-1.3,0-2.4.7h3.7c0,0,0,0,.1,0,0,0-1.8-5-6.8-5.6,0,0,1.2,3.7,5.3,5ZM34,110.2c.4,0,.7-.3.7-.7s-.3-.7-.7-.7-.7.3-.7.7.3.7.7.7ZM39.7,110.6c-1-2.3-4.5-.7-4.5-.7,2.9,1.9,4.5.7,4.5.7Z"/>
  <g>
    <path class="st0" d="M16.3,23.4c-2-1.3-4.7-4.4-5.6-7-.8,2.9-3.2,5.9-5.8,7.4l-1.7-2c3.7-2.4,6.1-6.4,6.1-11v-4h2.8v3.8c0,4.6,2.4,8.4,5.9,10.7l-1.7,2.1ZM20.4,28.9v-13.4h-4.7v-2.3h4.7V4.8h2.7v24h-2.7Z"/>
    <path class="st0" d="M29.7,28.7v-6h13.3v-1.5h-13.4v-2.2h6.8v-1.8h-9.4v-2.2h21.7v2.2h-9.5v1.8h6.6v5.8h-13.3v1.7h14.2v2.2h-16.9ZM46.3,9.3c0,2.5-3.2,4.3-8.5,4.3s-8.4-1.8-8.4-4.3,3.1-4.3,8.4-4.3,8.5,1.8,8.5,4.3ZM32.3,9.3c0,1.3,2.1,2.1,5.5,2.1s5.6-.8,5.6-2.1-2.1-2.1-5.6-2.1-5.5.8-5.5,2.1Z"/>
    <path class="st0" d="M61.6,22.3c-2,.5-5.1.7-8,.7h-2.4V7.7h9v2.2c-2.1,0-4.2,0-6.2,0v10.7c3,0,5.5-.2,7.3-.6l.4,2.2ZM68,28.9v-12.2h-2.4v11h-2.6V5.3h2.6v9.1h2.4V4.8h2.7v24h-2.7Z"/>
    <path class="st0" d="M73.8,10.8v-2.2h13.9v2.2h-13.9ZM80.7,19.8c-3.2,0-5.7-1.6-5.7-4s2.4-4,5.7-4,5.6,1.6,5.6,4-2.4,4-5.6,4ZM92.6,21v7.9h-2.8v-5.7h-12.9v-2.2h15.7ZM77.2,5.1h7v2.2h-7v-2.2ZM80.7,13.8c-1.6,0-2.9.8-2.9,1.9s1.4,1.9,2.9,1.9,2.9-.8,2.9-1.9-1.3-1.9-2.9-1.9ZM92.6,13.4v6.3h-2.8V4.8h2.8v6.4h3.5v2.3h-3.5Z"/>
    <path class="st0" d="M97.5,25.4v-2.2h5.1v-7.5h2.8v7.5h3v-7.5h2.8v7.5h8.1v2.2h-21.7ZM115.5,20.4l-2.6-.4c.7-2.5.9-7,.9-10.3h-13.8v-2.2h16.6c0,6-.3,9.6-1,12.9Z"/>
    <path class="st0" d="M148,22.7h-11.3V7.1h11.3v15.5ZM145.2,9.3h-5.7v11.1h5.7v-11.1ZM152.5,28.9V4.8h2.7v24h-2.7Z"/>
    <path class="st0" d="M161.8,28.7v-5.9h13.3v-1.7h-13.4v-2.2h6.7v-2h-9.4v-2.2h21.7v2.2h-9.5v2h6.6v5.9h-13.2v1.7h14.1v2.2h-16.9ZM178.5,13.7c-3.4-.6-7.4-2.8-8.6-5.2-1.1,2.6-4.9,4.6-8.6,5.2l-1.2-2.1c4-.4,8.4-2.7,8.4-6.2v-.5h2.9v.5c0,3.5,5,5.9,8.4,6.2l-1.2,2.2Z"/>
    <path class="st0" d="M193.8,22.3c-2,.5-5.1.7-8,.7h-2.4V7.7h9v2.2c-2.1,0-4.2,0-6.2,0v10.7c3,0,5.5-.2,7.3-.6l.4,2.2ZM200.1,28.9v-12.2h-2.4v11h-2.6V5.3h2.6v9.1h2.4V4.8h2.7v24h-2.7Z"/>
    <path class="st0" d="M205.9,10.8v-2.2h13.9v2.2h-13.9ZM212.9,19.8c-3.2,0-5.7-1.6-5.7-4s2.4-4,5.7-4,5.6,1.6,5.6,4-2.4,4-5.6,4ZM224.7,21v7.9h-2.8v-5.7h-12.9v-2.2h15.7ZM209.4,5.1h7v2.2h-7v-2.2ZM212.9,13.8c-1.6,0-2.9.8-2.9,1.9s1.4,1.9,2.9,1.9,2.9-.8,2.9-1.9-1.3-1.9-2.9-1.9ZM224.7,13.4v6.3h-2.8V4.8h2.8v6.4h3.5v2.3h-3.5Z"/>
  </g>
  <g>
    <path class="st0" d="M14,65c-.9.8-2.2,1.2-4,1.2s-3.3-.3-4.5-1v-1.8c1.4.6,2.8.9,4.3.9s3.1-.8,3.1-2.4-.2-1.1-.5-1.5c-.3-.3-1-.7-1.8-.9l-1.5-.5c-1.1-.3-2-.8-2.5-1.5-.6-.6-.9-1.5-.9-2.7s.4-2.2,1.3-3c.8-.7,2.1-1.1,3.7-1.1s2.7.3,3.9.8v1.8c-1.3-.5-2.5-.8-3.9-.8s-1.5.2-2,.5c-.5.3-.7.9-.7,1.5s.1,1.1.4,1.5c.3.3.8.6,1.6.8l1.5.5c1.3.4,2.2.9,2.8,1.5.6.6.9,1.5.9,2.7s-.4,2.5-1.3,3.3Z"/>
    <path class="st0" d="M22.7,66.1c-1.8,0-3.2-.5-4.1-1.5-.9-1-1.4-2.4-1.4-4.1v-.3c0-1.8.5-3.2,1.5-4.2,1-1,2.2-1.4,3.6-1.4,3.1,0,4.7,1.8,4.7,5.3v1h-7.5c0,1.2.4,2.1,1,2.6.6.5,1.5.8,2.6.8s2.3-.3,3.5-.8v1.5c-1,.7-2.3,1.1-3.9,1.1ZM22.2,56.3c-.7,0-1.3.2-1.9.7-.5.5-.8,1.3-.9,2.4h5.2c0-1.1-.2-1.9-.6-2.4-.4-.5-1-.7-1.9-.7Z"/>
    <path class="st0" d="M34,66.1c-1.7,0-3-.5-3.9-1.4s-1.4-2.3-1.4-4.1v-.4c0-1.7.5-3.1,1.5-4.1,1-1,2.3-1.5,3.9-1.5s2.9.5,3.9,1.5c.9,1,1.4,2.4,1.4,4.1v.3c0,1.7-.5,3.1-1.5,4.1-1,1-2.2,1.5-3.8,1.5ZM34,64.4c.9,0,1.7-.3,2.2-1s.8-1.6.8-2.8v-.6c0-2.5-1-3.8-3-3.8s-1.7.3-2.2,1c-.5.6-.8,1.6-.8,2.8v.6c0,2.5,1,3.8,3.1,3.8Z"/>
    <path class="st0" d="M45,66.1c-1.1,0-2-.3-2.6-.8-.6-.5-.9-1.4-.9-2.4v-8.1h2.2v7.7c0,.7.1,1.1.4,1.4.3.3.8.4,1.6.4s1.7-.2,2.8-.7v-8.8h2.2v11.1h-1.9l-.2-1h-.1c-1.1.8-2.3,1.2-3.5,1.2Z"/>
    <path class="st0" d="M53.9,65.9v-15.9h2.2v15.9h-2.2Z"/>
    <path class="st0" d="M65.6,65.9v-14.9h2.7l6.7,11.2h0v-11.2h2.1v14.9h-2.3l-7.1-11.8h0v11.8h-2.1Z"/>
    <path class="st0" d="M83.3,66.1c-1.1,0-1.9-.3-2.6-.8-.6-.5-1-1.3-1-2.4,0-1.9,1.2-2.9,3.6-3.2l2.9-.3v-1c0-.8-.2-1.4-.6-1.6-.4-.3-1.1-.4-2.1-.4s-1.8.1-2.7.3v-1.5c1.1-.4,2.3-.6,3.6-.6,2.7,0,4.1,1.1,4.1,3.3v8h-1.8l-.2-.9h-.1c-.6.8-1.6,1.1-2.9,1.1ZM83.9,64.5c1,0,1.8-.2,2.3-.7v-3l-2.4.2c-.6,0-1.1.2-1.4.5-.3.3-.4.7-.4,1.3s.2,1,.5,1.3c.3.3.8.4,1.4.4Z"/>
    <path class="st0" d="M95.2,66c-2.1,0-3.1-.9-3.1-2.8v-6.7h-1.6v-1.7h1.6v-2.6h2.2v2.6h2.7v1.7h-2.7v6.4c0,.5.1.9.3,1.1.2.2.6.3,1.2.3s.8,0,1.4-.1v1.4c-.7.3-1.3.4-2,.4Z"/>
    <path class="st0" d="M99.6,52.7v-2.1h2.2v2.1h-2.2ZM99.6,65.9v-11.1h2.2v11.1h-2.2Z"/>
    <path class="st0" d="M109.6,66.1c-1.7,0-3-.5-3.9-1.4s-1.4-2.3-1.4-4.1v-.4c0-1.7.5-3.1,1.5-4.1,1-1,2.3-1.5,3.9-1.5s2.9.5,3.9,1.5c.9,1,1.4,2.4,1.4,4.1v.3c0,1.7-.5,3.1-1.5,4.1-1,1-2.2,1.5-3.8,1.5ZM109.6,64.4c.9,0,1.7-.3,2.2-1s.8-1.6.8-2.8v-.6c0-2.5-1-3.8-3-3.8s-1.7.3-2.2,1c-.5.6-.8,1.6-.8,2.8v.6c0,2.5,1,3.8,3.1,3.8Z"/>
    <path class="st0" d="M117.2,65.9v-11.1h2.1v1h0c1.1-.8,2.4-1.2,3.8-1.2s1.9.2,2.5.7c.5.5.8,1.3.8,2.3v8.3h-2.2v-7.8c0-.6-.1-1.1-.4-1.3-.3-.3-.8-.4-1.7-.4s-1.9.2-2.8.7v8.8h-2.2Z"/>
    <path class="st0" d="M132.4,66.1c-1.1,0-1.9-.3-2.6-.8-.6-.5-1-1.3-1-2.4,0-1.9,1.2-2.9,3.6-3.2l2.9-.3v-1c0-.8-.2-1.4-.6-1.6-.4-.3-1.1-.4-2.1-.4s-1.8.1-2.7.3v-1.5c1.1-.4,2.3-.6,3.6-.6,2.7,0,4.1,1.1,4.1,3.3v8h-1.8l-.2-.9h-.1c-.6.8-1.6,1.1-2.9,1.1ZM133,64.5c1,0,1.8-.2,2.3-.7v-3l-2.4.2c-.6,0-1.1.2-1.4.5-.3.3-.4.7-.4,1.3s.2,1,.5,1.3c.3.3.8.4,1.4.4Z"/>
    <path class="st0" d="M140.5,65.9v-15.9h2.2v15.9h-2.2Z"/>
    <path class="st0" d="M162.2,64.8c-.9.9-2.3,1.3-4.2,1.3s-3.4-.5-4.4-1.4c-1-.9-1.5-2.3-1.5-4.1v-9.7h2.4v9.6c0,1.4.3,2.4.9,3s1.5.9,2.7.9,2.1-.3,2.6-.9c.5-.6.8-1.6.8-3v-9.6h2.1v9.7c0,1.9-.5,3.3-1.4,4.2Z"/>
    <path class="st0" d="M166.9,65.9v-11.1h2.1v1h0c1.1-.8,2.4-1.2,3.8-1.2s1.9.2,2.5.7c.5.5.8,1.3.8,2.3v8.3h-2.2v-7.8c0-.6-.1-1.1-.4-1.3-.3-.3-.8-.4-1.7-.4s-1.9.2-2.8.7v8.8h-2.2Z"/>
    <path class="st0" d="M179.3,52.7v-2.1h2.2v2.1h-2.2ZM179.3,65.9v-11.1h2.2v11.1h-2.2Z"/>
    <path class="st0" d="M187.7,65.9l-4.2-11.1h2.4l3,8.4h0l3-8.4h2.1l-4.2,11.1h-2.2Z"/>
    <path class="st0" d="M201,66.1c-1.8,0-3.2-.5-4.1-1.5-.9-1-1.4-2.4-1.4-4.1v-.3c0-1.8.5-3.2,1.5-4.2,1-1,2.2-1.4,3.6-1.4,3.1,0,4.7,1.8,4.7,5.3v1h-7.5c0,1.2.4,2.1,1,2.6.6.5,1.5.8,2.6.8s2.3-.3,3.5-.8v1.5c-1,.7-2.3,1.1-3.9,1.1ZM200.5,56.3c-.7,0-1.3.2-1.9.7-.5.5-.8,1.3-.9,2.4h5.2c0-1.1-.2-1.9-.6-2.4-.4-.5-1-.7-1.9-.7Z"/>
    <path class="st0" d="M207.6,65.9v-11.1h2.1v1.2h0c.4-.4.8-.7,1.4-1s1.1-.4,1.7-.4.6,0,.7,0v1.9c-.3,0-.6,0-.9,0-1.1,0-2.1.3-2.9.8v8.5h-2.2Z"/>
    <path class="st0" d="M218.7,66.1c-1.6,0-2.8-.3-3.7-.8v-1.6c.5.2.8.3,1,.4.2,0,.5.1,1,.2.5,0,.9.1,1.4.1,1.6,0,2.3-.5,2.3-1.5s-.1-.8-.4-1c-.3-.2-.7-.4-1.4-.6l-1.1-.3c-.9-.2-1.6-.6-2.1-1-.5-.5-.7-1.2-.7-2.1s.3-1.8,1-2.4c.7-.6,1.7-.9,3-.9s2.3.2,3.2.7v1.7c-.9-.4-1.9-.5-3-.5s-2.1.5-2.1,1.4.1.7.3.9c.2.2.6.4,1.2.6l1.1.3c1.1.3,2,.6,2.4,1.1.5.5.7,1.2.7,2.2s-.4,1.9-1.1,2.5c-.7.6-1.8.9-3.1.9Z"/>
    <path class="st0" d="M225.3,52.7v-2.1h2.2v2.1h-2.2ZM225.3,65.9v-11.1h2.2v11.1h-2.2Z"/>
    <path class="st0" d="M234.4,66c-2.1,0-3.1-.9-3.1-2.8v-6.7h-1.6v-1.7h1.6v-2.6h2.2v2.6h2.7v1.7h-2.7v6.4c0,.5.1.9.3,1.1.2.2.6.3,1.2.3s.8,0,1.4-.1v1.4c-.7.3-1.3.4-2,.4Z"/>
    <path class="st0" d="M239.7,69.2c-.6,0-1.1-.1-1.5-.3v-1.5c.3,0,.6.1,1.1.1s1.1,0,1.5-.2c.3-.1.6-.4.7-.8l.5-1.2-4.4-10.5h2.3l3.1,7.8h0l2.9-7.8h2.1l-4.6,12.1c-.4,1-.8,1.6-1.4,1.9s-1.4.4-2.5.4Z"/>
    <path class="st0" d="M262.3,66.2c-2.1,0-3.8-.6-5-1.9-1.2-1.3-1.8-3.1-1.8-5.6v-.5c0-1.3.2-2.4.5-3.4s.9-1.7,1.5-2.3c.7-.6,1.4-1,2.2-1.3.8-.3,1.7-.4,2.8-.4,1.5,0,2.8.3,3.8.8v1.8c-1.4-.5-2.7-.8-3.8-.8s-2.6.4-3.4,1.3c-.8.9-1.2,2.2-1.2,3.9v.8c0,3.8,1.6,5.6,4.7,5.6s2.6-.3,3.9-.9v1.8c-1.1.6-2.6.9-4.3.9Z"/>
    <path class="st0" d="M273.5,66.1c-1.7,0-3-.5-3.9-1.4-.9-1-1.4-2.3-1.4-4.1v-.4c0-1.7.5-3.1,1.5-4.1,1-1,2.3-1.5,3.9-1.5s2.9.5,3.9,1.5c.9,1,1.4,2.4,1.4,4.1v.3c0,1.7-.5,3.1-1.5,4.1-1,1-2.2,1.5-3.8,1.5ZM273.6,64.4c.9,0,1.7-.3,2.2-1,.5-.6.8-1.6.8-2.8v-.6c0-2.5-1-3.8-3-3.8s-1.7.3-2.2,1c-.5.6-.8,1.6-.8,2.8v.6c0,2.5,1,3.8,3.1,3.8Z"/>
    <path class="st0" d="M281.3,65.9v-15.9h2.2v15.9h-2.2Z"/>
    <path class="st0" d="M286.7,65.9v-15.9h2.2v15.9h-2.2Z"/>
    <path class="st0" d="M296.9,66.1c-1.8,0-3.2-.5-4.1-1.5-.9-1-1.4-2.4-1.4-4.1v-.3c0-1.8.5-3.2,1.5-4.2s2.2-1.4,3.6-1.4c3.1,0,4.7,1.8,4.7,5.3v1h-7.5c0,1.2.4,2.1,1,2.6.6.5,1.5.8,2.6.8s2.3-.3,3.5-.8v1.5c-1,.7-2.3,1.1-3.9,1.1ZM296.4,56.3c-.7,0-1.3.2-1.9.7-.5.5-.8,1.3-.9,2.4h5.2c0-1.1-.2-1.9-.6-2.4-.4-.5-1-.7-1.9-.7Z"/>
    <path class="st0" d="M307.6,69.1c-1.8,0-3.1-.2-3.9-.6-.8-.4-1.3-1-1.3-1.8s.7-1.8,2.1-2.3h0c-.4-.2-.7-.4-.9-.6-.2-.2-.3-.4-.3-.8,0-.8.4-1.5,1.3-2-1-.6-1.4-1.5-1.4-2.7v-.2c0-1.1.4-2,1.2-2.6.8-.6,1.9-.9,3.2-.9s1.2,0,1.7.2h3.9v1.5h-1.8c.4.4.6,1,.6,1.8v.2c0,1.1-.4,2-1.2,2.6-.8.6-1.9.9-3.2.9s-1.3,0-1.9-.2c-.3.3-.4.5-.4.8s0,.4.2.5c.1,0,.4.1.8.1h3.1c2.4,0,3.6,1,3.6,2.9s-1.9,3.3-5.6,3.3ZM307.6,67.6c1.3,0,2.1-.1,2.6-.3.5-.2.7-.6.7-1.1s-.1-.8-.4-1c-.3-.2-.8-.3-1.4-.3h-3.1c-.9.3-1.3.8-1.3,1.6s.2.7.6.9c.4.2,1.2.2,2.3.2ZM307.7,60.3c1.5,0,2.2-.6,2.2-1.9v-.3c0-1.3-.7-2-2.2-2s-1.2.2-1.6.5c-.4.3-.6.8-.6,1.4v.3c0,.6.2,1.1.6,1.4.4.3.9.5,1.6.5Z"/>
    <path class="st0" d="M320,66.1c-1.8,0-3.2-.5-4.1-1.5-.9-1-1.4-2.4-1.4-4.1v-.3c0-1.8.5-3.2,1.5-4.2s2.2-1.4,3.6-1.4c3.1,0,4.7,1.8,4.7,5.3v1h-7.5c0,1.2.4,2.1,1,2.6.6.5,1.5.8,2.6.8s2.3-.3,3.5-.8v1.5c-1,.7-2.3,1.1-3.9,1.1ZM319.5,56.3c-.7,0-1.3.2-1.9.7-.5.5-.8,1.3-.9,2.4h5.2c0-1.1-.2-1.9-.6-2.4-.4-.5-1-.7-1.9-.7Z"/>
    <path class="st0" d="M337.3,66.1c-1.7,0-3-.5-3.9-1.4-.9-1-1.4-2.3-1.4-4.1v-.4c0-1.7.5-3.1,1.5-4.1s2.3-1.5,3.9-1.5,2.9.5,3.9,1.5c.9,1,1.4,2.4,1.4,4.1v.3c0,1.7-.5,3.1-1.5,4.1-1,1-2.2,1.5-3.8,1.5ZM337.3,64.4c.9,0,1.7-.3,2.2-1s.8-1.6.8-2.8v-.6c0-2.5-1-3.8-3-3.8s-1.7.3-2.2,1c-.5.6-.8,1.6-.8,2.8v.6c0,2.5,1,3.8,3.1,3.8Z"/>
    <path class="st0" d="M345.7,65.9v-9.4h-1.7v-1.7h1.7v-1.5c0-1.2.3-2,1-2.6.7-.6,1.5-.9,2.6-.9s1.5.1,2,.4v1.5c-.4-.1-1-.2-1.5-.2-1.3,0-1.9.7-1.9,2v1.3h2.5v1.7h-2.5v9.4h-2.2Z"/>
    <path class="st0" d="M358.9,65.9v-14.9h9.1v1.9h-6.8v4.8h5.3v1.9h-5.3v6.5h-2.3Z"/>
    <path class="st0" d="M370.4,52.7v-2.1h2.2v2.1h-2.2ZM370.5,65.9v-11.1h2.2v11.1h-2.2Z"/>
    <path class="st0" d="M375.8,65.9v-11.1h2.1v1h0c1.1-.8,2.4-1.2,3.8-1.2s1.9.2,2.5.7c.5.5.8,1.3.8,2.3v8.3h-2.2v-7.8c0-.6-.1-1.1-.4-1.3-.3-.3-.8-.4-1.7-.4s-1.9.2-2.8.7v8.8h-2.2Z"/>
    <path class="st0" d="M393,66.1c-1.8,0-3.2-.5-4.1-1.5-.9-1-1.4-2.4-1.4-4.1v-.3c0-1.8.5-3.2,1.5-4.2s2.2-1.4,3.6-1.4c3.1,0,4.7,1.8,4.7,5.3v1h-7.5c0,1.2.4,2.1,1,2.6.6.5,1.5.8,2.6.8s2.3-.3,3.5-.8v1.5c-1,.7-2.3,1.1-3.9,1.1ZM392.5,56.3c-.7,0-1.3.2-1.9.7-.5.5-.8,1.3-.9,2.4h5.2c0-1.1-.2-1.9-.6-2.4-.4-.5-1-.7-1.9-.7Z"/>
    <path class="st0" d="M404.5,65.9l5.5-14.9h2.3l5.5,14.9h-2.4l-1.5-4.1h-5.9l-1.5,4.1h-2.2ZM410.9,53.8l-2.2,6.3h4.6l-2.3-6.3h0Z"/>
    <path class="st0" d="M419.7,65.9v-11.1h2.1v1.2h0c.4-.4.8-.7,1.4-1,.6-.3,1.1-.4,1.7-.4s.6,0,.7,0v1.9c-.3,0-.6,0-.9,0-1.1,0-2.1.3-2.9.8v8.5h-2.2Z"/>
    <path class="st0" d="M431.5,66c-2.1,0-3.1-.9-3.1-2.8v-6.7h-1.6v-1.7h1.6v-2.6h2.2v2.6h2.7v1.7h-2.7v6.4c0,.5.1.9.3,1.1.2.2.6.3,1.2.3s.8,0,1.4-.1v1.4c-.7.3-1.3.4-2,.4Z"/>
    <path class="st0" d="M438.8,66.1c-1.6,0-2.8-.3-3.7-.8v-1.6c.5.2.8.3,1,.4.2,0,.5.1,1,.2.5,0,.9.1,1.4.1,1.6,0,2.3-.5,2.3-1.5s-.1-.8-.4-1c-.3-.2-.7-.4-1.4-.6l-1.1-.3c-.9-.2-1.6-.6-2.1-1-.5-.5-.7-1.2-.7-2.1s.3-1.8,1-2.4c.7-.6,1.7-.9,3-.9s2.3.2,3.2.7v1.7c-.9-.4-1.9-.5-3-.5s-2.1.5-2.1,1.4.1.7.3.9c.2.2.6.4,1.2.6l1.1.3c1.1.3,2,.6,2.4,1.1.5.5.7,1.2.7,2.2s-.4,1.9-1.1,2.5c-.7.6-1.8.9-3.1.9Z"/>
  </g>
</svg>