<?xml version="1.0" encoding="UTF-8"?>
<svg id="_레이어_1" xmlns="http://www.w3.org/2000/svg" version="1.1" viewBox="0 0 240.9 182.7">
  <!-- Generator: Adobe Illustrator 30.3.0, SVG Export Plug-In . SVG Version: 2.1.3 Build 182)  -->
  <defs>
    <style>
      .st0 {
        fill: #565452;
      }
    </style>
  </defs>
  <path class="st0" d="M44.3,130.6c-.6-1.4-2.8-.5-2.8-.5,1.8,1.2,2.8.5,2.8.5M40.8,130.4c.2,0,.4-.2.4-.4s-.2-.4-.4-.4-.4.2-.4.4.2.4.4.4M45.7,130.8s-.8,0-1.5.4h2.4s-1.1-3.1-4.2-3.5c0,0,.7,2.3,3.3,3.1M47.2,131.3c0-.2-.2-.3-.3-.3s-.3.2-.3.3.2.3.3.3.3-.2.3-.3M35.1,131.3h2.3c-.7-.5-1.5-.5-1.5-.5,2.5-.8,3.3-3.1,3.3-3.1-3,.4-4.2,3.5-4.2,3.5h0M34.4,131.6c0,.2.2.3.3.3s.3-.2.3-.3-.2-.3-.3-.3-.3.2-.3.3M34.6,133.9c-1.7-1.2-4-.2-4-.2,2.1-1.7,2.1-4.2,2.1-4.2-2.7,1.4-2.8,4.6-2.8,4.6,3.3.9,4.6-.2,4.6-.2M35.5,133.3v-1.1c-1.2-.4-2.4-.2-2.4-.2,2.4-1.3,2.8-3.8,2.8-3.8-2.9.9-3.5,4.1-3.5,4.1,1.3.6,2.4.9,3.1.9M48.6,131.9s-1-.3-2.2.2v1.1c.8,0,1.5-.2,2.9-.9,0,0-.6-3.2-3.6-4,0,0,.5,2.5,2.9,3.7M37.2,130.8s1,.6,2.8-.6c0,0-2.2-.9-2.8.6M52.5,146.1h-1.3v1.6h1.3v-1.6ZM49,135.1l-.6.8,3.5,3.5.7-.7s-3.6-3.6-3.6-3.6ZM56,135l-3.2-3.2-2.9,3.1,3.1,3.1,3.1-3h0ZM29.5,134.6c0,.2.2.3.3.3s.3-.2.3-.3-.2-.3-.3-.3-.3.2-.3.3M53.5,138c.6.2,1.3.3,2.1.3,0,0,.4-1.1.2-2.5l-1.1,1c.2.3.2.6.5.9,0,0-.3-.2-.8-.6l-.9.9h0ZM52.5,154h-1.3v1.6h1.3v-1.6ZM50.7,133.1l.7-.7c-.3-1-.9-2.4-2.5-3.1,0,0,0,2.3,1.8,3.9M57.3,144.4c0,.2.2.3.3.3s.3-.2.3-.3-.2-.3-.3-.3-.3.2-.3.3M53.4,129.5c.9.5,1.7,0,1.7,0,1-.6,1.8.2,1.8.2.7.6.6,1.3.6,1.3,0,.6-.2.6-.2.6-.3.2-.2-.2-.2-.2v-.3c.2-1.3-.9-1.5-.9-1.5-1.3-.2-1.6.9-1.6.9v.9l-1.6-1.6v1.3l3.5,3.5h1.3l-1.3-1.3c.7.2,1.3.2,1.3.2,1.8,0,2-1.8,2-1.8.5-1.8-1.2-3.2-1.2-3.2-1.1-.9-2.8-1-2.8-1-2.4-.3-3.3-1.8-3.3-1.8-.3.7-.2,1.7-.2,1.7.2,1.6,1.2,2,1.2,2M57.7,143.9s2-2.6.8-5.3c0,0-1.7,2-.9,4.6,0,0-1.3-2.2-3.3-2.3,0,0,.3,1.7,3.5,3.1M55.7,139.2c.2,0,.3-.2.3-.3s-.2-.3-.3-.3-.3.2-.3.3.2.3.3.3M49.6,134.3l.9-.9c-.8-.2-2.2-.5-3.4.5,0,0,.6.7,2.5.5M56.9,141s1.6-2.9-.2-5.3c0,0-1.3,2.3-.2,4.7,0,0-1.7-2-3.7-1.7,0,0,.6,1.7,4,2.4M46.3,163c0,.2.2.3.3.3s.3-.2.3-.3-.2-.3-.3-.3-.3.2-.3.3M47.8,162.7s1.7-1.5,1.7-3.3h-.6c-.6.5-1.3,1.5-1.8,3.6,0,0,2.9,1.6,5.4-.2,0,0-2.3-1.3-4.7-.2M45,163.7s2.2-1.3,2.3-3.3c0,0-1.7.3-3.1,3.5,0,0,2.6,2,5.3.8,0,0-2-1.7-4.6-.9M42,164.3c2.3-1,2.8-2.8,2.8-2.8-1.8.2-3.3,2.8-3.3,2.8,2,2,4.6,1.8,4.6,1.8-1.2-1.6-4.1-1.7-4.1-1.7M40.7,163.3v.8c-.3-.6-1.7-2.5-3.2-2.6,0,0,.6,1.8,2.8,2.8,0,0-2.9.2-4,1.7,0,0,2.5.2,4.5-1.7v1.3h.8v-2.2h-.9,0ZM51.2,156.4v1.6l7.2,6h1.4l-7.3-7.6h-1.3ZM50.4,161.3s.6-.8.9-1.9h-1.3c-.2.6-.3,1.3-.4,2.3,0,0,2.7.9,4.8-.6l-.8-.6c-.9,0-2.1,0-3.3.9M36.1,163.1c0-.2-.2-.3-.3-.3s-.3.2-.3.3.2.3.3.3.3-.2.3-.3M56.2,154.7s.4-2.5-1-3.9c0,0-.9,1.6.7,4.6,0,0,3.2-.6,4-3.5,0,0-2.5.5-3.7,2.9M53.2,160l-1-.9v.9h.9M51.6,160.4c.2,0,.3-.2.3-.3s-.2-.3-.3-.3-.3.2-.3.3.2.3.3.3M26.5,156c0,.2.2.3.3.3s.3-.2.3-.3-.2-.3-.3-.3-.3.2-.3.3M24.3,150.2c2.5-2.4,2.1-4.1,2.1-4.1-1.8.9-2.2,3.4-2.2,3.4-.3-2.7-2.6-3.9-2.6-3.9-.2,3.1,2.7,4.6,2.7,4.6M24.3,150.6c0,.2.2.3.3.3s.3-.2.3-.3-.2-.3-.3-.3-.3.2-.3.3M28.5,131.8l-2.4-2.4c-1.4-1.4-3.1-.5-3.1-.5l4.6,4.6c.3-1.2.9-1.7.9-1.7M26.7,133.2l-3.9-3.9s-1.7,1.2-.4,3.9h4.3ZM25.1,153c2-2.8,1.4-4.4,1.4-4.4-1.7,1.2-1.7,3.7-1.7,3.7-.8-2.5-3.2-3.4-3.2-3.4.4,3,3.5,4.2,3.5,4.2M26.9,160.9s.5-.3,1.2-.4l-.8-.2h0l-3.4,3.5s-.4.6,0,.9c0,0,.3.2.8,0l3.2-2.8c-.3-.2-1-.8-1.1-.9M33.2,159.5h-.4c0,1.9,1.8,3.4,1.8,3.4-2.4-1-4.7.2-4.7.2,2.5,1.7,5.4,0,5.4,0-.6-2.3-1.5-3.3-2-3.7M26.3,155.7c1.6-3.1.6-4.6.6-4.6-1.4,1.4-.9,3.9-.9,3.9-1.3-2.4-3.8-2.8-3.8-2.8.9,2.9,4.1,3.5,4.1,3.5M35,160.5c.2,2,2.4,3.2,2.4,3.2-2.6-.6-4.6,1.1-4.6,1.1,2.8,1.2,5.3-.9,5.3-.9-1.3-3.1-3.1-3.5-3.1-3.5M27.9,136.3c3.5.4,4.6-1,4.6-1-1.8-.9-4,.5-4,.5,1.8-2,1.3-4.5,1.3-4.5-2.4,1.8-1.9,5-1.9,5M28,158.2c.9-3.3-.2-4.6-.2-4.6-1.2,1.7-.2,4-.2,4-1.7-2.1-4.2-2.1-4.2-2.1,1.4,2.7,4.6,2.8,4.6,2.8M53.1,155.5s-.2.2-.3.6l.6.6c0-.4-.2-.9-.3-1.3M31.7,142.3l1.2,1h2.7c-.2-.2,0-1,0-1h-3.9ZM38.4,134.5v-1.5h4.6v2.1h1.5v1.5h-1.5v.7h1.5v1.7h-1.5v5h-1.3l-1.7-1.7-1.6,1.6-1.2-1.2,2.7-2.7,1.3,1.3v-6.8h-2.9.1ZM36,141.6c0,3.5,2.2,5.1,4.9,5.1s5-1.7,5-5.1v-10h-9.8v10M32.4,135.8s-.3.5-1.4.7l1.4,1.3v-2h0ZM44.9,150.4c.3,0,.3-.2.3-.5v-2.3h.6v2.4c0,.3,0,.9-1,.9s-.9-.3-.9-.9v-2.4h.6v2.1c0,.2,0,.6.3.6M46.6,151.6v.6h-.6v.7h.6v.6h-.6v.7h.7v.6h-1.3v-3.3h1.3-.1ZM46.5,147.6h.7l.2.5c0,.2.2.3.2.5h0c0-.2,0-.3.2-.5l.2-.5h.7l-.7,1.6.8,1.7h-.8l-.2-.6c0-.2,0-.3-.2-.5h0c0,.2,0,.3-.2.5l-.2.6h-.7l.7-1.7-.7-1.6ZM48.4,155l-.2-.6h-.6l-.2.6h-.6l.8-3.3h.7l.8,3.3h-.7ZM44.2,155l-.2-2.4h0v.8l-.4,1.6h-.5l-.3-1.6v-.7h0v2.4h-.8l.3-3.3h.9l.3,2h0l.2-2h.9l.3,3.3h-.8,0ZM42.1,147.6h.6v2.7h.7v.6h-1.3v-3.3ZM41.3,147.1v11.2s.6-.6,1.5-.6h7v-13.9h-3.8s-1.1,3.3-4.7,3.3M38.4,148.6c0-.2,0-.4-.5-.4h0v.9h0c.3,0,.4-.2.4-.5M47.9,152.5h0v.5l-.2.9h.5l-.2-.9v-.5h0ZM30.3,137.8h0c-.2,0-.9.9-2.2,1l.5.4h4.6l-1.4-1.4h0l-.7-.7s-.5.6-.6.7M55.7,155.7c0-.2-.2-.3-.3-.3s-.3.2-.3.3.2.3.3.3.3-.2.3-.3M57.5,150.5c.2,0,.3-.2.3-.3s-.2-.3-.3-.3-.3.2-.3.3.2.3.3.3M55.6,148.3s-.6,1.7,1.5,4.4c0,0,3.1-1.2,3.4-4.2,0,0-2.4.9-3.1,3.5,0,0,0-2.5-1.7-3.6M57.9,149s-.5-2.5-2.3-3.3c0,0-.3,1.7,2.3,4.1,0,0,2.8-1.7,2.6-4.7,0,0-2.2,1.3-2.5,4M54.3,153.2s-1.2,1.3,0,4.6c0,0,3.3,0,4.6-2.8,0,0-2.6,0-4.2,2.2,0,0,.9-2.4-.4-4M58,146.1s-.9-2.4-2.8-2.8c0,0,0,1.8,2.9,3.6,0,0,2.4-2.2,1.7-5.1,0,0-2,1.7-1.7,4.3M55.9,159.3c.5-.3.9-.7,1.3-1.3,0,0-1.1-.2-2.4.3l1,1h.1ZM36.9,153v-.5h0v.5l-.2.9h.5l-.2-.9h0ZM27.1,133.4c-2,2.2-.9,5.3-.9,5.3,3.5-.2,4.3-1.7,4.3-1.7-2-.6-3.9,1.1-3.9,1.1,1.4-2.3.6-4.6.6-4.6M40.1,160h2s.2-.9.7-.9h8.3v-14.5l-.8-.9v14.3h-7.4s-1,0-1.7,1c0,0-.6-.9-1.9-1h-7.2v-14.2l-.9.9v14.3h8s1,0,1,.9M24.7,144.8c0-.2-.2-.3-.3-.3s-.3.2-.3.3.2.3.3.3.3-.2.3-.3M24.4,143.5c.6-2.6-1.1-4.6-1.1-4.6-1.2,2.8.9,5.3.9,5.3,3.1-1.3,3.5-3.1,3.5-3.1-2,.2-3.2,2.4-3.2,2.4M22.1,142.2c-.7,3,1.8,5,1.8,5,2.9-1.9,2.8-3.7,2.8-3.7-2,.5-2.8,2.9-2.8,2.9.2-2.7-1.9-4.3-1.9-4.3M25.5,136.3s-.2-1.1.9-2.7h-3.8s.2.5,2.8,2.7M35.4,141.9v-.4l-2-2h-4.6l2.6,2.4h4ZM30.6,158.5c0,.2,0,0,0,0v-2l-.3.4c.2.5.2,1.2.3,1.7M25.8,139.2c0,.2.2.3.3.3s.3-.2.3-.3-.2-.3-.3-.3-.3.2-.3.3M30.6,160.7c.2,0,.3-.2.3-.3s-.2-.3-.3-.3-.3.2-.3.3.2.3.3.3M32.8,138.3l2.7,2.6v-2l-2.7-2.7v2h0ZM30.7,153.8h-1.3v1.6h1.3v-1.6ZM48.3,136.6l-2,2.3v3.6s0,.6-.2.9h1.3l3.8-3.8-2.9-2.9h0ZM37.1,147.6v.6h-.6v.7h.6v.6h-.6v.7h.7v.6h-1.3v-3.3l-.9,3.3h-.6l-.9-3.3h.7l.4,1.6v.6h0v-.6l.4-1.6h2.2-.1ZM38,154.9h-.7l-.2-.6h-.6l-.2.6h-.6l.8-3.3h.7l.8,3.3ZM37.2,147.6h.6c.4,0,1.2,0,1.2.9s-.2.7-.5.9l.6,1.5h-.7l-.6-1.5h0v1.5h-.6v-3.3h0ZM39.3,147.6h.6v3.3h-.6v-3.3ZM38.8,155c-.2,0-.4,0-.6-.2v-.6c.2,0,.3.2.5.2s.4-.2.4-.4-.2-.3-.4-.5c-.4-.2-.6-.5-.6-1s.3-.9.9-.9.4,0,.6.2v.6c-.2,0-.3-.2-.5-.2s-.3.2-.3.3c0,.6,1,.6,1,1.5s-.3,1-.9,1M35.6,152.3h-.6v2.7h-.6v-2.7h-.6v-.6h1.7v.6h0ZM32.3,143.8v13.9h6.9c.8,0,1.6.6,1.6.6v-11.2c-4.2,0-5-3.4-5-3.4h-3.5ZM32.6,161.9c0-1.1-.2-1.8-.5-2.4h-1.3c.3,1.2,1.1,2,1.1,2-2.3-1.4-4.6-.6-4.6-.6,2.2,2,5.3.9,5.3.9M28.4,139.6l-.6-.6c-1.5.4-2.6,1.7-2.6,1.7.7-1.7.3-3.2,0-4.1l-.5-.4c-1.3,2.4.2,5.1.2,5.1,2-.5,3-1.3,3.5-1.8M25.1,158.4c1.8,2.4,5,1.9,5,1.9.4-3.5-1-4.6-1-4.6-.9,1.8.5,4,.5,4-2-1.8-4.5-1.3-4.5-1.3M30.6,146.2h-1.3v1.6h1.3v-1.6Z"/>
  <g>
    <g>
      <path class="st0" d="M24.5,60.4h5.8v1.1h-4.4v3h4.1v1.1h-4.1v4.4h-1.4v-9.7Z"/>
      <path class="st0" d="M35.7,70c0-.3-.1-.7-.1-1-.6,1.1-1.5,1.2-2.1,1.2-1.5,0-2.4-.9-2.4-2s.2-1.4,1.2-2c.7-.4,1.8-.4,2.3-.4s.5,0,.9,0c0-.8,0-1.2-.2-1.5-.3-.3-.8-.4-1.2-.4-1.3,0-1.3.9-1.4,1.1h-1.3c0-.3,0-.8.5-1.3.5-.6,1.5-.7,2.2-.7s2,.3,2.4,1c.2.4.2.7.2,1v3.2c0,.1,0,1,0,1.7h-1.1ZM34.8,66.7c-.5,0-2.4,0-2.4,1.4s.3,1.2,1.4,1.2,1.1-.3,1.4-.7c.3-.5.3-.8.3-1.8-.2,0-.4,0-.7,0Z"/>
      <path class="st0" d="M42.8,65.5c0-.3-.1-1.4-1.3-1.4-1.7,0-1.7,2-1.7,2.5,0,1.4.3,2.7,1.7,2.7s1.4-.8,1.5-1.5h1.3c0,1.3-1.1,2.4-2.7,2.4s-1.5,0-2.2-.9c-.4-.5-.8-1.2-.8-2.6,0-2.8,1.7-3.6,3.1-3.6s1.4,0,2.1.8c.5.6.5,1.1.6,1.5h-1.3Z"/>
      <path class="st0" d="M46.9,63.3v4.3c0,.7.1,1.5,1.4,1.5s1.2-.2,1.6-.8c.3-.4.3-.9.3-1.3v-3.8h1.3v5.5c0,.1,0,.9,0,1.3h-1.3v-1.2c-.3.5-.7,1.2-2.2,1.2s-2.4-1-2.4-2.3v-4.5h1.3Z"/>
      <path class="st0" d="M53.9,60.4h1.3v9.7h-1.3v-9.7Z"/>
      <path class="st0" d="M56.6,63.3h1.2v-1.4l1.2-.4v1.8h1.5v.9h-1.5v4c0,.3,0,.9.9.9s.5,0,.6,0v1c-.2,0-.6,0-1,0-1.2,0-1.7-.3-1.7-1.4v-4.5h-1.2v-.9Z"/>
      <path class="st0" d="M65.1,70.1l-1,2.5h-1.3l1-2.6-2.8-6.7h1.4l2.1,5.3,2.1-5.3h1.4l-3,6.8Z"/>
      <path class="st0" d="M76.2,63.1c2.7,0,3.3,2.1,3.3,3.5s-1.1,3.6-3.4,3.6-3.3-1.5-3.3-3.5.8-3.6,3.4-3.6ZM76.1,69.3c1,0,2-.7,2-2.7s-.8-2.6-2-2.6-2.1.5-2.1,2.6.6,2.7,2,2.7Z"/>
      <path class="st0" d="M84.8,61.3c-.2,0-.5,0-.7,0-1,0-1,.5-1,1v1.1h1.6v.9h-1.6v5.8h-1.2v-5.8h-1.3v-.9h1.3v-.8c0-.9,0-1.3.3-1.6.3-.4.8-.7,1.7-.7s.8,0,1,0v1Z"/>
      <path class="st0" d="M95.4,63c0-.3-.2-1.7-2.1-1.7s-2.7,2.4-2.7,4,.5,3.8,2.7,3.8,1.2-.1,1.6-.6c.3-.4.4-.8.5-1h1.5c-.2,1.9-2,2.7-3.6,2.7-3.4,0-4.1-3-4.1-4.9s.8-5.1,4.2-5.1,3.3.5,3.5,2.7h-1.4Z"/>
      <path class="st0" d="M98.6,64.7c0-.5,0-.9,0-1.4h1.3v1.3c.3-.9,1.1-1.2,1.6-1.3.4,0,.7,0,.9,0v1.2c0,0-.1,0-.2,0,0,0-.2,0-.4,0-1.5,0-1.8.9-1.8,2v3.6h-1.3v-5.4Z"/>
      <path class="st0" d="M107.8,70c0-.3-.1-.7-.1-1-.6,1.1-1.5,1.2-2.1,1.2-1.5,0-2.4-.9-2.4-2s.2-1.4,1.2-2c.7-.4,1.8-.4,2.3-.4s.5,0,.9,0c0-.8,0-1.2-.2-1.5-.3-.3-.8-.4-1.2-.4-1.3,0-1.3.9-1.4,1.1h-1.3c0-.3,0-.8.5-1.3.5-.6,1.5-.7,2.2-.7s2,.3,2.4,1c.2.4.2.7.2,1v3.2c0,.1,0,1,0,1.7h-1.1ZM107,66.7c-.5,0-2.4,0-2.4,1.4s.3,1.2,1.4,1.2,1.1-.3,1.4-.7c.3-.5.3-.8.3-1.8-.2,0-.4,0-.7,0Z"/>
      <path class="st0" d="M114.5,61.3c-.2,0-.5,0-.7,0-1,0-1,.5-1,1v1.1h1.6v.9h-1.6v5.8h-1.2v-5.8h-1.3v-.9h1.3v-.8c0-.9,0-1.3.3-1.6.3-.4.8-.7,1.7-.7s.8,0,1,0v1Z"/>
      <path class="st0" d="M114.3,63.3h1.2v-1.4l1.2-.4v1.8h1.5v.9h-1.5v4c0,.3,0,.9.9.9s.5,0,.6,0v1c-.2,0-.6,0-1,0-1.2,0-1.7-.3-1.7-1.4v-4.5h-1.2v-.9Z"/>
      <path class="st0" d="M127.6,70c0-.3-.1-.7-.1-1-.6,1.1-1.5,1.2-2.1,1.2-1.5,0-2.4-.9-2.4-2s.2-1.4,1.2-2c.7-.4,1.8-.4,2.3-.4s.5,0,.9,0c0-.8,0-1.2-.2-1.5-.3-.3-.8-.4-1.2-.4-1.3,0-1.3.9-1.4,1.1h-1.3c0-.3,0-.8.5-1.3.5-.6,1.5-.7,2.2-.7s2,.3,2.4,1c.2.4.2.7.2,1v3.2c0,.1,0,1,0,1.7h-1.1ZM126.7,66.7c-.5,0-2.4,0-2.4,1.4s.3,1.2,1.4,1.2,1.1-.3,1.4-.7c.3-.5.3-.8.3-1.8-.2,0-.4,0-.7,0Z"/>
      <path class="st0" d="M131,64.1v-.8s1.2,0,1.2,0v1.1c.2-.3.6-1.2,2.2-1.2s2.4.2,2.4,2.3v4.6h-1.3v-4.3c0-.4,0-.8-.4-1.2-.3-.3-.8-.5-1.2-.5-.9,0-1.8.7-1.8,2v3.9h-1.3v-5.9Z"/>
      <path class="st0" d="M143.8,60.4h1.3v8.6c0,.1,0,.7,0,1.1h-1.3v-1.1c-.1.2-.3.5-.6.7-.5.4-1.2.5-1.7.5-.9,0-2.9-.5-2.9-3.4s1.5-3.7,3-3.7,1.9.9,2.1,1.1v-3.8ZM143.3,64.7c-.3-.3-.8-.7-1.5-.7-1.8,0-1.8,2.2-1.8,2.7,0,1.2.3,2.6,1.8,2.6s2-2.2,2-2.7c0-1-.2-1.5-.5-1.9Z"/>
      <path class="st0" d="M151,60.4h2.8c1.3,0,2.8,0,3.9,1.3.9,1,1.2,2.3,1.2,3.7,0,2.1-.9,3.4-1.6,4-1,.8-2.1.8-3.6.8h-2.7v-9.7ZM152.4,68.9h1.3c.9,0,1.9,0,2.5-.5,1.2-.9,1.3-2.5,1.3-3.1s0-2-.9-3c-.6-.7-1.4-.8-2.6-.8h-1.6v7.5Z"/>
      <path class="st0" d="M161.4,66.9c0,1.4.5,2.4,1.9,2.4s1.5-.4,1.6-1.4h1.3c0,.3,0,.9-.6,1.4-.3.3-1,.9-2.3.9-2.1,0-3.1-1.3-3.1-3.4s.3-2.4,1.3-3.2c.6-.5,1.4-.5,1.8-.5,3,0,2.9,2.7,2.9,3.8h-4.8ZM165,66c0-.6-.1-2-1.7-2s-1.8.5-1.8,2h3.5Z"/>
      <path class="st0" d="M168.9,68.1c0,.5.3,1.2,1.5,1.2s.9,0,1.2-.4c.1-.2.2-.4.2-.6,0-.7-.5-.8-1.5-1-1.4-.3-2.6-.6-2.6-2s1.1-2,2.6-2,2,.2,2.4,1c.2.4.2.7.2,1h-1.3c0-1-.8-1.1-1.3-1.1s-1.4,0-1.4,1,.6.8,1,.9c1.9.4,2.3.5,2.7.9.4.3.5.8.5,1.2,0,.8-.4,1.4-.9,1.7-.6.4-1.3.5-2,.5-1.4,0-2.6-.6-2.6-2.2h1.3Z"/>
      <path class="st0" d="M174.7,60.4h1.5v1.4h-1.5v-1.4ZM174.8,63.3h1.3v6.7h-1.3v-6.7Z"/>
      <path class="st0" d="M179.8,70.6c0,.8.4,1.3,1.6,1.3,1.8,0,1.8-1.3,1.8-3.1-.5,1.1-1.8,1.1-2.2,1.1-.6,0-1.5-.1-2.1-.8-.6-.7-.8-1.6-.8-2.5,0-2.3,1.3-3.4,3-3.4s1.8.7,2.1,1v-.9h1.2v1.2s0,4.2,0,4.2c0,1.6,0,2.3-.3,2.8-.6,1.1-1.9,1.2-2.8,1.2-2.7,0-2.8-1.3-2.8-2.2h1.3ZM182.7,68.3c.3-.3.5-.7.5-1.9s-.2-1.3-.5-1.7c-.3-.4-.9-.6-1.4-.6-1.6,0-1.8,1.6-1.8,2.5s.3,2.4,1.8,2.4,1.2-.3,1.5-.7Z"/>
      <path class="st0" d="M186.8,64.1v-.8s1.2,0,1.2,0v1.1c.2-.3.6-1.2,2.2-1.2s2.4.2,2.4,2.3v4.6h-1.3v-4.3c0-.4,0-.8-.4-1.2-.3-.3-.8-.5-1.2-.5-.9,0-1.8.7-1.8,2v3.9h-1.3v-5.9Z"/>
    </g>
    <g>
      <path class="st0" d="M30.2,80.2c0-.3-.2-1.7-2.1-1.7s-2.7,2.4-2.7,4,.5,3.8,2.7,3.8,1.2-.1,1.6-.6c.3-.4.4-.8.5-1h1.5c-.2,1.9-2,2.7-3.6,2.7-3.4,0-4.1-3-4.1-4.9s.8-5.1,4.2-5.1,3.3.5,3.5,2.7h-1.4Z"/>
      <path class="st0" d="M36.2,80.4c2.7,0,3.3,2.1,3.3,3.5s-1.1,3.6-3.4,3.6-3.3-1.5-3.3-3.5.8-3.6,3.4-3.6ZM36.1,86.6c1,0,2-.7,2-2.7s-.8-2.6-2-2.6-2.1.5-2.1,2.6.6,2.7,2,2.7Z"/>
      <path class="st0" d="M41.5,77.6h1.3v9.7h-1.3v-9.7Z"/>
      <path class="st0" d="M45.2,77.6h1.3v9.7h-1.3v-9.7Z"/>
      <path class="st0" d="M49.7,84.1c0,1.4.5,2.4,1.9,2.4s1.5-.4,1.6-1.4h1.3c0,.3,0,.9-.6,1.4-.3.3-1,.9-2.3.9-2.1,0-3.1-1.3-3.1-3.4s.3-2.4,1.3-3.2c.6-.5,1.4-.5,1.8-.5,3,0,2.9,2.7,2.9,3.8h-4.8ZM53.2,83.2c0-.6-.1-2-1.7-2s-1.8.5-1.8,2h3.5Z"/>
      <path class="st0" d="M57.6,87.8c0,.8.4,1.3,1.6,1.3,1.8,0,1.8-1.3,1.8-3.1-.5,1.1-1.8,1.1-2.2,1.1-.6,0-1.5-.1-2.1-.8-.6-.7-.8-1.6-.8-2.5,0-2.3,1.3-3.4,3-3.4s1.8.7,2.1,1v-.9h1.2v1.2s0,4.2,0,4.2c0,1.6,0,2.3-.3,2.8-.6,1.1-1.9,1.2-2.8,1.2-2.7,0-2.8-1.3-2.8-2.2h1.3ZM60.5,85.5c.3-.3.5-.7.5-1.9s-.2-1.3-.5-1.7c-.3-.4-.9-.6-1.4-.6-1.6,0-1.8,1.6-1.8,2.5s.3,2.4,1.8,2.4,1.2-.3,1.5-.7Z"/>
      <path class="st0" d="M65.3,84.1c0,1.4.5,2.4,1.9,2.4s1.5-.4,1.6-1.4h1.3c0,.3,0,.9-.6,1.4-.3.3-1,.9-2.3.9-2.1,0-3.1-1.3-3.1-3.4s.3-2.4,1.3-3.2c.6-.5,1.4-.5,1.8-.5,3,0,2.9,2.7,2.9,3.8h-4.8ZM68.9,83.2c0-.6-.1-2-1.7-2s-1.8.5-1.8,2h3.5Z"/>
      <path class="st0" d="M78.6,80.4c2.7,0,3.3,2.1,3.3,3.5s-1.1,3.6-3.4,3.6-3.3-1.5-3.3-3.5.8-3.6,3.4-3.6ZM78.6,86.6c1,0,2-.7,2-2.7s-.8-2.6-2-2.6-2.1.5-2.1,2.6.6,2.7,2,2.7Z"/>
      <path class="st0" d="M87.3,78.5c-.2,0-.5,0-.7,0-1,0-1,.5-1,1v1.1h1.6v.9h-1.6v5.8h-1.2v-5.8h-1.3v-.9h1.3v-.8c0-.9,0-1.3.3-1.6.3-.4.8-.7,1.7-.7s.8,0,1,0v1Z"/>
      <path class="st0" d="M92.2,77.6h5.8v1.1h-4.4v3h4.1v1.1h-4.1v4.4h-1.4v-9.7Z"/>
      <path class="st0" d="M99.4,77.6h1.5v1.4h-1.5v-1.4ZM99.5,80.5h1.3v6.7h-1.3v-6.7Z"/>
      <path class="st0" d="M103.3,81.3v-.8s1.2,0,1.2,0v1.1c.2-.3.6-1.2,2.2-1.2s2.4.2,2.4,2.3v4.6h-1.3v-4.3c0-.4,0-.8-.4-1.2-.3-.3-.8-.5-1.2-.5-.9,0-1.8.7-1.8,2v3.9h-1.3v-5.9Z"/>
      <path class="st0" d="M112.2,84.1c0,1.4.5,2.4,1.9,2.4s1.5-.4,1.6-1.4h1.3c0,.3,0,.9-.6,1.4-.3.3-1,.9-2.3.9-2.1,0-3.1-1.3-3.1-3.4s.3-2.4,1.3-3.2c.6-.5,1.4-.5,1.8-.5,3,0,2.9,2.7,2.9,3.8h-4.8ZM115.8,83.2c0-.6-.1-2-1.7-2s-1.8.5-1.8,2h3.5Z"/>
      <path class="st0" d="M124.9,77.6h1.4l3.9,9.7h-1.5l-1-2.5h-4.5l-1,2.5h-1.4l4.1-9.7ZM123.7,83.7h3.7l-1.8-4.7-1.9,4.7Z"/>
      <path class="st0" d="M131.7,81.9c0-.5,0-.9,0-1.4h1.3v1.3c.3-.9,1.1-1.2,1.6-1.3.4,0,.7,0,.9,0v1.2c0,0-.1,0-.2,0,0,0-.2,0-.4,0-1.5,0-1.8.9-1.8,2v3.6h-1.3v-5.4Z"/>
      <path class="st0" d="M135.4,80.5h1.2v-1.4l1.2-.4v1.8h1.5v.9h-1.5v4c0,.3,0,.9.9.9s.5,0,.6,0v1c-.2,0-.6,0-1,0-1.2,0-1.7-.3-1.7-1.4v-4.5h-1.2v-.9Z"/>
      <path class="st0" d="M141.7,85.3c0,.5.3,1.2,1.5,1.2s.9,0,1.2-.4c.1-.2.2-.4.2-.6,0-.7-.5-.8-1.5-1-1.4-.3-2.6-.6-2.6-2s1.1-2,2.6-2,2,.2,2.4,1c.2.4.2.7.2,1h-1.3c0-1-.8-1.1-1.3-1.1s-1.4,0-1.4,1,.6.8,1,.9c1.9.4,2.3.5,2.7.9.4.3.5.8.5,1.2,0,.8-.4,1.4-.9,1.7-.6.4-1.3.5-2,.5-1.4,0-2.6-.6-2.6-2.2h1.3Z"/>
    </g>
    <g>
      <path class="st0" d="M25.3,101.7c0,.7.1,1.9,2.3,1.9s2.3-1.2,2.3-1.7c0-1.1-.9-1.3-2.2-1.6-1.5-.4-2.1-.5-2.6-.9-.8-.5-1-1.3-1-1.9,0-2,1.9-2.8,3.7-2.8s1.9.1,2.7,1c.5.6.6,1.2.6,1.6h-1.4c0-1.2-1.1-1.5-2-1.5s-2.1.6-2.1,1.6.6,1.2,1.7,1.4c2.3.6,2.6.6,3.1,1,.9.6,1,1.5,1,1.9,0,1.7-1.3,3-3.8,3s-2.2-.1-3-1.1c-.5-.7-.6-1.5-.6-2h1.4Z"/>
      <path class="st0" d="M33.8,101.4c0,1.4.5,2.4,1.9,2.4s1.5-.4,1.6-1.4h1.3c0,.3,0,.9-.6,1.4-.3.3-1,.9-2.3.9-2.1,0-3.1-1.3-3.1-3.4s.3-2.4,1.3-3.2c.6-.5,1.4-.5,1.8-.5,3,0,2.9,2.7,2.9,3.8h-4.8ZM37.4,100.5c0-.6-.1-2-1.7-2s-1.8.5-1.8,2h3.5Z"/>
      <path class="st0" d="M43.4,97.6c2.7,0,3.3,2.1,3.3,3.5s-1.1,3.6-3.4,3.6-3.3-1.5-3.3-3.5.8-3.6,3.4-3.6ZM43.3,103.8c1,0,2-.7,2-2.7s-.8-2.6-2-2.6-2.1.5-2.1,2.6.6,2.7,2,2.7Z"/>
      <path class="st0" d="M49.8,97.8v4.3c0,.7.1,1.5,1.4,1.5s1.2-.2,1.6-.8c.3-.4.3-.9.3-1.3v-3.8h1.3v5.5c0,.1,0,.9,0,1.3h-1.3v-1.2c-.3.5-.7,1.2-2.2,1.2s-2.4-1-2.4-2.3v-4.5h1.3Z"/>
      <path class="st0" d="M56.9,94.8h1.3v9.7h-1.3v-9.7Z"/>
      <path class="st0" d="M64.4,94.8h1.9l4.8,8v-8h1.2v9.7h-1.7l-4.9-8.2v8.2h-1.2v-9.7Z"/>
      <path class="st0" d="M78.8,104.5c0-.3-.1-.7-.1-1-.6,1.1-1.5,1.2-2.1,1.2-1.5,0-2.4-.9-2.4-2s.2-1.4,1.2-2c.7-.4,1.8-.4,2.3-.4s.5,0,.9,0c0-.8,0-1.2-.2-1.5-.3-.3-.8-.4-1.2-.4-1.3,0-1.3.9-1.4,1.1h-1.3c0-.3,0-.8.5-1.3.5-.6,1.5-.7,2.2-.7s2,.3,2.4,1c.2.4.2.7.2,1v3.2c0,.1,0,1,0,1.7h-1.1ZM77.9,101.2c-.5,0-2.4,0-2.4,1.4s.3,1.2,1.4,1.2,1.1-.3,1.4-.7c.3-.5.3-.8.3-1.8-.2,0-.4,0-.7,0Z"/>
      <path class="st0" d="M81.1,97.7h1.2v-1.4l1.2-.4v1.8h1.5v.9h-1.5v4c0,.3,0,.9.9.9s.5,0,.6,0v1c-.2,0-.6,0-1,0-1.2,0-1.7-.3-1.7-1.4v-4.5h-1.2v-.9Z"/>
      <path class="st0" d="M86.5,94.8h1.5v1.4h-1.5v-1.4ZM86.6,97.8h1.3v6.7h-1.3v-6.7Z"/>
      <path class="st0" d="M93.3,97.6c2.7,0,3.3,2.1,3.3,3.5s-1.1,3.6-3.4,3.6-3.3-1.5-3.3-3.5.8-3.6,3.4-3.6ZM93.2,103.8c1,0,2-.7,2-2.7s-.8-2.6-2-2.6-2.1.5-2.1,2.6.6,2.7,2,2.7Z"/>
      <path class="st0" d="M98.6,98.5v-.8s1.2,0,1.2,0v1.1c.2-.3.6-1.2,2.2-1.2s2.4.2,2.4,2.3v4.6h-1.3v-4.3c0-.4,0-.8-.4-1.2-.3-.3-.8-.5-1.2-.5-.9,0-1.8.7-1.8,2v3.9h-1.3v-5.9Z"/>
      <path class="st0" d="M110.8,104.5c0-.3-.1-.7-.1-1-.6,1.1-1.5,1.2-2.1,1.2-1.5,0-2.4-.9-2.4-2s.2-1.4,1.2-2c.7-.4,1.8-.4,2.3-.4s.5,0,.9,0c0-.8,0-1.2-.2-1.5-.3-.3-.8-.4-1.2-.4-1.3,0-1.3.9-1.4,1.1h-1.3c0-.3,0-.8.5-1.3.5-.6,1.5-.7,2.2-.7s2,.3,2.4,1c.2.4.2.7.2,1v3.2c0,.1,0,1,0,1.7h-1.1ZM109.9,101.2c-.5,0-2.4,0-2.4,1.4s.3,1.2,1.4,1.2,1.1-.3,1.4-.7c.3-.5.3-.8.3-1.8-.2,0-.4,0-.7,0Z"/>
      <path class="st0" d="M114.2,94.8h1.3v9.7h-1.3v-9.7Z"/>
      <path class="st0" d="M123,94.8v6c0,1,.2,1.5.4,1.7.6.8,1.5,1,2.2,1,2.6,0,2.6-2,2.6-2.7v-5.9h1.3v6c0,.5,0,1.6-.8,2.6-1,1.2-2.4,1.3-3.1,1.3s-2.5-.3-3.4-1.5c-.3-.4-.6-1-.6-2.4v-5.9h1.3Z"/>
      <path class="st0" d="M132.1,98.5v-.8s1.2,0,1.2,0v1.1c.2-.3.6-1.2,2.2-1.2s2.4.2,2.4,2.3v4.6h-1.3v-4.3c0-.4,0-.8-.4-1.2-.3-.3-.8-.5-1.2-.5-.9,0-1.8.7-1.8,2v3.9h-1.3v-5.9Z"/>
      <path class="st0" d="M140.1,94.8h1.5v1.4h-1.5v-1.4ZM140.2,97.8h1.3v6.7h-1.3v-6.7Z"/>
      <path class="st0" d="M143.2,97.8h1.4l2.1,5.3,2.1-5.3h1.4l-2.9,6.7h-1.3l-2.8-6.7Z"/>
      <path class="st0" d="M152.4,101.4c0,1.4.5,2.4,1.9,2.4s1.5-.4,1.6-1.4h1.3c0,.3,0,.9-.6,1.4-.3.3-1,.9-2.3.9-2.1,0-3.1-1.3-3.1-3.4s.3-2.4,1.3-3.2c.6-.5,1.4-.5,1.8-.5,3,0,2.9,2.7,2.9,3.8h-4.8ZM155.9,100.5c0-.6-.1-2-1.7-2s-1.8.5-1.8,2h3.5Z"/>
      <path class="st0" d="M159.1,99.1c0-.5,0-.9,0-1.4h1.3v1.3c.3-.9,1.1-1.2,1.6-1.3.4,0,.7,0,.9,0v1.2c0,0-.1,0-.2,0s-.2,0-.4,0c-1.5,0-1.8.9-1.8,2v3.6h-1.3v-5.4Z"/>
      <path class="st0" d="M165.3,102.5c0,.5.3,1.2,1.5,1.2s.9,0,1.2-.4c.1-.2.2-.4.2-.6,0-.7-.5-.8-1.5-1-1.4-.3-2.6-.6-2.6-2s1.1-2,2.6-2,2,.2,2.4,1c.2.4.2.7.2,1h-1.3c0-1-.8-1.1-1.3-1.1s-1.4,0-1.4,1,.6.8,1,.9c1.9.4,2.3.5,2.7.9.4.3.5.8.5,1.2,0,.8-.4,1.4-.9,1.7-.6.4-1.3.5-2,.5-1.4,0-2.6-.6-2.6-2.2h1.3Z"/>
      <path class="st0" d="M171.1,94.8h1.5v1.4h-1.5v-1.4ZM171.3,97.8h1.3v6.7h-1.3v-6.7Z"/>
      <path class="st0" d="M173.9,97.7h1.2v-1.4l1.2-.4v1.8h1.5v.9h-1.5v4c0,.3,0,.9.9.9s.5,0,.6,0v1c-.2,0-.6,0-1,0-1.2,0-1.7-.3-1.7-1.4v-4.5h-1.2v-.9Z"/>
      <path class="st0" d="M182.4,104.5l-1,2.5h-1.3l1-2.6-2.8-6.7h1.4l2.1,5.3,2.1-5.3h1.4l-3,6.8Z"/>
    </g>
  </g>
  <g>
    <g>
      <path class="st0" d="M26.7,28.2c0,.8,0,3.1,3,3.1s3.1-.9,3.1-2.3-1-1.7-3.1-2.2c-3.9-1-6.1-2.2-6.1-5s2-5.1,6.6-5.1,3.8.4,5,2c.9,1.2.9,2.5.9,3.1h-3.4c0-.6-.2-2.5-2.7-2.5s-2.7.9-2.7,2.2,1.2,1.8,3.6,2.4c2.9.7,5.7,1.5,5.7,4.7s-2.5,5.4-7.1,5.4-6.4-4.1-6.4-5.7h3.6Z"/>
      <path class="st0" d="M39.2,16.9h5.1l6.2,13.1v-13.1h3.3v16.6h-4.9l-6.4-13.8v13.8h-3.4v-16.6Z"/>
      <path class="st0" d="M60.6,17v10.1c0,1.8.1,4.1,3.6,4.1s2.3,0,3.2-1.4c.3-.5.5-1.1.5-2.8v-9.9h3.5v10.4c0,4.9-3.9,6.5-7.3,6.5s-4.7-.4-6.2-2.9c-.8-1.3-.8-2.5-.8-4.1v-9.9h3.6Z"/>
    </g>
    <g>
      <path class="st0" d="M79.4,16.9h4.8c2.2,0,4.8,0,6.7,2.2,1.5,1.7,2,4,2,6.3,0,3.6-1.5,5.8-2.8,6.8-1.6,1.4-3.7,1.4-6.1,1.4h-4.7v-16.6ZM81.7,31.6h2.2c1.6,0,3.2,0,4.3-.9,2.1-1.6,2.2-4.3,2.2-5.3s0-3.4-1.6-5.2c-1.1-1.2-2.4-1.4-4.4-1.4h-2.8v12.8Z"/>
      <path class="st0" d="M95.7,16.9h10.4v2h-8.1v5.2h7.7v1.9h-7.7v5.5h8.3v2h-10.6v-16.6Z"/>
      <path class="st0" d="M111.7,28.7c0,1.1.2,3.3,4,3.3s3.9-2.1,3.9-3c0-1.9-1.5-2.2-3.8-2.8-2.5-.6-3.6-.9-4.5-1.5-1.4-.9-1.7-2.2-1.7-3.3,0-3.4,3.2-4.8,6.3-4.8s3.3.2,4.7,1.6c.9,1,1,2.1,1,2.8h-2.4c-.1-2.1-1.9-2.5-3.5-2.5s-3.7,1-3.7,2.7,1,2,3,2.5c3.9,1,4.4,1.1,5.3,1.7,1.5,1,1.7,2.6,1.7,3.3,0,2.9-2.3,5.2-6.5,5.2s-3.8-.2-5.1-1.9c-.9-1.2-1-2.5-1-3.4h2.4Z"/>
      <path class="st0" d="M125.3,16.9h2.3v16.6h-2.3v-16.6Z"/>
      <path class="st0" d="M142.9,21.1c-.3-1.5-1.5-2.6-3.7-2.6s-2.9.4-3.7,1.4c-1.4,1.6-1.8,3.8-1.8,5.3s.3,3.8,1.5,5.2c1.1,1.2,2.8,1.6,4.4,1.6s3.1-.4,3.6-.5v-4.9h-3.8v-1.9h6.1v8.2c-1,.3-3.1,1-5.9,1s-4.8-.9-6-2.1c-1.6-1.7-2.3-4-2.3-6.3s.4-5.6,3.6-7.7c1.6-1.1,3.8-1.2,4.6-1.2,1.3,0,3.3.2,4.9,1.8,1,1,1.1,2,1.1,2.6h-2.5Z"/>
      <path class="st0" d="M149.7,16.9h3.2l8.1,13.7v-13.7h2.1v16.6h-2.9l-8.4-14.1v14.1h-2.1v-16.6Z"/>
    </g>
  </g>
</svg>