<?xml version="1.0" encoding="UTF-8"?>
<svg id="_레이어_1" xmlns="http://www.w3.org/2000/svg" version="1.1" viewBox="0 0 508.5 76.7">
  <!-- Generator: Adobe Illustrator 30.3.0, SVG Export Plug-In . SVG Version: 2.1.3 Build 182)  -->
  <defs>
    <style>
      .st0 {
        fill: #565452;
      }
    </style>
  </defs>
  <path class="st0" d="M451.7,19.1c-.7-1.6-3.3-.6-3.3-.6,2.1,1.4,3.3.6,3.3.6M447.6,18.9c.2,0,.5-.2.5-.5s-.2-.5-.5-.5-.5.2-.5.5.2.5.5.5M453.3,19.4s-.9,0-1.7.5h2.8s-1.3-3.6-4.9-4.1c0,0,.8,2.7,3.8,3.6M455,20c0-.2-.2-.3-.3-.3s-.3.2-.3.3.2.3.3.3.3-.2.3-.3M441,20h2.7c-.8-.6-1.7-.6-1.7-.6,2.9-.9,3.8-3.6,3.8-3.6-3.5.5-4.9,4.1-4.9,4.1h0M440.2,20.3c0,.2.2.3.3.3s.3-.2.3-.3-.2-.3-.3-.3-.3.2-.3.3M440.4,23c-2-1.4-4.6-.2-4.6-.2,2.4-2,2.4-4.9,2.4-4.9-3.1,1.6-3.3,5.3-3.3,5.3,3.8,1,5.3-.2,5.3-.2M441.5,22.3v-1.3c-1.4-.5-2.8-.2-2.8-.2,2.8-1.5,3.3-4.4,3.3-4.4-3.4,1-4.1,4.8-4.1,4.8,1.5.7,2.8,1,3.6,1M456.7,20.7s-1.2-.3-2.6.2v1.3c.9,0,1.7-.2,3.4-1,0,0-.7-3.7-4.2-4.6,0,0,.6,2.9,3.4,4.3M443.4,19.4s1.2.7,3.3-.7c0,0-2.6-1-3.3.7M461.2,37.1h-1.5v1.9h1.5v-1.9ZM457.1,24.4l-.7.9,4.1,4.1.8-.8s-4.2-4.2-4.2-4.2ZM465.3,24.2l-3.7-3.7-3.4,3.6,3.6,3.6,3.6-3.5h-.1ZM434.5,23.8c0,.2.2.3.3.3s.3-.2.3-.3-.2-.3-.3-.3-.3.2-.3.3M462.4,27.7c.7.2,1.5.3,2.4.3,0,0,.5-1.3.2-2.9l-1.3,1.2c.2.3.2.7.6,1,0,0-.3-.2-.9-.7l-1,1h0ZM461.2,46.3h-1.5v1.9h1.5v-1.9ZM459.1,22l.8-.8c-.3-1.2-1-2.8-2.9-3.6,0,0,0,2.7,2.1,4.5M466.8,35.2c0,.2.2.3.3.3s.3-.2.3-.3-.2-.3-.3-.3-.3.2-.3.3M462.2,17.9c1,.6,2,0,2,0,1.2-.7,2.1.2,2.1.2.8.7.7,1.5.7,1.5,0,.7-.2.7-.2.7-.3.2-.2-.2-.2-.2v-.3c.2-1.5-1-1.7-1-1.7-1.5-.2-1.9,1-1.9,1v1l-1.9-1.9v1.5l4.1,4.1h1.5l-1.5-1.5c.8.2,1.5.2,1.5.2,2.1,0,2.3-2.1,2.3-2.1.6-2.1-1.4-3.7-1.4-3.7-1.3-1-3.3-1.2-3.3-1.2-2.8-.3-3.8-2.1-3.8-2.1-.3.8-.2,2-.2,2,.2,1.9,1.4,2.3,1.4,2.3M467.2,34.6s2.3-3,.9-6.2c0,0-2,2.3-1,5.3,0,0-1.5-2.6-3.8-2.7,0,0,.3,2,4.1,3.6M464.9,29.1c.2,0,.3-.2.3-.3s-.2-.3-.3-.3-.3.2-.3.3.2.3.3.3M457.8,23.4l1-1c-.9-.2-2.6-.6-3.9.6,0,0,.7.8,2.9.6M466.3,31.2s1.9-3.4-.2-6.2c0,0-1.5,2.7-.2,5.5,0,0-2-2.3-4.3-2,0,0,.7,2,4.6,2.8M454,56.8c0,.2.2.3.3.3s.3-.2.3-.3-.2-.3-.3-.3-.3.2-.3.3M455.7,56.4s2-1.7,2-3.8h-.7c-.7.6-1.5,1.7-2.1,4.2,0,0,3.4,1.9,6.3-.2,0,0-2.7-1.5-5.5-.2M452.5,57.6s2.6-1.5,2.7-3.8c0,0-2,.3-3.6,4.1,0,0,3,2.3,6.2.9,0,0-2.3-2-5.3-1M449,58.3c2.7-1.2,3.3-3.3,3.3-3.3-2.1.2-3.8,3.3-3.8,3.3,2.3,2.3,5.3,2.1,5.3,2.1-1.4-1.9-4.8-2-4.8-2M447.5,57.1v.9c-.3-.7-2-2.9-3.7-3,0,0,.7,2.1,3.3,3.3,0,0-3.4.2-4.6,2,0,0,2.9.2,5.2-2v1.5h.9v-2.6h-1,0ZM459.7,49.1v1.9l8.4,7h1.6l-8.5-8.8h-1.5ZM458.8,54.8s.7-.9,1-2.2h-1.5c-.2.7-.3,1.5-.5,2.7,0,0,3.1,1,5.6-.7l-.9-.7c-1,0-2.4,0-3.8,1M442.2,56.9c0-.2-.2-.3-.3-.3s-.3.2-.3.3.2.3.3.3.3-.2.3-.3M465.5,47.1s.5-2.9-1.2-4.5c0,0-1,1.9.8,5.3,0,0,3.7-.7,4.6-4.1,0,0-2.9.6-4.3,3.4M462,53.3l-1.2-1v1h1M460.2,53.7c.2,0,.3-.2.3-.3s-.2-.3-.3-.3-.3.2-.3.3.2.3.3.3M431,48.6c0,.2.2.3.3.3s.3-.2.3-.3-.2-.3-.3-.3-.3.2-.3.3M428.5,41.9c2.9-2.8,2.4-4.8,2.4-4.8-2.1,1-2.6,3.9-2.6,3.9-.3-3.1-3-4.5-3-4.5-.2,3.6,3.1,5.3,3.1,5.3M428.5,42.4c0,.2.2.3.3.3s.3-.2.3-.3-.2-.3-.3-.3-.3.2-.3.3M433.3,20.5l-2.8-2.8c-1.6-1.6-3.6-.6-3.6-.6l5.3,5.3c.3-1.4,1-2,1-2M431.2,22.2l-4.5-4.5s-2,1.4-.5,4.5h5ZM429.4,45.1c2.3-3.3,1.6-5.1,1.6-5.1-2,1.4-2,4.3-2,4.3-.9-2.9-3.7-3.9-3.7-3.9.5,3.5,4.1,4.9,4.1,4.9M431.5,54.3s.6-.3,1.4-.5l-.9-.2h0l-3.9,4.1s-.5.7,0,1c0,0,.3.2.9,0l3.7-3.3c-.3-.2-1.2-.9-1.3-1M438.8,52.7h-.5c0,2.2,2.1,3.9,2.1,3.9-2.8-1.2-5.5.2-5.5.2,2.9,2,6.3,0,6.3,0-.7-2.7-1.7-3.8-2.3-4.3M430.8,48.3c1.9-3.6.7-5.3.7-5.3-1.6,1.6-1,4.5-1,4.5-1.5-2.8-4.4-3.3-4.4-3.3,1,3.4,4.8,4.1,4.8,4.1M440.9,53.9c.2,2.3,2.8,3.7,2.8,3.7-3-.7-5.3,1.3-5.3,1.3,3.3,1.4,6.2-1,6.2-1-1.5-3.6-3.6-4.1-3.6-4.1M432.6,25.8c4.1.5,5.3-1.2,5.3-1.2-2.1-1-4.6.6-4.6.6,2.1-2.3,1.5-5.2,1.5-5.2-2.8,2.1-2.2,5.8-2.2,5.8M432.8,51.2c1-3.8-.2-5.3-.2-5.3-1.4,2-.2,4.6-.2,4.6-2-2.4-4.9-2.4-4.9-2.4,1.6,3.1,5.3,3.3,5.3,3.3M461.9,48.1s-.2.2-.3.7l.7.7c0-.5-.2-1-.3-1.5M437,32.7l1.4,1.2h3.1c-.2-.2,0-1.2,0-1.2h-4.5ZM444.8,23.7v-1.7h5.3v2.4h1.7v1.7h-1.7v.8h1.7v2h-1.7v5.8h-1.5l-2-2-1.9,1.9-1.4-1.4,3.1-3.1,1.5,1.5v-7.9h-3.4.1ZM442,31.9c0,4.1,2.6,5.9,5.7,5.9s5.8-2,5.8-5.9v-11.6h-11.4v11.6M437.9,25.2s-.3.6-1.6.8l1.6,1.5v-2.3h0ZM452.4,42.1c.3,0,.3-.2.3-.6v-2.7h.7v2.8c0,.3,0,1-1.2,1s-1-.3-1-1v-2.8h.7v2.4c0,.2,0,.7.3.7M454.3,43.5v.7h-.7v.8h.7v.7h-.7v.8h.8v.7h-1.5v-3.8h1.5-.1ZM454.2,38.9h.8l.2.6c0,.2.2.3.2.6h0c0-.2,0-.3.2-.6l.2-.6h.8l-.8,1.9.9,2h-.9l-.2-.7c0-.2,0-.3-.2-.6h0c0,.2,0,.3-.2.6l-.2.7h-.8l.8-2-.8-1.9ZM456.4,47.5l-.2-.7h-.7l-.2.7h-.7l.9-3.8h.8l.9,3.8h-.8ZM451.6,47.5l-.2-2.8h0v.9l-.5,1.9h-.6l-.3-1.9v-.8h0v2.8h-.9l.3-3.8h1l.3,2.3h0l.2-2.3h1l.3,3.8h-.9.1ZM449.1,38.9h.7v3.1h.8v.7h-1.5v-3.8ZM448.2,38.3v13s.7-.7,1.7-.7h8.1v-16.1h-4.4s-1.3,3.8-5.5,3.8M444.8,40c0-.2,0-.5-.6-.5h0v1h0c.3,0,.5-.2.5-.6M455.9,44.6h0v.6l-.2,1h.6l-.2-1v-.6h-.1ZM435.4,27.5h0c-.2,0-1,1-2.6,1.2l.6.5h5.3l-1.6-1.6h0l-.8-.8s-.6.7-.7.8M464.9,48.3c0-.2-.2-.3-.3-.3s-.3.2-.3.3.2.3.3.3.3-.2.3-.3M467,42.2c.2,0,.3-.2.3-.3s-.2-.3-.3-.3-.3.2-.3.3.2.3.3.3M464.8,39.7s-.7,2,1.7,5.1c0,0,3.6-1.4,3.9-4.9,0,0-2.8,1-3.6,4.1,0,0,0-2.9-2-4.2M467.5,40.5s-.6-2.9-2.7-3.8c0,0-.3,2,2.7,4.8,0,0,3.3-2,3-5.5,0,0-2.6,1.5-2.9,4.6M463.3,45.4s-1.4,1.5,0,5.3c0,0,3.8,0,5.3-3.3,0,0-3,0-4.9,2.6,0,0,1-2.8-.5-4.6M467.6,37.1s-1-2.8-3.3-3.3c0,0,0,2.1,3.4,4.2,0,0,2.8-2.6,2-5.9,0,0-2.3,2-2,5M465.1,52.5c.6-.3,1-.8,1.5-1.5,0,0-1.3-.2-2.8.3l1.2,1.2h.1ZM443.1,45.1v-.6h0v.6l-.2,1h.6l-.2-1h-.1ZM431.7,22.4c-2.3,2.6-1,6.2-1,6.2,4.1-.2,5-2,5-2-2.3-.7-4.5,1.3-4.5,1.3,1.6-2.7.7-5.3.7-5.3M446.8,53.3h2.3s.2-1,.8-1h9.6v-16.8l-.9-1v16.6h-8.6s-1.2,0-2,1.2c0,0-.7-1-2.2-1.2h-8.4v-16.5l-1,1v16.6h9.3s1.2,0,1.2,1M428.9,35.6c0-.2-.2-.3-.3-.3s-.3.2-.3.3.2.3.3.3.3-.2.3-.3M428.6,34.1c.7-3-1.3-5.3-1.3-5.3-1.4,3.3,1,6.2,1,6.2,3.6-1.5,4.1-3.6,4.1-3.6-2.3.2-3.7,2.8-3.7,2.8M425.9,32.6c-.8,3.5,2.1,5.8,2.1,5.8,3.4-2.2,3.3-4.3,3.3-4.3-2.3.6-3.3,3.4-3.3,3.4.2-3.1-2.2-5-2.2-5M429.8,25.8s-.2-1.3,1-3.1h-4.4s.2.6,3.3,3.1M441.3,32.3v-.5l-2.3-2.3h-5.3l3,2.8h4.6ZM435.8,51.5c0,.2,0,0,0,0v-2.3l-.3.5c.2.6.2,1.4.3,2M430.2,29.1c0,.2.2.3.3.3s.3-.2.3-.3-.2-.3-.3-.3-.3.2-.3.3M435.8,54.1c.2,0,.3-.2.3-.3s-.2-.3-.3-.3-.3.2-.3.3.2.3.3.3M438.3,28.1l3.1,3v-2.3l-3.1-3.1v2.3h0ZM435.9,46.1h-1.5v1.9h1.5v-1.9ZM456.3,26.1l-2.3,2.7v4.2s0,.7-.2,1h1.5l4.4-4.4-3.4-3.4h0ZM443.3,38.9v.7h-.7v.8h.7v.7h-.7v.8h.8v.7h-1.5v-3.8l-1,3.8h-.7l-1-3.8h.8l.5,1.9v.7h0v-.7l.5-1.9h2.6-.1ZM444.4,47.4h-.8l-.2-.7h-.7l-.2.7h-.7l.9-3.8h.8l.9,3.8ZM443.4,38.9h.7c.5,0,1.4,0,1.4,1s-.2.8-.6,1l.7,1.7h-.8l-.7-1.7h0v1.7h-.7v-3.8h0ZM445.9,38.9h.7v3.8h-.7v-3.8ZM445.3,47.5c-.2,0-.5,0-.7-.2v-.7c.2,0,.3.2.6.2s.5-.2.5-.5-.2-.3-.5-.6c-.5-.2-.7-.6-.7-1.2s.3-1,1-1,.5,0,.7.2v.7c-.2,0-.3-.2-.6-.2s-.3.2-.3.3c0,.7,1.2.7,1.2,1.7s-.3,1.2-1,1.2M441.6,44.3h-.7v3.1h-.7v-3.1h-.7v-.7h2v.7h.1ZM437.7,34.5v16.1h8c.9,0,1.9.7,1.9.7v-13c-4.9,0-5.8-3.9-5.8-3.9h-4.1ZM438.1,55.5c0-1.3-.2-2.1-.6-2.8h-1.5c.3,1.4,1.3,2.3,1.3,2.3-2.7-1.6-5.3-.7-5.3-.7,2.6,2.3,6.2,1,6.2,1M433.2,29.6l-.7-.7c-1.7.5-3,2-3,2,.8-2,.3-3.7,0-4.8l-.6-.5c-1.5,2.8.2,5.9.2,5.9,2.3-.6,3.5-1.5,4.1-2.1M429.4,51.4c2.1,2.8,5.8,2.2,5.8,2.2.5-4.1-1.2-5.3-1.2-5.3-1,2.1.6,4.6.6,4.6-2.3-2.1-5.2-1.5-5.2-1.5M435.8,37.3h-1.5v1.9h1.5v-1.9Z"/>
  <g>
    <g>
      <path class="st0" d="M213.8,15.7h5.8v1.1h-4.4v3h4.1v1.1h-4.1v4.4h-1.4v-9.7Z"/>
      <path class="st0" d="M225,25.3c0-.3-.1-.7-.1-1-.6,1.1-1.5,1.2-2.1,1.2-1.5,0-2.4-.9-2.4-2s.2-1.4,1.2-2c.7-.4,1.8-.4,2.3-.4s.5,0,.9,0c0-.8,0-1.2-.2-1.5-.3-.3-.8-.4-1.2-.4-1.3,0-1.3.9-1.4,1.1h-1.3c0-.3,0-.8.5-1.3.5-.6,1.5-.7,2.2-.7s2,.3,2.4,1c.2.4.2.7.2,1v3.2c0,.1,0,1,0,1.7h-1.1ZM224.2,22c-.5,0-2.4,0-2.4,1.4s.3,1.2,1.4,1.2,1.1-.3,1.4-.7c.3-.5.3-.8.3-1.8-.2,0-.4,0-.7,0Z"/>
      <path class="st0" d="M232.2,20.8c0-.3-.1-1.4-1.3-1.4-1.7,0-1.7,2-1.7,2.5,0,1.4.3,2.7,1.7,2.7s1.4-.8,1.5-1.5h1.3c0,1.3-1.1,2.4-2.7,2.4s-1.5,0-2.2-.9c-.4-.5-.8-1.2-.8-2.6,0-2.8,1.7-3.6,3.1-3.6s1.4,0,2.1.8c.5.6.5,1.1.6,1.5h-1.3Z"/>
      <path class="st0" d="M236.2,18.6v4.3c0,.7.1,1.5,1.4,1.5s1.2-.2,1.6-.8c.3-.4.3-.9.3-1.3v-3.8h1.3v5.5c0,.1,0,.9,0,1.3h-1.3v-1.2c-.3.5-.7,1.2-2.2,1.2s-2.4-1-2.4-2.3v-4.5h1.3Z"/>
      <path class="st0" d="M243.3,15.7h1.3v9.7h-1.3v-9.7Z"/>
      <path class="st0" d="M245.9,18.6h1.2v-1.4l1.2-.4v1.8h1.5v.9h-1.5v4c0,.3,0,.9.9.9s.5,0,.6,0v1c-.2,0-.6,0-1,0-1.2,0-1.7-.3-1.7-1.4v-4.5h-1.2v-.9Z"/>
      <path class="st0" d="M254.5,25.4l-1,2.5h-1.3l1-2.6-2.8-6.7h1.4l2.1,5.3,2.1-5.3h1.4l-3,6.8Z"/>
      <path class="st0" d="M265.5,18.4c2.7,0,3.3,2.1,3.3,3.5s-1.1,3.6-3.4,3.6-3.3-1.5-3.3-3.5.8-3.6,3.4-3.6ZM265.4,24.6c1,0,2-.7,2-2.7s-.8-2.6-2-2.6-2.1.5-2.1,2.6.6,2.7,2,2.7Z"/>
      <path class="st0" d="M274.1,16.6c-.2,0-.5,0-.7,0-1,0-1,.5-1,1v1.1h1.6v.9h-1.6v5.8h-1.2v-5.8h-1.3v-.9h1.3v-.8c0-.9,0-1.3.3-1.6.3-.4.8-.7,1.7-.7s.8,0,1,0v1Z"/>
      <path class="st0" d="M284.8,18.3c0-.3-.2-1.7-2.1-1.7s-2.7,2.4-2.7,4,.5,3.8,2.7,3.8,1.2-.1,1.6-.6c.3-.4.4-.8.5-1h1.5c-.2,1.9-2,2.7-3.6,2.7-3.4,0-4.1-3-4.1-4.9s.8-5.1,4.2-5.1,3.3.5,3.5,2.7h-1.4Z"/>
      <path class="st0" d="M288,20c0-.5,0-.9,0-1.4h1.3v1.3c.3-.9,1.1-1.2,1.6-1.3.4,0,.7,0,.9,0v1.2c0,0-.1,0-.2,0,0,0-.2,0-.4,0-1.5,0-1.8.9-1.8,2v3.6h-1.3v-5.4Z"/>
      <path class="st0" d="M297.2,25.3c0-.3-.1-.7-.1-1-.6,1.1-1.5,1.2-2.1,1.2-1.5,0-2.4-.9-2.4-2s.2-1.4,1.2-2c.7-.4,1.8-.4,2.3-.4s.5,0,.9,0c0-.8,0-1.2-.2-1.5-.3-.3-.8-.4-1.2-.4-1.3,0-1.3.9-1.4,1.1h-1.3c0-.3,0-.8.5-1.3.5-.6,1.5-.7,2.2-.7s2,.3,2.4,1c.2.4.2.7.2,1v3.2c0,.1,0,1,0,1.7h-1.1ZM296.3,22c-.5,0-2.4,0-2.4,1.4s.3,1.2,1.4,1.2,1.1-.3,1.4-.7c.3-.5.3-.8.3-1.8-.2,0-.4,0-.7,0Z"/>
      <path class="st0" d="M303.9,16.6c-.2,0-.5,0-.7,0-1,0-1,.5-1,1v1.1h1.6v.9h-1.6v5.8h-1.2v-5.8h-1.3v-.9h1.3v-.8c0-.9,0-1.3.3-1.6.3-.4.8-.7,1.7-.7s.8,0,1,0v1Z"/>
      <path class="st0" d="M303.6,18.6h1.2v-1.4l1.2-.4v1.8h1.5v.9h-1.5v4c0,.3,0,.9.9.9s.5,0,.6,0v1c-.2,0-.6,0-1,0-1.2,0-1.7-.3-1.7-1.4v-4.5h-1.2v-.9Z"/>
      <path class="st0" d="M316.9,25.3c0-.3-.1-.7-.1-1-.6,1.1-1.5,1.2-2.1,1.2-1.5,0-2.4-.9-2.4-2s.2-1.4,1.2-2c.7-.4,1.8-.4,2.3-.4s.5,0,.9,0c0-.8,0-1.2-.2-1.5-.3-.3-.8-.4-1.2-.4-1.3,0-1.3.9-1.4,1.1h-1.3c0-.3,0-.8.5-1.3.5-.6,1.5-.7,2.2-.7s2,.3,2.4,1c.2.4.2.7.2,1v3.2c0,.1,0,1,0,1.7h-1.1ZM316.1,22c-.5,0-2.4,0-2.4,1.4s.3,1.2,1.4,1.2,1.1-.3,1.4-.7c.3-.5.3-.8.3-1.8-.2,0-.4,0-.7,0Z"/>
      <path class="st0" d="M320.3,19.4v-.8s1.2,0,1.2,0v1.1c.2-.3.6-1.2,2.2-1.2s2.4.2,2.4,2.3v4.6h-1.3v-4.3c0-.4,0-.8-.4-1.2-.3-.3-.8-.5-1.2-.5-.9,0-1.8.7-1.8,2v3.9h-1.3v-5.9Z"/>
      <path class="st0" d="M333.1,15.7h1.3v8.6c0,.1,0,.7,0,1.1h-1.3v-1.1c-.1.2-.3.5-.6.7-.5.4-1.2.5-1.7.5-.9,0-2.9-.5-2.9-3.4s1.5-3.7,3-3.7,1.9.9,2.1,1.1v-3.8ZM332.7,20c-.3-.3-.8-.7-1.5-.7-1.8,0-1.8,2.2-1.8,2.7,0,1.2.3,2.6,1.8,2.6s2-2.2,2-2.7c0-1-.2-1.5-.5-1.9Z"/>
      <path class="st0" d="M340.4,15.7h2.8c1.3,0,2.8,0,3.9,1.3.9,1,1.2,2.3,1.2,3.7,0,2.1-.9,3.4-1.6,4-1,.8-2.1.8-3.6.8h-2.7v-9.7ZM341.7,24.2h1.3c.9,0,1.9,0,2.5-.5,1.2-.9,1.3-2.5,1.3-3.1s0-2-.9-3c-.6-.7-1.4-.8-2.6-.8h-1.6v7.5Z"/>
      <path class="st0" d="M350.8,22.2c0,1.4.5,2.4,1.9,2.4s1.5-.4,1.6-1.4h1.3c0,.3,0,.9-.6,1.4-.3.3-1,.9-2.3.9-2.1,0-3.1-1.3-3.1-3.4s.3-2.4,1.3-3.2c.6-.5,1.4-.5,1.8-.5,3,0,2.9,2.7,2.9,3.8h-4.8ZM354.4,21.3c0-.6-.1-2-1.7-2s-1.8.5-1.8,2h3.5Z"/>
      <path class="st0" d="M358.2,23.3c0,.5.3,1.2,1.5,1.2s.9,0,1.2-.4c.1-.2.2-.4.2-.6,0-.7-.5-.8-1.5-1-1.4-.3-2.6-.6-2.6-2s1.1-2,2.6-2,2,.2,2.4,1c.2.4.2.7.2,1h-1.3c0-1-.8-1.1-1.3-1.1s-1.4,0-1.4,1,.6.8,1,.9c1.9.4,2.3.5,2.7.9.4.3.5.8.5,1.2,0,.8-.4,1.4-.9,1.7-.6.4-1.3.5-2,.5-1.4,0-2.6-.6-2.6-2.2h1.3Z"/>
      <path class="st0" d="M364.1,15.7h1.5v1.4h-1.5v-1.4ZM364.2,18.6h1.3v6.7h-1.3v-6.7Z"/>
      <path class="st0" d="M369.1,25.8c0,.8.4,1.3,1.6,1.3,1.8,0,1.8-1.3,1.8-3.1-.5,1.1-1.8,1.1-2.2,1.1-.6,0-1.5-.1-2.1-.8-.6-.7-.8-1.6-.8-2.5,0-2.3,1.3-3.4,3-3.4s1.8.7,2.1,1v-.9h1.2v1.2s0,4.2,0,4.2c0,1.6,0,2.3-.3,2.8-.6,1.1-1.9,1.2-2.8,1.2-2.7,0-2.8-1.3-2.8-2.2h1.3ZM372,23.6c.3-.3.5-.7.5-1.9s-.2-1.3-.5-1.7c-.3-.4-.9-.6-1.4-.6-1.6,0-1.8,1.6-1.8,2.5s.3,2.4,1.8,2.4,1.2-.3,1.5-.7Z"/>
      <path class="st0" d="M376.1,19.4v-.8s1.2,0,1.2,0v1.1c.2-.3.6-1.2,2.2-1.2s2.4.2,2.4,2.3v4.6h-1.3v-4.3c0-.4,0-.8-.4-1.2-.3-.3-.8-.5-1.2-.5-.9,0-1.8.7-1.8,2v3.9h-1.3v-5.9Z"/>
    </g>
    <g>
      <path class="st0" d="M219.6,35.5c0-.3-.2-1.7-2.1-1.7s-2.7,2.4-2.7,4,.5,3.8,2.7,3.8,1.2-.1,1.6-.6c.3-.4.4-.8.5-1h1.5c-.2,1.9-2,2.7-3.6,2.7-3.4,0-4.1-3-4.1-4.9s.8-5.1,4.2-5.1,3.3.5,3.5,2.7h-1.4Z"/>
      <path class="st0" d="M225.6,35.6c2.7,0,3.3,2.1,3.3,3.5s-1.1,3.6-3.4,3.6-3.3-1.5-3.3-3.5.8-3.6,3.4-3.6ZM225.5,41.8c1,0,2-.7,2-2.7s-.8-2.6-2-2.6-2.1.5-2.1,2.6.6,2.7,2,2.7Z"/>
      <path class="st0" d="M230.9,32.9h1.3v9.7h-1.3v-9.7Z"/>
      <path class="st0" d="M234.6,32.9h1.3v9.7h-1.3v-9.7Z"/>
      <path class="st0" d="M239.1,39.4c0,1.4.5,2.4,1.9,2.4s1.5-.4,1.6-1.4h1.3c0,.3,0,.9-.6,1.4-.3.3-1,.9-2.3.9-2.1,0-3.1-1.3-3.1-3.4s.3-2.4,1.3-3.2c.6-.5,1.4-.5,1.8-.5,3,0,2.9,2.7,2.9,3.8h-4.8ZM242.6,38.5c0-.6-.1-2-1.7-2s-1.8.5-1.8,2h3.5Z"/>
      <path class="st0" d="M246.9,43.1c0,.8.4,1.3,1.6,1.3,1.8,0,1.8-1.3,1.8-3.1-.5,1.1-1.8,1.1-2.2,1.1-.6,0-1.5-.1-2.1-.8-.6-.7-.8-1.6-.8-2.5,0-2.3,1.3-3.4,3-3.4s1.8.7,2.1,1v-.9h1.2v1.2s0,4.2,0,4.2c0,1.6,0,2.3-.3,2.8-.6,1.1-1.9,1.2-2.8,1.2-2.7,0-2.8-1.3-2.8-2.2h1.3ZM249.9,40.8c.3-.3.5-.7.5-1.9s-.2-1.3-.5-1.7c-.3-.4-.9-.6-1.4-.6-1.6,0-1.8,1.6-1.8,2.5s.3,2.4,1.8,2.4,1.2-.3,1.5-.7Z"/>
      <path class="st0" d="M254.7,39.4c0,1.4.5,2.4,1.9,2.4s1.5-.4,1.6-1.4h1.3c0,.3,0,.9-.6,1.4-.3.3-1,.9-2.3.9-2.1,0-3.1-1.3-3.1-3.4s.3-2.4,1.3-3.2c.6-.5,1.4-.5,1.8-.5,3,0,2.9,2.7,2.9,3.8h-4.8ZM258.2,38.5c0-.6-.1-2-1.7-2s-1.8.5-1.8,2h3.5Z"/>
      <path class="st0" d="M268,35.6c2.7,0,3.3,2.1,3.3,3.5s-1.1,3.6-3.4,3.6-3.3-1.5-3.3-3.5.8-3.6,3.4-3.6ZM267.9,41.8c1,0,2-.7,2-2.7s-.8-2.6-2-2.6-2.1.5-2.1,2.6.6,2.7,2,2.7Z"/>
      <path class="st0" d="M276.6,33.8c-.2,0-.5,0-.7,0-1,0-1,.5-1,1v1.1h1.6v.9h-1.6v5.8h-1.2v-5.8h-1.3v-.9h1.3v-.8c0-.9,0-1.3.3-1.6.3-.4.8-.7,1.7-.7s.8,0,1,0v1Z"/>
      <path class="st0" d="M281.5,32.9h5.8v1.1h-4.4v3h4.1v1.1h-4.1v4.4h-1.4v-9.7Z"/>
      <path class="st0" d="M288.8,32.9h1.5v1.4h-1.5v-1.4ZM288.9,35.8h1.3v6.7h-1.3v-6.7Z"/>
      <path class="st0" d="M292.7,36.6v-.8s1.2,0,1.2,0v1.1c.2-.3.6-1.2,2.2-1.2s2.4.2,2.4,2.3v4.6h-1.3v-4.3c0-.4,0-.8-.4-1.2-.3-.3-.8-.5-1.2-.5-.9,0-1.8.7-1.8,2v3.9h-1.3v-5.9Z"/>
      <path class="st0" d="M301.6,39.4c0,1.4.5,2.4,1.9,2.4s1.5-.4,1.6-1.4h1.3c0,.3,0,.9-.6,1.4-.3.3-1,.9-2.3.9-2.1,0-3.1-1.3-3.1-3.4s.3-2.4,1.3-3.2c.6-.5,1.4-.5,1.8-.5,3,0,2.9,2.7,2.9,3.8h-4.8ZM305.1,38.5c0-.6-.1-2-1.7-2s-1.8.5-1.8,2h3.5Z"/>
      <path class="st0" d="M314.3,32.9h1.4l3.9,9.7h-1.5l-1-2.5h-4.5l-1,2.5h-1.4l4.1-9.7ZM313.1,38.9h3.7l-1.8-4.7-1.9,4.7Z"/>
      <path class="st0" d="M321,37.2c0-.5,0-.9,0-1.4h1.3v1.3c.3-.9,1.1-1.2,1.6-1.3.4,0,.7,0,.9,0v1.2c0,0-.1,0-.2,0,0,0-.2,0-.4,0-1.5,0-1.8.9-1.8,2v3.6h-1.3v-5.4Z"/>
      <path class="st0" d="M324.8,35.8h1.2v-1.4l1.2-.4v1.8h1.5v.9h-1.5v4c0,.3,0,.9.9.9s.5,0,.6,0v1c-.2,0-.6,0-1,0-1.2,0-1.7-.3-1.7-1.4v-4.5h-1.2v-.9Z"/>
      <path class="st0" d="M331,40.5c0,.5.3,1.2,1.5,1.2s.9,0,1.2-.4c.1-.2.2-.4.2-.6,0-.7-.5-.8-1.5-1-1.4-.3-2.6-.6-2.6-2s1.1-2,2.6-2,2,.2,2.4,1c.2.4.2.7.2,1h-1.3c0-1-.8-1.1-1.3-1.1s-1.4,0-1.4,1,.6.8,1,.9c1.9.4,2.3.5,2.7.9.4.3.5.8.5,1.2,0,.8-.4,1.4-.9,1.7-.6.4-1.3.5-2,.5-1.4,0-2.6-.6-2.6-2.2h1.3Z"/>
    </g>
    <g>
      <path class="st0" d="M214.7,56.9c0,.7.1,1.9,2.3,1.9s2.3-1.2,2.3-1.7c0-1.1-.9-1.3-2.2-1.6-1.5-.4-2.1-.5-2.6-.9-.8-.5-1-1.3-1-1.9,0-2,1.9-2.8,3.7-2.8s1.9.1,2.7,1c.5.6.6,1.2.6,1.6h-1.4c0-1.2-1.1-1.5-2-1.5s-2.1.6-2.1,1.6.6,1.2,1.7,1.4c2.3.6,2.6.6,3.1,1,.9.6,1,1.5,1,1.9,0,1.7-1.3,3-3.8,3s-2.2-.1-3-1.1c-.5-.7-.6-1.5-.6-2h1.4Z"/>
      <path class="st0" d="M223.2,56.6c0,1.4.5,2.4,1.9,2.4s1.5-.4,1.6-1.4h1.3c0,.3,0,.9-.6,1.4-.3.3-1,.9-2.3.9-2.1,0-3.1-1.3-3.1-3.4s.3-2.4,1.3-3.2c.6-.5,1.4-.5,1.8-.5,3,0,2.9,2.7,2.9,3.8h-4.8ZM226.7,55.7c0-.6-.1-2-1.7-2s-1.8.5-1.8,2h3.5Z"/>
      <path class="st0" d="M232.8,52.9c2.7,0,3.3,2.1,3.3,3.5s-1.1,3.6-3.4,3.6-3.3-1.5-3.3-3.5.8-3.6,3.4-3.6ZM232.7,59.1c1,0,2-.7,2-2.7s-.8-2.6-2-2.6-2.1.5-2.1,2.6.6,2.7,2,2.7Z"/>
      <path class="st0" d="M239.2,53v4.3c0,.7.1,1.5,1.4,1.5s1.2-.2,1.6-.8c.3-.4.3-.9.3-1.3v-3.8h1.3v5.5c0,.1,0,.9,0,1.3h-1.3v-1.2c-.3.5-.7,1.2-2.2,1.2s-2.4-1-2.4-2.3v-4.5h1.3Z"/>
      <path class="st0" d="M246.2,50.1h1.3v9.7h-1.3v-9.7Z"/>
      <path class="st0" d="M253.8,50.1h1.9l4.8,8v-8h1.2v9.7h-1.7l-4.9-8.2v8.2h-1.2v-9.7Z"/>
      <path class="st0" d="M268.2,59.8c0-.3-.1-.7-.1-1-.6,1.1-1.5,1.2-2.1,1.2-1.5,0-2.4-.9-2.4-2s.2-1.4,1.2-2c.7-.4,1.8-.4,2.3-.4s.5,0,.9,0c0-.8,0-1.2-.2-1.5-.3-.3-.8-.4-1.2-.4-1.3,0-1.3.9-1.4,1.1h-1.3c0-.3,0-.8.5-1.3.5-.6,1.5-.7,2.2-.7s2,.3,2.4,1c.2.4.2.7.2,1v3.2c0,.1,0,1,0,1.7h-1.1ZM267.3,56.5c-.5,0-2.4,0-2.4,1.4s.3,1.2,1.4,1.2,1.1-.3,1.4-.7c.3-.5.3-.8.3-1.8-.2,0-.4,0-.7,0Z"/>
      <path class="st0" d="M270.5,53h1.2v-1.4l1.2-.4v1.8h1.5v.9h-1.5v4c0,.3,0,.9.9.9s.5,0,.6,0v1c-.2,0-.6,0-1,0-1.2,0-1.7-.3-1.7-1.4v-4.5h-1.2v-.9Z"/>
      <path class="st0" d="M275.9,50.1h1.5v1.4h-1.5v-1.4ZM276,53h1.3v6.7h-1.3v-6.7Z"/>
      <path class="st0" d="M282.6,52.9c2.7,0,3.3,2.1,3.3,3.5s-1.1,3.6-3.4,3.6-3.3-1.5-3.3-3.5.8-3.6,3.4-3.6ZM282.5,59.1c1,0,2-.7,2-2.7s-.8-2.6-2-2.6-2.1.5-2.1,2.6.6,2.7,2,2.7Z"/>
      <path class="st0" d="M287.9,53.8v-.8s1.2,0,1.2,0v1.1c.2-.3.6-1.2,2.2-1.2s2.4.2,2.4,2.3v4.6h-1.3v-4.3c0-.4,0-.8-.4-1.2-.3-.3-.8-.5-1.2-.5-.9,0-1.8.7-1.8,2v3.9h-1.3v-5.9Z"/>
      <path class="st0" d="M300.2,59.8c0-.3-.1-.7-.1-1-.6,1.1-1.5,1.2-2.1,1.2-1.5,0-2.4-.9-2.4-2s.2-1.4,1.2-2c.7-.4,1.8-.4,2.3-.4s.5,0,.9,0c0-.8,0-1.2-.2-1.5-.3-.3-.8-.4-1.2-.4-1.3,0-1.3.9-1.4,1.1h-1.3c0-.3,0-.8.5-1.3.5-.6,1.5-.7,2.2-.7s2,.3,2.4,1c.2.4.2.7.2,1v3.2c0,.1,0,1,0,1.7h-1.1ZM299.3,56.5c-.5,0-2.4,0-2.4,1.4s.3,1.2,1.4,1.2,1.1-.3,1.4-.7c.3-.5.3-.8.3-1.8-.2,0-.4,0-.7,0Z"/>
      <path class="st0" d="M303.5,50.1h1.3v9.7h-1.3v-9.7Z"/>
      <path class="st0" d="M312.4,50.1v6c0,1,.2,1.5.4,1.7.6.8,1.5,1,2.2,1,2.6,0,2.6-2,2.6-2.7v-5.9h1.3v6c0,.5,0,1.6-.8,2.6-1,1.2-2.4,1.3-3.1,1.3s-2.5-.3-3.4-1.5c-.3-.4-.6-1-.6-2.4v-5.9h1.3Z"/>
      <path class="st0" d="M321.4,53.8v-.8s1.2,0,1.2,0v1.1c.2-.3.6-1.2,2.2-1.2s2.4.2,2.4,2.3v4.6h-1.3v-4.3c0-.4,0-.8-.4-1.2-.3-.3-.8-.5-1.2-.5-.9,0-1.8.7-1.8,2v3.9h-1.3v-5.9Z"/>
      <path class="st0" d="M329.4,50.1h1.5v1.4h-1.5v-1.4ZM329.6,53h1.3v6.7h-1.3v-6.7Z"/>
      <path class="st0" d="M332.5,53h1.4l2.1,5.3,2.1-5.3h1.4l-2.9,6.7h-1.3l-2.8-6.7Z"/>
      <path class="st0" d="M341.7,56.6c0,1.4.5,2.4,1.9,2.4s1.5-.4,1.6-1.4h1.3c0,.3,0,.9-.6,1.4-.3.3-1,.9-2.3.9-2.1,0-3.1-1.3-3.1-3.4s.3-2.4,1.3-3.2c.6-.5,1.4-.5,1.8-.5,3,0,2.9,2.7,2.9,3.8h-4.8ZM345.3,55.7c0-.6-.1-2-1.7-2s-1.8.5-1.8,2h3.5Z"/>
      <path class="st0" d="M348.5,54.4c0-.5,0-.9,0-1.4h1.3v1.3c.3-.9,1.1-1.2,1.6-1.3.4,0,.7,0,.9,0v1.2c0,0-.1,0-.2,0,0,0-.2,0-.4,0-1.5,0-1.8.9-1.8,2v3.6h-1.3v-5.4Z"/>
      <path class="st0" d="M354.6,57.8c0,.5.3,1.2,1.5,1.2s.9,0,1.2-.4c.1-.2.2-.4.2-.6,0-.7-.5-.8-1.5-1-1.4-.3-2.6-.6-2.6-2s1.1-2,2.6-2,2,.2,2.4,1c.2.4.2.7.2,1h-1.3c0-1-.8-1.1-1.3-1.1s-1.4,0-1.4,1,.6.8,1,.9c1.9.4,2.3.5,2.7.9.4.3.5.8.5,1.2,0,.8-.4,1.4-.9,1.7-.6.4-1.3.5-2,.5-1.4,0-2.6-.6-2.6-2.2h1.3Z"/>
      <path class="st0" d="M360.5,50.1h1.5v1.4h-1.5v-1.4ZM360.6,53h1.3v6.7h-1.3v-6.7Z"/>
      <path class="st0" d="M363.3,53h1.2v-1.4l1.2-.4v1.8h1.5v.9h-1.5v4c0,.3,0,.9.9.9s.5,0,.6,0v1c-.2,0-.6,0-1,0-1.2,0-1.7-.3-1.7-1.4v-4.5h-1.2v-.9Z"/>
      <path class="st0" d="M371.8,59.8l-1,2.5h-1.3l1-2.6-2.8-6.7h1.4l2.1,5.3,2.1-5.3h1.4l-3,6.8Z"/>
    </g>
  </g>
  <g>
    <g>
      <path class="st0" d="M5.6,29.6c0,.9,0,3.5,3.4,3.5s3.5-1,3.5-2.6-1.2-1.9-3.5-2.5c-4.4-1.1-6.8-2.4-6.8-5.6s2.2-5.8,7.3-5.8,4.2.4,5.6,2.2c1.1,1.3,1.1,2.8,1.1,3.4h-3.8c0-.6-.3-2.8-3-2.8s-3.1,1-3.1,2.5,1.4,2,4,2.7c3.2.8,6.4,1.6,6.4,5.3s-2.8,6-7.9,6-7.2-4.6-7.2-6.4h4.1Z"/>
      <path class="st0" d="M19.7,17h5.8l7,14.6v-14.6h3.7v18.6h-5.5l-7.2-15.4v15.4h-3.8v-18.6Z"/>
      <path class="st0" d="M43.7,17v11.3c0,2,.2,4.6,4,4.6s2.6,0,3.6-1.6c.4-.6.6-1.3.6-3.2v-11.1h3.9v11.6c0,5.5-4.4,7.3-8.1,7.3s-5.2-.4-7-3.2c-.9-1.4-1-2.9-1-4.6v-11.1h4Z"/>
    </g>
    <g>
      <path class="st0" d="M64.7,17h5.4c2.5,0,5.4,0,7.5,2.4,1.6,1.9,2.3,4.5,2.3,7,0,4-1.7,6.5-3.1,7.6-1.8,1.5-4.1,1.5-6.8,1.5h-5.2v-18.6ZM67.2,33.4h2.5c1.8,0,3.6-.1,4.9-1,2.4-1.8,2.4-4.8,2.4-5.9s0-3.9-1.8-5.8c-1.2-1.3-2.7-1.6-4.9-1.6h-3.1v14.3Z"/>
      <path class="st0" d="M82.9,17h11.6v2.2h-9.1v5.8h8.6v2.2h-8.6v6.2h9.3v2.3h-11.8v-18.6Z"/>
      <path class="st0" d="M100.8,30.1c0,1.3.2,3.7,4.5,3.7s4.3-2.4,4.3-3.3c0-2.1-1.7-2.5-4.3-3.1-2.8-.7-4.1-1-5-1.6-1.5-1-1.9-2.4-1.9-3.6,0-3.8,3.6-5.4,7.1-5.4s3.7.2,5.2,1.8c1,1.1,1.1,2.4,1.1,3.2h-2.7c-.1-2.3-2.1-2.8-3.9-2.8s-4.1,1.2-4.1,3,1.1,2.2,3.3,2.7c4.4,1.1,4.9,1.2,6,2,1.7,1.1,1.8,2.9,1.8,3.7,0,3.3-2.6,5.8-7.3,5.8s-4.3-.2-5.8-2.1c-1.1-1.4-1.1-2.9-1.1-3.8h2.7Z"/>
      <path class="st0" d="M116.1,17h2.6v18.6h-2.6v-18.6Z"/>
      <path class="st0" d="M135.8,21.6c-.3-1.7-1.7-2.9-4.2-2.9s-3.2.5-4.2,1.6c-1.6,1.8-2,4.2-2,6s.3,4.2,1.7,5.8c1.2,1.4,3.1,1.8,4.9,1.8s3.4-.4,4-.6v-5.5h-4.2v-2.1h6.8v9.1c-1.1.4-3.4,1.1-6.6,1.1s-5.4-1-6.7-2.3c-1.8-1.9-2.6-4.4-2.6-7.1s.5-6.2,4-8.6c1.8-1.2,4.2-1.3,5.2-1.3,1.5,0,3.7.2,5.5,2,1.1,1.2,1.2,2.2,1.2,3h-2.8Z"/>
      <path class="st0" d="M143.4,17h3.6l9.1,15.3v-15.3h2.4v18.6h-3.3l-9.4-15.8v15.8h-2.3v-18.6Z"/>
    </g>
  </g>
</svg>