<?xml version="1.0" encoding="UTF-8"?>
<svg id="_레이어_2" data-name="레이어 2" xmlns="http://www.w3.org/2000/svg" width="845.17" height="746.83" xmlns:xlink="http://www.w3.org/1999/xlink" viewBox="0 0 845.17 746.83">
  <defs>
    <style>
      .cls-1, .cls-2 {
        fill: none;
      }

      .cls-3 {
        fill: #ff49f8;
      }

      .cls-4 {
        clip-path: url(#clippath-1);
      }

      .cls-5 {
        fill: #b7b7b7;
      }

      .cls-6, .cls-7 {
        fill: #fff;
      }

      .cls-2 {
        stroke: #ff49f8;
        stroke-miterlimit: 10;
        stroke-width: 1.5px;
      }

      .cls-8 {
        fill: #fff17b;
      }

      .cls-9 {
        clip-path: url(#clippath);
      }

      .cls-7 {
        stroke: #a0a0a0;
        stroke-linejoin: bevel;
        stroke-width: 3px;
      }
    </style>
    <clipPath id="clippath">
      <rect class="cls-1" x="458.15" y="184.17" width="73.7" height="73.7" transform="translate(273.98 716.02) rotate(-90)"/>
    </clipPath>
    <clipPath id="clippath-1">
      <rect class="cls-1" x="439.58" y="164.61" width="314.84" height="174.13"/>
    </clipPath>
  </defs>
  <g id="_레이어_1-2" data-name="레이어 1">
    <g>
      <rect class="cls-6" width="736.65" height="746.83"/>
      <g>
        <polygon class="cls-7" points="560.67 369 575.35 364.47 575.35 598.09 560.67 602.77 560.67 369"/>
        <polygon class="cls-7" points="239.28 385.97 253.95 381.43 253.95 615.06 239.28 619.74 239.28 385.97"/>
        <polygon class="cls-7" points="251.27 155.14 265.95 150.6 265.95 384.22 251.27 388.91 251.27 155.14"/>
        <polyline class="cls-7" points="514.29 437.12 320.46 383.21 321.18 48.95 575.35 120.59"/>
        <polygon class="cls-7" points="321.18 49.33 320.46 383.58 267 398.21 267 155.11 149.96 188.56 149.25 431.66 78.24 450.91 79.26 116.9 321.18 49.33"/>
        <polygon class="cls-7" points="352.55 287.8 352.56 547.04 561.75 602.91 561.75 396.49 673.6 426.46 674.3 632.88 707.39 642.68 707.39 383.06 352.55 287.8"/>
        <g>
          <polyline class="cls-7" points="31.51 642.61 177.32 602.26 177.32 315.54 31.51 355.89"/>
          <polygon class="cls-7" points="177.31 315.54 177.32 602.26 239.51 619.87 239.51 465.65 333.87 492.06 334.57 646.28 514.16 696.32 514.2 623.07 514.29 410.09 177.31 315.54"/>
        </g>
        <path class="cls-5" d="M588.91,373.17v15.53c.38.51.65.86,1.03,1.37l58.67,16.77c.76-.57,1.06-.8,1.82-1.37v-15.52l-1.03-1.37-58.67-16.77c-.76.57-1.06.8-1.82,1.37Z"/>
        <path class="cls-5" d="M237.75,130.26v15.53c-.38.51-.65.86-1.03,1.37l-58.67,16.77c-.76-.57-1.06-.8-1.82-1.37v-15.52c.38-.51.65-.86,1.03-1.37l58.67-16.77,1.82,1.37Z"/>
        <path class="cls-5" d="M258.61,438.39v15.53c.38.51.65.86,1.03,1.37l58.67,16.77,1.82-1.37v-15.52c-.38-.51-.65-.86-1.03-1.37l-58.67-16.77c-.76.57-1.06.8-1.82,1.37Z"/>
        <line class="cls-7" x1="352.55" y1="287.8" x2="529.97" y2="236.66"/>
      </g>
      <g>
        <g>
          <rect class="cls-8" x="384.45" y="164.17" width="73.7" height="73.7" transform="translate(220.28 622.32) rotate(-90)"/>
          <rect class="cls-3" x="402.88" y="182.59" width="73.7" height="36.85" transform="translate(238.71 640.75) rotate(-90)"/>
        </g>
        <g class="cls-9">
          <g>
            <rect class="cls-8" x="439.58" y="164.61" width="314.84" height="174.13"/>
            <g class="cls-4">
              <line class="cls-2" x1="688.9" y1="156.26" x2="792.64" y2="350.48"/>
              <line class="cls-2" x1="664.36" y1="156.26" x2="768.1" y2="350.48"/>
              <line class="cls-2" x1="639.82" y1="156.26" x2="743.56" y2="350.48"/>
              <line class="cls-2" x1="615.29" y1="156.26" x2="719.03" y2="350.48"/>
              <line class="cls-2" x1="590.75" y1="156.26" x2="694.49" y2="350.48"/>
              <line class="cls-2" x1="566.21" y1="156.26" x2="669.95" y2="350.48"/>
              <line class="cls-2" x1="541.67" y1="156.26" x2="645.41" y2="350.48"/>
              <line class="cls-2" x1="517.14" y1="156.26" x2="620.88" y2="350.48"/>
              <line class="cls-2" x1="492.6" y1="156.26" x2="596.34" y2="350.48"/>
              <line class="cls-2" x1="468.06" y1="156.26" x2="571.8" y2="350.48"/>
              <line class="cls-2" x1="443.52" y1="156.26" x2="547.26" y2="350.48"/>
              <line class="cls-2" x1="418.99" y1="156.26" x2="522.73" y2="350.48"/>
              <line class="cls-2" x1="391.65" y1="156.26" x2="495.39" y2="350.48"/>
              <line class="cls-2" x1="364.55" y1="156.26" x2="468.29" y2="350.48"/>
              <line class="cls-2" x1="688.9" y1="156.26" x2="792.64" y2="350.48"/>
              <line class="cls-2" x1="714.29" y1="156.26" x2="818.03" y2="350.48"/>
              <line class="cls-2" x1="740.77" y1="156.26" x2="844.51" y2="350.48"/>
            </g>
          </g>
        </g>
        <g>
          <rect class="cls-3" x="531.85" y="204.17" width="73.7" height="73.7"/>
          <path class="cls-8" d="M568.7,277.99c0-31.2-5.93-36.96-38.01-36.96,32.08,0,38.01-5.77,38.01-36.96,0,31.2,5.93,36.96,38.01,36.96-32.08,0-38.01,5.77-38.01,36.96Z"/>
        </g>
      </g>
    </g>
  </g>
</svg>