<?xml version="1.0" encoding="UTF-8"?>
<svg id="_레이어_2" data-name="레이어 2" xmlns="http://www.w3.org/2000/svg" width="736.65" height="746.83" xmlns:xlink="http://www.w3.org/1999/xlink" viewBox="0 0 736.65 746.83">
  <defs>
    <style>
      .cls-1, .cls-2, .cls-3 {
        fill: none;
      }

      .cls-4 {
        fill: #b15bf9;
      }

      .cls-2, .cls-5 {
        stroke: #a0a0a0;
        stroke-linejoin: bevel;
        stroke-width: 3px;
      }

      .cls-6 {
        clip-path: url(#clippath-1);
      }

      .cls-7 {
        fill: #b7b7b7;
      }

      .cls-8, .cls-5 {
        fill: #fff;
      }

      .cls-9 {
        fill: #44f1ff;
      }

      .cls-10 {
        clip-path: url(#clippath);
      }

      .cls-3 {
        stroke: #b15bf9;
        stroke-miterlimit: 10;
        stroke-width: 1.5px;
      }
    </style>
    <clipPath id="clippath">
      <rect class="cls-1" x="114.38" y="201.3" width="73.7" height="73.7" transform="translate(-86.92 389.39) rotate(-90)"/>
    </clipPath>
    <clipPath id="clippath-1">
      <rect class="cls-1" x="95.81" y="181.75" width="314.84" height="174.13"/>
    </clipPath>
  </defs>
  <g id="_레이어_1-2" data-name="레이어 1">
    <g>
      <rect class="cls-8" width="736.65" height="746.83"/>
      <polygon class="cls-2" points="50.35 491.18 409.32 390.39 517.34 420.63 158.37 521.41 50.35 491.18"/>
      <g>
        <g>
          <polygon class="cls-5" points="468.01 346.54 479.66 343.28 417.94 325.39 406.28 328.66 468.01 346.54"/>
          <g>
            <polygon class="cls-5" points="468.01 346.54 479.66 343.28 479.66 423.88 468.01 427.14 468.01 346.54"/>
            <polygon class="cls-5" points="468.01 427.14 406.28 409.25 406.28 328.66 468.01 346.54 468.01 427.14"/>
          </g>
        </g>
        <g>
          <polygon class="cls-5" points="386.84 421.18 458.17 400.83 458.85 380.87 386.84 401.03 386.84 421.18"/>
          <g>
            <polygon class="cls-5" points="442.07 375.86 368.06 395.82 385.38 309.7 459.39 289.73 442.07 375.86"/>
            <polygon class="cls-5" points="458.85 387.79 386.84 407.94 398.19 313.39 472.2 293.42 458.85 387.79"/>
            <polygon class="cls-5" points="385.38 309.7 398.19 313.39 472.2 293.42 459.39 289.73 385.38 309.7"/>
          </g>
          <polygon class="cls-7" points="446.98 324.85 421.6 331.8 422.84 319.36 448.22 312.4 446.98 324.85"/>
          <polygon class="cls-5" points="385.38 309.7 398.19 313.39 386.84 407.94 386.84 421.18 316.89 401.09 316.89 380.87 366.21 394.37 385.38 309.7"/>
        </g>
        <g>
          <polygon class="cls-5" points="371.15 373.18 382.81 369.92 321.08 352.03 309.42 355.29 371.15 373.18"/>
          <g>
            <polygon class="cls-5" points="371.15 373.18 382.81 369.92 382.81 450.51 371.15 453.77 371.15 373.18"/>
            <polygon class="cls-5" points="371.15 453.77 309.42 435.89 309.42 355.29 371.15 373.18 371.15 453.77"/>
          </g>
        </g>
        <g>
          <polygon class="cls-5" points="289.98 447.82 361.31 427.47 362 407.5 289.98 427.66 289.98 447.82"/>
          <g>
            <polygon class="cls-5" points="345.21 402.49 271.21 422.46 288.52 336.33 362.53 316.37 345.21 402.49"/>
            <polygon class="cls-5" points="362 414.42 289.98 434.58 301.33 340.02 375.34 320.06 362 414.42"/>
            <polygon class="cls-5" points="288.52 336.33 301.33 340.02 375.34 320.06 362.53 316.37 288.52 336.33"/>
          </g>
          <polygon class="cls-7" points="350.12 351.48 324.75 358.44 325.99 345.99 351.36 339.04 350.12 351.48"/>
          <polygon class="cls-5" points="288.52 336.33 301.33 340.02 289.98 434.58 289.98 447.82 220.03 427.73 220.03 407.5 269.35 421 288.52 336.33"/>
        </g>
        <g>
          <polygon class="cls-5" points="274.29 399.82 285.95 396.55 224.23 378.67 212.57 381.93 274.29 399.82"/>
          <g>
            <polygon class="cls-5" points="274.29 399.82 285.95 396.55 285.95 477.15 274.29 480.41 274.29 399.82"/>
            <polygon class="cls-5" points="274.29 480.41 212.57 462.52 212.57 381.93 274.29 399.82 274.29 480.41"/>
          </g>
        </g>
        <g>
          <polygon class="cls-5" points="193.12 474.45 264.45 454.1 265.14 434.14 193.12 454.3 193.12 474.45"/>
          <g>
            <polygon class="cls-5" points="248.36 429.13 174.35 449.09 191.67 362.97 265.67 343 248.36 429.13"/>
            <polyline class="cls-5" points="193.12 461.22 204.48 366.66 278.48 346.69 265.14 441.06"/>
            <polygon class="cls-5" points="191.67 362.97 204.48 366.66 278.48 346.69 265.67 343 191.67 362.97"/>
          </g>
          <polygon class="cls-7" points="253.26 378.12 227.89 385.07 229.13 372.63 254.5 365.68 253.26 378.12"/>
          <polygon class="cls-5" points="191.67 362.97 204.48 366.66 193.12 461.22 193.12 474.45 123.17 454.37 123.17 434.14 172.49 447.64 191.67 362.97"/>
        </g>
        <g>
          <polygon class="cls-5" points="177.43 427.99 189.09 424.73 127.37 406.84 115.71 410.11 177.43 427.99"/>
          <g>
            <polygon class="cls-5" points="177.43 427.99 189.09 424.73 189.09 505.33 177.43 508.59 177.43 427.99"/>
            <polygon class="cls-5" points="177.43 508.59 115.71 490.7 115.71 410.11 177.43 427.99 177.43 508.59"/>
          </g>
        </g>
      </g>
      <polygon class="cls-5" points="158.37 481.1 553.35 370.23 691.42 410.55 296.45 521.42 158.37 481.1"/>
      <polygon class="cls-5" points="296.44 521.42 296.45 648.87 691.42 537.38 692.53 410.57 296.44 521.42"/>
      <g>
        <g>
          <polygon class="cls-5" points="591.92 343.94 603.58 340.67 541.86 322.79 530.2 326.05 591.92 343.94"/>
          <g>
            <polygon class="cls-5" points="591.92 343.94 603.58 340.67 603.58 421.27 591.92 424.53 591.92 343.94"/>
            <polygon class="cls-5" points="591.92 424.53 530.2 406.64 530.2 326.05 591.92 343.94 591.92 424.53"/>
          </g>
        </g>
        <g>
          <polygon class="cls-5" points="565.99 373.25 491.98 393.22 509.3 307.09 583.31 287.13 565.99 373.25"/>
          <polygon class="cls-5" points="522.11 310.78 510.76 405.34 510.76 405.34 510.76 418.58 582.08 398.23 582.53 385.25 596.12 290.81 522.11 310.78"/>
          <polygon class="cls-5" points="509.3 307.09 522.11 310.78 596.12 290.81 583.31 287.13 509.3 307.09"/>
          <polygon class="cls-7" points="570.9 322.24 545.52 329.19 546.76 316.75 572.14 309.8 570.9 322.24"/>
          <polygon class="cls-5" points="509.3 307.09 522.11 310.78 510.76 405.34 510.76 418.58 440.81 398.49 440.81 378.26 490.12 391.76 509.3 307.09"/>
        </g>
        <g>
          <polygon class="cls-5" points="495.07 370.57 506.73 367.31 445 349.42 433.34 352.68 495.07 370.57"/>
          <g>
            <polygon class="cls-5" points="495.07 370.57 506.73 367.31 506.73 447.9 495.07 451.17 495.07 370.57"/>
            <polygon class="cls-5" points="495.07 451.17 433.34 433.28 433.34 352.68 495.07 370.57 495.07 451.17"/>
          </g>
        </g>
        <g>
          <polygon class="cls-5" points="469.13 399.89 395.12 419.85 412.44 333.73 486.45 313.76 469.13 399.89"/>
          <polygon class="cls-5" points="499.26 317.45 425.25 337.41 413.9 431.97 413.9 431.97 413.9 431.97 413.9 445.21 485.23 424.86 485.67 411.88 499.26 317.45"/>
          <polygon class="cls-5" points="412.44 333.73 425.25 337.41 499.26 317.45 486.45 313.76 412.44 333.73"/>
          <polygon class="cls-7" points="474.04 348.88 448.67 355.83 449.91 343.39 475.28 336.43 474.04 348.88"/>
          <polygon class="cls-5" points="412.44 333.73 425.25 337.41 413.9 431.97 413.9 445.21 343.95 425.12 343.95 404.9 393.27 418.39 412.44 333.73"/>
        </g>
        <g>
          <polygon class="cls-5" points="398.21 397.21 409.87 393.95 348.14 376.06 336.48 379.32 398.21 397.21"/>
          <g>
            <polygon class="cls-5" points="398.21 397.21 409.87 393.95 409.87 474.54 398.21 477.8 398.21 397.21"/>
            <polygon class="cls-5" points="398.21 477.8 336.48 459.91 336.48 379.32 398.21 397.21 398.21 477.8"/>
          </g>
        </g>
        <g>
          <polygon class="cls-5" points="372.27 426.52 298.27 446.49 315.58 360.36 389.59 340.4 372.27 426.52"/>
          <polygon class="cls-5" points="328.39 364.05 317.04 458.61 317.04 458.61 317.04 471.85 388.37 451.5 388.82 438.52 402.4 344.09 328.39 364.05"/>
          <polygon class="cls-5" points="315.58 360.36 328.39 364.05 402.4 344.09 389.59 340.4 315.58 360.36"/>
          <polygon class="cls-7" points="377.18 375.51 351.81 382.46 353.05 370.02 378.42 363.07 377.18 375.51"/>
          <polygon class="cls-5" points="315.58 360.36 328.39 364.05 317.04 458.61 317.04 471.85 247.09 451.76 247.09 431.53 296.41 445.03 315.58 360.36"/>
        </g>
        <g>
          <polygon class="cls-5" points="301.35 425.39 313.01 422.12 251.29 404.24 239.63 407.5 301.35 425.39"/>
          <g>
            <polygon class="cls-5" points="301.35 425.39 313.01 422.12 313.01 502.72 301.35 505.98 301.35 425.39"/>
            <polygon class="cls-5" points="301.35 505.98 239.63 488.09 239.63 407.5 301.35 425.39 301.35 505.98"/>
          </g>
        </g>
      </g>
      <polygon class="cls-5" points="50.35 578.3 50.35 491.18 158.37 521.42 158.37 481.1 296.44 521.42 296.45 648.87 50.35 578.3"/>
      <g>
        <g class="cls-10">
          <g>
            <rect class="cls-9" x="95.81" y="181.75" width="314.84" height="174.13"/>
            <g class="cls-6">
              <line class="cls-3" x1="345.13" y1="173.4" x2="448.87" y2="367.61"/>
              <line class="cls-3" x1="320.6" y1="173.4" x2="424.33" y2="367.61"/>
              <line class="cls-3" x1="296.06" y1="173.4" x2="399.8" y2="367.61"/>
              <line class="cls-3" x1="271.52" y1="173.4" x2="375.26" y2="367.61"/>
              <line class="cls-3" x1="246.98" y1="173.4" x2="350.72" y2="367.61"/>
              <line class="cls-3" x1="222.45" y1="173.4" x2="326.18" y2="367.61"/>
              <line class="cls-3" x1="197.91" y1="173.4" x2="301.65" y2="367.61"/>
              <line class="cls-3" x1="173.37" y1="173.4" x2="277.11" y2="367.61"/>
              <line class="cls-3" x1="148.83" y1="173.4" x2="252.57" y2="367.61"/>
              <line class="cls-3" x1="124.29" y1="173.4" x2="228.03" y2="367.61"/>
              <line class="cls-3" x1="99.76" y1="173.4" x2="203.5" y2="367.61"/>
              <line class="cls-3" x1="75.22" y1="173.4" x2="178.96" y2="367.61"/>
              <line class="cls-3" x1="47.89" y1="173.4" x2="151.63" y2="367.61"/>
              <line class="cls-3" x1="20.78" y1="173.4" x2="124.52" y2="367.61"/>
              <line class="cls-3" x1="345.13" y1="173.4" x2="448.87" y2="367.61"/>
              <line class="cls-3" x1="370.52" y1="173.4" x2="474.26" y2="367.61"/>
              <line class="cls-3" x1="397" y1="173.4" x2="500.74" y2="367.61"/>
            </g>
          </g>
        </g>
        <g>
          <rect class="cls-4" x="188.09" y="181.3" width="73.7" height="73.7"/>
          <path class="cls-9" d="M224.94,255.12c0-31.2-5.93-36.96-38.01-36.96,32.08,0,38.01-5.77,38.01-36.96,0,31.2,5.93,36.96,38.01,36.96-32.08,0-38.01,5.77-38.01,36.96Z"/>
        </g>
        <g>
          <rect class="cls-9" x="261.79" y="161.3" width="73.7" height="73.7"/>
          <path class="cls-4" d="M298.64,235.12c0-31.2-5.93-36.96-38.01-36.96,32.08,0,38.01-5.77,38.01-36.96,0,31.2,5.93,36.96,38.01,36.96-32.08,0-38.01,5.77-38.01,36.96Z"/>
        </g>
      </g>
    </g>
  </g>
</svg>