<?xml version="1.0" encoding="UTF-8"?>
<svg id="_레이어_2" data-name="레이어 2" xmlns="http://www.w3.org/2000/svg" width="319.75" height="211.66" xmlns:xlink="http://www.w3.org/1999/xlink" viewBox="0 0 319.75 211.66">
  <defs>
    <style>
      .cls-1, .cls-2, .cls-3 {
        fill: none;
      }

      .cls-4 {
        fill: #a0a0a0;
      }

      .cls-5 {
        clip-path: url(#clippath-17);
      }

      .cls-6 {
        clip-path: url(#clippath-19);
      }

      .cls-7 {
        clip-path: url(#clippath-11);
      }

      .cls-8 {
        clip-path: url(#clippath-16);
      }

      .cls-9 {
        clip-path: url(#clippath-18);
      }

      .cls-10 {
        clip-path: url(#clippath-10);
      }

      .cls-11 {
        clip-path: url(#clippath-15);
      }

      .cls-12 {
        clip-path: url(#clippath-13);
      }

      .cls-13 {
        clip-path: url(#clippath-14);
      }

      .cls-14 {
        clip-path: url(#clippath-12);
      }

      .cls-15 {
        clip-path: url(#clippath-61);
      }

      .cls-16 {
        clip-path: url(#clippath-67);
      }

      .cls-17 {
        clip-path: url(#clippath-68);
      }

      .cls-18 {
        clip-path: url(#clippath-60);
      }

      .cls-19 {
        clip-path: url(#clippath-65);
      }

      .cls-20 {
        clip-path: url(#clippath-62);
      }

      .cls-21 {
        clip-path: url(#clippath-64);
      }

      .cls-22 {
        clip-path: url(#clippath-66);
      }

      .cls-23 {
        clip-path: url(#clippath-63);
      }

      .cls-24 {
        clip-path: url(#clippath-76);
      }

      .cls-25 {
        clip-path: url(#clippath-78);
      }

      .cls-26 {
        clip-path: url(#clippath-75);
      }

      .cls-27 {
        clip-path: url(#clippath-79);
      }

      .cls-28 {
        clip-path: url(#clippath-50);
      }

      .cls-29 {
        clip-path: url(#clippath-55);
      }

      .cls-30 {
        clip-path: url(#clippath-52);
      }

      .cls-31 {
        clip-path: url(#clippath-57);
      }

      .cls-32 {
        clip-path: url(#clippath-54);
      }

      .cls-33 {
        clip-path: url(#clippath-56);
      }

      .cls-34 {
        clip-path: url(#clippath-53);
      }

      .cls-35 {
        clip-path: url(#clippath-70);
      }

      .cls-36 {
        clip-path: url(#clippath-77);
      }

      .cls-37 {
        clip-path: url(#clippath-74);
      }

      .cls-38 {
        clip-path: url(#clippath-71);
      }

      .cls-39 {
        clip-path: url(#clippath-73);
      }

      .cls-40 {
        clip-path: url(#clippath-72);
      }

      .cls-41 {
        clip-path: url(#clippath-51);
      }

      .cls-42 {
        clip-path: url(#clippath-58);
      }

      .cls-43 {
        clip-path: url(#clippath-59);
      }

      .cls-44 {
        clip-path: url(#clippath-31);
      }

      .cls-45 {
        clip-path: url(#clippath-32);
      }

      .cls-46 {
        clip-path: url(#clippath-33);
      }

      .cls-47 {
        clip-path: url(#clippath-34);
      }

      .cls-48 {
        clip-path: url(#clippath-35);
      }

      .cls-49 {
        clip-path: url(#clippath-39);
      }

      .cls-50 {
        clip-path: url(#clippath-30);
      }

      .cls-51 {
        clip-path: url(#clippath-36);
      }

      .cls-52 {
        clip-path: url(#clippath-37);
      }

      .cls-53 {
        clip-path: url(#clippath-38);
      }

      .cls-54 {
        clip-path: url(#clippath-27);
      }

      .cls-55 {
        clip-path: url(#clippath-29);
      }

      .cls-56 {
        clip-path: url(#clippath-26);
      }

      .cls-57 {
        clip-path: url(#clippath-28);
      }

      .cls-58 {
        clip-path: url(#clippath-20);
      }

      .cls-59 {
        clip-path: url(#clippath-21);
      }

      .cls-60 {
        clip-path: url(#clippath-22);
      }

      .cls-61 {
        clip-path: url(#clippath-23);
      }

      .cls-62 {
        clip-path: url(#clippath-24);
      }

      .cls-63 {
        clip-path: url(#clippath-25);
      }

      .cls-64 {
        clip-path: url(#clippath-69);
      }

      .cls-65 {
        clip-path: url(#clippath-41);
      }

      .cls-66 {
        clip-path: url(#clippath-42);
      }

      .cls-67 {
        clip-path: url(#clippath-43);
      }

      .cls-68 {
        clip-path: url(#clippath-44);
      }

      .cls-69 {
        clip-path: url(#clippath-45);
      }

      .cls-70 {
        clip-path: url(#clippath-49);
      }

      .cls-71 {
        clip-path: url(#clippath-40);
      }

      .cls-72 {
        clip-path: url(#clippath-46);
      }

      .cls-73 {
        clip-path: url(#clippath-47);
      }

      .cls-74 {
        clip-path: url(#clippath-48);
      }

      .cls-75 {
        clip-path: url(#clippath-80);
      }

      .cls-76 {
        clip-path: url(#clippath-81);
      }

      .cls-77 {
        clip-path: url(#clippath-82);
      }

      .cls-78 {
        clip-path: url(#clippath-1);
      }

      .cls-79 {
        clip-path: url(#clippath-3);
      }

      .cls-80 {
        clip-path: url(#clippath-4);
      }

      .cls-81 {
        clip-path: url(#clippath-2);
      }

      .cls-82 {
        clip-path: url(#clippath-7);
      }

      .cls-83 {
        clip-path: url(#clippath-6);
      }

      .cls-84 {
        clip-path: url(#clippath-9);
      }

      .cls-85 {
        clip-path: url(#clippath-8);
      }

      .cls-86 {
        clip-path: url(#clippath-5);
      }

      .cls-87, .cls-88 {
        fill: #494648;
      }

      .cls-2 {
        stroke: #494648;
        stroke-miterlimit: 10;
      }

      .cls-88 {
        font-family: WantedSans-Bold-KSCpc-EUC-H, 'Wanted Sans';
        font-size: 16.25px;
        font-weight: 700;
      }

      .cls-89 {
        fill: #e6dafd;
      }

      .cls-3 {
        stroke: #a0a0a0;
        stroke-linejoin: bevel;
      }

      .cls-90 {
        clip-path: url(#clippath);
      }

      .cls-91 {
        fill: #fdb4f4;
      }
    </style>
    <clipPath id="clippath">
      <rect class="cls-1" x="111.85" y="40.03" width="159.16" height="33.72"/>
    </clipPath>
    <clipPath id="clippath-1">
      <rect class="cls-1" x="111.85" y="31.2" width="87.35" height="49.96"/>
    </clipPath>
    <clipPath id="clippath-2">
      <rect class="cls-1" x="-17.11" y="-21.57" width="38.99" height="39.05"/>
    </clipPath>
    <clipPath id="clippath-3">
      <rect class="cls-1" x="21.88" y="-21.61" width="38.99" height="39.05"/>
    </clipPath>
    <clipPath id="clippath-4">
      <rect class="cls-1" x="60.87" y="-21.57" width="38.99" height="39.05"/>
    </clipPath>
    <clipPath id="clippath-5">
      <rect class="cls-1" x="99.86" y="-21.61" width="38.99" height="39.05"/>
    </clipPath>
    <clipPath id="clippath-6">
      <rect class="cls-1" x="138.85" y="-21.57" width="38.99" height="39.05"/>
    </clipPath>
    <clipPath id="clippath-7">
      <rect class="cls-1" x="177.75" y="-21.61" width="38.99" height="39.05"/>
    </clipPath>
    <clipPath id="clippath-8">
      <rect class="cls-1" x="216.75" y="-21.61" width="38.99" height="39.05"/>
    </clipPath>
    <clipPath id="clippath-9">
      <rect class="cls-1" x="255.74" y="-21.61" width="38.99" height="39.05"/>
    </clipPath>
    <clipPath id="clippath-10">
      <rect class="cls-1" x="294.73" y="-21.61" width="38.99" height="39.05"/>
    </clipPath>
    <clipPath id="clippath-11">
      <rect class="cls-1" x="-17.11" y="17.52" width="38.99" height="39.05"/>
    </clipPath>
    <clipPath id="clippath-12">
      <rect class="cls-1" x="21.88" y="17.48" width="38.99" height="39.05"/>
    </clipPath>
    <clipPath id="clippath-13">
      <rect class="cls-1" x="60.87" y="17.52" width="38.99" height="39.05"/>
    </clipPath>
    <clipPath id="clippath-14">
      <rect class="cls-1" x="99.86" y="17.48" width="38.99" height="39.05"/>
    </clipPath>
    <clipPath id="clippath-15">
      <rect class="cls-1" x="138.85" y="17.52" width="38.99" height="39.05"/>
    </clipPath>
    <clipPath id="clippath-16">
      <rect class="cls-1" x="177.75" y="17.48" width="38.99" height="39.05"/>
    </clipPath>
    <clipPath id="clippath-17">
      <rect class="cls-1" x="216.75" y="17.48" width="38.99" height="39.05"/>
    </clipPath>
    <clipPath id="clippath-18">
      <rect class="cls-1" x="255.74" y="17.48" width="38.99" height="39.05"/>
    </clipPath>
    <clipPath id="clippath-19">
      <rect class="cls-1" x="294.73" y="17.48" width="38.99" height="39.05"/>
    </clipPath>
    <clipPath id="clippath-20">
      <rect class="cls-1" x="-17.11" y="56.61" width="38.99" height="39.05"/>
    </clipPath>
    <clipPath id="clippath-21">
      <rect class="cls-1" x="21.88" y="56.57" width="38.99" height="39.05"/>
    </clipPath>
    <clipPath id="clippath-22">
      <rect class="cls-1" x="60.87" y="56.61" width="38.99" height="39.05"/>
    </clipPath>
    <clipPath id="clippath-23">
      <rect class="cls-1" x="99.86" y="56.57" width="38.99" height="39.05"/>
    </clipPath>
    <clipPath id="clippath-24">
      <rect class="cls-1" x="138.85" y="56.61" width="38.99" height="39.05"/>
    </clipPath>
    <clipPath id="clippath-25">
      <rect class="cls-1" x="177.75" y="56.57" width="38.99" height="39.05"/>
    </clipPath>
    <clipPath id="clippath-26">
      <rect class="cls-1" x="216.75" y="56.57" width="38.99" height="39.05"/>
    </clipPath>
    <clipPath id="clippath-27">
      <rect class="cls-1" x="255.74" y="56.57" width="38.99" height="39.05"/>
    </clipPath>
    <clipPath id="clippath-28">
      <rect class="cls-1" x="294.73" y="56.57" width="38.99" height="39.05"/>
    </clipPath>
    <clipPath id="clippath-29">
      <rect class="cls-1" x="-17.11" y="95.7" width="38.99" height="39.05"/>
    </clipPath>
    <clipPath id="clippath-30">
      <rect class="cls-1" x="21.88" y="95.66" width="38.99" height="39.05"/>
    </clipPath>
    <clipPath id="clippath-31">
      <rect class="cls-1" x="60.87" y="95.7" width="38.99" height="39.05"/>
    </clipPath>
    <clipPath id="clippath-32">
      <rect class="cls-1" x="99.86" y="95.66" width="38.99" height="39.05"/>
    </clipPath>
    <clipPath id="clippath-33">
      <rect class="cls-1" x="138.85" y="95.7" width="38.99" height="39.05"/>
    </clipPath>
    <clipPath id="clippath-34">
      <rect class="cls-1" x="177.75" y="95.66" width="38.99" height="39.05"/>
    </clipPath>
    <clipPath id="clippath-35">
      <rect class="cls-1" x="216.75" y="95.66" width="38.99" height="39.05"/>
    </clipPath>
    <clipPath id="clippath-36">
      <rect class="cls-1" x="255.74" y="95.66" width="38.99" height="39.05"/>
    </clipPath>
    <clipPath id="clippath-37">
      <rect class="cls-1" x="294.73" y="95.66" width="38.99" height="39.05"/>
    </clipPath>
    <clipPath id="clippath-38">
      <rect class="cls-1" x="-17.11" y="134.78" width="38.99" height="39.05"/>
    </clipPath>
    <clipPath id="clippath-39">
      <rect class="cls-1" x="21.88" y="134.75" width="38.99" height="39.05"/>
    </clipPath>
    <clipPath id="clippath-40">
      <rect class="cls-1" x="60.87" y="134.78" width="38.99" height="39.05"/>
    </clipPath>
    <clipPath id="clippath-41">
      <rect class="cls-1" x="99.86" y="134.75" width="38.99" height="39.05"/>
    </clipPath>
    <clipPath id="clippath-42">
      <rect class="cls-1" x="138.85" y="134.78" width="38.99" height="39.05"/>
    </clipPath>
    <clipPath id="clippath-43">
      <rect class="cls-1" x="177.75" y="134.75" width="38.99" height="39.05"/>
    </clipPath>
    <clipPath id="clippath-44">
      <rect class="cls-1" x="216.75" y="134.75" width="38.99" height="39.05"/>
    </clipPath>
    <clipPath id="clippath-45">
      <rect class="cls-1" x="255.74" y="134.75" width="38.99" height="39.05"/>
    </clipPath>
    <clipPath id="clippath-46">
      <rect class="cls-1" x="294.73" y="134.75" width="38.99" height="39.05"/>
    </clipPath>
    <clipPath id="clippath-47">
      <rect class="cls-1" x="197.14" y="31.2" width="87.35" height="49.96"/>
    </clipPath>
    <clipPath id="clippath-48">
      <rect class="cls-1" x="68.18" y="-21.57" width="38.99" height="39.05"/>
    </clipPath>
    <clipPath id="clippath-49">
      <rect class="cls-1" x="107.17" y="-21.61" width="38.99" height="39.05"/>
    </clipPath>
    <clipPath id="clippath-50">
      <rect class="cls-1" x="146.17" y="-21.57" width="38.99" height="39.05"/>
    </clipPath>
    <clipPath id="clippath-51">
      <rect class="cls-1" x="185.16" y="-21.61" width="38.99" height="39.05"/>
    </clipPath>
    <clipPath id="clippath-52">
      <rect class="cls-1" x="224.15" y="-21.57" width="38.99" height="39.05"/>
    </clipPath>
    <clipPath id="clippath-53">
      <rect class="cls-1" x="263.05" y="-21.61" width="38.99" height="39.05"/>
    </clipPath>
    <clipPath id="clippath-54">
      <rect class="cls-1" x="302.04" y="-21.61" width="38.99" height="39.05"/>
    </clipPath>
    <clipPath id="clippath-55">
      <rect class="cls-1" x="68.18" y="17.52" width="38.99" height="39.05"/>
    </clipPath>
    <clipPath id="clippath-56">
      <rect class="cls-1" x="107.17" y="17.48" width="38.99" height="39.05"/>
    </clipPath>
    <clipPath id="clippath-57">
      <rect class="cls-1" x="146.17" y="17.52" width="38.99" height="39.05"/>
    </clipPath>
    <clipPath id="clippath-58">
      <rect class="cls-1" x="185.16" y="17.48" width="38.99" height="39.05"/>
    </clipPath>
    <clipPath id="clippath-59">
      <rect class="cls-1" x="224.15" y="17.52" width="38.99" height="39.05"/>
    </clipPath>
    <clipPath id="clippath-60">
      <rect class="cls-1" x="263.05" y="17.48" width="38.99" height="39.05"/>
    </clipPath>
    <clipPath id="clippath-61">
      <rect class="cls-1" x="302.04" y="17.48" width="38.99" height="39.05"/>
    </clipPath>
    <clipPath id="clippath-62">
      <rect class="cls-1" x="68.18" y="56.61" width="38.99" height="39.05"/>
    </clipPath>
    <clipPath id="clippath-63">
      <rect class="cls-1" x="107.17" y="56.57" width="38.99" height="39.05"/>
    </clipPath>
    <clipPath id="clippath-64">
      <rect class="cls-1" x="146.17" y="56.61" width="38.99" height="39.05"/>
    </clipPath>
    <clipPath id="clippath-65">
      <rect class="cls-1" x="185.16" y="56.57" width="38.99" height="39.05"/>
    </clipPath>
    <clipPath id="clippath-66">
      <rect class="cls-1" x="224.15" y="56.61" width="38.99" height="39.05"/>
    </clipPath>
    <clipPath id="clippath-67">
      <rect class="cls-1" x="263.05" y="56.57" width="38.99" height="39.05"/>
    </clipPath>
    <clipPath id="clippath-68">
      <rect class="cls-1" x="302.04" y="56.57" width="38.99" height="39.05"/>
    </clipPath>
    <clipPath id="clippath-69">
      <rect class="cls-1" x="68.18" y="95.7" width="38.99" height="39.05"/>
    </clipPath>
    <clipPath id="clippath-70">
      <rect class="cls-1" x="107.17" y="95.66" width="38.99" height="39.05"/>
    </clipPath>
    <clipPath id="clippath-71">
      <rect class="cls-1" x="146.17" y="95.7" width="38.99" height="39.05"/>
    </clipPath>
    <clipPath id="clippath-72">
      <rect class="cls-1" x="185.16" y="95.66" width="38.99" height="39.05"/>
    </clipPath>
    <clipPath id="clippath-73">
      <rect class="cls-1" x="224.15" y="95.7" width="38.99" height="39.05"/>
    </clipPath>
    <clipPath id="clippath-74">
      <rect class="cls-1" x="263.05" y="95.66" width="38.99" height="39.05"/>
    </clipPath>
    <clipPath id="clippath-75">
      <rect class="cls-1" x="302.04" y="95.66" width="38.99" height="39.05"/>
    </clipPath>
    <clipPath id="clippath-76">
      <rect class="cls-1" x="68.18" y="134.78" width="38.99" height="39.05"/>
    </clipPath>
    <clipPath id="clippath-77">
      <rect class="cls-1" x="107.17" y="134.75" width="38.99" height="39.05"/>
    </clipPath>
    <clipPath id="clippath-78">
      <rect class="cls-1" x="146.17" y="134.78" width="38.99" height="39.05"/>
    </clipPath>
    <clipPath id="clippath-79">
      <rect class="cls-1" x="185.16" y="134.75" width="38.99" height="39.05"/>
    </clipPath>
    <clipPath id="clippath-80">
      <rect class="cls-1" x="224.15" y="134.78" width="38.99" height="39.05"/>
    </clipPath>
    <clipPath id="clippath-81">
      <rect class="cls-1" x="263.05" y="134.75" width="38.99" height="39.05"/>
    </clipPath>
    <clipPath id="clippath-82">
      <rect class="cls-1" x="302.04" y="134.75" width="38.99" height="39.05"/>
    </clipPath>
  </defs>
  <g id="_레이어_1-2" data-name="레이어 1">
    <g>
      <polyline class="cls-3" points="36.12 187.23 28.89 187.23 .32 211.28"/>
      <polyline class="cls-3" points="299.42 187.23 319.35 187.23 301.19 211.28"/>
      <g>
        <g>
          <rect class="cls-3" x="36.11" y="4.37" width="259" height="189.43"/>
          <rect class="cls-87" x="79.09" y="89.2" width="17.58" height="4.45"/>
          <rect class="cls-4" x="96.68" y="98.12" width="17.58" height="4.45"/>
          <rect class="cls-4" x="114.71" y="107.04" width="17.58" height="4.45"/>
          <rect class="cls-4" x="132.3" y="115.96" width="17.58" height="4.45"/>
          <polyline class="cls-2" points="111.88 56.97 87.89 56.97 87.89 93.64"/>
          <polyline class="cls-3" points="295.1 182.38 255.15 182.38 255.15 173.14 239.42 173.14 239.42 163.9 223.69 163.9 223.69 154.66 207.96 154.66 207.96 145.42 192.23 145.42 192.23 136.18 138.98 136.18 138.98 126.94 123.25 126.94 123.25 117.7 107.52 117.7 107.52 108.46 91.79 108.46 91.79 99.21 76.06 99.21 76.06 89.97 36.11 89.97"/>
          <rect class="cls-4" x="196.05" y="136.18" width="17.58" height="4.45"/>
          <rect class="cls-4" x="213.63" y="145.1" width="17.58" height="4.45"/>
          <rect class="cls-4" x="231.67" y="154.02" width="17.58" height="4.45"/>
          <rect class="cls-4" x="249.25" y="162.94" width="17.58" height="4.45"/>
          <g class="cls-90">
            <g>
              <g class="cls-78">
                <g>
                  <g>
                    <g>
                      <rect class="cls-89" x="-17.11" y="-21.58" width="38.99" height="38.99"/>
                      <g class="cls-81">
                        <path class="cls-91" d="M14.08-21.58h3.9l-3.9,38.99h-3.9l3.9-38.99ZM2.38,17.41h3.9l3.9-38.99h-3.9L2.38,17.41ZM-5.41,17.41H-1.51L2.38-21.58H-1.51l-3.9,38.99ZM-13.21,17.41h3.9l3.9-38.99h-3.9l-3.9,38.99ZM17.98,17.41h3.9l3.9-38.99h-3.9l-3.9,38.99ZM-21.01,17.41h3.9l3.9-38.99h-3.9l-3.9,38.99Z"/>
                      </g>
                    </g>
                    <g>
                      <rect class="cls-89" x="21.88" y="-21.61" width="38.99" height="38.99"/>
                      <g class="cls-79">
                        <path class="cls-91" d="M53.07-21.61h3.9l-3.9,38.99h-3.9l3.9-38.99ZM41.37,17.38h3.9l3.9-38.99h-3.9l-3.9,38.99ZM33.58,17.38h3.9l3.9-38.99h-3.9l-3.9,38.99ZM25.78,17.38h3.9l3.9-38.99h-3.9l-3.9,38.99ZM56.97,17.38h3.9l3.9-38.99h-3.9l-3.9,38.99ZM17.98,17.38h3.9l3.9-38.99h-3.9l-3.9,38.99Z"/>
                      </g>
                    </g>
                    <g>
                      <rect class="cls-89" x="60.88" y="-21.58" width="38.99" height="38.99"/>
                      <g class="cls-80">
                        <path class="cls-91" d="M92.07-21.58h3.9l-3.9,38.99h-3.9l3.9-38.99ZM80.37,17.41h3.9l3.9-38.99h-3.9l-3.9,38.99ZM72.57,17.41h3.9l3.9-38.99h-3.9l-3.9,38.99ZM64.77,17.41h3.9l3.9-38.99h-3.9l-3.9,38.99ZM95.96,17.41h3.9l3.9-38.99h-3.9l-3.9,38.99ZM56.98,17.41h3.9l3.9-38.99h-3.9l-3.9,38.99Z"/>
                      </g>
                    </g>
                    <g>
                      <rect class="cls-89" x="99.87" y="-21.61" width="38.99" height="38.99"/>
                      <g class="cls-86">
                        <path class="cls-91" d="M131.06-21.61h3.9l-3.9,38.99h-3.9l3.9-38.99ZM119.36,17.38h3.9l3.9-38.99h-3.9l-3.9,38.99ZM111.56,17.38h3.9l3.9-38.99h-3.9l-3.9,38.99ZM103.76,17.38h3.9l3.9-38.99h-3.9l-3.9,38.99ZM134.95,17.38h3.9l3.9-38.99h-3.9l-3.9,38.99ZM95.97,17.38h3.9l3.9-38.99h-3.9l-3.9,38.99Z"/>
                      </g>
                    </g>
                    <g>
                      <rect class="cls-89" x="138.86" y="-21.58" width="38.99" height="38.99"/>
                      <g class="cls-83">
                        <path class="cls-91" d="M170.05-21.58h3.9l-3.9,38.99h-3.9l3.9-38.99ZM158.35,17.41h3.9l3.9-38.99h-3.9l-3.9,38.99ZM150.55,17.41h3.9l3.9-38.99h-3.9l-3.9,38.99ZM142.76,17.41h3.9l3.9-38.99h-3.9l-3.9,38.99ZM173.95,17.41h3.9l3.9-38.99h-3.9l-3.9,38.99ZM134.96,17.41h3.9l3.9-38.99h-3.9l-3.9,38.99Z"/>
                      </g>
                    </g>
                    <g>
                      <rect class="cls-89" x="177.76" y="-21.61" width="38.99" height="38.99"/>
                      <g class="cls-82">
                        <path class="cls-91" d="M208.95-21.61h3.9l-3.9,38.99h-3.9l3.9-38.99ZM197.25,17.38h3.9l3.9-38.99h-3.9l-3.9,38.99ZM189.45,17.38h3.9l3.9-38.99h-3.9l-3.9,38.99ZM181.66,17.38h3.9l3.9-38.99h-3.9l-3.9,38.99ZM212.85,17.38h3.9l3.9-38.99h-3.9l-3.9,38.99ZM173.86,17.38h3.9l3.9-38.99h-3.9l-3.9,38.99Z"/>
                      </g>
                    </g>
                    <g>
                      <rect class="cls-89" x="216.75" y="-21.61" width="38.99" height="38.99"/>
                      <g class="cls-85">
                        <path class="cls-91" d="M247.94-21.61h3.9l-3.9,38.99h-3.9l3.9-38.99ZM236.25,17.38h3.9l3.9-38.99h-3.9l-3.9,38.99ZM228.45,17.38h3.9l3.9-38.99h-3.9l-3.9,38.99ZM220.65,17.38h3.9l3.9-38.99h-3.9l-3.9,38.99ZM251.84,17.38h3.9l3.9-38.99h-3.9l-3.9,38.99ZM212.85,17.38h3.9l3.9-38.99h-3.9l-3.9,38.99Z"/>
                      </g>
                    </g>
                    <g>
                      <rect class="cls-89" x="255.74" y="-21.61" width="38.99" height="38.99"/>
                      <g class="cls-84">
                        <path class="cls-91" d="M286.93-21.61h3.9l-3.9,38.99h-3.9l3.9-38.99ZM275.24,17.38h3.9l3.9-38.99h-3.9l-3.9,38.99ZM267.44,17.38h3.9l3.9-38.99h-3.9l-3.9,38.99ZM259.64,17.38h3.9l3.9-38.99h-3.9l-3.9,38.99ZM290.83,17.38h3.9l3.9-38.99h-3.9l-3.9,38.99ZM251.84,17.38h3.9l3.9-38.99h-3.9l-3.9,38.99Z"/>
                      </g>
                    </g>
                    <g>
                      <rect class="cls-89" x="294.73" y="-21.61" width="38.99" height="38.99"/>
                      <g class="cls-10">
                        <path class="cls-91" d="M325.92-21.61h3.9l-3.9,38.99h-3.9l3.9-38.99ZM314.23,17.38h3.9l3.9-38.99h-3.9l-3.9,38.99ZM306.43,17.38h3.9l3.9-38.99h-3.9l-3.9,38.99ZM298.63,17.38h3.9l3.9-38.99h-3.9l-3.9,38.99ZM329.82,17.38h3.9l3.9-38.99h-3.9l-3.9,38.99ZM290.83,17.38h3.9l3.9-38.99h-3.9l-3.9,38.99Z"/>
                      </g>
                    </g>
                  </g>
                  <g>
                    <g>
                      <rect class="cls-89" x="-17.11" y="17.51" width="38.99" height="38.99"/>
                      <g class="cls-7">
                        <path class="cls-91" d="M14.08,17.51h3.9l-3.9,38.99h-3.9l3.9-38.99ZM2.38,56.5h3.9l3.9-38.99h-3.9l-3.9,38.99ZM-5.41,56.5H-1.51L2.38,17.51H-1.51l-3.9,38.99ZM-13.21,56.5h3.9l3.9-38.99h-3.9l-3.9,38.99ZM17.98,56.5h3.9l3.9-38.99h-3.9l-3.9,38.99ZM-21.01,56.5h3.9l3.9-38.99h-3.9l-3.9,38.99Z"/>
                      </g>
                    </g>
                    <g>
                      <rect class="cls-89" x="21.88" y="17.48" width="38.99" height="38.99"/>
                      <g class="cls-14">
                        <path class="cls-91" d="M53.07,17.48h3.9l-3.9,38.99h-3.9l3.9-38.99ZM41.37,56.47h3.9l3.9-38.99h-3.9l-3.9,38.99ZM33.58,56.47h3.9l3.9-38.99h-3.9l-3.9,38.99ZM25.78,56.47h3.9l3.9-38.99h-3.9l-3.9,38.99ZM56.97,56.47h3.9l3.9-38.99h-3.9l-3.9,38.99ZM17.98,56.47h3.9l3.9-38.99h-3.9l-3.9,38.99Z"/>
                      </g>
                    </g>
                    <g>
                      <rect class="cls-89" x="60.88" y="17.51" width="38.99" height="38.99"/>
                      <g class="cls-12">
                        <path class="cls-91" d="M92.07,17.51h3.9l-3.9,38.99h-3.9l3.9-38.99ZM80.37,56.5h3.9l3.9-38.99h-3.9l-3.9,38.99ZM72.57,56.5h3.9l3.9-38.99h-3.9l-3.9,38.99ZM64.77,56.5h3.9l3.9-38.99h-3.9l-3.9,38.99ZM95.96,56.5h3.9l3.9-38.99h-3.9l-3.9,38.99ZM56.98,56.5h3.9l3.9-38.99h-3.9l-3.9,38.99Z"/>
                      </g>
                    </g>
                    <g>
                      <rect class="cls-89" x="99.87" y="17.48" width="38.99" height="38.99"/>
                      <g class="cls-13">
                        <path class="cls-91" d="M131.06,17.48h3.9l-3.9,38.99h-3.9l3.9-38.99ZM119.36,56.47h3.9l3.9-38.99h-3.9l-3.9,38.99ZM111.56,56.47h3.9l3.9-38.99h-3.9l-3.9,38.99ZM103.76,56.47h3.9l3.9-38.99h-3.9l-3.9,38.99ZM134.95,56.47h3.9l3.9-38.99h-3.9l-3.9,38.99ZM95.97,56.47h3.9l3.9-38.99h-3.9l-3.9,38.99Z"/>
                      </g>
                    </g>
                    <g>
                      <rect class="cls-89" x="138.86" y="17.51" width="38.99" height="38.99"/>
                      <g class="cls-11">
                        <path class="cls-91" d="M170.05,17.51h3.9l-3.9,38.99h-3.9l3.9-38.99ZM158.35,56.5h3.9l3.9-38.99h-3.9l-3.9,38.99ZM150.55,56.5h3.9l3.9-38.99h-3.9l-3.9,38.99ZM142.76,56.5h3.9l3.9-38.99h-3.9l-3.9,38.99ZM173.95,56.5h3.9l3.9-38.99h-3.9l-3.9,38.99ZM134.96,56.5h3.9l3.9-38.99h-3.9l-3.9,38.99Z"/>
                      </g>
                    </g>
                    <g>
                      <rect class="cls-89" x="177.76" y="17.48" width="38.99" height="38.99"/>
                      <g class="cls-8">
                        <path class="cls-91" d="M208.95,17.48h3.9l-3.9,38.99h-3.9l3.9-38.99ZM197.25,56.47h3.9l3.9-38.99h-3.9l-3.9,38.99ZM189.45,56.47h3.9l3.9-38.99h-3.9l-3.9,38.99ZM181.66,56.47h3.9l3.9-38.99h-3.9l-3.9,38.99ZM212.85,56.47h3.9l3.9-38.99h-3.9l-3.9,38.99ZM173.86,56.47h3.9l3.9-38.99h-3.9l-3.9,38.99Z"/>
                      </g>
                    </g>
                    <g>
                      <rect class="cls-89" x="216.75" y="17.48" width="38.99" height="38.99"/>
                      <g class="cls-5">
                        <path class="cls-91" d="M247.94,17.48h3.9l-3.9,38.99h-3.9l3.9-38.99ZM236.25,56.47h3.9l3.9-38.99h-3.9l-3.9,38.99ZM228.45,56.47h3.9l3.9-38.99h-3.9l-3.9,38.99ZM220.65,56.47h3.9l3.9-38.99h-3.9l-3.9,38.99ZM251.84,56.47h3.9l3.9-38.99h-3.9l-3.9,38.99ZM212.85,56.47h3.9l3.9-38.99h-3.9l-3.9,38.99Z"/>
                      </g>
                    </g>
                    <g>
                      <rect class="cls-89" x="255.74" y="17.48" width="38.99" height="38.99"/>
                      <g class="cls-9">
                        <path class="cls-91" d="M286.93,17.48h3.9l-3.9,38.99h-3.9l3.9-38.99ZM275.24,56.47h3.9l3.9-38.99h-3.9l-3.9,38.99ZM267.44,56.47h3.9l3.9-38.99h-3.9l-3.9,38.99ZM259.64,56.47h3.9l3.9-38.99h-3.9l-3.9,38.99ZM290.83,56.47h3.9l3.9-38.99h-3.9l-3.9,38.99ZM251.84,56.47h3.9l3.9-38.99h-3.9l-3.9,38.99Z"/>
                      </g>
                    </g>
                    <g>
                      <rect class="cls-89" x="294.73" y="17.48" width="38.99" height="38.99"/>
                      <g class="cls-6">
                        <path class="cls-91" d="M325.92,17.48h3.9l-3.9,38.99h-3.9l3.9-38.99ZM314.23,56.47h3.9l3.9-38.99h-3.9l-3.9,38.99ZM306.43,56.47h3.9l3.9-38.99h-3.9l-3.9,38.99ZM298.63,56.47h3.9l3.9-38.99h-3.9l-3.9,38.99ZM329.82,56.47h3.9l3.9-38.99h-3.9l-3.9,38.99ZM290.83,56.47h3.9l3.9-38.99h-3.9l-3.9,38.99Z"/>
                      </g>
                    </g>
                  </g>
                  <g>
                    <g>
                      <rect class="cls-89" x="-17.11" y="56.6" width="38.99" height="38.99"/>
                      <g class="cls-58">
                        <path class="cls-91" d="M14.08,56.6h3.9l-3.9,38.99h-3.9l3.9-38.99ZM2.38,95.59h3.9l3.9-38.99h-3.9l-3.9,38.99ZM-5.41,95.59H-1.51l3.9-38.99H-1.51l-3.9,38.99ZM-13.21,95.59h3.9l3.9-38.99h-3.9l-3.9,38.99ZM17.98,95.59h3.9l3.9-38.99h-3.9l-3.9,38.99ZM-21.01,95.59h3.9l3.9-38.99h-3.9l-3.9,38.99Z"/>
                      </g>
                    </g>
                    <g>
                      <rect class="cls-89" x="21.88" y="56.57" width="38.99" height="38.99"/>
                      <g class="cls-59">
                        <path class="cls-91" d="M53.07,56.57h3.9l-3.9,38.99h-3.9l3.9-38.99ZM41.37,95.56h3.9l3.9-38.99h-3.9l-3.9,38.99ZM33.58,95.56h3.9l3.9-38.99h-3.9l-3.9,38.99ZM25.78,95.56h3.9l3.9-38.99h-3.9l-3.9,38.99ZM56.97,95.56h3.9l3.9-38.99h-3.9l-3.9,38.99ZM17.98,95.56h3.9l3.9-38.99h-3.9l-3.9,38.99Z"/>
                      </g>
                    </g>
                    <g>
                      <rect class="cls-89" x="60.88" y="56.6" width="38.99" height="38.99"/>
                      <g class="cls-60">
                        <path class="cls-91" d="M92.07,56.6h3.9l-3.9,38.99h-3.9l3.9-38.99ZM80.37,95.59h3.9l3.9-38.99h-3.9l-3.9,38.99ZM72.57,95.59h3.9l3.9-38.99h-3.9l-3.9,38.99ZM64.77,95.59h3.9l3.9-38.99h-3.9l-3.9,38.99ZM95.96,95.59h3.9l3.9-38.99h-3.9l-3.9,38.99ZM56.98,95.59h3.9l3.9-38.99h-3.9l-3.9,38.99Z"/>
                      </g>
                    </g>
                    <g>
                      <rect class="cls-89" x="99.87" y="56.57" width="38.99" height="38.99"/>
                      <g class="cls-61">
                        <path class="cls-91" d="M131.06,56.57h3.9l-3.9,38.99h-3.9l3.9-38.99ZM119.36,95.56h3.9l3.9-38.99h-3.9l-3.9,38.99ZM111.56,95.56h3.9l3.9-38.99h-3.9l-3.9,38.99ZM103.76,95.56h3.9l3.9-38.99h-3.9l-3.9,38.99ZM134.95,95.56h3.9l3.9-38.99h-3.9l-3.9,38.99ZM95.97,95.56h3.9l3.9-38.99h-3.9l-3.9,38.99Z"/>
                      </g>
                    </g>
                    <g>
                      <rect class="cls-89" x="138.86" y="56.6" width="38.99" height="38.99"/>
                      <g class="cls-62">
                        <path class="cls-91" d="M170.05,56.6h3.9l-3.9,38.99h-3.9l3.9-38.99ZM158.35,95.59h3.9l3.9-38.99h-3.9l-3.9,38.99ZM150.55,95.59h3.9l3.9-38.99h-3.9l-3.9,38.99ZM142.76,95.59h3.9l3.9-38.99h-3.9l-3.9,38.99ZM173.95,95.59h3.9l3.9-38.99h-3.9l-3.9,38.99ZM134.96,95.59h3.9l3.9-38.99h-3.9l-3.9,38.99Z"/>
                      </g>
                    </g>
                    <g>
                      <rect class="cls-89" x="177.76" y="56.57" width="38.99" height="38.99"/>
                      <g class="cls-63">
                        <path class="cls-91" d="M208.95,56.57h3.9l-3.9,38.99h-3.9l3.9-38.99ZM197.25,95.56h3.9l3.9-38.99h-3.9l-3.9,38.99ZM189.45,95.56h3.9l3.9-38.99h-3.9l-3.9,38.99ZM181.66,95.56h3.9l3.9-38.99h-3.9l-3.9,38.99ZM212.85,95.56h3.9l3.9-38.99h-3.9l-3.9,38.99ZM173.86,95.56h3.9l3.9-38.99h-3.9l-3.9,38.99Z"/>
                      </g>
                    </g>
                    <g>
                      <rect class="cls-89" x="216.75" y="56.57" width="38.99" height="38.99"/>
                      <g class="cls-56">
                        <path class="cls-91" d="M247.94,56.57h3.9l-3.9,38.99h-3.9l3.9-38.99ZM236.25,95.56h3.9l3.9-38.99h-3.9l-3.9,38.99ZM228.45,95.56h3.9l3.9-38.99h-3.9l-3.9,38.99ZM220.65,95.56h3.9l3.9-38.99h-3.9l-3.9,38.99ZM251.84,95.56h3.9l3.9-38.99h-3.9l-3.9,38.99ZM212.85,95.56h3.9l3.9-38.99h-3.9l-3.9,38.99Z"/>
                      </g>
                    </g>
                    <g>
                      <rect class="cls-89" x="255.74" y="56.57" width="38.99" height="38.99"/>
                      <g class="cls-54">
                        <path class="cls-91" d="M286.93,56.57h3.9l-3.9,38.99h-3.9l3.9-38.99ZM275.24,95.56h3.9l3.9-38.99h-3.9l-3.9,38.99ZM267.44,95.56h3.9l3.9-38.99h-3.9l-3.9,38.99ZM259.64,95.56h3.9l3.9-38.99h-3.9l-3.9,38.99ZM290.83,95.56h3.9l3.9-38.99h-3.9l-3.9,38.99ZM251.84,95.56h3.9l3.9-38.99h-3.9l-3.9,38.99Z"/>
                      </g>
                    </g>
                    <g>
                      <rect class="cls-89" x="294.73" y="56.57" width="38.99" height="38.99"/>
                      <g class="cls-57">
                        <path class="cls-91" d="M325.92,56.57h3.9l-3.9,38.99h-3.9l3.9-38.99ZM314.23,95.56h3.9l3.9-38.99h-3.9l-3.9,38.99ZM306.43,95.56h3.9l3.9-38.99h-3.9l-3.9,38.99ZM298.63,95.56h3.9l3.9-38.99h-3.9l-3.9,38.99ZM329.82,95.56h3.9l3.9-38.99h-3.9l-3.9,38.99ZM290.83,95.56h3.9l3.9-38.99h-3.9l-3.9,38.99Z"/>
                      </g>
                    </g>
                  </g>
                  <g>
                    <g>
                      <rect class="cls-89" x="-17.11" y="95.69" width="38.99" height="38.99"/>
                      <g class="cls-55">
                        <path class="cls-91" d="M14.08,95.69h3.9l-3.9,38.99h-3.9l3.9-38.99ZM2.38,134.68h3.9l3.9-38.99h-3.9l-3.9,38.99ZM-5.41,134.68H-1.51l3.9-38.99H-1.51l-3.9,38.99ZM-13.21,134.68h3.9l3.9-38.99h-3.9l-3.9,38.99ZM17.98,134.68h3.9l3.9-38.99h-3.9l-3.9,38.99ZM-21.01,134.68h3.9l3.9-38.99h-3.9l-3.9,38.99Z"/>
                      </g>
                    </g>
                    <g>
                      <rect class="cls-89" x="21.88" y="95.66" width="38.99" height="38.99"/>
                      <g class="cls-50">
                        <path class="cls-91" d="M53.07,95.66h3.9l-3.9,38.99h-3.9l3.9-38.99ZM41.37,134.65h3.9l3.9-38.99h-3.9l-3.9,38.99ZM33.58,134.65h3.9l3.9-38.99h-3.9l-3.9,38.99ZM25.78,134.65h3.9l3.9-38.99h-3.9l-3.9,38.99ZM56.97,134.65h3.9l3.9-38.99h-3.9l-3.9,38.99ZM17.98,134.65h3.9l3.9-38.99h-3.9l-3.9,38.99Z"/>
                      </g>
                    </g>
                    <g>
                      <rect class="cls-89" x="60.88" y="95.69" width="38.99" height="38.99"/>
                      <g class="cls-44">
                        <path class="cls-91" d="M92.07,95.69h3.9l-3.9,38.99h-3.9l3.9-38.99ZM80.37,134.68h3.9l3.9-38.99h-3.9l-3.9,38.99ZM72.57,134.68h3.9l3.9-38.99h-3.9l-3.9,38.99ZM64.77,134.68h3.9l3.9-38.99h-3.9l-3.9,38.99ZM95.96,134.68h3.9l3.9-38.99h-3.9l-3.9,38.99ZM56.98,134.68h3.9l3.9-38.99h-3.9l-3.9,38.99Z"/>
                      </g>
                    </g>
                    <g>
                      <rect class="cls-89" x="99.87" y="95.66" width="38.99" height="38.99"/>
                      <g class="cls-45">
                        <path class="cls-91" d="M131.06,95.66h3.9l-3.9,38.99h-3.9l3.9-38.99ZM119.36,134.65h3.9l3.9-38.99h-3.9l-3.9,38.99ZM111.56,134.65h3.9l3.9-38.99h-3.9l-3.9,38.99ZM103.76,134.65h3.9l3.9-38.99h-3.9l-3.9,38.99ZM134.95,134.65h3.9l3.9-38.99h-3.9l-3.9,38.99ZM95.97,134.65h3.9l3.9-38.99h-3.9l-3.9,38.99Z"/>
                      </g>
                    </g>
                    <g>
                      <rect class="cls-89" x="138.86" y="95.69" width="38.99" height="38.99"/>
                      <g class="cls-46">
                        <path class="cls-91" d="M170.05,95.69h3.9l-3.9,38.99h-3.9l3.9-38.99ZM158.35,134.68h3.9l3.9-38.99h-3.9l-3.9,38.99ZM150.55,134.68h3.9l3.9-38.99h-3.9l-3.9,38.99ZM142.76,134.68h3.9l3.9-38.99h-3.9l-3.9,38.99ZM173.95,134.68h3.9l3.9-38.99h-3.9l-3.9,38.99ZM134.96,134.68h3.9l3.9-38.99h-3.9l-3.9,38.99Z"/>
                      </g>
                    </g>
                    <g>
                      <rect class="cls-89" x="177.76" y="95.66" width="38.99" height="38.99"/>
                      <g class="cls-47">
                        <path class="cls-91" d="M208.95,95.66h3.9l-3.9,38.99h-3.9l3.9-38.99ZM197.25,134.65h3.9l3.9-38.99h-3.9l-3.9,38.99ZM189.45,134.65h3.9l3.9-38.99h-3.9l-3.9,38.99ZM181.66,134.65h3.9l3.9-38.99h-3.9l-3.9,38.99ZM212.85,134.65h3.9l3.9-38.99h-3.9l-3.9,38.99ZM173.86,134.65h3.9l3.9-38.99h-3.9l-3.9,38.99Z"/>
                      </g>
                    </g>
                    <g>
                      <rect class="cls-89" x="216.75" y="95.66" width="38.99" height="38.99"/>
                      <g class="cls-48">
                        <path class="cls-91" d="M247.94,95.66h3.9l-3.9,38.99h-3.9l3.9-38.99ZM236.25,134.65h3.9l3.9-38.99h-3.9l-3.9,38.99ZM228.45,134.65h3.9l3.9-38.99h-3.9l-3.9,38.99ZM220.65,134.65h3.9l3.9-38.99h-3.9l-3.9,38.99ZM251.84,134.65h3.9l3.9-38.99h-3.9l-3.9,38.99ZM212.85,134.65h3.9l3.9-38.99h-3.9l-3.9,38.99Z"/>
                      </g>
                    </g>
                    <g>
                      <rect class="cls-89" x="255.74" y="95.66" width="38.99" height="38.99"/>
                      <g class="cls-51">
                        <path class="cls-91" d="M286.93,95.66h3.9l-3.9,38.99h-3.9l3.9-38.99ZM275.24,134.65h3.9l3.9-38.99h-3.9l-3.9,38.99ZM267.44,134.65h3.9l3.9-38.99h-3.9l-3.9,38.99ZM259.64,134.65h3.9l3.9-38.99h-3.9l-3.9,38.99ZM290.83,134.65h3.9l3.9-38.99h-3.9l-3.9,38.99ZM251.84,134.65h3.9l3.9-38.99h-3.9l-3.9,38.99Z"/>
                      </g>
                    </g>
                    <g>
                      <rect class="cls-89" x="294.73" y="95.66" width="38.99" height="38.99"/>
                      <g class="cls-52">
                        <path class="cls-91" d="M325.92,95.66h3.9l-3.9,38.99h-3.9l3.9-38.99ZM314.23,134.65h3.9l3.9-38.99h-3.9l-3.9,38.99ZM306.43,134.65h3.9l3.9-38.99h-3.9l-3.9,38.99ZM298.63,134.65h3.9l3.9-38.99h-3.9l-3.9,38.99ZM329.82,134.65h3.9l3.9-38.99h-3.9l-3.9,38.99ZM290.83,134.65h3.9l3.9-38.99h-3.9l-3.9,38.99Z"/>
                      </g>
                    </g>
                  </g>
                  <g>
                    <g>
                      <rect class="cls-89" x="-17.11" y="134.78" width="38.99" height="38.99"/>
                      <g class="cls-53">
                        <path class="cls-91" d="M14.08,134.78h3.9l-3.9,38.99h-3.9l3.9-38.99ZM2.38,173.77h3.9l3.9-38.99h-3.9l-3.9,38.99ZM-5.41,173.77H-1.51l3.9-38.99H-1.51l-3.9,38.99ZM-13.21,173.77h3.9l3.9-38.99h-3.9l-3.9,38.99ZM17.98,173.77h3.9l3.9-38.99h-3.9l-3.9,38.99ZM-21.01,173.77h3.9l3.9-38.99h-3.9l-3.9,38.99Z"/>
                      </g>
                    </g>
                    <g>
                      <rect class="cls-89" x="21.88" y="134.75" width="38.99" height="38.99"/>
                      <g class="cls-49">
                        <path class="cls-91" d="M53.07,134.75h3.9l-3.9,38.99h-3.9l3.9-38.99ZM41.37,173.73h3.9l3.9-38.99h-3.9l-3.9,38.99ZM33.58,173.73h3.9l3.9-38.99h-3.9l-3.9,38.99ZM25.78,173.73h3.9l3.9-38.99h-3.9l-3.9,38.99ZM56.97,173.73h3.9l3.9-38.99h-3.9l-3.9,38.99ZM17.98,173.73h3.9l3.9-38.99h-3.9l-3.9,38.99Z"/>
                      </g>
                    </g>
                    <g>
                      <rect class="cls-89" x="60.88" y="134.78" width="38.99" height="38.99"/>
                      <g class="cls-71">
                        <path class="cls-91" d="M92.07,134.78h3.9l-3.9,38.99h-3.9l3.9-38.99ZM80.37,173.77h3.9l3.9-38.99h-3.9l-3.9,38.99ZM72.57,173.77h3.9l3.9-38.99h-3.9l-3.9,38.99ZM64.77,173.77h3.9l3.9-38.99h-3.9l-3.9,38.99ZM95.96,173.77h3.9l3.9-38.99h-3.9l-3.9,38.99ZM56.98,173.77h3.9l3.9-38.99h-3.9l-3.9,38.99Z"/>
                      </g>
                    </g>
                    <g>
                      <rect class="cls-89" x="99.87" y="134.75" width="38.99" height="38.99"/>
                      <g class="cls-65">
                        <path class="cls-91" d="M131.06,134.75h3.9l-3.9,38.99h-3.9l3.9-38.99ZM119.36,173.73h3.9l3.9-38.99h-3.9l-3.9,38.99ZM111.56,173.73h3.9l3.9-38.99h-3.9l-3.9,38.99ZM103.76,173.73h3.9l3.9-38.99h-3.9l-3.9,38.99ZM134.95,173.73h3.9l3.9-38.99h-3.9l-3.9,38.99ZM95.97,173.73h3.9l3.9-38.99h-3.9l-3.9,38.99Z"/>
                      </g>
                    </g>
                    <g>
                      <rect class="cls-89" x="138.86" y="134.78" width="38.99" height="38.99"/>
                      <g class="cls-66">
                        <path class="cls-91" d="M170.05,134.78h3.9l-3.9,38.99h-3.9l3.9-38.99ZM158.35,173.77h3.9l3.9-38.99h-3.9l-3.9,38.99ZM150.55,173.77h3.9l3.9-38.99h-3.9l-3.9,38.99ZM142.76,173.77h3.9l3.9-38.99h-3.9l-3.9,38.99ZM173.95,173.77h3.9l3.9-38.99h-3.9l-3.9,38.99ZM134.96,173.77h3.9l3.9-38.99h-3.9l-3.9,38.99Z"/>
                      </g>
                    </g>
                    <g>
                      <rect class="cls-89" x="177.76" y="134.75" width="38.99" height="38.99"/>
                      <g class="cls-67">
                        <path class="cls-91" d="M208.95,134.75h3.9l-3.9,38.99h-3.9l3.9-38.99ZM197.25,173.73h3.9l3.9-38.99h-3.9l-3.9,38.99ZM189.45,173.73h3.9l3.9-38.99h-3.9l-3.9,38.99ZM181.66,173.73h3.9l3.9-38.99h-3.9l-3.9,38.99ZM212.85,173.73h3.9l3.9-38.99h-3.9l-3.9,38.99ZM173.86,173.73h3.9l3.9-38.99h-3.9l-3.9,38.99Z"/>
                      </g>
                    </g>
                    <g>
                      <rect class="cls-89" x="216.75" y="134.75" width="38.99" height="38.99"/>
                      <g class="cls-68">
                        <path class="cls-91" d="M247.94,134.75h3.9l-3.9,38.99h-3.9l3.9-38.99ZM236.25,173.73h3.9l3.9-38.99h-3.9l-3.9,38.99ZM228.45,173.73h3.9l3.9-38.99h-3.9l-3.9,38.99ZM220.65,173.73h3.9l3.9-38.99h-3.9l-3.9,38.99ZM251.84,173.73h3.9l3.9-38.99h-3.9l-3.9,38.99ZM212.85,173.73h3.9l3.9-38.99h-3.9l-3.9,38.99Z"/>
                      </g>
                    </g>
                    <g>
                      <rect class="cls-89" x="255.74" y="134.75" width="38.99" height="38.99"/>
                      <g class="cls-69">
                        <path class="cls-91" d="M286.93,134.75h3.9l-3.9,38.99h-3.9l3.9-38.99ZM275.24,173.73h3.9l3.9-38.99h-3.9l-3.9,38.99ZM267.44,173.73h3.9l3.9-38.99h-3.9l-3.9,38.99ZM259.64,173.73h3.9l3.9-38.99h-3.9l-3.9,38.99ZM290.83,173.73h3.9l3.9-38.99h-3.9l-3.9,38.99ZM251.84,173.73h3.9l3.9-38.99h-3.9l-3.9,38.99Z"/>
                      </g>
                    </g>
                    <g>
                      <rect class="cls-89" x="294.73" y="134.75" width="38.99" height="38.99"/>
                      <g class="cls-72">
                        <path class="cls-91" d="M325.92,134.75h3.9l-3.9,38.99h-3.9l3.9-38.99ZM314.23,173.73h3.9l3.9-38.99h-3.9l-3.9,38.99ZM306.43,173.73h3.9l3.9-38.99h-3.9l-3.9,38.99ZM298.63,173.73h3.9l3.9-38.99h-3.9l-3.9,38.99ZM329.82,173.73h3.9l3.9-38.99h-3.9l-3.9,38.99ZM290.83,173.73h3.9l3.9-38.99h-3.9l-3.9,38.99Z"/>
                      </g>
                    </g>
                  </g>
                </g>
              </g>
              <g class="cls-73">
                <g>
                  <g>
                    <g>
                      <rect class="cls-89" x="68.19" y="-21.58" width="38.99" height="38.99"/>
                      <g class="cls-74">
                        <path class="cls-91" d="M99.38-21.58h3.9l-3.9,38.99h-3.9l3.9-38.99ZM87.68,17.41h3.9l3.9-38.99h-3.9l-3.9,38.99ZM79.88,17.41h3.9l3.9-38.99h-3.9l-3.9,38.99ZM72.08,17.41h3.9l3.9-38.99h-3.9l-3.9,38.99ZM103.28,17.41h3.9l3.9-38.99h-3.9l-3.9,38.99ZM64.29,17.41h3.9l3.9-38.99h-3.9l-3.9,38.99Z"/>
                      </g>
                    </g>
                    <g>
                      <rect class="cls-89" x="107.18" y="-21.61" width="38.99" height="38.99"/>
                      <g class="cls-70">
                        <path class="cls-91" d="M138.37-21.61h3.9l-3.9,38.99h-3.9l3.9-38.99ZM126.67,17.38h3.9l3.9-38.99h-3.9l-3.9,38.99ZM118.87,17.38h3.9l3.9-38.99h-3.9l-3.9,38.99ZM111.08,17.38h3.9l3.9-38.99h-3.9l-3.9,38.99ZM142.27,17.38h3.9l3.9-38.99h-3.9l-3.9,38.99ZM103.28,17.38h3.9l3.9-38.99h-3.9l-3.9,38.99Z"/>
                      </g>
                    </g>
                    <g>
                      <rect class="cls-89" x="146.17" y="-21.58" width="38.99" height="38.99"/>
                      <g class="cls-28">
                        <path class="cls-91" d="M177.36-21.58h3.9l-3.9,38.99h-3.9l3.9-38.99ZM165.66,17.41h3.9l3.9-38.99h-3.9l-3.9,38.99ZM157.87,17.41h3.9l3.9-38.99h-3.9l-3.9,38.99ZM150.07,17.41h3.9l3.9-38.99h-3.9l-3.9,38.99ZM181.26,17.41h3.9l3.9-38.99h-3.9l-3.9,38.99ZM142.27,17.41h3.9l3.9-38.99h-3.9l-3.9,38.99Z"/>
                      </g>
                    </g>
                    <g>
                      <rect class="cls-89" x="185.16" y="-21.61" width="38.99" height="38.99"/>
                      <g class="cls-41">
                        <path class="cls-91" d="M216.35-21.61h3.9l-3.9,38.99h-3.9l3.9-38.99ZM204.66,17.38h3.9l3.9-38.99h-3.9l-3.9,38.99ZM196.86,17.38h3.9l3.9-38.99h-3.9l-3.9,38.99ZM189.06,17.38h3.9l3.9-38.99h-3.9l-3.9,38.99ZM220.25,17.38h3.9l3.9-38.99h-3.9l-3.9,38.99ZM181.26,17.38h3.9l3.9-38.99h-3.9l-3.9,38.99Z"/>
                      </g>
                    </g>
                    <g>
                      <rect class="cls-89" x="224.15" y="-21.58" width="38.99" height="38.99"/>
                      <g class="cls-30">
                        <path class="cls-91" d="M255.34-21.58h3.9l-3.9,38.99h-3.9l3.9-38.99ZM243.65,17.41h3.9l3.9-38.99h-3.9l-3.9,38.99ZM235.85,17.41h3.9l3.9-38.99h-3.9l-3.9,38.99ZM228.05,17.41h3.9l3.9-38.99h-3.9l-3.9,38.99ZM259.24,17.41h3.9l3.9-38.99h-3.9l-3.9,38.99ZM220.25,17.41h3.9l3.9-38.99h-3.9l-3.9,38.99Z"/>
                      </g>
                    </g>
                    <g>
                      <rect class="cls-89" x="263.05" y="-21.61" width="38.99" height="38.99"/>
                      <g class="cls-34">
                        <path class="cls-91" d="M294.24-21.61h3.9l-3.9,38.99h-3.9l3.9-38.99ZM282.55,17.38h3.9l3.9-38.99h-3.9l-3.9,38.99ZM274.75,17.38h3.9l3.9-38.99h-3.9l-3.9,38.99ZM266.95,17.38h3.9l3.9-38.99h-3.9l-3.9,38.99ZM298.14,17.38h3.9l3.9-38.99h-3.9l-3.9,38.99ZM259.16,17.38h3.9l3.9-38.99h-3.9l-3.9,38.99Z"/>
                      </g>
                    </g>
                    <g>
                      <rect class="cls-89" x="302.05" y="-21.61" width="38.99" height="38.99"/>
                      <g class="cls-32">
                        <path class="cls-91" d="M333.24-21.61h3.9l-3.9,38.99h-3.9l3.9-38.99ZM321.54,17.38h3.9l3.9-38.99h-3.9l-3.9,38.99ZM313.74,17.38h3.9l3.9-38.99h-3.9l-3.9,38.99ZM305.95,17.38h3.9l3.9-38.99h-3.9l-3.9,38.99ZM337.14,17.38h3.9l3.9-38.99h-3.9l-3.9,38.99ZM298.15,17.38h3.9l3.9-38.99h-3.9l-3.9,38.99Z"/>
                      </g>
                    </g>
                  </g>
                  <g>
                    <g>
                      <rect class="cls-89" x="68.19" y="17.51" width="38.99" height="38.99"/>
                      <g class="cls-29">
                        <path class="cls-91" d="M99.38,17.51h3.9l-3.9,38.99h-3.9l3.9-38.99ZM87.68,56.5h3.9l3.9-38.99h-3.9l-3.9,38.99ZM79.88,56.5h3.9l3.9-38.99h-3.9l-3.9,38.99ZM72.08,56.5h3.9l3.9-38.99h-3.9l-3.9,38.99ZM103.28,56.5h3.9l3.9-38.99h-3.9l-3.9,38.99ZM64.29,56.5h3.9l3.9-38.99h-3.9l-3.9,38.99Z"/>
                      </g>
                    </g>
                    <g>
                      <rect class="cls-89" x="107.18" y="17.48" width="38.99" height="38.99"/>
                      <g class="cls-33">
                        <path class="cls-91" d="M138.37,17.48h3.9l-3.9,38.99h-3.9l3.9-38.99ZM126.67,56.47h3.9l3.9-38.99h-3.9l-3.9,38.99ZM118.87,56.47h3.9l3.9-38.99h-3.9l-3.9,38.99ZM111.08,56.47h3.9l3.9-38.99h-3.9l-3.9,38.99ZM142.27,56.47h3.9l3.9-38.99h-3.9l-3.9,38.99ZM103.28,56.47h3.9l3.9-38.99h-3.9l-3.9,38.99Z"/>
                      </g>
                    </g>
                    <g>
                      <rect class="cls-89" x="146.17" y="17.51" width="38.99" height="38.99"/>
                      <g class="cls-31">
                        <path class="cls-91" d="M177.36,17.51h3.9l-3.9,38.99h-3.9l3.9-38.99ZM165.66,56.5h3.9l3.9-38.99h-3.9l-3.9,38.99ZM157.87,56.5h3.9l3.9-38.99h-3.9l-3.9,38.99ZM150.07,56.5h3.9l3.9-38.99h-3.9l-3.9,38.99ZM181.26,56.5h3.9l3.9-38.99h-3.9l-3.9,38.99ZM142.27,56.5h3.9l3.9-38.99h-3.9l-3.9,38.99Z"/>
                      </g>
                    </g>
                    <g>
                      <rect class="cls-89" x="185.16" y="17.48" width="38.99" height="38.99"/>
                      <g class="cls-42">
                        <path class="cls-91" d="M216.35,17.48h3.9l-3.9,38.99h-3.9l3.9-38.99ZM204.66,56.47h3.9l3.9-38.99h-3.9l-3.9,38.99ZM196.86,56.47h3.9l3.9-38.99h-3.9l-3.9,38.99ZM189.06,56.47h3.9l3.9-38.99h-3.9l-3.9,38.99ZM220.25,56.47h3.9l3.9-38.99h-3.9l-3.9,38.99ZM181.26,56.47h3.9l3.9-38.99h-3.9l-3.9,38.99Z"/>
                      </g>
                    </g>
                    <g>
                      <rect class="cls-89" x="224.15" y="17.51" width="38.99" height="38.99"/>
                      <g class="cls-43">
                        <path class="cls-91" d="M255.34,17.51h3.9l-3.9,38.99h-3.9l3.9-38.99ZM243.65,56.5h3.9l3.9-38.99h-3.9l-3.9,38.99ZM235.85,56.5h3.9l3.9-38.99h-3.9l-3.9,38.99ZM228.05,56.5h3.9l3.9-38.99h-3.9l-3.9,38.99ZM259.24,56.5h3.9l3.9-38.99h-3.9l-3.9,38.99ZM220.25,56.5h3.9l3.9-38.99h-3.9l-3.9,38.99Z"/>
                      </g>
                    </g>
                    <g>
                      <rect class="cls-89" x="263.05" y="17.48" width="38.99" height="38.99"/>
                      <g class="cls-18">
                        <path class="cls-91" d="M294.24,17.48h3.9l-3.9,38.99h-3.9l3.9-38.99ZM282.55,56.47h3.9l3.9-38.99h-3.9l-3.9,38.99ZM274.75,56.47h3.9l3.9-38.99h-3.9l-3.9,38.99ZM266.95,56.47h3.9l3.9-38.99h-3.9l-3.9,38.99ZM298.14,56.47h3.9l3.9-38.99h-3.9l-3.9,38.99ZM259.16,56.47h3.9l3.9-38.99h-3.9l-3.9,38.99Z"/>
                      </g>
                    </g>
                    <g>
                      <rect class="cls-89" x="302.05" y="17.48" width="38.99" height="38.99"/>
                      <g class="cls-15">
                        <path class="cls-91" d="M333.24,17.48h3.9l-3.9,38.99h-3.9l3.9-38.99ZM321.54,56.47h3.9l3.9-38.99h-3.9l-3.9,38.99ZM313.74,56.47h3.9l3.9-38.99h-3.9l-3.9,38.99ZM305.95,56.47h3.9l3.9-38.99h-3.9l-3.9,38.99ZM337.14,56.47h3.9l3.9-38.99h-3.9l-3.9,38.99ZM298.15,56.47h3.9l3.9-38.99h-3.9l-3.9,38.99Z"/>
                      </g>
                    </g>
                  </g>
                  <g>
                    <g>
                      <rect class="cls-89" x="68.19" y="56.6" width="38.99" height="38.99"/>
                      <g class="cls-20">
                        <path class="cls-91" d="M99.38,56.6h3.9l-3.9,38.99h-3.9l3.9-38.99ZM87.68,95.59h3.9l3.9-38.99h-3.9l-3.9,38.99ZM79.88,95.59h3.9l3.9-38.99h-3.9l-3.9,38.99ZM72.08,95.59h3.9l3.9-38.99h-3.9l-3.9,38.99ZM103.28,95.59h3.9l3.9-38.99h-3.9l-3.9,38.99ZM64.29,95.59h3.9l3.9-38.99h-3.9l-3.9,38.99Z"/>
                      </g>
                    </g>
                    <g>
                      <rect class="cls-89" x="107.18" y="56.57" width="38.99" height="38.99"/>
                      <g class="cls-23">
                        <path class="cls-91" d="M138.37,56.57h3.9l-3.9,38.99h-3.9l3.9-38.99ZM126.67,95.56h3.9l3.9-38.99h-3.9l-3.9,38.99ZM118.87,95.56h3.9l3.9-38.99h-3.9l-3.9,38.99ZM111.08,95.56h3.9l3.9-38.99h-3.9l-3.9,38.99ZM142.27,95.56h3.9l3.9-38.99h-3.9l-3.9,38.99ZM103.28,95.56h3.9l3.9-38.99h-3.9l-3.9,38.99Z"/>
                      </g>
                    </g>
                    <g>
                      <rect class="cls-89" x="146.17" y="56.6" width="38.99" height="38.99"/>
                      <g class="cls-21">
                        <path class="cls-91" d="M177.36,56.6h3.9l-3.9,38.99h-3.9l3.9-38.99ZM165.66,95.59h3.9l3.9-38.99h-3.9l-3.9,38.99ZM157.87,95.59h3.9l3.9-38.99h-3.9l-3.9,38.99ZM150.07,95.59h3.9l3.9-38.99h-3.9l-3.9,38.99ZM181.26,95.59h3.9l3.9-38.99h-3.9l-3.9,38.99ZM142.27,95.59h3.9l3.9-38.99h-3.9l-3.9,38.99Z"/>
                      </g>
                    </g>
                    <g>
                      <rect class="cls-89" x="185.16" y="56.57" width="38.99" height="38.99"/>
                      <g class="cls-19">
                        <path class="cls-91" d="M216.35,56.57h3.9l-3.9,38.99h-3.9l3.9-38.99ZM204.66,95.56h3.9l3.9-38.99h-3.9l-3.9,38.99ZM196.86,95.56h3.9l3.9-38.99h-3.9l-3.9,38.99ZM189.06,95.56h3.9l3.9-38.99h-3.9l-3.9,38.99ZM220.25,95.56h3.9l3.9-38.99h-3.9l-3.9,38.99ZM181.26,95.56h3.9l3.9-38.99h-3.9l-3.9,38.99Z"/>
                      </g>
                    </g>
                    <g>
                      <rect class="cls-89" x="224.15" y="56.6" width="38.99" height="38.99"/>
                      <g class="cls-22">
                        <path class="cls-91" d="M255.34,56.6h3.9l-3.9,38.99h-3.9l3.9-38.99ZM243.65,95.59h3.9l3.9-38.99h-3.9l-3.9,38.99ZM235.85,95.59h3.9l3.9-38.99h-3.9l-3.9,38.99ZM228.05,95.59h3.9l3.9-38.99h-3.9l-3.9,38.99ZM259.24,95.59h3.9l3.9-38.99h-3.9l-3.9,38.99ZM220.25,95.59h3.9l3.9-38.99h-3.9l-3.9,38.99Z"/>
                      </g>
                    </g>
                    <g>
                      <rect class="cls-89" x="263.05" y="56.57" width="38.99" height="38.99"/>
                      <g class="cls-16">
                        <path class="cls-91" d="M294.24,56.57h3.9l-3.9,38.99h-3.9l3.9-38.99ZM282.55,95.56h3.9l3.9-38.99h-3.9l-3.9,38.99ZM274.75,95.56h3.9l3.9-38.99h-3.9l-3.9,38.99ZM266.95,95.56h3.9l3.9-38.99h-3.9l-3.9,38.99ZM298.14,95.56h3.9l3.9-38.99h-3.9l-3.9,38.99ZM259.16,95.56h3.9l3.9-38.99h-3.9l-3.9,38.99Z"/>
                      </g>
                    </g>
                    <g>
                      <rect class="cls-89" x="302.05" y="56.57" width="38.99" height="38.99"/>
                      <g class="cls-17">
                        <path class="cls-91" d="M333.24,56.57h3.9l-3.9,38.99h-3.9l3.9-38.99ZM321.54,95.56h3.9l3.9-38.99h-3.9l-3.9,38.99ZM313.74,95.56h3.9l3.9-38.99h-3.9l-3.9,38.99ZM305.95,95.56h3.9l3.9-38.99h-3.9l-3.9,38.99ZM337.14,95.56h3.9l3.9-38.99h-3.9l-3.9,38.99ZM298.15,95.56h3.9l3.9-38.99h-3.9l-3.9,38.99Z"/>
                      </g>
                    </g>
                  </g>
                  <g>
                    <g>
                      <rect class="cls-89" x="68.19" y="95.69" width="38.99" height="38.99"/>
                      <g class="cls-64">
                        <path class="cls-91" d="M99.38,95.69h3.9l-3.9,38.99h-3.9l3.9-38.99ZM87.68,134.68h3.9l3.9-38.99h-3.9l-3.9,38.99ZM79.88,134.68h3.9l3.9-38.99h-3.9l-3.9,38.99ZM72.08,134.68h3.9l3.9-38.99h-3.9l-3.9,38.99ZM103.28,134.68h3.9l3.9-38.99h-3.9l-3.9,38.99ZM64.29,134.68h3.9l3.9-38.99h-3.9l-3.9,38.99Z"/>
                      </g>
                    </g>
                    <g>
                      <rect class="cls-89" x="107.18" y="95.66" width="38.99" height="38.99"/>
                      <g class="cls-35">
                        <path class="cls-91" d="M138.37,95.66h3.9l-3.9,38.99h-3.9l3.9-38.99ZM126.67,134.65h3.9l3.9-38.99h-3.9l-3.9,38.99ZM118.87,134.65h3.9l3.9-38.99h-3.9l-3.9,38.99ZM111.08,134.65h3.9l3.9-38.99h-3.9l-3.9,38.99ZM142.27,134.65h3.9l3.9-38.99h-3.9l-3.9,38.99ZM103.28,134.65h3.9l3.9-38.99h-3.9l-3.9,38.99Z"/>
                      </g>
                    </g>
                    <g>
                      <rect class="cls-89" x="146.17" y="95.69" width="38.99" height="38.99"/>
                      <g class="cls-38">
                        <path class="cls-91" d="M177.36,95.69h3.9l-3.9,38.99h-3.9l3.9-38.99ZM165.66,134.68h3.9l3.9-38.99h-3.9l-3.9,38.99ZM157.87,134.68h3.9l3.9-38.99h-3.9l-3.9,38.99ZM150.07,134.68h3.9l3.9-38.99h-3.9l-3.9,38.99ZM181.26,134.68h3.9l3.9-38.99h-3.9l-3.9,38.99ZM142.27,134.68h3.9l3.9-38.99h-3.9l-3.9,38.99Z"/>
                      </g>
                    </g>
                    <g>
                      <rect class="cls-89" x="185.16" y="95.66" width="38.99" height="38.99"/>
                      <g class="cls-40">
                        <path class="cls-91" d="M216.35,95.66h3.9l-3.9,38.99h-3.9l3.9-38.99ZM204.66,134.65h3.9l3.9-38.99h-3.9l-3.9,38.99ZM196.86,134.65h3.9l3.9-38.99h-3.9l-3.9,38.99ZM189.06,134.65h3.9l3.9-38.99h-3.9l-3.9,38.99ZM220.25,134.65h3.9l3.9-38.99h-3.9l-3.9,38.99ZM181.26,134.65h3.9l3.9-38.99h-3.9l-3.9,38.99Z"/>
                      </g>
                    </g>
                    <g>
                      <rect class="cls-89" x="224.15" y="95.69" width="38.99" height="38.99"/>
                      <g class="cls-39">
                        <path class="cls-91" d="M255.34,95.69h3.9l-3.9,38.99h-3.9l3.9-38.99ZM243.65,134.68h3.9l3.9-38.99h-3.9l-3.9,38.99ZM235.85,134.68h3.9l3.9-38.99h-3.9l-3.9,38.99ZM228.05,134.68h3.9l3.9-38.99h-3.9l-3.9,38.99ZM259.24,134.68h3.9l3.9-38.99h-3.9l-3.9,38.99ZM220.25,134.68h3.9l3.9-38.99h-3.9l-3.9,38.99Z"/>
                      </g>
                    </g>
                    <g>
                      <rect class="cls-89" x="263.05" y="95.66" width="38.99" height="38.99"/>
                      <g class="cls-37">
                        <path class="cls-91" d="M294.24,95.66h3.9l-3.9,38.99h-3.9l3.9-38.99ZM282.55,134.65h3.9l3.9-38.99h-3.9l-3.9,38.99ZM274.75,134.65h3.9l3.9-38.99h-3.9l-3.9,38.99ZM266.95,134.65h3.9l3.9-38.99h-3.9l-3.9,38.99ZM298.14,134.65h3.9l3.9-38.99h-3.9l-3.9,38.99ZM259.16,134.65h3.9l3.9-38.99h-3.9l-3.9,38.99Z"/>
                      </g>
                    </g>
                    <g>
                      <rect class="cls-89" x="302.05" y="95.66" width="38.99" height="38.99"/>
                      <g class="cls-26">
                        <path class="cls-91" d="M333.24,95.66h3.9l-3.9,38.99h-3.9l3.9-38.99ZM321.54,134.65h3.9l3.9-38.99h-3.9l-3.9,38.99ZM313.74,134.65h3.9l3.9-38.99h-3.9l-3.9,38.99ZM305.95,134.65h3.9l3.9-38.99h-3.9l-3.9,38.99ZM337.14,134.65h3.9l3.9-38.99h-3.9l-3.9,38.99ZM298.15,134.65h3.9l3.9-38.99h-3.9l-3.9,38.99Z"/>
                      </g>
                    </g>
                  </g>
                  <g>
                    <g>
                      <rect class="cls-89" x="68.19" y="134.78" width="38.99" height="38.99"/>
                      <g class="cls-24">
                        <path class="cls-91" d="M99.38,134.78h3.9l-3.9,38.99h-3.9l3.9-38.99ZM87.68,173.77h3.9l3.9-38.99h-3.9l-3.9,38.99ZM79.88,173.77h3.9l3.9-38.99h-3.9l-3.9,38.99ZM72.08,173.77h3.9l3.9-38.99h-3.9l-3.9,38.99ZM103.28,173.77h3.9l3.9-38.99h-3.9l-3.9,38.99ZM64.29,173.77h3.9l3.9-38.99h-3.9l-3.9,38.99Z"/>
                      </g>
                    </g>
                    <g>
                      <rect class="cls-89" x="107.18" y="134.75" width="38.99" height="38.99"/>
                      <g class="cls-36">
                        <path class="cls-91" d="M138.37,134.75h3.9l-3.9,38.99h-3.9l3.9-38.99ZM126.67,173.73h3.9l3.9-38.99h-3.9l-3.9,38.99ZM118.87,173.73h3.9l3.9-38.99h-3.9l-3.9,38.99ZM111.08,173.73h3.9l3.9-38.99h-3.9l-3.9,38.99ZM142.27,173.73h3.9l3.9-38.99h-3.9l-3.9,38.99ZM103.28,173.73h3.9l3.9-38.99h-3.9l-3.9,38.99Z"/>
                      </g>
                    </g>
                    <g>
                      <rect class="cls-89" x="146.17" y="134.78" width="38.99" height="38.99"/>
                      <g class="cls-25">
                        <path class="cls-91" d="M177.36,134.78h3.9l-3.9,38.99h-3.9l3.9-38.99ZM165.66,173.77h3.9l3.9-38.99h-3.9l-3.9,38.99ZM157.87,173.77h3.9l3.9-38.99h-3.9l-3.9,38.99ZM150.07,173.77h3.9l3.9-38.99h-3.9l-3.9,38.99ZM181.26,173.77h3.9l3.9-38.99h-3.9l-3.9,38.99ZM142.27,173.77h3.9l3.9-38.99h-3.9l-3.9,38.99Z"/>
                      </g>
                    </g>
                    <g>
                      <rect class="cls-89" x="185.16" y="134.75" width="38.99" height="38.99"/>
                      <g class="cls-27">
                        <path class="cls-91" d="M216.35,134.75h3.9l-3.9,38.99h-3.9l3.9-38.99ZM204.66,173.73h3.9l3.9-38.99h-3.9l-3.9,38.99ZM196.86,173.73h3.9l3.9-38.99h-3.9l-3.9,38.99ZM189.06,173.73h3.9l3.9-38.99h-3.9l-3.9,38.99ZM220.25,173.73h3.9l3.9-38.99h-3.9l-3.9,38.99ZM181.26,173.73h3.9l3.9-38.99h-3.9l-3.9,38.99Z"/>
                      </g>
                    </g>
                    <g>
                      <rect class="cls-89" x="224.15" y="134.78" width="38.99" height="38.99"/>
                      <g class="cls-75">
                        <path class="cls-91" d="M255.34,134.78h3.9l-3.9,38.99h-3.9l3.9-38.99ZM243.65,173.77h3.9l3.9-38.99h-3.9l-3.9,38.99ZM235.85,173.77h3.9l3.9-38.99h-3.9l-3.9,38.99ZM228.05,173.77h3.9l3.9-38.99h-3.9l-3.9,38.99ZM259.24,173.77h3.9l3.9-38.99h-3.9l-3.9,38.99ZM220.25,173.77h3.9l3.9-38.99h-3.9l-3.9,38.99Z"/>
                      </g>
                    </g>
                    <g>
                      <rect class="cls-89" x="263.05" y="134.75" width="38.99" height="38.99"/>
                      <g class="cls-76">
                        <path class="cls-91" d="M294.24,134.75h3.9l-3.9,38.99h-3.9l3.9-38.99ZM282.55,173.73h3.9l3.9-38.99h-3.9l-3.9,38.99ZM274.75,173.73h3.9l3.9-38.99h-3.9l-3.9,38.99ZM266.95,173.73h3.9l3.9-38.99h-3.9l-3.9,38.99ZM298.14,173.73h3.9l3.9-38.99h-3.9l-3.9,38.99ZM259.16,173.73h3.9l3.9-38.99h-3.9l-3.9,38.99Z"/>
                      </g>
                    </g>
                    <g>
                      <rect class="cls-89" x="302.05" y="134.75" width="38.99" height="38.99"/>
                      <g class="cls-77">
                        <path class="cls-91" d="M333.24,134.75h3.9l-3.9,38.99h-3.9l3.9-38.99ZM321.54,173.73h3.9l3.9-38.99h-3.9l-3.9,38.99ZM313.74,173.73h3.9l3.9-38.99h-3.9l-3.9,38.99ZM305.95,173.73h3.9l3.9-38.99h-3.9l-3.9,38.99ZM337.14,173.73h3.9l3.9-38.99h-3.9l-3.9,38.99ZM298.15,173.73h3.9l3.9-38.99h-3.9l-3.9,38.99Z"/>
                      </g>
                    </g>
                  </g>
                </g>
              </g>
            </g>
          </g>
          <text class="cls-88" transform="translate(119.16 61.69)"><tspan x="0" y="0">디자인과 00학번 일동</tspan></text>
        </g>
        <polyline class="cls-3" points="36.11 4.37 43.12 .5 299.42 .5 299.42 187.04 295.1 193.81"/>
        <line class="cls-3" x1="295.1" y1="4.37" x2="299.42" y2=".5"/>
      </g>
    </g>
  </g>
</svg>