<?xml version="1.0" encoding="UTF-8"?>
<svg id="_레이어_2" data-name="레이어 2" xmlns="http://www.w3.org/2000/svg" width="310.54" height="260.17" xmlns:xlink="http://www.w3.org/1999/xlink" viewBox="0 0 310.54 260.17">
  <defs>
    <style>
      .cls-1, .cls-2 {
        fill: none;
      }

      .cls-3 {
        fill: #fbf091;
      }

      .cls-4, .cls-5 {
        fill: #fff;
      }

      .cls-5 {
        stroke-linejoin: bevel;
      }

      .cls-5, .cls-2 {
        stroke: #a0a0a0;
      }

      .cls-6 {
        fill: #ffc033;
        stroke: #ffc033;
        stroke-width: .58px;
      }

      .cls-6, .cls-2 {
        stroke-miterlimit: 10;
      }

      .cls-7 {
        clip-path: url(#clippath);
      }
    </style>
    <clipPath id="clippath">
      <polygon class="cls-1" points="114.59 151.09 118.15 187.28 195.97 171.68 195.1 163.68 176.77 163.71 176.77 148.02 173.53 148.02 173.53 158.44 149.24 158.55 149.51 150.4 114.59 151.09"/>
    </clipPath>
  </defs>
  <g id="_레이어_1-2" data-name="레이어 1">
    <g>
      <rect class="cls-4" x=".05" width="310.49" height="258.74"/>
      <g>
        <g class="cls-7">
          <g>
            <g>
              <rect class="cls-3" x="30.56" y="110.04" width="28.41" height="28.41"/>
              <rect class="cls-3" x="58.92" y="110.04" width="28.41" height="28.41"/>
              <rect class="cls-3" x="30.56" y="138.43" width="28.41" height="28.41"/>
              <rect class="cls-3" x="58.92" y="138.43" width="28.41" height="28.41"/>
              <g>
                <g>
                  <rect class="cls-6" x="40.15" y="110.04" width=".33" height="28.41"/>
                  <rect class="cls-6" x="49.62" y="110.04" width=".33" height="28.41"/>
                  <rect class="cls-6" x="30.84" y="110.04" width=".33" height="28.41"/>
                  <rect class="cls-6" x="30.84" y="128.81" width="28.41" height=".33"/>
                  <rect class="cls-6" x="30.84" y="119.34" width="28.41" height=".33"/>
                  <rect class="cls-6" x="30.84" y="128.81" width="28.41" height=".33"/>
                  <rect class="cls-6" x="30.84" y="138.11" width="28.41" height=".34"/>
                </g>
                <g>
                  <rect class="cls-6" x="68.51" y="110.04" width=".33" height="28.41"/>
                  <rect class="cls-6" x="77.98" y="110.04" width=".33" height="28.41"/>
                  <rect class="cls-6" x="59.21" y="110.04" width=".33" height="28.41"/>
                  <rect class="cls-6" x="59.21" y="128.81" width="28.41" height=".33"/>
                  <rect class="cls-6" x="59.21" y="119.34" width="28.41" height=".33"/>
                  <rect class="cls-6" x="59.21" y="128.81" width="28.41" height=".33"/>
                  <rect class="cls-6" x="59.21" y="138.11" width="28.41" height=".34"/>
                </g>
                <g>
                  <rect class="cls-6" x="40.15" y="138.43" width=".33" height="28.41"/>
                  <rect class="cls-6" x="49.62" y="138.43" width=".33" height="28.41"/>
                  <rect class="cls-6" x="30.84" y="138.43" width=".33" height="28.41"/>
                  <rect class="cls-6" x="30.84" y="157.21" width="28.41" height=".33"/>
                  <rect class="cls-6" x="30.84" y="147.74" width="28.41" height=".33"/>
                  <rect class="cls-6" x="30.84" y="157.21" width="28.41" height=".33"/>
                  <rect class="cls-6" x="30.84" y="166.51" width="28.41" height=".34"/>
                </g>
                <g>
                  <rect class="cls-6" x="68.51" y="138.43" width=".33" height="28.41"/>
                  <rect class="cls-6" x="77.98" y="138.43" width=".33" height="28.41"/>
                  <rect class="cls-6" x="59.21" y="138.43" width=".33" height="28.41"/>
                  <rect class="cls-6" x="59.21" y="157.21" width="28.41" height=".33"/>
                  <rect class="cls-6" x="59.21" y="147.74" width="28.41" height=".33"/>
                  <rect class="cls-6" x="59.21" y="157.21" width="28.41" height=".33"/>
                  <rect class="cls-6" x="59.21" y="166.51" width="28.41" height=".34"/>
                </g>
              </g>
            </g>
            <g>
              <rect class="cls-3" x="87.19" y="110.04" width="28.41" height="28.41"/>
              <rect class="cls-3" x="115.56" y="110.04" width="28.41" height="28.41"/>
              <rect class="cls-3" x="87.19" y="138.43" width="28.41" height="28.41"/>
              <rect class="cls-3" x="115.56" y="138.43" width="28.41" height="28.41"/>
              <g>
                <g>
                  <rect class="cls-6" x="96.78" y="110.04" width=".33" height="28.41"/>
                  <rect class="cls-6" x="106.25" y="110.04" width=".33" height="28.41"/>
                  <rect class="cls-6" x="87.47" y="110.04" width=".33" height="28.41"/>
                  <rect class="cls-6" x="87.47" y="128.81" width="28.41" height=".33"/>
                  <rect class="cls-6" x="87.47" y="119.34" width="28.41" height=".33"/>
                  <rect class="cls-6" x="87.47" y="128.81" width="28.41" height=".33"/>
                  <rect class="cls-6" x="87.47" y="138.11" width="28.41" height=".34"/>
                </g>
                <g>
                  <rect class="cls-6" x="125.14" y="110.04" width=".33" height="28.41"/>
                  <rect class="cls-6" x="134.61" y="110.04" width=".33" height="28.41"/>
                  <rect class="cls-6" x="115.84" y="110.04" width=".33" height="28.41"/>
                  <rect class="cls-6" x="115.84" y="128.81" width="28.41" height=".33"/>
                  <rect class="cls-6" x="115.84" y="119.34" width="28.41" height=".33"/>
                  <rect class="cls-6" x="115.84" y="128.81" width="28.41" height=".33"/>
                  <rect class="cls-6" x="115.84" y="138.11" width="28.41" height=".34"/>
                </g>
                <g>
                  <rect class="cls-6" x="96.78" y="138.43" width=".33" height="28.41"/>
                  <rect class="cls-6" x="106.25" y="138.43" width=".33" height="28.41"/>
                  <rect class="cls-6" x="87.47" y="138.43" width=".33" height="28.41"/>
                  <rect class="cls-6" x="87.47" y="157.21" width="28.41" height=".33"/>
                  <rect class="cls-6" x="87.47" y="147.74" width="28.41" height=".33"/>
                  <rect class="cls-6" x="87.47" y="157.21" width="28.41" height=".33"/>
                  <rect class="cls-6" x="87.47" y="166.51" width="28.41" height=".34"/>
                </g>
                <g>
                  <rect class="cls-6" x="125.14" y="138.43" width=".33" height="28.41"/>
                  <rect class="cls-6" x="134.61" y="138.43" width=".33" height="28.41"/>
                  <rect class="cls-6" x="115.84" y="138.43" width=".33" height="28.41"/>
                  <rect class="cls-6" x="115.84" y="157.21" width="28.41" height=".33"/>
                  <rect class="cls-6" x="115.84" y="147.74" width="28.41" height=".33"/>
                  <rect class="cls-6" x="115.84" y="157.21" width="28.41" height=".33"/>
                  <rect class="cls-6" x="115.84" y="166.51" width="28.41" height=".34"/>
                </g>
              </g>
            </g>
            <g>
              <rect class="cls-3" x="143.82" y="110.04" width="28.41" height="28.41"/>
              <rect class="cls-3" x="172.19" y="110.04" width="28.41" height="28.41"/>
              <rect class="cls-3" x="143.82" y="138.43" width="28.41" height="28.41"/>
              <rect class="cls-3" x="172.19" y="138.43" width="28.41" height="28.41"/>
              <g>
                <g>
                  <rect class="cls-6" x="153.41" y="110.04" width=".33" height="28.41"/>
                  <rect class="cls-6" x="162.88" y="110.04" width=".33" height="28.41"/>
                  <rect class="cls-6" x="144.11" y="110.04" width=".33" height="28.41"/>
                  <rect class="cls-6" x="144.11" y="128.81" width="28.41" height=".33"/>
                  <rect class="cls-6" x="144.11" y="119.34" width="28.41" height=".33"/>
                  <rect class="cls-6" x="144.11" y="128.81" width="28.41" height=".33"/>
                  <rect class="cls-6" x="144.11" y="138.11" width="28.41" height=".34"/>
                </g>
                <g>
                  <rect class="cls-6" x="181.77" y="110.04" width=".33" height="28.41"/>
                  <rect class="cls-6" x="191.24" y="110.04" width=".33" height="28.41"/>
                  <rect class="cls-6" x="172.47" y="110.04" width=".33" height="28.41"/>
                  <rect class="cls-6" x="172.47" y="128.81" width="28.41" height=".33"/>
                  <rect class="cls-6" x="172.47" y="119.34" width="28.41" height=".33"/>
                  <rect class="cls-6" x="172.47" y="128.81" width="28.41" height=".33"/>
                  <rect class="cls-6" x="172.47" y="138.11" width="28.41" height=".34"/>
                </g>
                <g>
                  <rect class="cls-6" x="153.41" y="138.43" width=".33" height="28.41"/>
                  <rect class="cls-6" x="162.88" y="138.43" width=".33" height="28.41"/>
                  <rect class="cls-6" x="144.11" y="138.43" width=".33" height="28.41"/>
                  <rect class="cls-6" x="144.11" y="157.21" width="28.41" height=".33"/>
                  <rect class="cls-6" x="144.11" y="147.74" width="28.41" height=".33"/>
                  <rect class="cls-6" x="144.11" y="157.21" width="28.41" height=".33"/>
                  <rect class="cls-6" x="144.11" y="166.51" width="28.41" height=".34"/>
                </g>
                <g>
                  <rect class="cls-6" x="181.77" y="138.43" width=".33" height="28.41"/>
                  <rect class="cls-6" x="191.24" y="138.43" width=".33" height="28.41"/>
                  <rect class="cls-6" x="172.47" y="138.43" width=".33" height="28.41"/>
                  <rect class="cls-6" x="172.47" y="157.21" width="28.41" height=".33"/>
                  <rect class="cls-6" x="172.47" y="147.74" width="28.41" height=".33"/>
                  <rect class="cls-6" x="172.47" y="157.21" width="28.41" height=".33"/>
                  <rect class="cls-6" x="172.47" y="166.51" width="28.41" height=".34"/>
                </g>
              </g>
            </g>
            <g>
              <rect class="cls-3" x="200.45" y="110.04" width="28.41" height="28.41"/>
              <rect class="cls-3" x="228.82" y="110.04" width="28.41" height="28.41"/>
              <rect class="cls-3" x="200.45" y="138.43" width="28.41" height="28.41"/>
              <rect class="cls-3" x="228.82" y="138.43" width="28.41" height="28.41"/>
              <g>
                <g>
                  <rect class="cls-6" x="210.04" y="110.04" width=".33" height="28.41"/>
                  <rect class="cls-6" x="219.51" y="110.04" width=".33" height="28.41"/>
                  <rect class="cls-6" x="200.74" y="110.04" width=".33" height="28.41"/>
                  <rect class="cls-6" x="200.74" y="128.81" width="28.41" height=".33"/>
                  <rect class="cls-6" x="200.74" y="119.34" width="28.41" height=".33"/>
                  <rect class="cls-6" x="200.74" y="128.81" width="28.41" height=".33"/>
                  <rect class="cls-6" x="200.74" y="138.11" width="28.41" height=".34"/>
                </g>
                <g>
                  <rect class="cls-6" x="238.41" y="110.04" width=".33" height="28.41"/>
                  <rect class="cls-6" x="247.88" y="110.04" width=".33" height="28.41"/>
                  <rect class="cls-6" x="229.1" y="110.04" width=".33" height="28.41"/>
                  <rect class="cls-6" x="229.1" y="128.81" width="28.41" height=".33"/>
                  <rect class="cls-6" x="229.1" y="119.34" width="28.41" height=".33"/>
                  <rect class="cls-6" x="229.1" y="128.81" width="28.41" height=".33"/>
                  <rect class="cls-6" x="229.1" y="138.11" width="28.41" height=".34"/>
                </g>
                <g>
                  <rect class="cls-6" x="210.04" y="138.43" width=".33" height="28.41"/>
                  <rect class="cls-6" x="219.51" y="138.43" width=".33" height="28.41"/>
                  <rect class="cls-6" x="200.74" y="138.43" width=".33" height="28.41"/>
                  <rect class="cls-6" x="200.74" y="157.21" width="28.41" height=".33"/>
                  <rect class="cls-6" x="200.74" y="147.74" width="28.41" height=".33"/>
                  <rect class="cls-6" x="200.74" y="157.21" width="28.41" height=".33"/>
                  <rect class="cls-6" x="200.74" y="166.51" width="28.41" height=".34"/>
                </g>
                <g>
                  <rect class="cls-6" x="238.41" y="138.43" width=".33" height="28.41"/>
                  <rect class="cls-6" x="247.88" y="138.43" width=".33" height="28.41"/>
                  <rect class="cls-6" x="229.1" y="138.43" width=".33" height="28.41"/>
                  <rect class="cls-6" x="229.1" y="157.21" width="28.41" height=".33"/>
                  <rect class="cls-6" x="229.1" y="147.74" width="28.41" height=".33"/>
                  <rect class="cls-6" x="229.1" y="157.21" width="28.41" height=".33"/>
                  <rect class="cls-6" x="229.1" y="166.51" width="28.41" height=".34"/>
                </g>
              </g>
            </g>
            <g>
              <rect class="cls-3" x="30.56" y="167.13" width="28.41" height="28.41"/>
              <rect class="cls-3" x="58.92" y="167.13" width="28.41" height="28.41"/>
              <rect class="cls-3" x="30.56" y="195.52" width="28.41" height="28.41"/>
              <rect class="cls-3" x="58.92" y="195.52" width="28.41" height="28.41"/>
              <g>
                <g>
                  <rect class="cls-6" x="40.15" y="167.13" width=".33" height="28.41"/>
                  <rect class="cls-6" x="49.62" y="167.13" width=".33" height="28.41"/>
                  <rect class="cls-6" x="30.84" y="167.13" width=".33" height="28.41"/>
                  <rect class="cls-6" x="30.84" y="185.9" width="28.41" height=".33"/>
                  <rect class="cls-6" x="30.84" y="176.43" width="28.41" height=".33"/>
                  <rect class="cls-6" x="30.84" y="185.9" width="28.41" height=".33"/>
                  <rect class="cls-6" x="30.84" y="195.2" width="28.41" height=".34"/>
                </g>
                <g>
                  <rect class="cls-6" x="68.51" y="167.13" width=".33" height="28.41"/>
                  <rect class="cls-6" x="77.98" y="167.13" width=".33" height="28.41"/>
                  <rect class="cls-6" x="59.21" y="167.13" width=".33" height="28.41"/>
                  <rect class="cls-6" x="59.21" y="185.9" width="28.41" height=".33"/>
                  <rect class="cls-6" x="59.21" y="176.43" width="28.41" height=".33"/>
                  <rect class="cls-6" x="59.21" y="185.9" width="28.41" height=".33"/>
                  <rect class="cls-6" x="59.21" y="195.2" width="28.41" height=".34"/>
                </g>
                <g>
                  <rect class="cls-6" x="40.15" y="195.52" width=".33" height="28.41"/>
                  <rect class="cls-6" x="49.62" y="195.52" width=".33" height="28.41"/>
                  <rect class="cls-6" x="30.84" y="195.52" width=".33" height="28.41"/>
                  <rect class="cls-6" x="30.84" y="214.29" width="28.41" height=".33"/>
                  <rect class="cls-6" x="30.84" y="204.82" width="28.41" height=".33"/>
                  <rect class="cls-6" x="30.84" y="214.29" width="28.41" height=".33"/>
                  <rect class="cls-6" x="30.84" y="223.59" width="28.41" height=".34"/>
                </g>
                <g>
                  <rect class="cls-6" x="68.51" y="195.52" width=".33" height="28.41"/>
                  <rect class="cls-6" x="77.98" y="195.52" width=".33" height="28.41"/>
                  <rect class="cls-6" x="59.21" y="195.52" width=".33" height="28.41"/>
                  <rect class="cls-6" x="59.21" y="214.29" width="28.41" height=".33"/>
                  <rect class="cls-6" x="59.21" y="204.82" width="28.41" height=".33"/>
                  <rect class="cls-6" x="59.21" y="214.29" width="28.41" height=".33"/>
                  <rect class="cls-6" x="59.21" y="223.59" width="28.41" height=".34"/>
                </g>
              </g>
            </g>
            <g>
              <rect class="cls-3" x="87.19" y="167.13" width="28.41" height="28.41"/>
              <rect class="cls-3" x="115.56" y="167.13" width="28.41" height="28.41"/>
              <rect class="cls-3" x="87.19" y="195.52" width="28.41" height="28.41"/>
              <rect class="cls-3" x="115.56" y="195.52" width="28.41" height="28.41"/>
              <g>
                <g>
                  <rect class="cls-6" x="96.78" y="167.13" width=".33" height="28.41"/>
                  <rect class="cls-6" x="106.25" y="167.13" width=".33" height="28.41"/>
                  <rect class="cls-6" x="87.47" y="167.13" width=".33" height="28.41"/>
                  <rect class="cls-6" x="87.47" y="185.9" width="28.41" height=".33"/>
                  <rect class="cls-6" x="87.47" y="176.43" width="28.41" height=".33"/>
                  <rect class="cls-6" x="87.47" y="185.9" width="28.41" height=".33"/>
                  <rect class="cls-6" x="87.47" y="195.2" width="28.41" height=".34"/>
                </g>
                <g>
                  <rect class="cls-6" x="125.14" y="167.13" width=".33" height="28.41"/>
                  <rect class="cls-6" x="134.61" y="167.13" width=".33" height="28.41"/>
                  <rect class="cls-6" x="115.84" y="167.13" width=".33" height="28.41"/>
                  <rect class="cls-6" x="115.84" y="185.9" width="28.41" height=".33"/>
                  <rect class="cls-6" x="115.84" y="176.43" width="28.41" height=".33"/>
                  <rect class="cls-6" x="115.84" y="185.9" width="28.41" height=".33"/>
                  <rect class="cls-6" x="115.84" y="195.2" width="28.41" height=".34"/>
                </g>
                <g>
                  <rect class="cls-6" x="96.78" y="195.52" width=".33" height="28.41"/>
                  <rect class="cls-6" x="106.25" y="195.52" width=".33" height="28.41"/>
                  <rect class="cls-6" x="87.47" y="195.52" width=".33" height="28.41"/>
                  <rect class="cls-6" x="87.47" y="214.29" width="28.41" height=".33"/>
                  <rect class="cls-6" x="87.47" y="204.82" width="28.41" height=".33"/>
                  <rect class="cls-6" x="87.47" y="214.29" width="28.41" height=".33"/>
                  <rect class="cls-6" x="87.47" y="223.59" width="28.41" height=".34"/>
                </g>
                <g>
                  <rect class="cls-6" x="125.14" y="195.52" width=".33" height="28.41"/>
                  <rect class="cls-6" x="134.61" y="195.52" width=".33" height="28.41"/>
                  <rect class="cls-6" x="115.84" y="195.52" width=".33" height="28.41"/>
                  <rect class="cls-6" x="115.84" y="214.29" width="28.41" height=".33"/>
                  <rect class="cls-6" x="115.84" y="204.82" width="28.41" height=".33"/>
                  <rect class="cls-6" x="115.84" y="214.29" width="28.41" height=".33"/>
                  <rect class="cls-6" x="115.84" y="223.59" width="28.41" height=".34"/>
                </g>
              </g>
            </g>
            <g>
              <rect class="cls-3" x="143.82" y="167.13" width="28.41" height="28.41"/>
              <rect class="cls-3" x="172.19" y="167.13" width="28.41" height="28.41"/>
              <rect class="cls-3" x="143.82" y="195.52" width="28.41" height="28.41"/>
              <rect class="cls-3" x="172.19" y="195.52" width="28.41" height="28.41"/>
              <g>
                <g>
                  <rect class="cls-6" x="153.41" y="167.13" width=".33" height="28.41"/>
                  <rect class="cls-6" x="162.88" y="167.13" width=".33" height="28.41"/>
                  <rect class="cls-6" x="144.11" y="167.13" width=".33" height="28.41"/>
                  <rect class="cls-6" x="144.11" y="185.9" width="28.41" height=".33"/>
                  <rect class="cls-6" x="144.11" y="176.43" width="28.41" height=".33"/>
                  <rect class="cls-6" x="144.11" y="185.9" width="28.41" height=".33"/>
                  <rect class="cls-6" x="144.11" y="195.2" width="28.41" height=".34"/>
                </g>
                <g>
                  <rect class="cls-6" x="181.77" y="167.13" width=".33" height="28.41"/>
                  <rect class="cls-6" x="191.24" y="167.13" width=".33" height="28.41"/>
                  <rect class="cls-6" x="172.47" y="167.13" width=".33" height="28.41"/>
                  <rect class="cls-6" x="172.47" y="185.9" width="28.41" height=".33"/>
                  <rect class="cls-6" x="172.47" y="176.43" width="28.41" height=".33"/>
                  <rect class="cls-6" x="172.47" y="185.9" width="28.41" height=".33"/>
                  <rect class="cls-6" x="172.47" y="195.2" width="28.41" height=".34"/>
                </g>
                <g>
                  <rect class="cls-6" x="153.41" y="195.52" width=".33" height="28.41"/>
                  <rect class="cls-6" x="162.88" y="195.52" width=".33" height="28.41"/>
                  <rect class="cls-6" x="144.11" y="195.52" width=".33" height="28.41"/>
                  <rect class="cls-6" x="144.11" y="214.29" width="28.41" height=".33"/>
                  <rect class="cls-6" x="144.11" y="204.82" width="28.41" height=".33"/>
                  <rect class="cls-6" x="144.11" y="214.29" width="28.41" height=".33"/>
                  <rect class="cls-6" x="144.11" y="223.59" width="28.41" height=".34"/>
                </g>
                <g>
                  <rect class="cls-6" x="181.77" y="195.52" width=".33" height="28.41"/>
                  <rect class="cls-6" x="191.24" y="195.52" width=".33" height="28.41"/>
                  <rect class="cls-6" x="172.47" y="195.52" width=".33" height="28.41"/>
                  <rect class="cls-6" x="172.47" y="214.29" width="28.41" height=".33"/>
                  <rect class="cls-6" x="172.47" y="204.82" width="28.41" height=".33"/>
                  <rect class="cls-6" x="172.47" y="214.29" width="28.41" height=".33"/>
                  <rect class="cls-6" x="172.47" y="223.59" width="28.41" height=".34"/>
                </g>
              </g>
            </g>
            <g>
              <rect class="cls-3" x="200.45" y="167.13" width="28.41" height="28.41"/>
              <rect class="cls-3" x="228.82" y="167.13" width="28.41" height="28.41"/>
              <rect class="cls-3" x="200.45" y="195.52" width="28.41" height="28.41"/>
              <rect class="cls-3" x="228.82" y="195.52" width="28.41" height="28.41"/>
              <g>
                <g>
                  <rect class="cls-6" x="210.04" y="167.13" width=".33" height="28.41"/>
                  <rect class="cls-6" x="219.51" y="167.13" width=".33" height="28.41"/>
                  <rect class="cls-6" x="200.74" y="167.13" width=".33" height="28.41"/>
                  <rect class="cls-6" x="200.74" y="185.9" width="28.41" height=".33"/>
                  <rect class="cls-6" x="200.74" y="176.43" width="28.41" height=".33"/>
                  <rect class="cls-6" x="200.74" y="185.9" width="28.41" height=".33"/>
                  <rect class="cls-6" x="200.74" y="195.2" width="28.41" height=".34"/>
                </g>
                <g>
                  <rect class="cls-6" x="238.41" y="167.13" width=".33" height="28.41"/>
                  <rect class="cls-6" x="247.88" y="167.13" width=".33" height="28.41"/>
                  <rect class="cls-6" x="229.1" y="167.13" width=".33" height="28.41"/>
                  <rect class="cls-6" x="229.1" y="185.9" width="28.41" height=".33"/>
                  <rect class="cls-6" x="229.1" y="176.43" width="28.41" height=".33"/>
                  <rect class="cls-6" x="229.1" y="185.9" width="28.41" height=".33"/>
                  <rect class="cls-6" x="229.1" y="195.2" width="28.41" height=".34"/>
                </g>
                <g>
                  <rect class="cls-6" x="210.04" y="195.52" width=".33" height="28.41"/>
                  <rect class="cls-6" x="219.51" y="195.52" width=".33" height="28.41"/>
                  <rect class="cls-6" x="200.74" y="195.52" width=".33" height="28.41"/>
                  <rect class="cls-6" x="200.74" y="214.29" width="28.41" height=".33"/>
                  <rect class="cls-6" x="200.74" y="204.82" width="28.41" height=".33"/>
                  <rect class="cls-6" x="200.74" y="214.29" width="28.41" height=".33"/>
                  <rect class="cls-6" x="200.74" y="223.59" width="28.41" height=".34"/>
                </g>
                <g>
                  <rect class="cls-6" x="238.41" y="195.52" width=".33" height="28.41"/>
                  <rect class="cls-6" x="247.88" y="195.52" width=".33" height="28.41"/>
                  <rect class="cls-6" x="229.1" y="195.52" width=".33" height="28.41"/>
                  <rect class="cls-6" x="229.1" y="214.29" width="28.41" height=".33"/>
                  <rect class="cls-6" x="229.1" y="204.82" width="28.41" height=".33"/>
                  <rect class="cls-6" x="229.1" y="214.29" width="28.41" height=".33"/>
                  <rect class="cls-6" x="229.1" y="223.59" width="28.41" height=".34"/>
                </g>
              </g>
            </g>
          </g>
        </g>
        <g>
          <g>
            <g>
              <g>
                <line class="cls-2" x1="121.78" y1="148.02" x2="167.3" y2="148.02"/>
                <line class="cls-2" x1="167.3" y1="150.4" x2="121.78" y2="150.4"/>
              </g>
              <path class="cls-2" d="M6.62,149.9l1.43,6.2h81.15s.18-6.64,0-6.83v-49.39"/>
              <rect class="cls-2" x="133.85" y="148.02" width="3.36" height="2.33"/>
              <rect class="cls-2" x="153.83" y="148.02" width="3.36" height="2.33"/>
              <polyline class="cls-2" points="188.37 150.76 188.37 148.02 189.35 148.02 193.68 148.02"/>
              <line class="cls-2" x1="195.97" y1="171.68" x2="193.68" y2="150.61"/>
              <line class="cls-2" x1="212.3" y1="99.89" x2="181.51" y2="99.89"/>
              <line class="cls-2" x1="218.76" y1="218.69" x2="217.8" y2="213.78"/>
              <line class="cls-2" x1="229.24" y1="216.52" x2="228.6" y2="213.23"/>
              <line class="cls-2" x1="210.03" y1="171.87" x2="211.72" y2="180.31"/>
              <line class="cls-2" x1="224.55" y1="169.54" x2="210.33" y2="172.32"/>
              <line class="cls-2" x1="228.95" y1="176.36" x2="211.69" y2="179.83"/>
              <polyline class="cls-2" points="242.21 173.76 228.58 176.43 227.09 168.82"/>
              <line class="cls-2" x1="222.89" y1="183.53" x2="221.76" y2="177.77"/>
              <polyline class="cls-2" points="239.71 158.45 215.96 158.58 215.96 154.97 220.32 154.97"/>
              <line class="cls-2" x1="118.15" y1="187.28" x2="114.59" y2="151.09"/>
              <rect class="cls-2" x="113.36" y="148.02" width="4.88" height="3.04"/>
              <polygon class="cls-2" points="196.81 150.24 193.68 150.24 193.68 149.39 193.68 148.02 196.81 148.02 196.81 150.24"/>
              <g>
                <rect class="cls-2" x="149.24" y="139.72" width="2.71" height="8.04"/>
                <rect class="cls-2" x="151.88" y="139.72" width="2.71" height="8.04"/>
                <rect class="cls-2" x="154.52" y="139.72" width="2.71" height="8.04"/>
                <rect class="cls-2" x="157.16" y="139.72" width="2.71" height="8.04"/>
                <rect class="cls-2" x="159.8" y="139.72" width="2.71" height="8.04"/>
                <rect class="cls-2" x="162.43" y="139.72" width="2.71" height="8.04"/>
              </g>
              <g>
                <rect class="cls-2" x="149.51" y="150.4" width="2.71" height="8.04"/>
                <rect class="cls-2" x="152.15" y="150.4" width="2.71" height="8.04"/>
                <rect class="cls-2" x="154.79" y="150.4" width="2.71" height="8.04"/>
                <rect class="cls-2" x="157.43" y="150.4" width="2.71" height="8.04"/>
                <rect class="cls-2" x="160.07" y="150.4" width="2.71" height="8.04"/>
                <rect class="cls-2" x="162.7" y="150.4" width="2.71" height="8.04"/>
              </g>
              <polyline class="cls-2" points="245.93 194.11 226.32 197.87 224.95 190.87 224.92 190.88 224.92 190.87 213.95 193.02 214.09 193.7 214.11 193.7 215.61 201.35"/>
              <polyline class="cls-2" points="215.96 203.13 216.57 206.24 216.54 206.24 216.67 206.93 216.7 206.92 216.7 206.93 217.38 206.79 217.38 206.79 227.64 204.78 227.61 204.62 227.64 204.62 226.32 197.87"/>
              <path class="cls-2" d="M114.59,99.89h66.98c5.1-17.72,20.07-39.92,20.07-39.92l74.03,53.63s-21.24,28.88-4.8,61.24l-20.05,8.68"/>
              <polyline class="cls-2" points="6.62 149.9 6.62 99.89 89.2 99.89"/>
              <polyline class="cls-2" points="212.89 149.8 239.04 149.8 239.16 154.94 242.55 176.46 249.49 212.68 10.21 259.58 .59 210.51 188.37 173.2"/>
              <line class="cls-2" x1="114.59" y1="99.89" x2="114.59" y2="147.76"/>
              <line class="cls-2" x1="135.26" y1="139.18" x2="203.52" y2="139.18"/>
              <line class="cls-2" x1="160.14" y1="99.89" x2="160.14" y2="139.18"/>
              <line class="cls-2" x1="54.54" y1="214.58" x2="61.39" y2="249.55"/>
              <line class="cls-2" x1="56.47" y1="224.41" x2="74.46" y2="220.88"/>
              <polyline class="cls-2" points="108.98 208.61 199.48 190.39 205.84 221.24"/>
              <polyline class="cls-2" points="79.56 246.5 73.53 215.75 89.51 212.53"/>
              <line class="cls-2" x1="101.73" y1="209.37" x2="107.62" y2="240.49"/>
              <line class="cls-2" x1="134.02" y1="203.06" x2="140.22" y2="233.84"/>
              <polyline class="cls-2" points="195.97 171.68 205.84 169.54 205.84 162.47"/>
              <line class="cls-2" x1="194.82" y1="157" x2="206.88" y2="157"/>
              <line class="cls-2" x1="216.57" y1="166.05" x2="216.57" y2="170.93"/>
              <line class="cls-2" x1="212.79" y1="79.27" x2="212.79" y2="139.18"/>
              <path class="cls-2" d="M247.4,93.11c17.51-23.26,42.64-31.58,42.64-31.58l2.95,6.86s10.81-3.86,16.79-5.09l-4.71-23.21c-25.52,4.61-55.58,22.46-70.4,43.81"/>
              <line class="cls-2" x1="239.04" y1="149.8" x2="255.34" y2="149.8"/>
              <line class="cls-2" x1="259.67" y1="149.8" x2="264.64" y2="149.8"/>
              <polyline class="cls-2" points="148.84 239.49 257.69 217.95 250.83 183.53"/>
              <line class="cls-2" x1="52.78" y1="99.89" x2="52.78" y2="130.33"/>
              <polyline class="cls-2" points="26.65 137.18 57.58 137.18 57.58 149.27"/>
              <line class="cls-2" x1="6.62" y1="149.58" x2="89.2" y2="149.58"/>
              <polyline class="cls-2" points="149.51 158.58 173.18 158.45 173.18 148.02 183.32 148.02 183.32 150.76"/>
              <polyline class="cls-2" points="176.77 148.52 176.77 163.68 183.32 163.68 183.32 160.14"/>
              <polyline class="cls-2" points="188.37 160.48 188.37 163.68 194.82 163.68"/>
            </g>
            <g>
              <rect class="cls-2" x="41.53" y="137.23" width="2.71" height="9.44"/>
              <rect class="cls-2" x="44.17" y="137.23" width="2.71" height="9.44"/>
              <rect class="cls-2" x="46.81" y="137.23" width="2.71" height="9.44"/>
              <rect class="cls-2" x="49.45" y="137.23" width="2.71" height="9.44"/>
              <rect class="cls-2" x="52.09" y="137.23" width="2.71" height="9.44"/>
              <rect class="cls-2" x="54.72" y="137.23" width="2.71" height="9.44"/>
            </g>
            <polygon class="cls-5" points="57.58 137.18 49.14 146.87 49.14 149.58 57.58 149.58 57.58 137.18"/>
          </g>
          <line class="cls-2" x1="124.27" y1="205.02" x2="130.35" y2="236.04"/>
          <line class="cls-2" x1="126.69" y1="217.35" x2="136.5" y2="215.37"/>
        </g>
      </g>
    </g>
  </g>
</svg>