<?xml version="1.0" encoding="UTF-8"?>
<svg id="_레이어_2" data-name="레이어 2" xmlns="http://www.w3.org/2000/svg" width="310.61" height="260.17" xmlns:xlink="http://www.w3.org/1999/xlink" viewBox="0 0 310.61 260.17">
  <defs>
    <style>
      .cls-1, .cls-2 {
        fill: none;
      }

      .cls-3, .cls-4 {
        fill: #fff;
      }

      .cls-5 {
        fill: #c8f3fd;
      }

      .cls-4 {
        stroke-linejoin: bevel;
      }

      .cls-4, .cls-2 {
        stroke: #a0a0a0;
      }

      .cls-2 {
        stroke-miterlimit: 10;
      }

      .cls-6 {
        clip-path: url(#clippath);
      }

      .cls-7 {
        fill: #9fd6ff;
      }
    </style>
    <clipPath id="clippath">
      <polygon class="cls-1" points="73.53 215.75 199.48 190.39 205.84 221.24 79.46 246.01 73.53 215.75"/>
    </clipPath>
  </defs>
  <g id="_레이어_1-2" data-name="레이어 1">
    <g>
      <rect class="cls-3" x=".05" width="310.56" height="258.74"/>
      <g>
        <g class="cls-6">
          <g>
            <rect class="cls-5" x="71.93" y="177.55" width="135.52" height="81.31"/>
            <g>
              <rect class="cls-7" x="71.94" y="177.55" width="6.77" height="6.77"/>
              <rect class="cls-7" x="78.71" y="184.32" width="6.77" height="6.77"/>
              <rect class="cls-7" x="85.49" y="177.55" width="6.77" height="6.77"/>
              <rect class="cls-7" x="92.26" y="184.32" width="6.77" height="6.77"/>
              <rect class="cls-7" x="92.25" y="197.87" width="6.77" height="6.77"/>
              <rect class="cls-7" x="71.93" y="191.1" width="6.77" height="6.77"/>
              <rect class="cls-7" x="78.7" y="197.87" width="6.77" height="6.77"/>
              <rect class="cls-7" x="85.48" y="191.1" width="6.77" height="6.77"/>
            </g>
            <g>
              <rect class="cls-7" x="99.04" y="177.55" width="6.77" height="6.77"/>
              <rect class="cls-7" x="105.81" y="184.32" width="6.77" height="6.77"/>
              <rect class="cls-7" x="112.59" y="177.55" width="6.77" height="6.77"/>
              <rect class="cls-7" x="119.36" y="184.32" width="6.77" height="6.77"/>
              <rect class="cls-7" x="119.36" y="197.87" width="6.77" height="6.77"/>
              <rect class="cls-7" x="99.03" y="191.1" width="6.77" height="6.77"/>
              <rect class="cls-7" x="105.8" y="197.87" width="6.77" height="6.77"/>
              <rect class="cls-7" x="112.58" y="191.1" width="6.77" height="6.77"/>
            </g>
            <g>
              <rect class="cls-7" x="126.14" y="177.55" width="6.77" height="6.77"/>
              <rect class="cls-7" x="132.92" y="184.32" width="6.77" height="6.77"/>
              <rect class="cls-7" x="139.69" y="177.55" width="6.77" height="6.77"/>
              <rect class="cls-7" x="146.47" y="184.32" width="6.77" height="6.77"/>
              <rect class="cls-7" x="146.46" y="197.87" width="6.77" height="6.77"/>
              <rect class="cls-7" x="126.13" y="191.1" width="6.77" height="6.77"/>
              <rect class="cls-7" x="132.91" y="197.87" width="6.77" height="6.77"/>
              <rect class="cls-7" x="139.68" y="191.1" width="6.77" height="6.77"/>
            </g>
            <g>
              <rect class="cls-7" x="153.24" y="177.55" width="6.77" height="6.77"/>
              <rect class="cls-7" x="160.02" y="184.32" width="6.77" height="6.77"/>
              <rect class="cls-7" x="166.79" y="177.55" width="6.77" height="6.77"/>
              <rect class="cls-7" x="173.57" y="184.32" width="6.77" height="6.77"/>
              <rect class="cls-7" x="173.56" y="197.87" width="6.77" height="6.77"/>
              <rect class="cls-7" x="153.23" y="191.1" width="6.77" height="6.77"/>
              <rect class="cls-7" x="160.01" y="197.87" width="6.77" height="6.77"/>
              <rect class="cls-7" x="166.78" y="191.1" width="6.77" height="6.77"/>
            </g>
            <g>
              <rect class="cls-7" x="180.34" y="177.55" width="6.77" height="6.77"/>
              <rect class="cls-7" x="187.12" y="184.32" width="6.77" height="6.77"/>
              <rect class="cls-7" x="193.89" y="177.55" width="6.77" height="6.77"/>
              <rect class="cls-7" x="200.67" y="184.32" width="6.77" height="6.77"/>
              <rect class="cls-7" x="200.66" y="197.87" width="6.77" height="6.77"/>
              <rect class="cls-7" x="180.33" y="191.1" width="6.77" height="6.77"/>
              <rect class="cls-7" x="187.11" y="197.87" width="6.77" height="6.77"/>
              <rect class="cls-7" x="193.88" y="191.1" width="6.77" height="6.77"/>
            </g>
            <g>
              <rect class="cls-7" x="71.94" y="204.65" width="6.77" height="6.77"/>
              <rect class="cls-7" x="78.71" y="211.42" width="6.77" height="6.77"/>
              <rect class="cls-7" x="85.49" y="204.65" width="6.77" height="6.77"/>
              <rect class="cls-7" x="92.26" y="211.42" width="6.77" height="6.77"/>
              <rect class="cls-7" x="92.25" y="224.98" width="6.77" height="6.77"/>
              <rect class="cls-7" x="71.93" y="218.2" width="6.77" height="6.77"/>
              <rect class="cls-7" x="78.7" y="224.98" width="6.77" height="6.77"/>
              <rect class="cls-7" x="85.48" y="218.2" width="6.77" height="6.77"/>
            </g>
            <g>
              <rect class="cls-7" x="99.04" y="204.65" width="6.77" height="6.77"/>
              <rect class="cls-7" x="105.81" y="211.42" width="6.77" height="6.77"/>
              <rect class="cls-7" x="112.59" y="204.65" width="6.77" height="6.77"/>
              <rect class="cls-7" x="119.36" y="211.42" width="6.77" height="6.77"/>
              <rect class="cls-7" x="119.36" y="224.98" width="6.77" height="6.77"/>
              <rect class="cls-7" x="99.03" y="218.2" width="6.77" height="6.77"/>
              <rect class="cls-7" x="105.8" y="224.98" width="6.77" height="6.77"/>
              <rect class="cls-7" x="112.58" y="218.2" width="6.77" height="6.77"/>
            </g>
            <g>
              <rect class="cls-7" x="126.14" y="204.65" width="6.77" height="6.77"/>
              <rect class="cls-7" x="132.92" y="211.42" width="6.77" height="6.77"/>
              <rect class="cls-7" x="139.69" y="204.65" width="6.77" height="6.77"/>
              <rect class="cls-7" x="146.47" y="211.42" width="6.77" height="6.77"/>
              <rect class="cls-7" x="146.46" y="224.98" width="6.77" height="6.77"/>
              <rect class="cls-7" x="126.13" y="218.2" width="6.77" height="6.77"/>
              <rect class="cls-7" x="132.91" y="224.98" width="6.77" height="6.77"/>
              <rect class="cls-7" x="139.68" y="218.2" width="6.77" height="6.77"/>
            </g>
            <g>
              <rect class="cls-7" x="153.24" y="204.65" width="6.77" height="6.77"/>
              <rect class="cls-7" x="160.02" y="211.42" width="6.77" height="6.77"/>
              <rect class="cls-7" x="166.79" y="204.65" width="6.77" height="6.77"/>
              <rect class="cls-7" x="173.57" y="211.42" width="6.77" height="6.77"/>
              <rect class="cls-7" x="173.56" y="224.98" width="6.77" height="6.77"/>
              <rect class="cls-7" x="153.23" y="218.2" width="6.77" height="6.77"/>
              <rect class="cls-7" x="160.01" y="224.98" width="6.77" height="6.77"/>
              <rect class="cls-7" x="166.78" y="218.2" width="6.77" height="6.77"/>
            </g>
            <g>
              <rect class="cls-7" x="180.34" y="204.65" width="6.77" height="6.77"/>
              <rect class="cls-7" x="187.12" y="211.42" width="6.77" height="6.77"/>
              <rect class="cls-7" x="193.89" y="204.65" width="6.77" height="6.77"/>
              <rect class="cls-7" x="200.67" y="211.42" width="6.77" height="6.77"/>
              <rect class="cls-7" x="200.66" y="224.98" width="6.77" height="6.77"/>
              <rect class="cls-7" x="180.33" y="218.2" width="6.77" height="6.77"/>
              <rect class="cls-7" x="187.11" y="224.98" width="6.77" height="6.77"/>
              <rect class="cls-7" x="193.88" y="218.2" width="6.77" height="6.77"/>
            </g>
            <g>
              <rect class="cls-7" x="71.94" y="231.75" width="6.77" height="6.77"/>
              <rect class="cls-7" x="78.71" y="238.53" width="6.77" height="6.77"/>
              <rect class="cls-7" x="85.49" y="231.75" width="6.77" height="6.77"/>
              <rect class="cls-7" x="92.26" y="238.53" width="6.77" height="6.77"/>
              <rect class="cls-7" x="92.25" y="252.08" width="6.77" height="6.77"/>
              <rect class="cls-7" x="71.93" y="245.31" width="6.77" height="6.77"/>
              <rect class="cls-7" x="78.7" y="252.08" width="6.77" height="6.77"/>
              <rect class="cls-7" x="85.48" y="245.31" width="6.77" height="6.77"/>
            </g>
            <g>
              <rect class="cls-7" x="99.04" y="231.75" width="6.77" height="6.77"/>
              <rect class="cls-7" x="105.81" y="238.53" width="6.77" height="6.77"/>
              <rect class="cls-7" x="112.59" y="231.75" width="6.77" height="6.77"/>
              <rect class="cls-7" x="119.36" y="238.53" width="6.77" height="6.77"/>
              <rect class="cls-7" x="119.36" y="252.08" width="6.77" height="6.77"/>
              <rect class="cls-7" x="99.03" y="245.31" width="6.77" height="6.77"/>
              <rect class="cls-7" x="105.8" y="252.08" width="6.77" height="6.77"/>
              <rect class="cls-7" x="112.58" y="245.31" width="6.77" height="6.77"/>
            </g>
            <g>
              <rect class="cls-7" x="126.14" y="231.75" width="6.77" height="6.77"/>
              <rect class="cls-7" x="132.92" y="238.53" width="6.77" height="6.77"/>
              <rect class="cls-7" x="139.69" y="231.75" width="6.77" height="6.77"/>
              <rect class="cls-7" x="146.47" y="238.53" width="6.77" height="6.77"/>
              <rect class="cls-7" x="146.46" y="252.08" width="6.77" height="6.77"/>
              <rect class="cls-7" x="126.13" y="245.31" width="6.77" height="6.77"/>
              <rect class="cls-7" x="132.91" y="252.08" width="6.77" height="6.77"/>
              <rect class="cls-7" x="139.68" y="245.31" width="6.77" height="6.77"/>
            </g>
            <g>
              <rect class="cls-7" x="153.24" y="231.75" width="6.77" height="6.77"/>
              <rect class="cls-7" x="160.02" y="238.53" width="6.77" height="6.77"/>
              <rect class="cls-7" x="166.79" y="231.75" width="6.77" height="6.77"/>
              <rect class="cls-7" x="173.57" y="238.53" width="6.77" height="6.77"/>
              <rect class="cls-7" x="173.56" y="252.08" width="6.77" height="6.77"/>
              <rect class="cls-7" x="153.23" y="245.31" width="6.77" height="6.77"/>
              <rect class="cls-7" x="160.01" y="252.08" width="6.77" height="6.77"/>
              <rect class="cls-7" x="166.78" y="245.31" width="6.77" height="6.77"/>
            </g>
            <g>
              <rect class="cls-7" x="180.34" y="231.75" width="6.77" height="6.77"/>
              <rect class="cls-7" x="187.12" y="238.53" width="6.77" height="6.77"/>
              <rect class="cls-7" x="193.89" y="231.75" width="6.77" height="6.77"/>
              <rect class="cls-7" x="200.67" y="238.53" width="6.77" height="6.77"/>
              <rect class="cls-7" x="200.66" y="252.08" width="6.77" height="6.77"/>
              <rect class="cls-7" x="180.33" y="245.31" width="6.77" height="6.77"/>
              <rect class="cls-7" x="187.11" y="252.08" width="6.77" height="6.77"/>
              <rect class="cls-7" x="193.88" y="245.31" width="6.77" height="6.77"/>
            </g>
          </g>
        </g>
        <g>
          <g>
            <g>
              <g>
                <line class="cls-2" x1="121.78" y1="148.02" x2="167.3" y2="148.02"/>
                <line class="cls-2" x1="167.3" y1="150.4" x2="121.78" y2="150.4"/>
              </g>
              <path class="cls-2" d="M6.62,149.9l1.43,6.2h81.15s.18-6.64,0-6.83v-49.39"/>
              <rect class="cls-2" x="133.85" y="148.02" width="3.36" height="2.33"/>
              <rect class="cls-2" x="153.83" y="148.02" width="3.36" height="2.33"/>
              <polyline class="cls-2" points="188.37 150.76 188.37 148.02 189.35 148.02 193.68 148.02"/>
              <line class="cls-2" x1="195.97" y1="171.68" x2="193.68" y2="150.61"/>
              <line class="cls-2" x1="212.3" y1="99.89" x2="181.51" y2="99.89"/>
              <line class="cls-2" x1="218.76" y1="218.69" x2="217.8" y2="213.78"/>
              <line class="cls-2" x1="229.24" y1="216.52" x2="228.6" y2="213.23"/>
              <line class="cls-2" x1="210.03" y1="171.87" x2="211.72" y2="180.31"/>
              <line class="cls-2" x1="224.55" y1="169.54" x2="210.33" y2="172.32"/>
              <line class="cls-2" x1="228.95" y1="176.36" x2="211.69" y2="179.83"/>
              <polyline class="cls-2" points="242.21 173.76 228.58 176.43 227.09 168.82"/>
              <line class="cls-2" x1="222.89" y1="183.53" x2="221.76" y2="177.77"/>
              <polyline class="cls-2" points="239.71 158.45 215.96 158.58 215.96 154.97 220.32 154.97"/>
              <line class="cls-2" x1="118.15" y1="187.28" x2="114.59" y2="151.09"/>
              <rect class="cls-2" x="113.36" y="148.02" width="4.88" height="3.04"/>
              <polygon class="cls-2" points="196.81 150.24 193.68 150.24 193.68 149.39 193.68 148.02 196.81 148.02 196.81 150.24"/>
              <g>
                <rect class="cls-2" x="149.24" y="139.72" width="2.71" height="8.04"/>
                <rect class="cls-2" x="151.88" y="139.72" width="2.71" height="8.04"/>
                <rect class="cls-2" x="154.52" y="139.72" width="2.71" height="8.04"/>
                <rect class="cls-2" x="157.16" y="139.72" width="2.71" height="8.04"/>
                <rect class="cls-2" x="159.8" y="139.72" width="2.71" height="8.04"/>
                <rect class="cls-2" x="162.43" y="139.72" width="2.71" height="8.04"/>
              </g>
              <g>
                <rect class="cls-2" x="149.51" y="150.4" width="2.71" height="8.04"/>
                <rect class="cls-2" x="152.15" y="150.4" width="2.71" height="8.04"/>
                <rect class="cls-2" x="154.79" y="150.4" width="2.71" height="8.04"/>
                <rect class="cls-2" x="157.43" y="150.4" width="2.71" height="8.04"/>
                <rect class="cls-2" x="160.07" y="150.4" width="2.71" height="8.04"/>
                <rect class="cls-2" x="162.7" y="150.4" width="2.71" height="8.04"/>
              </g>
              <polyline class="cls-2" points="245.93 194.11 226.32 197.87 224.95 190.87 224.92 190.88 224.92 190.87 213.95 193.02 214.09 193.7 214.11 193.7 215.61 201.35"/>
              <polyline class="cls-2" points="215.96 203.13 216.57 206.24 216.54 206.24 216.67 206.93 216.7 206.92 216.7 206.93 217.38 206.79 217.38 206.79 227.64 204.78 227.61 204.62 227.64 204.62 226.32 197.87"/>
              <path class="cls-2" d="M114.59,99.89h66.98c5.1-17.72,20.07-39.92,20.07-39.92l74.03,53.63s-21.24,28.88-4.8,61.24l-20.05,8.68"/>
              <polyline class="cls-2" points="6.62 149.9 6.62 99.89 89.2 99.89"/>
              <polyline class="cls-2" points="212.89 149.8 239.04 149.8 239.16 154.94 242.55 176.46 249.49 212.68 10.21 259.58 .59 210.51 188.37 173.2"/>
              <line class="cls-2" x1="114.59" y1="99.89" x2="114.59" y2="147.76"/>
              <line class="cls-2" x1="135.26" y1="139.18" x2="203.52" y2="139.18"/>
              <line class="cls-2" x1="160.14" y1="99.89" x2="160.14" y2="139.18"/>
              <line class="cls-2" x1="54.54" y1="214.58" x2="61.39" y2="249.55"/>
              <line class="cls-2" x1="56.47" y1="224.41" x2="74.46" y2="220.88"/>
              <polyline class="cls-2" points="108.98 208.61 199.48 190.39 205.84 221.24"/>
              <polyline class="cls-2" points="79.56 246.5 73.53 215.75 89.51 212.53"/>
              <line class="cls-2" x1="101.73" y1="209.37" x2="107.62" y2="240.49"/>
              <line class="cls-2" x1="134.02" y1="203.06" x2="140.22" y2="233.84"/>
              <polyline class="cls-2" points="195.97 171.68 205.84 169.54 205.84 162.47"/>
              <line class="cls-2" x1="194.82" y1="157" x2="206.88" y2="157"/>
              <line class="cls-2" x1="216.57" y1="166.05" x2="216.57" y2="170.93"/>
              <line class="cls-2" x1="212.79" y1="79.27" x2="212.79" y2="139.18"/>
              <path class="cls-2" d="M247.4,93.11c17.51-23.26,42.64-31.58,42.64-31.58l2.95,6.86s10.81-3.86,16.79-5.09l-4.71-23.21c-25.52,4.61-55.58,22.46-70.4,43.81"/>
              <line class="cls-2" x1="239.04" y1="149.8" x2="255.34" y2="149.8"/>
              <line class="cls-2" x1="259.67" y1="149.8" x2="264.64" y2="149.8"/>
              <polyline class="cls-2" points="148.84 239.49 257.69 217.95 250.83 183.53"/>
              <line class="cls-2" x1="52.78" y1="99.89" x2="52.78" y2="130.33"/>
              <polyline class="cls-2" points="26.65 137.18 57.58 137.18 57.58 149.27"/>
              <line class="cls-2" x1="6.62" y1="149.58" x2="89.2" y2="149.58"/>
              <polyline class="cls-2" points="149.51 158.58 173.18 158.45 173.18 148.02 183.32 148.02 183.32 150.76"/>
              <polyline class="cls-2" points="176.77 148.52 176.77 163.68 183.32 163.68 183.32 160.14"/>
              <polyline class="cls-2" points="188.37 160.48 188.37 163.68 194.82 163.68"/>
            </g>
            <g>
              <rect class="cls-2" x="41.53" y="137.23" width="2.71" height="9.44"/>
              <rect class="cls-2" x="44.17" y="137.23" width="2.71" height="9.44"/>
              <rect class="cls-2" x="46.81" y="137.23" width="2.71" height="9.44"/>
              <rect class="cls-2" x="49.45" y="137.23" width="2.71" height="9.44"/>
              <rect class="cls-2" x="52.09" y="137.23" width="2.71" height="9.44"/>
              <rect class="cls-2" x="54.72" y="137.23" width="2.71" height="9.44"/>
            </g>
            <polygon class="cls-4" points="57.58 137.18 49.14 146.87 49.14 149.58 57.58 149.58 57.58 137.18"/>
          </g>
          <line class="cls-2" x1="124.27" y1="205.02" x2="130.35" y2="236.04"/>
          <line class="cls-2" x1="126.69" y1="217.35" x2="136.5" y2="215.37"/>
        </g>
      </g>
    </g>
  </g>
</svg>