<?xml version="1.0" encoding="UTF-8"?>
<svg id="_레이어_2" data-name="레이어 2" xmlns="http://www.w3.org/2000/svg" width="305.92" height="258.8" xmlns:xlink="http://www.w3.org/1999/xlink" viewBox="0 0 305.92 258.8">
  <defs>
    <style>
      .cls-1, .cls-2 {
        fill: none;
      }

      .cls-3 {
        fill: #fbf091;
      }

      .cls-4, .cls-5 {
        fill: #fff;
      }

      .cls-5, .cls-6, .cls-2 {
        stroke-miterlimit: 10;
      }

      .cls-5, .cls-2 {
        stroke: #a0a0a0;
      }

      .cls-6 {
        fill: #ffc033;
        stroke: #ffc033;
        stroke-width: .58px;
      }

      .cls-7 {
        clip-path: url(#clippath);
      }
    </style>
    <clipPath id="clippath">
      <polygon class="cls-1" points="36.49 150.04 85.58 150.04 85.58 151.18 88.36 151.18 91.84 190.45 40.71 200.16 36.49 150.04"/>
    </clipPath>
  </defs>
  <g id="_레이어_1-2" data-name="레이어 1">
    <g>
      <rect class="cls-4" width="305.92" height="258.74"/>
      <g>
        <g class="cls-7">
          <g>
            <g>
              <rect class="cls-3" x="-3.64" y="108.28" width="28.41" height="28.41"/>
              <rect class="cls-3" x="-3.64" y="136.68" width="28.41" height="28.41"/>
              <g>
                <g>
                  <rect class="cls-6" x="5.95" y="108.28" width=".33" height="28.41"/>
                  <rect class="cls-6" x="15.42" y="108.28" width=".33" height="28.41"/>
                  <rect class="cls-6" x="-3.36" y="127.06" width="28.41" height=".33"/>
                  <rect class="cls-6" x="-3.36" y="117.59" width="28.41" height=".33"/>
                  <rect class="cls-6" x="-3.36" y="127.06" width="28.41" height=".33"/>
                  <rect class="cls-6" x="-3.36" y="136.35" width="28.41" height=".34"/>
                </g>
                <g>
                  <rect class="cls-6" x="5.95" y="136.68" width=".33" height="28.41"/>
                  <rect class="cls-6" x="15.42" y="136.68" width=".33" height="28.41"/>
                  <rect class="cls-6" x="-3.36" y="155.45" width="28.41" height=".33"/>
                  <rect class="cls-6" x="-3.36" y="145.98" width="28.41" height=".33"/>
                  <rect class="cls-6" x="-3.36" y="155.45" width="28.41" height=".33"/>
                  <rect class="cls-6" x="-3.36" y="164.75" width="28.41" height=".34"/>
                </g>
              </g>
            </g>
            <g>
              <rect class="cls-3" x="24.63" y="108.28" width="28.41" height="28.41"/>
              <rect class="cls-3" x="52.99" y="108.28" width="28.41" height="28.41"/>
              <rect class="cls-3" x="24.63" y="136.68" width="28.41" height="28.41"/>
              <rect class="cls-3" x="52.99" y="136.68" width="28.41" height="28.41"/>
              <g>
                <g>
                  <rect class="cls-6" x="34.21" y="108.28" width=".33" height="28.41"/>
                  <rect class="cls-6" x="43.68" y="108.28" width=".33" height="28.41"/>
                  <rect class="cls-6" x="24.91" y="108.28" width=".33" height="28.41"/>
                  <rect class="cls-6" x="24.91" y="127.06" width="28.41" height=".33"/>
                  <rect class="cls-6" x="24.91" y="117.59" width="28.41" height=".33"/>
                  <rect class="cls-6" x="24.91" y="127.06" width="28.41" height=".33"/>
                  <rect class="cls-6" x="24.91" y="136.35" width="28.41" height=".34"/>
                </g>
                <g>
                  <rect class="cls-6" x="62.58" y="108.28" width=".33" height="28.41"/>
                  <rect class="cls-6" x="72.05" y="108.28" width=".33" height="28.41"/>
                  <rect class="cls-6" x="53.27" y="108.28" width=".33" height="28.41"/>
                  <rect class="cls-6" x="53.27" y="127.06" width="28.41" height=".33"/>
                  <rect class="cls-6" x="53.27" y="117.59" width="28.41" height=".33"/>
                  <rect class="cls-6" x="53.27" y="127.06" width="28.41" height=".33"/>
                  <rect class="cls-6" x="53.27" y="136.35" width="28.41" height=".34"/>
                </g>
                <g>
                  <rect class="cls-6" x="34.21" y="136.68" width=".33" height="28.41"/>
                  <rect class="cls-6" x="43.68" y="136.68" width=".33" height="28.41"/>
                  <rect class="cls-6" x="24.91" y="136.68" width=".33" height="28.41"/>
                  <rect class="cls-6" x="24.91" y="155.45" width="28.41" height=".33"/>
                  <rect class="cls-6" x="24.91" y="145.98" width="28.41" height=".33"/>
                  <rect class="cls-6" x="24.91" y="155.45" width="28.41" height=".33"/>
                  <rect class="cls-6" x="24.91" y="164.75" width="28.41" height=".34"/>
                </g>
                <g>
                  <rect class="cls-6" x="62.58" y="136.68" width=".33" height="28.41"/>
                  <rect class="cls-6" x="72.05" y="136.68" width=".33" height="28.41"/>
                  <rect class="cls-6" x="53.27" y="136.68" width=".33" height="28.41"/>
                  <rect class="cls-6" x="53.27" y="155.45" width="28.41" height=".33"/>
                  <rect class="cls-6" x="53.27" y="145.98" width="28.41" height=".33"/>
                  <rect class="cls-6" x="53.27" y="155.45" width="28.41" height=".33"/>
                  <rect class="cls-6" x="53.27" y="164.75" width="28.41" height=".34"/>
                </g>
              </g>
            </g>
            <g>
              <rect class="cls-3" x="81.26" y="108.28" width="28.41" height="28.41"/>
              <rect class="cls-3" x="109.62" y="108.28" width="28.41" height="28.41"/>
              <rect class="cls-3" x="81.26" y="136.68" width="28.41" height="28.41"/>
              <rect class="cls-3" x="109.62" y="136.68" width="28.41" height="28.41"/>
              <g>
                <g>
                  <rect class="cls-6" x="90.84" y="108.28" width=".33" height="28.41"/>
                  <rect class="cls-6" x="100.31" y="108.28" width=".33" height="28.41"/>
                  <rect class="cls-6" x="81.54" y="108.28" width=".33" height="28.41"/>
                  <rect class="cls-6" x="81.54" y="127.06" width="28.41" height=".33"/>
                  <rect class="cls-6" x="81.54" y="117.59" width="28.41" height=".33"/>
                  <rect class="cls-6" x="81.54" y="127.06" width="28.41" height=".33"/>
                  <rect class="cls-6" x="81.54" y="136.35" width="28.41" height=".34"/>
                </g>
                <g>
                  <rect class="cls-6" x="119.21" y="108.28" width=".33" height="28.41"/>
                  <rect class="cls-6" x="128.68" y="108.28" width=".33" height="28.41"/>
                  <rect class="cls-6" x="109.91" y="108.28" width=".33" height="28.41"/>
                  <rect class="cls-6" x="109.91" y="127.06" width="28.41" height=".33"/>
                  <rect class="cls-6" x="109.91" y="117.59" width="28.41" height=".33"/>
                  <rect class="cls-6" x="109.91" y="127.06" width="28.41" height=".33"/>
                  <rect class="cls-6" x="109.91" y="136.35" width="28.41" height=".34"/>
                </g>
                <g>
                  <rect class="cls-6" x="90.84" y="136.68" width=".33" height="28.41"/>
                  <rect class="cls-6" x="100.31" y="136.68" width=".33" height="28.41"/>
                  <rect class="cls-6" x="81.54" y="136.68" width=".33" height="28.41"/>
                  <rect class="cls-6" x="81.54" y="155.45" width="28.41" height=".33"/>
                  <rect class="cls-6" x="81.54" y="145.98" width="28.41" height=".33"/>
                  <rect class="cls-6" x="81.54" y="155.45" width="28.41" height=".33"/>
                  <rect class="cls-6" x="81.54" y="164.75" width="28.41" height=".34"/>
                </g>
                <g>
                  <rect class="cls-6" x="119.21" y="136.68" width=".33" height="28.41"/>
                  <rect class="cls-6" x="128.68" y="136.68" width=".33" height="28.41"/>
                  <rect class="cls-6" x="109.91" y="136.68" width=".33" height="28.41"/>
                  <rect class="cls-6" x="109.91" y="155.45" width="28.41" height=".33"/>
                  <rect class="cls-6" x="109.91" y="145.98" width="28.41" height=".33"/>
                  <rect class="cls-6" x="109.91" y="155.45" width="28.41" height=".33"/>
                  <rect class="cls-6" x="109.91" y="164.75" width="28.41" height=".34"/>
                </g>
              </g>
            </g>
            <g>
              <rect class="cls-3" x="137.89" y="108.28" width="28.41" height="28.41"/>
              <rect class="cls-3" x="166.26" y="108.28" width="28.41" height="28.41"/>
              <rect class="cls-3" x="137.89" y="136.68" width="28.41" height="28.41"/>
              <rect class="cls-3" x="166.26" y="136.68" width="28.41" height="28.41"/>
              <g>
                <g>
                  <rect class="cls-6" x="147.48" y="108.28" width=".33" height="28.41"/>
                  <rect class="cls-6" x="156.95" y="108.28" width=".33" height="28.41"/>
                  <rect class="cls-6" x="138.17" y="108.28" width=".33" height="28.41"/>
                  <rect class="cls-6" x="138.17" y="127.06" width="28.41" height=".33"/>
                  <rect class="cls-6" x="138.17" y="117.59" width="28.41" height=".33"/>
                  <rect class="cls-6" x="138.17" y="127.06" width="28.41" height=".33"/>
                  <rect class="cls-6" x="138.17" y="136.35" width="28.41" height=".34"/>
                </g>
                <g>
                  <rect class="cls-6" x="175.84" y="108.28" width=".33" height="28.41"/>
                  <rect class="cls-6" x="185.31" y="108.28" width=".33" height="28.41"/>
                  <rect class="cls-6" x="166.54" y="108.28" width=".33" height="28.41"/>
                  <rect class="cls-6" x="166.54" y="127.06" width="28.41" height=".33"/>
                  <rect class="cls-6" x="166.54" y="117.59" width="28.41" height=".33"/>
                  <rect class="cls-6" x="166.54" y="127.06" width="28.41" height=".33"/>
                  <rect class="cls-6" x="166.54" y="136.35" width="28.41" height=".34"/>
                </g>
                <g>
                  <rect class="cls-6" x="147.48" y="136.68" width=".33" height="28.41"/>
                  <rect class="cls-6" x="156.95" y="136.68" width=".33" height="28.41"/>
                  <rect class="cls-6" x="138.17" y="136.68" width=".33" height="28.41"/>
                  <rect class="cls-6" x="138.17" y="155.45" width="28.41" height=".33"/>
                  <rect class="cls-6" x="138.17" y="145.98" width="28.41" height=".33"/>
                  <rect class="cls-6" x="138.17" y="155.45" width="28.41" height=".33"/>
                  <rect class="cls-6" x="138.17" y="164.75" width="28.41" height=".34"/>
                </g>
                <g>
                  <rect class="cls-6" x="175.84" y="136.68" width=".33" height="28.41"/>
                  <rect class="cls-6" x="185.31" y="136.68" width=".33" height="28.41"/>
                  <rect class="cls-6" x="166.54" y="136.68" width=".33" height="28.41"/>
                  <rect class="cls-6" x="166.54" y="155.45" width="28.41" height=".33"/>
                  <rect class="cls-6" x="166.54" y="145.98" width="28.41" height=".33"/>
                  <rect class="cls-6" x="166.54" y="155.45" width="28.41" height=".33"/>
                  <rect class="cls-6" x="166.54" y="164.75" width="28.41" height=".34"/>
                </g>
              </g>
            </g>
            <g>
              <rect class="cls-3" x="-3.64" y="165.37" width="28.41" height="28.41"/>
              <rect class="cls-3" x="-3.64" y="193.76" width="28.41" height="28.41"/>
              <g>
                <g>
                  <rect class="cls-6" x="5.95" y="165.37" width=".33" height="28.41"/>
                  <rect class="cls-6" x="15.42" y="165.37" width=".33" height="28.41"/>
                  <rect class="cls-6" x="-3.36" y="184.14" width="28.41" height=".33"/>
                  <rect class="cls-6" x="-3.36" y="174.67" width="28.41" height=".33"/>
                  <rect class="cls-6" x="-3.36" y="184.14" width="28.41" height=".33"/>
                  <rect class="cls-6" x="-3.36" y="193.44" width="28.41" height=".34"/>
                </g>
                <g>
                  <rect class="cls-6" x="5.95" y="193.76" width=".33" height="28.41"/>
                  <rect class="cls-6" x="15.42" y="193.76" width=".33" height="28.41"/>
                  <rect class="cls-6" x="-3.36" y="212.54" width="28.41" height=".33"/>
                  <rect class="cls-6" x="-3.36" y="203.07" width="28.41" height=".33"/>
                  <rect class="cls-6" x="-3.36" y="212.54" width="28.41" height=".33"/>
                  <rect class="cls-6" x="-3.36" y="221.84" width="28.41" height=".34"/>
                </g>
              </g>
            </g>
            <g>
              <rect class="cls-3" x="24.63" y="165.37" width="28.41" height="28.41"/>
              <rect class="cls-3" x="52.99" y="165.37" width="28.41" height="28.41"/>
              <rect class="cls-3" x="24.63" y="193.76" width="28.41" height="28.41"/>
              <rect class="cls-3" x="52.99" y="193.76" width="28.41" height="28.41"/>
              <g>
                <g>
                  <rect class="cls-6" x="34.21" y="165.37" width=".33" height="28.41"/>
                  <rect class="cls-6" x="43.68" y="165.37" width=".33" height="28.41"/>
                  <rect class="cls-6" x="24.91" y="165.37" width=".33" height="28.41"/>
                  <rect class="cls-6" x="24.91" y="184.14" width="28.41" height=".33"/>
                  <rect class="cls-6" x="24.91" y="174.67" width="28.41" height=".33"/>
                  <rect class="cls-6" x="24.91" y="184.14" width="28.41" height=".33"/>
                  <rect class="cls-6" x="24.91" y="193.44" width="28.41" height=".34"/>
                </g>
                <g>
                  <rect class="cls-6" x="62.58" y="165.37" width=".33" height="28.41"/>
                  <rect class="cls-6" x="72.05" y="165.37" width=".33" height="28.41"/>
                  <rect class="cls-6" x="53.27" y="165.37" width=".33" height="28.41"/>
                  <rect class="cls-6" x="53.27" y="184.14" width="28.41" height=".33"/>
                  <rect class="cls-6" x="53.27" y="174.67" width="28.41" height=".33"/>
                  <rect class="cls-6" x="53.27" y="184.14" width="28.41" height=".33"/>
                  <rect class="cls-6" x="53.27" y="193.44" width="28.41" height=".34"/>
                </g>
                <g>
                  <rect class="cls-6" x="34.21" y="193.76" width=".33" height="28.41"/>
                  <rect class="cls-6" x="43.68" y="193.76" width=".33" height="28.41"/>
                  <rect class="cls-6" x="24.91" y="193.76" width=".33" height="28.41"/>
                  <rect class="cls-6" x="24.91" y="212.54" width="28.41" height=".33"/>
                  <rect class="cls-6" x="24.91" y="203.07" width="28.41" height=".33"/>
                  <rect class="cls-6" x="24.91" y="212.54" width="28.41" height=".33"/>
                  <rect class="cls-6" x="24.91" y="221.84" width="28.41" height=".34"/>
                </g>
                <g>
                  <rect class="cls-6" x="62.58" y="193.76" width=".33" height="28.41"/>
                  <rect class="cls-6" x="72.05" y="193.76" width=".33" height="28.41"/>
                  <rect class="cls-6" x="53.27" y="193.76" width=".33" height="28.41"/>
                  <rect class="cls-6" x="53.27" y="212.54" width="28.41" height=".33"/>
                  <rect class="cls-6" x="53.27" y="203.07" width="28.41" height=".33"/>
                  <rect class="cls-6" x="53.27" y="212.54" width="28.41" height=".33"/>
                  <rect class="cls-6" x="53.27" y="221.84" width="28.41" height=".34"/>
                </g>
              </g>
            </g>
            <g>
              <rect class="cls-3" x="81.26" y="165.37" width="28.41" height="28.41"/>
              <rect class="cls-3" x="109.62" y="165.37" width="28.41" height="28.41"/>
              <rect class="cls-3" x="81.26" y="193.76" width="28.41" height="28.41"/>
              <rect class="cls-3" x="109.62" y="193.76" width="28.41" height="28.41"/>
              <g>
                <g>
                  <rect class="cls-6" x="90.84" y="165.37" width=".33" height="28.41"/>
                  <rect class="cls-6" x="100.31" y="165.37" width=".33" height="28.41"/>
                  <rect class="cls-6" x="81.54" y="165.37" width=".33" height="28.41"/>
                  <rect class="cls-6" x="81.54" y="184.14" width="28.41" height=".33"/>
                  <rect class="cls-6" x="81.54" y="174.67" width="28.41" height=".33"/>
                  <rect class="cls-6" x="81.54" y="184.14" width="28.41" height=".33"/>
                  <rect class="cls-6" x="81.54" y="193.44" width="28.41" height=".34"/>
                </g>
                <g>
                  <rect class="cls-6" x="119.21" y="165.37" width=".33" height="28.41"/>
                  <rect class="cls-6" x="128.68" y="165.37" width=".33" height="28.41"/>
                  <rect class="cls-6" x="109.91" y="165.37" width=".33" height="28.41"/>
                  <rect class="cls-6" x="109.91" y="184.14" width="28.41" height=".33"/>
                  <rect class="cls-6" x="109.91" y="174.67" width="28.41" height=".33"/>
                  <rect class="cls-6" x="109.91" y="184.14" width="28.41" height=".33"/>
                  <rect class="cls-6" x="109.91" y="193.44" width="28.41" height=".34"/>
                </g>
                <g>
                  <rect class="cls-6" x="90.84" y="193.76" width=".33" height="28.41"/>
                  <rect class="cls-6" x="100.31" y="193.76" width=".33" height="28.41"/>
                  <rect class="cls-6" x="81.54" y="193.76" width=".33" height="28.41"/>
                  <rect class="cls-6" x="81.54" y="212.54" width="28.41" height=".33"/>
                  <rect class="cls-6" x="81.54" y="203.07" width="28.41" height=".33"/>
                  <rect class="cls-6" x="81.54" y="212.54" width="28.41" height=".33"/>
                  <rect class="cls-6" x="81.54" y="221.84" width="28.41" height=".34"/>
                </g>
                <g>
                  <rect class="cls-6" x="119.21" y="193.76" width=".33" height="28.41"/>
                  <rect class="cls-6" x="128.68" y="193.76" width=".33" height="28.41"/>
                  <rect class="cls-6" x="109.91" y="193.76" width=".33" height="28.41"/>
                  <rect class="cls-6" x="109.91" y="212.54" width="28.41" height=".33"/>
                  <rect class="cls-6" x="109.91" y="203.07" width="28.41" height=".33"/>
                  <rect class="cls-6" x="109.91" y="212.54" width="28.41" height=".33"/>
                  <rect class="cls-6" x="109.91" y="221.84" width="28.41" height=".34"/>
                </g>
              </g>
            </g>
            <g>
              <rect class="cls-3" x="137.89" y="165.37" width="28.41" height="28.41"/>
              <rect class="cls-3" x="166.26" y="165.37" width="28.41" height="28.41"/>
              <rect class="cls-3" x="137.89" y="193.76" width="28.41" height="28.41"/>
              <rect class="cls-3" x="166.26" y="193.76" width="28.41" height="28.41"/>
              <g>
                <g>
                  <rect class="cls-6" x="147.48" y="165.37" width=".33" height="28.41"/>
                  <rect class="cls-6" x="156.95" y="165.37" width=".33" height="28.41"/>
                  <rect class="cls-6" x="138.17" y="165.37" width=".33" height="28.41"/>
                  <rect class="cls-6" x="138.17" y="184.14" width="28.41" height=".33"/>
                  <rect class="cls-6" x="138.17" y="174.67" width="28.41" height=".33"/>
                  <rect class="cls-6" x="138.17" y="184.14" width="28.41" height=".33"/>
                  <rect class="cls-6" x="138.17" y="193.44" width="28.41" height=".34"/>
                </g>
                <g>
                  <rect class="cls-6" x="175.84" y="165.37" width=".33" height="28.41"/>
                  <rect class="cls-6" x="185.31" y="165.37" width=".33" height="28.41"/>
                  <rect class="cls-6" x="166.54" y="165.37" width=".33" height="28.41"/>
                  <rect class="cls-6" x="166.54" y="184.14" width="28.41" height=".33"/>
                  <rect class="cls-6" x="166.54" y="174.67" width="28.41" height=".33"/>
                  <rect class="cls-6" x="166.54" y="184.14" width="28.41" height=".33"/>
                  <rect class="cls-6" x="166.54" y="193.44" width="28.41" height=".34"/>
                </g>
                <g>
                  <rect class="cls-6" x="147.48" y="193.76" width=".33" height="28.41"/>
                  <rect class="cls-6" x="156.95" y="193.76" width=".33" height="28.41"/>
                  <rect class="cls-6" x="138.17" y="193.76" width=".33" height="28.41"/>
                  <rect class="cls-6" x="138.17" y="212.54" width="28.41" height=".33"/>
                  <rect class="cls-6" x="138.17" y="203.07" width="28.41" height=".33"/>
                  <rect class="cls-6" x="138.17" y="212.54" width="28.41" height=".33"/>
                  <rect class="cls-6" x="138.17" y="221.84" width="28.41" height=".34"/>
                </g>
                <g>
                  <rect class="cls-6" x="175.84" y="193.76" width=".33" height="28.41"/>
                  <rect class="cls-6" x="185.31" y="193.76" width=".33" height="28.41"/>
                  <rect class="cls-6" x="166.54" y="193.76" width=".33" height="28.41"/>
                  <rect class="cls-6" x="166.54" y="212.54" width="28.41" height=".33"/>
                  <rect class="cls-6" x="166.54" y="203.07" width="28.41" height=".33"/>
                  <rect class="cls-6" x="166.54" y="212.54" width="28.41" height=".33"/>
                  <rect class="cls-6" x="166.54" y="221.84" width="28.41" height=".34"/>
                </g>
              </g>
            </g>
          </g>
        </g>
        <path class="cls-2" d="M208.58,118.06c-1.46,5.2-2.62,10.7-3.4,16.52"/>
        <path class="cls-2" d="M216.69,97.24c-2.55,5.03-4.82,10.43-6.71,16.22"/>
        <path class="cls-2" d="M229.38,77.52c-3.67,4.62-7.17,9.71-10.32,15.31"/>
        <path class="cls-2" d="M244.61,61.54c-4.12,3.63-8.28,7.76-12.28,12.42"/>
        <path class="cls-2" d="M263.31,47.76c-4.51,2.74-9.61,6.23-14.9,10.54"/>
        <g>
          <g>
            <line class="cls-2" x1="119.77" y1="148.19" x2="164.54" y2="148.19"/>
            <line class="cls-2" x1="164.54" y1="150.54" x2="119.77" y2="150.54"/>
          </g>
          <rect class="cls-2" x="131.64" y="148.19" width="3.3" height="2.3"/>
          <rect class="cls-2" x="151.3" y="148.19" width="3.3" height="2.3"/>
          <polyline class="cls-2" points="185.26 150.89 185.26 148.19 186.23 148.19 190.48 148.19"/>
          <polyline class="cls-2" points="180.29 150.89 180.29 148.19 170.32 148.19 170.32 158.47 115.68 158.47 115.68 151.18"/>
          <polyline class="cls-2" points="118.89 186.55 192.25 171.62 192.73 171.52 190.48 150.74"/>
          <polyline class="cls-2" points="178.51 100.72 201.37 100.72 194.98 121.51"/>
          <line class="cls-2" x1="194.98" y1="66.89" x2="199.01" y2="69.24"/>
          <path class="cls-2" d="M200.16,59.03l13.83,4.75.17-.27c3.84-5.9,16.53-17.11,18.69-19.01l6.66,8.05,4.78-3.57"/>
          <line class="cls-5" x1="215.15" y1="217.88" x2="214.21" y2="213.04"/>
          <line class="cls-5" x1="225.46" y1="215.75" x2="224.82" y2="212.49"/>
          <line class="cls-5" x1="206.74" y1="171.69" x2="209.53" y2="186.91"/>
          <line class="cls-5" x1="220.84" y1="169.41" x2="206.85" y2="172.16"/>
          <line class="cls-5" x1="225.17" y1="176.14" x2="208.19" y2="179.56"/>
          <polyline class="cls-2" points="238.21 173.58 224.81 176.21 223.34 168.71"/>
          <line class="cls-5" x1="219.21" y1="183.21" x2="218.1" y2="177.53"/>
          <line class="cls-5" x1="178.35" y1="189.08" x2="175.68" y2="189.63"/>
          <line class="cls-5" x1="202.37" y1="184.12" x2="183.85" y2="187.95"/>
          <line class="cls-2" x1="169.84" y1="190.84" x2="25.45" y2="220.05"/>
          <g>
            <line class="cls-5" x1="116.03" y1="185.94" x2="115.68" y2="158.47"/>
            <line class="cls-5" x1="115.84" y1="185.94" x2="112.7" y2="151.22"/>
            <line class="cls-5" x1="91.9" y1="190.32" x2="88.36" y2="151.18"/>
          </g>
          <polyline class="cls-5" points="74.82 196.33 49.62 201.54 49.08 198.72 118.58 185.08 119.08 187.46 91.73 192.78"/>
          <rect class="cls-2" x="111.5" y="148.19" width="4.8" height="3"/>
          <line class="cls-5" x1="285.31" y1="63.04" x2="275.11" y2="37.97"/>
          <polyline class="cls-2" points="191.84 163.06 195.28 162.74 193.56 157.95 193.56 150.33"/>
          <polygon class="cls-2" points="193.56 150.38 190.48 150.38 190.48 149.54 190.48 148.19 193.56 148.19 193.56 150.38"/>
          <g>
            <g>
              <rect class="cls-2" x="123.91" y="150.54" width="2.66" height="7.93"/>
              <rect class="cls-2" x="126.5" y="150.54" width="2.66" height="7.93"/>
              <rect class="cls-2" x="129.1" y="150.54" width="2.66" height="7.93"/>
              <rect class="cls-2" x="131.69" y="150.54" width="2.66" height="7.93"/>
              <rect class="cls-2" x="134.29" y="150.54" width="2.66" height="7.93"/>
              <rect class="cls-2" x="136.88" y="150.54" width="2.66" height="7.93"/>
            </g>
            <g>
              <rect class="cls-2" x="147.05" y="150.54" width="2.66" height="7.93"/>
              <rect class="cls-2" x="149.64" y="150.54" width="2.66" height="7.93"/>
              <rect class="cls-2" x="152.24" y="150.54" width="2.66" height="7.93"/>
              <rect class="cls-2" x="154.83" y="150.54" width="2.66" height="7.93"/>
              <rect class="cls-2" x="157.43" y="150.54" width="2.66" height="7.93"/>
              <rect class="cls-2" x="160.02" y="150.54" width="2.66" height="7.93"/>
            </g>
          </g>
          <polyline class="cls-2" points="241.87 193.64 222.58 197.35 221.23 190.45 221.21 190.45 221.21 190.45 210.42 192.57 210.55 193.24 210.57 193.24 212.05 200.79"/>
          <polyline class="cls-2" points="212.39 202.54 212.99 205.6 212.96 205.61 213.09 206.28 213.12 206.27 213.12 206.28 213.79 206.15 213.79 206.14 223.88 204.16 223.85 204.01 223.88 204 222.58 197.35"/>
          <g>
            <polygon class="cls-2" points="205.46 74.53 204.12 76.84 197.28 72.85 198.62 70.54 205.46 74.53"/>
            <polygon class="cls-2" points="206.76 72.27 205.43 74.59 198.59 70.6 199.92 68.29 206.76 72.27"/>
            <polygon class="cls-2" points="208.07 70.02 206.73 72.33 199.89 68.35 201.23 66.04 208.07 70.02"/>
            <polygon class="cls-2" points="209.37 67.77 208.03 70.08 201.19 66.1 202.53 63.79 209.37 67.77"/>
            <polygon class="cls-2" points="210.68 65.52 209.34 67.83 202.5 63.85 203.84 61.54 210.68 65.52"/>
            <polygon class="cls-2" points="211.98 63.28 210.64 65.59 203.8 61.61 204.43 60.5 211.98 63.28"/>
          </g>
          <g>
            <polygon class="cls-2" points="222.63 53.84 220.69 55.67 215.27 49.9 217.21 48.07 222.63 53.84"/>
            <polygon class="cls-2" points="224.52 52.05 222.58 53.89 217.16 48.12 219.1 46.28 224.52 52.05"/>
            <polygon class="cls-2" points="226.41 50.27 224.47 52.1 219.05 46.33 220.99 44.5 226.41 50.27"/>
            <polygon class="cls-2" points="228.31 48.48 226.36 50.31 220.94 44.54 222.89 42.71 228.31 48.48"/>
            <polygon class="cls-2" points="230.2 46.7 228.26 48.53 222.84 42.76 224.78 40.93 230.2 46.7"/>
            <polygon class="cls-2" points="232.32 44.68 230.38 46.51 224.96 40.74 226.91 38.91 232.32 44.68"/>
            <polygon class="cls-2" points="234.74 42.4 232.8 44.23 227.38 38.46 229.32 36.63 234.74 42.4"/>
          </g>
          <line class="cls-2" x1="159.56" y1="193.15" x2="166.31" y2="227.5"/>
          <line class="cls-2" x1="99.81" y1="241.16" x2="93.06" y2="206.81"/>
          <line class="cls-2" x1="16.62" y1="219.03" x2="22.28" y2="247.77"/>
          <line class="cls-2" x1="177.01" y1="189.63" x2="183.76" y2="223.98"/>
          <line class="cls-2" x1="197.28" y1="185.7" x2="204.03" y2="220.05"/>
          <line class="cls-2" x1="148.45" y1="198.82" x2="152.95" y2="221.71"/>
          <polyline class="cls-2" points="98.98 149.28 98.98 147.37 85.58 147.37 85.62 151.18 111.05 151.18"/>
          <line class="cls-2" x1="42.77" y1="135.4" x2="143.79" y2="135.4"/>
          <line class="cls-2" x1="154.9" y1="135.4" x2="154.9" y2="100.72"/>
          <polyline class="cls-2" points="166.31 135.4 194.98 135.4 194.98 100.72"/>
          <line class="cls-2" x1="46.88" y1="109.8" x2="46.88" y2="129.37"/>
          <line class="cls-2" x1="114.27" y1="100.72" x2="114.27" y2="135.4"/>
          <line class="cls-2" x1="36.49" y1="150.04" x2="85.58" y2="150.04"/>
          <path class="cls-2" d="M204.49,140.9c-.25,2.94-.4,5.95-.46,9.04"/>
          <path class="cls-2" d="M208.58,118.06c-1.46,5.2-2.62,10.7-3.4,16.52"/>
          <path class="cls-2" d="M216.69,97.24c-2.55,5.03-4.82,10.43-6.71,16.22"/>
          <path class="cls-2" d="M229.38,77.52c-3.67,4.62-7.17,9.71-10.32,15.31"/>
          <path class="cls-2" d="M244.61,61.54c-4.12,3.63-8.28,7.76-12.28,12.42"/>
          <path class="cls-2" d="M263.31,47.76c-4.51,2.74-9.61,6.23-14.9,10.54"/>
          <path class="cls-2" d="M276.31,40.93c-2.19.95-5.3,2.43-9.01,4.51"/>
          <line class="cls-2" x1="250.76" y1="101.72" x2="224.21" y2="84.52"/>
          <path class="cls-2" d="M238.55,176.46l-3.34-21.16s-1.54-75.06,69.45-90.12l-8.52-42.65c-9.15,1.91-26.59,6.66-45.51,20.41l-13.3-19.37c-27.89,19.33-47.99,45.51-58.75,77.16H34.24v49.32h2.25l4.36,51.86L.59,209.81l9.46,48.4,235.32-46.25-6.82-35.73-3.34-21.22-.12-5.07h-31.06"/>
          <line class="cls-2" x1="238.05" y1="67.44" x2="260.98" y2="88.77"/>
          <line class="cls-2" x1="243.87" y1="115.88" x2="213.88" y2="103.2"/>
          <line class="cls-2" x1="275.28" y1="76.79" x2="257.41" y2="51.58"/>
          <line class="cls-2" x1="206.22" y1="125.59" x2="238.8" y2="131.99"/>
        </g>
      </g>
    </g>
  </g>
</svg>