<?xml version="1.0" encoding="UTF-8"?>
<svg id="_레이어_2" data-name="레이어 2" xmlns="http://www.w3.org/2000/svg" width="306.08" height="258.8" xmlns:xlink="http://www.w3.org/1999/xlink" viewBox="0 0 306.08 258.8">
  <defs>
    <style>
      .cls-1, .cls-2 {
        fill: none;
      }

      .cls-3 {
        clip-path: url(#clippath-17);
      }

      .cls-4 {
        clip-path: url(#clippath-19);
      }

      .cls-5 {
        clip-path: url(#clippath-11);
      }

      .cls-6 {
        clip-path: url(#clippath-16);
      }

      .cls-7 {
        clip-path: url(#clippath-18);
      }

      .cls-8 {
        clip-path: url(#clippath-10);
      }

      .cls-9 {
        clip-path: url(#clippath-15);
      }

      .cls-10 {
        clip-path: url(#clippath-13);
      }

      .cls-11 {
        clip-path: url(#clippath-14);
      }

      .cls-12 {
        clip-path: url(#clippath-12);
      }

      .cls-13 {
        clip-path: url(#clippath-31);
      }

      .cls-14 {
        clip-path: url(#clippath-32);
      }

      .cls-15 {
        clip-path: url(#clippath-33);
      }

      .cls-16 {
        clip-path: url(#clippath-34);
      }

      .cls-17 {
        clip-path: url(#clippath-35);
      }

      .cls-18 {
        clip-path: url(#clippath-30);
      }

      .cls-19 {
        clip-path: url(#clippath-36);
      }

      .cls-20 {
        clip-path: url(#clippath-27);
      }

      .cls-21 {
        clip-path: url(#clippath-29);
      }

      .cls-22 {
        clip-path: url(#clippath-26);
      }

      .cls-23 {
        clip-path: url(#clippath-28);
      }

      .cls-24 {
        clip-path: url(#clippath-20);
      }

      .cls-25 {
        clip-path: url(#clippath-21);
      }

      .cls-26 {
        clip-path: url(#clippath-22);
      }

      .cls-27 {
        clip-path: url(#clippath-23);
      }

      .cls-28 {
        clip-path: url(#clippath-24);
      }

      .cls-29 {
        clip-path: url(#clippath-25);
      }

      .cls-30 {
        clip-path: url(#clippath-1);
      }

      .cls-31 {
        clip-path: url(#clippath-3);
      }

      .cls-32 {
        clip-path: url(#clippath-4);
      }

      .cls-33 {
        clip-path: url(#clippath-2);
      }

      .cls-34 {
        clip-path: url(#clippath-7);
      }

      .cls-35 {
        clip-path: url(#clippath-6);
      }

      .cls-36 {
        clip-path: url(#clippath-9);
      }

      .cls-37 {
        clip-path: url(#clippath-8);
      }

      .cls-38 {
        clip-path: url(#clippath-5);
      }

      .cls-39, .cls-40 {
        fill: #fff;
      }

      .cls-40, .cls-2 {
        stroke: #a0a0a0;
        stroke-miterlimit: 10;
      }

      .cls-41 {
        fill: #e6dafd;
      }

      .cls-42 {
        clip-path: url(#clippath);
      }

      .cls-43 {
        fill: #fdb4f4;
      }
    </style>
    <clipPath id="clippath">
      <polygon class="cls-1" points="84.92 243.48 10.61 258.21 .59 209.59 74.77 194.24 84.92 243.48"/>
    </clipPath>
    <clipPath id="clippath-1">
      <rect class="cls-1" x="-4.07" y="113.97" width="37.06" height="37.11"/>
    </clipPath>
    <clipPath id="clippath-2">
      <rect class="cls-1" x="32.98" y="113.94" width="37.06" height="37.11"/>
    </clipPath>
    <clipPath id="clippath-3">
      <rect class="cls-1" x="70.04" y="113.97" width="37.06" height="37.11"/>
    </clipPath>
    <clipPath id="clippath-4">
      <rect class="cls-1" x="107.01" y="113.94" width="37.06" height="37.11"/>
    </clipPath>
    <clipPath id="clippath-5">
      <rect class="cls-1" x="144.07" y="113.94" width="37.06" height="37.11"/>
    </clipPath>
    <clipPath id="clippath-6">
      <rect class="cls-1" x="181.12" y="113.94" width="37.06" height="37.11"/>
    </clipPath>
    <clipPath id="clippath-7">
      <rect class="cls-1" x="218.17" y="113.94" width="37.06" height="37.11"/>
    </clipPath>
    <clipPath id="clippath-8">
      <rect class="cls-1" x="255.23" y="113.94" width="37.06" height="37.11"/>
    </clipPath>
    <clipPath id="clippath-9">
      <rect class="cls-1" x="292.28" y="113.94" width="37.06" height="37.11"/>
    </clipPath>
    <clipPath id="clippath-10">
      <rect class="cls-1" x="-4.07" y="151.12" width="37.06" height="37.11"/>
    </clipPath>
    <clipPath id="clippath-11">
      <rect class="cls-1" x="32.98" y="151.09" width="37.06" height="37.11"/>
    </clipPath>
    <clipPath id="clippath-12">
      <rect class="cls-1" x="70.04" y="151.12" width="37.06" height="37.11"/>
    </clipPath>
    <clipPath id="clippath-13">
      <rect class="cls-1" x="107.01" y="151.09" width="37.06" height="37.11"/>
    </clipPath>
    <clipPath id="clippath-14">
      <rect class="cls-1" x="144.07" y="151.09" width="37.06" height="37.11"/>
    </clipPath>
    <clipPath id="clippath-15">
      <rect class="cls-1" x="181.12" y="151.09" width="37.06" height="37.11"/>
    </clipPath>
    <clipPath id="clippath-16">
      <rect class="cls-1" x="218.17" y="151.09" width="37.06" height="37.11"/>
    </clipPath>
    <clipPath id="clippath-17">
      <rect class="cls-1" x="255.23" y="151.09" width="37.06" height="37.11"/>
    </clipPath>
    <clipPath id="clippath-18">
      <rect class="cls-1" x="292.28" y="151.09" width="37.06" height="37.11"/>
    </clipPath>
    <clipPath id="clippath-19">
      <rect class="cls-1" x="-4.07" y="188.27" width="37.06" height="37.11"/>
    </clipPath>
    <clipPath id="clippath-20">
      <rect class="cls-1" x="32.98" y="188.24" width="37.06" height="37.11"/>
    </clipPath>
    <clipPath id="clippath-21">
      <rect class="cls-1" x="70.04" y="188.27" width="37.06" height="37.11"/>
    </clipPath>
    <clipPath id="clippath-22">
      <rect class="cls-1" x="107.01" y="188.24" width="37.06" height="37.11"/>
    </clipPath>
    <clipPath id="clippath-23">
      <rect class="cls-1" x="144.07" y="188.24" width="37.06" height="37.11"/>
    </clipPath>
    <clipPath id="clippath-24">
      <rect class="cls-1" x="181.12" y="188.24" width="37.06" height="37.11"/>
    </clipPath>
    <clipPath id="clippath-25">
      <rect class="cls-1" x="218.17" y="188.24" width="37.06" height="37.11"/>
    </clipPath>
    <clipPath id="clippath-26">
      <rect class="cls-1" x="255.23" y="188.24" width="37.06" height="37.11"/>
    </clipPath>
    <clipPath id="clippath-27">
      <rect class="cls-1" x="292.28" y="188.24" width="37.06" height="37.11"/>
    </clipPath>
    <clipPath id="clippath-28">
      <rect class="cls-1" x="-4.07" y="225.42" width="37.06" height="37.11"/>
    </clipPath>
    <clipPath id="clippath-29">
      <rect class="cls-1" x="32.98" y="225.39" width="37.06" height="37.11"/>
    </clipPath>
    <clipPath id="clippath-30">
      <rect class="cls-1" x="70.04" y="225.42" width="37.06" height="37.11"/>
    </clipPath>
    <clipPath id="clippath-31">
      <rect class="cls-1" x="107.01" y="225.39" width="37.06" height="37.11"/>
    </clipPath>
    <clipPath id="clippath-32">
      <rect class="cls-1" x="144.07" y="225.39" width="37.06" height="37.11"/>
    </clipPath>
    <clipPath id="clippath-33">
      <rect class="cls-1" x="181.12" y="225.39" width="37.06" height="37.11"/>
    </clipPath>
    <clipPath id="clippath-34">
      <rect class="cls-1" x="218.17" y="225.39" width="37.06" height="37.11"/>
    </clipPath>
    <clipPath id="clippath-35">
      <rect class="cls-1" x="255.23" y="225.39" width="37.06" height="37.11"/>
    </clipPath>
    <clipPath id="clippath-36">
      <rect class="cls-1" x="292.28" y="225.39" width="37.06" height="37.11"/>
    </clipPath>
  </defs>
  <g id="_레이어_1-2" data-name="레이어 1">
    <g>
      <rect class="cls-39" x="0" width="305.92" height="258.74"/>
      <g>
        <g class="cls-42">
          <g>
            <g>
              <g>
                <rect class="cls-41" x="-4.07" y="113.97" width="37.05" height="37.05"/>
                <g class="cls-30">
                  <path class="cls-43" d="M25.57,113.97h3.71l-3.71,37.05h-3.71l3.71-37.05ZM14.46,151.02h3.71l3.71-37.05h-3.71l-3.71,37.05ZM7.05,151.02h3.71l3.71-37.05h-3.71l-3.71,37.05ZM-.36,151.02h3.71l3.71-37.05h-3.71L-.36,151.02ZM29.28,151.02h3.71l3.71-37.05h-3.71l-3.71,37.05ZM-7.77,151.02h3.71L-.36,113.97h-3.71l-3.71,37.05Z"/>
                </g>
              </g>
              <g>
                <rect class="cls-41" x="32.99" y="113.94" width="37.05" height="37.05"/>
                <g class="cls-33">
                  <path class="cls-43" d="M62.63,113.94h3.71l-3.71,37.05h-3.71l3.71-37.05ZM51.51,150.99h3.71l3.71-37.05h-3.71l-3.71,37.05ZM44.1,150.99h3.71l3.71-37.05h-3.71l-3.71,37.05ZM36.69,150.99h3.71l3.71-37.05h-3.71l-3.71,37.05ZM66.33,150.99h3.71l3.71-37.05h-3.71l-3.71,37.05ZM29.28,150.99h3.71l3.71-37.05h-3.71l-3.71,37.05Z"/>
                </g>
              </g>
              <g>
                <rect class="cls-41" x="70.04" y="113.97" width="37.05" height="37.05"/>
                <g class="cls-31">
                  <path class="cls-43" d="M99.68,113.97h3.71l-3.71,37.05h-3.71l3.71-37.05ZM88.57,151.02h3.71l3.71-37.05h-3.71l-3.71,37.05ZM81.16,151.02h3.71l3.71-37.05h-3.71l-3.71,37.05ZM73.75,151.02h3.71l3.71-37.05h-3.71l-3.71,37.05ZM103.39,151.02h3.71l3.71-37.05h-3.71l-3.71,37.05ZM66.34,151.02h3.71l3.71-37.05h-3.71l-3.71,37.05Z"/>
                </g>
              </g>
              <g>
                <rect class="cls-41" x="107.01" y="113.94" width="37.05" height="37.05"/>
                <g class="cls-32">
                  <path class="cls-43" d="M136.65,113.94h3.71l-3.71,37.05h-3.71l3.71-37.05ZM125.54,150.99h3.71l3.71-37.05h-3.71l-3.71,37.05ZM118.13,150.99h3.71l3.71-37.05h-3.71l-3.71,37.05ZM110.72,150.99h3.71l3.71-37.05h-3.71l-3.71,37.05ZM140.36,150.99h3.71l3.71-37.05h-3.71l-3.71,37.05ZM103.31,150.99h3.71l3.71-37.05h-3.71l-3.71,37.05Z"/>
                </g>
              </g>
              <g>
                <rect class="cls-41" x="144.07" y="113.94" width="37.05" height="37.05"/>
                <g class="cls-38">
                  <path class="cls-43" d="M173.71,113.94h3.71l-3.71,37.05h-3.71l3.71-37.05ZM162.59,150.99h3.71l3.71-37.05h-3.71l-3.71,37.05ZM155.18,150.99h3.71l3.71-37.05h-3.71l-3.71,37.05ZM147.77,150.99h3.71l3.71-37.05h-3.71l-3.71,37.05ZM177.41,150.99h3.71l3.71-37.05h-3.71l-3.71,37.05ZM140.36,150.99h3.71l3.71-37.05h-3.71l-3.71,37.05Z"/>
                </g>
              </g>
              <g>
                <rect class="cls-41" x="181.12" y="113.94" width="37.05" height="37.05"/>
                <g class="cls-35">
                  <path class="cls-43" d="M210.76,113.94h3.71l-3.71,37.05h-3.71l3.71-37.05ZM199.65,150.99h3.71l3.71-37.05h-3.71l-3.71,37.05ZM192.24,150.99h3.71l3.71-37.05h-3.71l-3.71,37.05ZM184.83,150.99h3.71l3.71-37.05h-3.71l-3.71,37.05ZM214.47,150.99h3.71l3.71-37.05h-3.71l-3.71,37.05ZM177.42,150.99h3.71l3.71-37.05h-3.71l-3.71,37.05Z"/>
                </g>
              </g>
              <g>
                <rect class="cls-41" x="218.18" y="113.94" width="37.05" height="37.05"/>
                <g class="cls-34">
                  <path class="cls-43" d="M247.82,113.94h3.71l-3.71,37.05h-3.71l3.71-37.05ZM236.7,150.99h3.71l3.71-37.05h-3.71l-3.71,37.05ZM229.29,150.99h3.71l3.71-37.05h-3.71l-3.71,37.05ZM221.88,150.99h3.71l3.71-37.05h-3.71l-3.71,37.05ZM251.52,150.99h3.71l3.71-37.05h-3.71l-3.71,37.05ZM214.47,150.99h3.71l3.71-37.05h-3.71l-3.71,37.05Z"/>
                </g>
              </g>
              <g>
                <rect class="cls-41" x="255.23" y="113.94" width="37.05" height="37.05"/>
                <g class="cls-37">
                  <path class="cls-43" d="M284.87,113.94h3.71l-3.71,37.05h-3.71l3.71-37.05ZM273.76,150.99h3.71l3.71-37.05h-3.71l-3.71,37.05ZM266.35,150.99h3.71l3.71-37.05h-3.71l-3.71,37.05ZM258.94,150.99h3.71l3.71-37.05h-3.71l-3.71,37.05ZM288.58,150.99h3.71l3.71-37.05h-3.71l-3.71,37.05ZM251.53,150.99h3.71l3.71-37.05h-3.71l-3.71,37.05Z"/>
                </g>
              </g>
              <g>
                <rect class="cls-41" x="292.29" y="113.94" width="37.05" height="37.05"/>
                <g class="cls-36">
                  <path class="cls-43" d="M321.93,113.94h3.71l-3.71,37.05h-3.71l3.71-37.05ZM310.81,150.99h3.71l3.71-37.05h-3.71l-3.71,37.05ZM303.4,150.99h3.71l3.71-37.05h-3.71l-3.71,37.05ZM295.99,150.99h3.71l3.71-37.05h-3.71l-3.71,37.05ZM325.63,150.99h3.71l3.71-37.05h-3.71l-3.71,37.05ZM288.58,150.99h3.71l3.71-37.05h-3.71l-3.71,37.05Z"/>
                </g>
              </g>
            </g>
            <g>
              <g>
                <rect class="cls-41" x="-4.07" y="151.12" width="37.05" height="37.05"/>
                <g class="cls-8">
                  <path class="cls-43" d="M25.57,151.12h3.71l-3.71,37.05h-3.71l3.71-37.05ZM14.46,188.17h3.71l3.71-37.05h-3.71l-3.71,37.05ZM7.05,188.17h3.71l3.71-37.05h-3.71l-3.71,37.05ZM-.36,188.17h3.71l3.71-37.05h-3.71L-.36,188.17ZM29.28,188.17h3.71l3.71-37.05h-3.71l-3.71,37.05ZM-7.77,188.17h3.71L-.36,151.12h-3.71l-3.71,37.05Z"/>
                </g>
              </g>
              <g>
                <rect class="cls-41" x="32.99" y="151.09" width="37.05" height="37.05"/>
                <g class="cls-5">
                  <path class="cls-43" d="M62.63,151.09h3.71l-3.71,37.05h-3.71l3.71-37.05ZM51.51,188.14h3.71l3.71-37.05h-3.71l-3.71,37.05ZM44.1,188.14h3.71l3.71-37.05h-3.71l-3.71,37.05ZM36.69,188.14h3.71l3.71-37.05h-3.71l-3.71,37.05ZM66.33,188.14h3.71l3.71-37.05h-3.71l-3.71,37.05ZM29.28,188.14h3.71l3.71-37.05h-3.71l-3.71,37.05Z"/>
                </g>
              </g>
              <g>
                <rect class="cls-41" x="70.04" y="151.12" width="37.05" height="37.05"/>
                <g class="cls-12">
                  <path class="cls-43" d="M99.68,151.12h3.71l-3.71,37.05h-3.71l3.71-37.05ZM88.57,188.17h3.71l3.71-37.05h-3.71l-3.71,37.05ZM81.16,188.17h3.71l3.71-37.05h-3.71l-3.71,37.05ZM73.75,188.17h3.71l3.71-37.05h-3.71l-3.71,37.05ZM103.39,188.17h3.71l3.71-37.05h-3.71l-3.71,37.05ZM66.34,188.17h3.71l3.71-37.05h-3.71l-3.71,37.05Z"/>
                </g>
              </g>
              <g>
                <rect class="cls-41" x="107.01" y="151.09" width="37.05" height="37.05"/>
                <g class="cls-10">
                  <path class="cls-43" d="M136.65,151.09h3.71l-3.71,37.05h-3.71l3.71-37.05ZM125.54,188.14h3.71l3.71-37.05h-3.71l-3.71,37.05ZM118.13,188.14h3.71l3.71-37.05h-3.71l-3.71,37.05ZM110.72,188.14h3.71l3.71-37.05h-3.71l-3.71,37.05ZM140.36,188.14h3.71l3.71-37.05h-3.71l-3.71,37.05ZM103.31,188.14h3.71l3.71-37.05h-3.71l-3.71,37.05Z"/>
                </g>
              </g>
              <g>
                <rect class="cls-41" x="144.07" y="151.09" width="37.05" height="37.05"/>
                <g class="cls-11">
                  <path class="cls-43" d="M173.71,151.09h3.71l-3.71,37.05h-3.71l3.71-37.05ZM162.59,188.14h3.71l3.71-37.05h-3.71l-3.71,37.05ZM155.18,188.14h3.71l3.71-37.05h-3.71l-3.71,37.05ZM147.77,188.14h3.71l3.71-37.05h-3.71l-3.71,37.05ZM177.41,188.14h3.71l3.71-37.05h-3.71l-3.71,37.05ZM140.36,188.14h3.71l3.71-37.05h-3.71l-3.71,37.05Z"/>
                </g>
              </g>
              <g>
                <rect class="cls-41" x="181.12" y="151.09" width="37.05" height="37.05"/>
                <g class="cls-9">
                  <path class="cls-43" d="M210.76,151.09h3.71l-3.71,37.05h-3.71l3.71-37.05ZM199.65,188.14h3.71l3.71-37.05h-3.71l-3.71,37.05ZM192.24,188.14h3.71l3.71-37.05h-3.71l-3.71,37.05ZM184.83,188.14h3.71l3.71-37.05h-3.71l-3.71,37.05ZM214.47,188.14h3.71l3.71-37.05h-3.71l-3.71,37.05ZM177.42,188.14h3.71l3.71-37.05h-3.71l-3.71,37.05Z"/>
                </g>
              </g>
              <g>
                <rect class="cls-41" x="218.18" y="151.09" width="37.05" height="37.05"/>
                <g class="cls-6">
                  <path class="cls-43" d="M247.82,151.09h3.71l-3.71,37.05h-3.71l3.71-37.05ZM236.7,188.14h3.71l3.71-37.05h-3.71l-3.71,37.05ZM229.29,188.14h3.71l3.71-37.05h-3.71l-3.71,37.05ZM221.88,188.14h3.71l3.71-37.05h-3.71l-3.71,37.05ZM251.52,188.14h3.71l3.71-37.05h-3.71l-3.71,37.05ZM214.47,188.14h3.71l3.71-37.05h-3.71l-3.71,37.05Z"/>
                </g>
              </g>
              <g>
                <rect class="cls-41" x="255.23" y="151.09" width="37.05" height="37.05"/>
                <g class="cls-3">
                  <path class="cls-43" d="M284.87,151.09h3.71l-3.71,37.05h-3.71l3.71-37.05ZM273.76,188.14h3.71l3.71-37.05h-3.71l-3.71,37.05ZM266.35,188.14h3.71l3.71-37.05h-3.71l-3.71,37.05ZM258.94,188.14h3.71l3.71-37.05h-3.71l-3.71,37.05ZM288.58,188.14h3.71l3.71-37.05h-3.71l-3.71,37.05ZM251.53,188.14h3.71l3.71-37.05h-3.71l-3.71,37.05Z"/>
                </g>
              </g>
              <g>
                <rect class="cls-41" x="292.29" y="151.09" width="37.05" height="37.05"/>
                <g class="cls-7">
                  <path class="cls-43" d="M321.93,151.09h3.71l-3.71,37.05h-3.71l3.71-37.05ZM310.81,188.14h3.71l3.71-37.05h-3.71l-3.71,37.05ZM303.4,188.14h3.71l3.71-37.05h-3.71l-3.71,37.05ZM295.99,188.14h3.71l3.71-37.05h-3.71l-3.71,37.05ZM325.63,188.14h3.71l3.71-37.05h-3.71l-3.71,37.05ZM288.58,188.14h3.71l3.71-37.05h-3.71l-3.71,37.05Z"/>
                </g>
              </g>
            </g>
            <g>
              <g>
                <rect class="cls-41" x="-4.07" y="188.27" width="37.05" height="37.05"/>
                <g class="cls-4">
                  <path class="cls-43" d="M25.57,188.27h3.71l-3.71,37.05h-3.71l3.71-37.05ZM14.46,225.32h3.71l3.71-37.05h-3.71l-3.71,37.05ZM7.05,225.32h3.71l3.71-37.05h-3.71l-3.71,37.05ZM-.36,225.32h3.71l3.71-37.05h-3.71L-.36,225.32ZM29.28,225.32h3.71l3.71-37.05h-3.71l-3.71,37.05ZM-7.77,225.32h3.71L-.36,188.27h-3.71l-3.71,37.05Z"/>
                </g>
              </g>
              <g>
                <rect class="cls-41" x="32.99" y="188.24" width="37.05" height="37.05"/>
                <g class="cls-24">
                  <path class="cls-43" d="M62.63,188.24h3.71l-3.71,37.05h-3.71l3.71-37.05ZM51.51,225.29h3.71l3.71-37.05h-3.71l-3.71,37.05ZM44.1,225.29h3.71l3.71-37.05h-3.71l-3.71,37.05ZM36.69,225.29h3.71l3.71-37.05h-3.71l-3.71,37.05ZM66.33,225.29h3.71l3.71-37.05h-3.71l-3.71,37.05ZM29.28,225.29h3.71l3.71-37.05h-3.71l-3.71,37.05Z"/>
                </g>
              </g>
              <g>
                <rect class="cls-41" x="70.04" y="188.27" width="37.05" height="37.05"/>
                <g class="cls-25">
                  <path class="cls-43" d="M99.68,188.27h3.71l-3.71,37.05h-3.71l3.71-37.05ZM88.57,225.32h3.71l3.71-37.05h-3.71l-3.71,37.05ZM81.16,225.32h3.71l3.71-37.05h-3.71l-3.71,37.05ZM73.75,225.32h3.71l3.71-37.05h-3.71l-3.71,37.05ZM103.39,225.32h3.71l3.71-37.05h-3.71l-3.71,37.05ZM66.34,225.32h3.71l3.71-37.05h-3.71l-3.71,37.05Z"/>
                </g>
              </g>
              <g>
                <rect class="cls-41" x="107.01" y="188.24" width="37.05" height="37.05"/>
                <g class="cls-26">
                  <path class="cls-43" d="M136.65,188.24h3.71l-3.71,37.05h-3.71l3.71-37.05ZM125.54,225.29h3.71l3.71-37.05h-3.71l-3.71,37.05ZM118.13,225.29h3.71l3.71-37.05h-3.71l-3.71,37.05ZM110.72,225.29h3.71l3.71-37.05h-3.71l-3.71,37.05ZM140.36,225.29h3.71l3.71-37.05h-3.71l-3.71,37.05ZM103.31,225.29h3.71l3.71-37.05h-3.71l-3.71,37.05Z"/>
                </g>
              </g>
              <g>
                <rect class="cls-41" x="144.07" y="188.24" width="37.05" height="37.05"/>
                <g class="cls-27">
                  <path class="cls-43" d="M173.71,188.24h3.71l-3.71,37.05h-3.71l3.71-37.05ZM162.59,225.29h3.71l3.71-37.05h-3.71l-3.71,37.05ZM155.18,225.29h3.71l3.71-37.05h-3.71l-3.71,37.05ZM147.77,225.29h3.71l3.71-37.05h-3.71l-3.71,37.05ZM177.41,225.29h3.71l3.71-37.05h-3.71l-3.71,37.05ZM140.36,225.29h3.71l3.71-37.05h-3.71l-3.71,37.05Z"/>
                </g>
              </g>
              <g>
                <rect class="cls-41" x="181.12" y="188.24" width="37.05" height="37.05"/>
                <g class="cls-28">
                  <path class="cls-43" d="M210.76,188.24h3.71l-3.71,37.05h-3.71l3.71-37.05ZM199.65,225.29h3.71l3.71-37.05h-3.71l-3.71,37.05ZM192.24,225.29h3.71l3.71-37.05h-3.71l-3.71,37.05ZM184.83,225.29h3.71l3.71-37.05h-3.71l-3.71,37.05ZM214.47,225.29h3.71l3.71-37.05h-3.71l-3.71,37.05ZM177.42,225.29h3.71l3.71-37.05h-3.71l-3.71,37.05Z"/>
                </g>
              </g>
              <g>
                <rect class="cls-41" x="218.18" y="188.24" width="37.05" height="37.05"/>
                <g class="cls-29">
                  <path class="cls-43" d="M247.82,188.24h3.71l-3.71,37.05h-3.71l3.71-37.05ZM236.7,225.29h3.71l3.71-37.05h-3.71l-3.71,37.05ZM229.29,225.29h3.71l3.71-37.05h-3.71l-3.71,37.05ZM221.88,225.29h3.71l3.71-37.05h-3.71l-3.71,37.05ZM251.52,225.29h3.71l3.71-37.05h-3.71l-3.71,37.05ZM214.47,225.29h3.71l3.71-37.05h-3.71l-3.71,37.05Z"/>
                </g>
              </g>
              <g>
                <rect class="cls-41" x="255.23" y="188.24" width="37.05" height="37.05"/>
                <g class="cls-22">
                  <path class="cls-43" d="M284.87,188.24h3.71l-3.71,37.05h-3.71l3.71-37.05ZM273.76,225.29h3.71l3.71-37.05h-3.71l-3.71,37.05ZM266.35,225.29h3.71l3.71-37.05h-3.71l-3.71,37.05ZM258.94,225.29h3.71l3.71-37.05h-3.71l-3.71,37.05ZM288.58,225.29h3.71l3.71-37.05h-3.71l-3.71,37.05ZM251.53,225.29h3.71l3.71-37.05h-3.71l-3.71,37.05Z"/>
                </g>
              </g>
              <g>
                <rect class="cls-41" x="292.29" y="188.24" width="37.05" height="37.05"/>
                <g class="cls-20">
                  <path class="cls-43" d="M321.93,188.24h3.71l-3.71,37.05h-3.71l3.71-37.05ZM310.81,225.29h3.71l3.71-37.05h-3.71l-3.71,37.05ZM303.4,225.29h3.71l3.71-37.05h-3.71l-3.71,37.05ZM295.99,225.29h3.71l3.71-37.05h-3.71l-3.71,37.05ZM325.63,225.29h3.71l3.71-37.05h-3.71l-3.71,37.05ZM288.58,225.29h3.71l3.71-37.05h-3.71l-3.71,37.05Z"/>
                </g>
              </g>
            </g>
            <g>
              <g>
                <rect class="cls-41" x="-4.07" y="225.42" width="37.05" height="37.05"/>
                <g class="cls-23">
                  <path class="cls-43" d="M25.57,225.42h3.71l-3.71,37.05h-3.71l3.71-37.05ZM14.46,262.47h3.71l3.71-37.05h-3.71l-3.71,37.05ZM7.05,262.47h3.71l3.71-37.05h-3.71l-3.71,37.05ZM-.36,262.47h3.71l3.71-37.05h-3.71l-3.71,37.05ZM29.28,262.47h3.71l3.71-37.05h-3.71l-3.71,37.05ZM-7.77,262.47h3.71L-.36,225.42h-3.71l-3.71,37.05Z"/>
                </g>
              </g>
              <g>
                <rect class="cls-41" x="32.99" y="225.38" width="37.05" height="37.05"/>
                <g class="cls-21">
                  <path class="cls-43" d="M62.63,225.38h3.71l-3.71,37.05h-3.71l3.71-37.05ZM51.51,262.43h3.71l3.71-37.05h-3.71l-3.71,37.05ZM44.1,262.43h3.71l3.71-37.05h-3.71l-3.71,37.05ZM36.69,262.43h3.71l3.71-37.05h-3.71l-3.71,37.05ZM66.33,262.43h3.71l3.71-37.05h-3.71l-3.71,37.05ZM29.28,262.43h3.71l3.71-37.05h-3.71l-3.71,37.05Z"/>
                </g>
              </g>
              <g>
                <rect class="cls-41" x="70.04" y="225.42" width="37.05" height="37.05"/>
                <g class="cls-18">
                  <path class="cls-43" d="M99.68,225.42h3.71l-3.71,37.05h-3.71l3.71-37.05ZM88.57,262.47h3.71l3.71-37.05h-3.71l-3.71,37.05ZM81.16,262.47h3.71l3.71-37.05h-3.71l-3.71,37.05ZM73.75,262.47h3.71l3.71-37.05h-3.71l-3.71,37.05ZM103.39,262.47h3.71l3.71-37.05h-3.71l-3.71,37.05ZM66.34,262.47h3.71l3.71-37.05h-3.71l-3.71,37.05Z"/>
                </g>
              </g>
              <g>
                <rect class="cls-41" x="107.01" y="225.38" width="37.05" height="37.05"/>
                <g class="cls-13">
                  <path class="cls-43" d="M136.65,225.38h3.71l-3.71,37.05h-3.71l3.71-37.05ZM125.54,262.43h3.71l3.71-37.05h-3.71l-3.71,37.05ZM118.13,262.43h3.71l3.71-37.05h-3.71l-3.71,37.05ZM110.72,262.43h3.71l3.71-37.05h-3.71l-3.71,37.05ZM140.36,262.43h3.71l3.71-37.05h-3.71l-3.71,37.05ZM103.31,262.43h3.71l3.71-37.05h-3.71l-3.71,37.05Z"/>
                </g>
              </g>
              <g>
                <rect class="cls-41" x="144.07" y="225.38" width="37.05" height="37.05"/>
                <g class="cls-14">
                  <path class="cls-43" d="M173.71,225.38h3.71l-3.71,37.05h-3.71l3.71-37.05ZM162.59,262.43h3.71l3.71-37.05h-3.71l-3.71,37.05ZM155.18,262.43h3.71l3.71-37.05h-3.71l-3.71,37.05ZM147.77,262.43h3.71l3.71-37.05h-3.71l-3.71,37.05ZM177.41,262.43h3.71l3.71-37.05h-3.71l-3.71,37.05ZM140.36,262.43h3.71l3.71-37.05h-3.71l-3.71,37.05Z"/>
                </g>
              </g>
              <g>
                <rect class="cls-41" x="181.12" y="225.38" width="37.05" height="37.05"/>
                <g class="cls-15">
                  <path class="cls-43" d="M210.76,225.38h3.71l-3.71,37.05h-3.71l3.71-37.05ZM199.65,262.43h3.71l3.71-37.05h-3.71l-3.71,37.05ZM192.24,262.43h3.71l3.71-37.05h-3.71l-3.71,37.05ZM184.83,262.43h3.71l3.71-37.05h-3.71l-3.71,37.05ZM214.47,262.43h3.71l3.71-37.05h-3.71l-3.71,37.05ZM177.42,262.43h3.71l3.71-37.05h-3.71l-3.71,37.05Z"/>
                </g>
              </g>
              <g>
                <rect class="cls-41" x="218.18" y="225.38" width="37.05" height="37.05"/>
                <g class="cls-16">
                  <path class="cls-43" d="M247.82,225.38h3.71l-3.71,37.05h-3.71l3.71-37.05ZM236.7,262.43h3.71l3.71-37.05h-3.71l-3.71,37.05ZM229.29,262.43h3.71l3.71-37.05h-3.71l-3.71,37.05ZM221.88,262.43h3.71l3.71-37.05h-3.71l-3.71,37.05ZM251.52,262.43h3.71l3.71-37.05h-3.71l-3.71,37.05ZM214.47,262.43h3.71l3.71-37.05h-3.71l-3.71,37.05Z"/>
                </g>
              </g>
              <g>
                <rect class="cls-41" x="255.23" y="225.38" width="37.05" height="37.05"/>
                <g class="cls-17">
                  <path class="cls-43" d="M284.87,225.38h3.71l-3.71,37.05h-3.71l3.71-37.05ZM273.76,262.43h3.71l3.71-37.05h-3.71l-3.71,37.05ZM266.35,262.43h3.71l3.71-37.05h-3.71l-3.71,37.05ZM258.94,262.43h3.71l3.71-37.05h-3.71l-3.71,37.05ZM288.58,262.43h3.71l3.71-37.05h-3.71l-3.71,37.05ZM251.53,262.43h3.71l3.71-37.05h-3.71l-3.71,37.05Z"/>
                </g>
              </g>
              <g>
                <rect class="cls-41" x="292.29" y="225.38" width="37.05" height="37.05"/>
                <g class="cls-19">
                  <path class="cls-43" d="M321.93,225.38h3.71l-3.71,37.05h-3.71l3.71-37.05ZM310.81,262.43h3.71l3.71-37.05h-3.71l-3.71,37.05ZM303.4,262.43h3.71l3.71-37.05h-3.71l-3.71,37.05ZM295.99,262.43h3.71l3.71-37.05h-3.71l-3.71,37.05ZM325.63,262.43h3.71l3.71-37.05h-3.71l-3.71,37.05ZM288.58,262.43h3.71l3.71-37.05h-3.71l-3.71,37.05Z"/>
                </g>
              </g>
            </g>
          </g>
        </g>
        <g>
          <g>
            <line class="cls-2" x1="120.1" y1="148.19" x2="164.99" y2="148.19"/>
            <line class="cls-2" x1="164.99" y1="150.54" x2="120.1" y2="150.54"/>
          </g>
          <polyline class="cls-2" points="36.57 151.18 87.97 151.18 87.97 149.9 87.97 148.28 81.06 148.28 81.06 139.87"/>
          <rect class="cls-2" x="132" y="148.19" width="3.31" height="2.3"/>
          <rect class="cls-2" x="151.71" y="148.19" width="3.31" height="2.3"/>
          <polyline class="cls-2" points="185.77 150.89 185.77 148.19 186.74 148.19 191 148.19"/>
          <polyline class="cls-2" points="180.78 150.89 180.78 148.19 170.79 148.19 170.79 158.47 115.99 158.47 115.99 151.18"/>
          <polyline class="cls-2" points="119.22 186.55 192.78 171.62 193.26 171.52 191 150.74"/>
          <line class="cls-2" x1="199.75" y1="100.72" x2="179" y2="100.72"/>
          <line class="cls-2" x1="195.52" y1="66.89" x2="199.56" y2="69.24"/>
          <line class="cls-2" x1="215.43" y1="105.66" x2="215.43" y2="138.35"/>
          <line class="cls-2" x1="215.43" y1="142.51" x2="215.43" y2="149.94"/>
          <line class="cls-2" x1="227.62" y1="105.66" x2="227.62" y2="138.35"/>
          <line class="cls-2" x1="227.62" y1="142.51" x2="227.62" y2="149.94"/>
          <path class="cls-2" d="M200.7,59.03l13.87,4.75.17-.27c3.85-5.9,16.57-17.11,18.75-19.01l6.68,8.05,4.79-3.57"/>
          <line class="cls-40" x1="215.74" y1="217.88" x2="214.79" y2="213.04"/>
          <line class="cls-40" x1="226.07" y1="215.75" x2="225.44" y2="212.49"/>
          <line class="cls-2" x1="201.86" y1="196.11" x2="189.97" y2="198.52"/>
          <polyline class="cls-2" points="192.48 211.35 204.78 208.9 203.41 201.88"/>
          <polyline class="cls-2" points="201.27 190.99 200.17 185.08 187.87 187.53 189.97 198.52 192.48 211.35 192.48 211.35 194.55 222.06 206.85 219.61 205.7 213.58"/>
          <polyline class="cls-40" points="207.02 166.98 206.85 169.8 210.1 186.91"/>
          <line class="cls-40" x1="221.44" y1="169.41" x2="207.42" y2="172.16"/>
          <line class="cls-40" x1="225.79" y1="176.14" x2="208.76" y2="179.56"/>
          <polyline class="cls-2" points="238.86 173.58 225.42 176.21 223.95 168.71"/>
          <line class="cls-40" x1="219.81" y1="183.21" x2="218.7" y2="177.53"/>
          <polyline class="cls-2" points="227.62 149.86 205.97 149.86 205.97 163.06"/>
          <line class="cls-40" x1="205.97" y1="158.61" x2="236.4" y2="158.47"/>
          <polyline class="cls-40" points="158.65 193.24 165.36 227.77 166.17 227.61"/>
          <line class="cls-40" x1="182.36" y1="188.36" x2="158.65" y2="193.24"/>
          <polyline class="cls-2" points="151.8 194.66 119.55 201.31 119.21 199.57 102.43 202.88"/>
          <polyline class="cls-2" points="125.38 235.61 126.19 235.45 119.55 201.31"/>
          <polyline class="cls-2" points="123.86 223.56 101.58 227.92 97.06 203.86 90.92 205.07"/>
          <polyline class="cls-2" points="84.04 206.56 77.41 207.93 83.45 236.51"/>
          <path class="cls-2" d="M98.55,139.87h15.72v-39.14M114.21,114.37l-69.04-.12v25.62h53.83v8.86h-6.9v2.46h13.06v-2.46h-6.16"/>
          <polyline class="cls-2" points="114.27 139.87 117 139.87 117 100.72"/>
          <g>
            <line class="cls-40" x1="116.35" y1="185.94" x2="115.99" y2="158.47"/>
            <line class="cls-40" x1="116.16" y1="185.94" x2="113.01" y2="151.22"/>
          </g>
          <polyline class="cls-40" points="75.02 196.33 49.75 201.54 49.21 198.72 118.91 185.08 119.41 187.46 91.98 192.78"/>
          <rect class="cls-2" x="111.8" y="148.19" width="4.82" height="3"/>
          <line class="cls-40" x1="286.09" y1="63.04" x2="275.86" y2="37.98"/>
          <path class="cls-2" d="M231.1,70.13c-4.33,5-9.19,10.53-11.75,17.28"/>
          <polyline class="cls-2" points="244.07 94.11 241.83 92.58 239.62 95.94 220.7 84.26"/>
          <path class="cls-2" d="M253.91,83.43l-18.52-18.45c4.74-4.62,9.52-8.16,9.56-8.19"/>
          <polyline class="cls-2" points="192.37 163.06 195.82 162.74 194.09 157.95 194.09 150.33"/>
          <polygon class="cls-2" points="194.09 150.38 191 150.38 191 149.54 191 148.19 194.09 148.19 194.09 150.38"/>
          <path class="cls-2" d="M227.62,149.94h8.11l.12,5.07,3.35,21.22,6.84,35.73L10.07,258.21.59,209.81l40.38-7.91-4.38-51.86h-2.25v-49.32h144.73c10.79-31.65,30.95-57.83,58.91-77.16l13.34,19.37c18.97-13.75,36.46-18.5,45.63-20.41l8.54,42.12c-5.9,1.22-16.56,5.02-16.56,5.02l-2.91-6.76s-32.97,10.93-49.36,42.77h-21.99v-2.57l2.24-9.03h1.52v9.69s15.62,0,15.62,0v-5.81s2.43-3.94,2.43-3.94"/>
          <g>
            <g>
              <rect class="cls-2" x="124.24" y="150.54" width="2.67" height="7.93"/>
              <rect class="cls-2" x="126.85" y="150.54" width="2.67" height="7.93"/>
              <rect class="cls-2" x="129.45" y="150.54" width="2.67" height="7.93"/>
              <rect class="cls-2" x="132.05" y="150.54" width="2.67" height="7.93"/>
              <rect class="cls-2" x="134.66" y="150.54" width="2.67" height="7.93"/>
              <rect class="cls-2" x="137.25" y="150.54" width="2.67" height="7.93"/>
            </g>
            <g>
              <rect class="cls-2" x="147.45" y="150.54" width="2.67" height="7.93"/>
              <rect class="cls-2" x="150.05" y="150.54" width="2.67" height="7.93"/>
              <rect class="cls-2" x="152.65" y="150.54" width="2.67" height="7.93"/>
              <rect class="cls-2" x="155.26" y="150.54" width="2.67" height="7.93"/>
              <rect class="cls-2" x="157.86" y="150.54" width="2.67" height="7.93"/>
              <rect class="cls-2" x="160.45" y="150.54" width="2.67" height="7.93"/>
            </g>
          </g>
          <polyline class="cls-2" points="242.53 193.64 223.19 197.35 221.84 190.45 221.81 190.45 221.81 190.45 211 192.57 211.13 193.24 211.15 193.24 212.63 200.79"/>
          <polyline class="cls-2" points="212.97 202.54 213.57 205.6 213.54 205.61 213.68 206.28 213.7 206.28 213.7 206.28 214.38 206.15 214.37 206.14 224.49 204.16 224.47 204.01 224.49 204 223.19 197.35"/>
          <g>
            <rect class="cls-2" x="200.59" y="69.72" width="2.67" height="7.93" transform="translate(36.78 211.27) rotate(-59.85)"/>
            <rect class="cls-2" x="201.89" y="67.47" width="2.67" height="7.93" transform="translate(39.37 211.28) rotate(-59.85)"/>
            <rect class="cls-2" x="203.2" y="65.22" width="2.67" height="7.93" transform="translate(41.97 211.29) rotate(-59.85)"/>
            <rect class="cls-2" x="204.51" y="62.97" width="2.67" height="7.93" transform="translate(44.57 211.3) rotate(-59.85)"/>
            <rect class="cls-2" x="205.82" y="60.72" width="2.67" height="7.93" transform="translate(47.17 211.32) rotate(-59.85)"/>
            <polygon class="cls-2" points="212.56 63.28 211.21 65.59 204.35 61.61 204.99 60.5 212.56 63.28"/>
          </g>
        </g>
      </g>
    </g>
  </g>
</svg>