<?xml version="1.0" encoding="UTF-8"?>
<svg id="_레이어_2" data-name="레이어 2" xmlns="http://www.w3.org/2000/svg" width="306.08" height="258.8" xmlns:xlink="http://www.w3.org/1999/xlink" viewBox="0 0 306.08 258.8">
  <defs>
    <style>
      .cls-1, .cls-2 {
        fill: none;
      }

      .cls-3 {
        clip-path: url(#clippath-17);
      }

      .cls-4 {
        clip-path: url(#clippath-19);
      }

      .cls-5 {
        clip-path: url(#clippath-11);
      }

      .cls-6 {
        clip-path: url(#clippath-16);
      }

      .cls-7 {
        clip-path: url(#clippath-18);
      }

      .cls-8 {
        clip-path: url(#clippath-10);
      }

      .cls-9 {
        clip-path: url(#clippath-15);
      }

      .cls-10 {
        clip-path: url(#clippath-13);
      }

      .cls-11 {
        clip-path: url(#clippath-14);
      }

      .cls-12 {
        clip-path: url(#clippath-12);
      }

      .cls-13 {
        clip-path: url(#clippath-31);
      }

      .cls-14 {
        clip-path: url(#clippath-32);
      }

      .cls-15 {
        clip-path: url(#clippath-33);
      }

      .cls-16 {
        clip-path: url(#clippath-34);
      }

      .cls-17 {
        clip-path: url(#clippath-35);
      }

      .cls-18 {
        clip-path: url(#clippath-39);
      }

      .cls-19 {
        clip-path: url(#clippath-30);
      }

      .cls-20 {
        clip-path: url(#clippath-36);
      }

      .cls-21 {
        clip-path: url(#clippath-37);
      }

      .cls-22 {
        clip-path: url(#clippath-38);
      }

      .cls-23 {
        clip-path: url(#clippath-27);
      }

      .cls-24 {
        clip-path: url(#clippath-29);
      }

      .cls-25 {
        clip-path: url(#clippath-26);
      }

      .cls-26 {
        clip-path: url(#clippath-28);
      }

      .cls-27 {
        clip-path: url(#clippath-20);
      }

      .cls-28 {
        clip-path: url(#clippath-21);
      }

      .cls-29 {
        clip-path: url(#clippath-22);
      }

      .cls-30 {
        clip-path: url(#clippath-23);
      }

      .cls-31 {
        clip-path: url(#clippath-24);
      }

      .cls-32 {
        clip-path: url(#clippath-25);
      }

      .cls-33 {
        clip-path: url(#clippath-41);
      }

      .cls-34 {
        clip-path: url(#clippath-42);
      }

      .cls-35 {
        clip-path: url(#clippath-43);
      }

      .cls-36 {
        clip-path: url(#clippath-44);
      }

      .cls-37 {
        clip-path: url(#clippath-45);
      }

      .cls-38 {
        clip-path: url(#clippath-40);
      }

      .cls-39 {
        clip-path: url(#clippath-1);
      }

      .cls-40 {
        clip-path: url(#clippath-3);
      }

      .cls-41 {
        clip-path: url(#clippath-4);
      }

      .cls-42 {
        clip-path: url(#clippath-2);
      }

      .cls-43 {
        clip-path: url(#clippath-7);
      }

      .cls-44 {
        clip-path: url(#clippath-6);
      }

      .cls-45 {
        clip-path: url(#clippath-9);
      }

      .cls-46 {
        clip-path: url(#clippath-8);
      }

      .cls-47 {
        clip-path: url(#clippath-5);
      }

      .cls-48, .cls-49 {
        fill: #fff;
      }

      .cls-49, .cls-2 {
        stroke: #a0a0a0;
        stroke-miterlimit: 10;
      }

      .cls-50 {
        fill: #e6dafd;
      }

      .cls-51 {
        clip-path: url(#clippath);
      }

      .cls-52 {
        fill: #fdb4f4;
      }
    </style>
    <clipPath id="clippath">
      <polygon class="cls-1" points="36.57 151.18 113.01 151.22 115.64 185.33 40.78 199.76 36.57 151.18"/>
    </clipPath>
    <clipPath id="clippath-1">
      <rect class="cls-1" x="-5.94" y="61.67" width="37.06" height="37.11"/>
    </clipPath>
    <clipPath id="clippath-2">
      <rect class="cls-1" x="31.12" y="61.64" width="37.06" height="37.11"/>
    </clipPath>
    <clipPath id="clippath-3">
      <rect class="cls-1" x="68.17" y="61.67" width="37.06" height="37.11"/>
    </clipPath>
    <clipPath id="clippath-4">
      <rect class="cls-1" x="105.23" y="61.64" width="37.06" height="37.11"/>
    </clipPath>
    <clipPath id="clippath-5">
      <rect class="cls-1" x="142.28" y="61.67" width="37.06" height="37.11"/>
    </clipPath>
    <clipPath id="clippath-6">
      <rect class="cls-1" x="179.25" y="61.64" width="37.06" height="37.11"/>
    </clipPath>
    <clipPath id="clippath-7">
      <rect class="cls-1" x="216.31" y="61.64" width="37.06" height="37.11"/>
    </clipPath>
    <clipPath id="clippath-8">
      <rect class="cls-1" x="253.36" y="61.64" width="37.06" height="37.11"/>
    </clipPath>
    <clipPath id="clippath-9">
      <rect class="cls-1" x="290.42" y="61.64" width="37.06" height="37.11"/>
    </clipPath>
    <clipPath id="clippath-10">
      <rect class="cls-1" x="-5.94" y="98.82" width="37.06" height="37.11"/>
    </clipPath>
    <clipPath id="clippath-11">
      <rect class="cls-1" x="31.12" y="98.79" width="37.06" height="37.11"/>
    </clipPath>
    <clipPath id="clippath-12">
      <rect class="cls-1" x="68.17" y="98.82" width="37.06" height="37.11"/>
    </clipPath>
    <clipPath id="clippath-13">
      <rect class="cls-1" x="105.23" y="98.79" width="37.06" height="37.11"/>
    </clipPath>
    <clipPath id="clippath-14">
      <rect class="cls-1" x="142.28" y="98.82" width="37.06" height="37.11"/>
    </clipPath>
    <clipPath id="clippath-15">
      <rect class="cls-1" x="179.25" y="98.79" width="37.06" height="37.11"/>
    </clipPath>
    <clipPath id="clippath-16">
      <rect class="cls-1" x="216.31" y="98.79" width="37.06" height="37.11"/>
    </clipPath>
    <clipPath id="clippath-17">
      <rect class="cls-1" x="253.36" y="98.79" width="37.06" height="37.11"/>
    </clipPath>
    <clipPath id="clippath-18">
      <rect class="cls-1" x="290.42" y="98.79" width="37.06" height="37.11"/>
    </clipPath>
    <clipPath id="clippath-19">
      <rect class="cls-1" x="-5.94" y="135.97" width="37.06" height="37.11"/>
    </clipPath>
    <clipPath id="clippath-20">
      <rect class="cls-1" x="31.12" y="135.93" width="37.06" height="37.11"/>
    </clipPath>
    <clipPath id="clippath-21">
      <rect class="cls-1" x="68.17" y="135.97" width="37.06" height="37.11"/>
    </clipPath>
    <clipPath id="clippath-22">
      <rect class="cls-1" x="105.23" y="135.93" width="37.06" height="37.11"/>
    </clipPath>
    <clipPath id="clippath-23">
      <rect class="cls-1" x="142.28" y="135.97" width="37.06" height="37.11"/>
    </clipPath>
    <clipPath id="clippath-24">
      <rect class="cls-1" x="179.25" y="135.93" width="37.06" height="37.11"/>
    </clipPath>
    <clipPath id="clippath-25">
      <rect class="cls-1" x="216.31" y="135.93" width="37.06" height="37.11"/>
    </clipPath>
    <clipPath id="clippath-26">
      <rect class="cls-1" x="253.36" y="135.93" width="37.06" height="37.11"/>
    </clipPath>
    <clipPath id="clippath-27">
      <rect class="cls-1" x="290.42" y="135.93" width="37.06" height="37.11"/>
    </clipPath>
    <clipPath id="clippath-28">
      <rect class="cls-1" x="-5.94" y="173.11" width="37.06" height="37.11"/>
    </clipPath>
    <clipPath id="clippath-29">
      <rect class="cls-1" x="31.12" y="173.08" width="37.06" height="37.11"/>
    </clipPath>
    <clipPath id="clippath-30">
      <rect class="cls-1" x="68.17" y="173.11" width="37.06" height="37.11"/>
    </clipPath>
    <clipPath id="clippath-31">
      <rect class="cls-1" x="105.23" y="173.08" width="37.06" height="37.11"/>
    </clipPath>
    <clipPath id="clippath-32">
      <rect class="cls-1" x="142.28" y="173.11" width="37.06" height="37.11"/>
    </clipPath>
    <clipPath id="clippath-33">
      <rect class="cls-1" x="179.25" y="173.08" width="37.06" height="37.11"/>
    </clipPath>
    <clipPath id="clippath-34">
      <rect class="cls-1" x="216.31" y="173.08" width="37.06" height="37.11"/>
    </clipPath>
    <clipPath id="clippath-35">
      <rect class="cls-1" x="253.36" y="173.08" width="37.06" height="37.11"/>
    </clipPath>
    <clipPath id="clippath-36">
      <rect class="cls-1" x="290.42" y="173.08" width="37.06" height="37.11"/>
    </clipPath>
    <clipPath id="clippath-37">
      <rect class="cls-1" x="-5.94" y="210.26" width="37.06" height="37.11"/>
    </clipPath>
    <clipPath id="clippath-38">
      <rect class="cls-1" x="31.12" y="210.23" width="37.06" height="37.11"/>
    </clipPath>
    <clipPath id="clippath-39">
      <rect class="cls-1" x="68.17" y="210.26" width="37.06" height="37.11"/>
    </clipPath>
    <clipPath id="clippath-40">
      <rect class="cls-1" x="105.23" y="210.23" width="37.06" height="37.11"/>
    </clipPath>
    <clipPath id="clippath-41">
      <rect class="cls-1" x="142.28" y="210.26" width="37.06" height="37.11"/>
    </clipPath>
    <clipPath id="clippath-42">
      <rect class="cls-1" x="179.25" y="210.23" width="37.06" height="37.11"/>
    </clipPath>
    <clipPath id="clippath-43">
      <rect class="cls-1" x="216.31" y="210.23" width="37.06" height="37.11"/>
    </clipPath>
    <clipPath id="clippath-44">
      <rect class="cls-1" x="253.36" y="210.23" width="37.06" height="37.11"/>
    </clipPath>
    <clipPath id="clippath-45">
      <rect class="cls-1" x="290.42" y="210.23" width="37.06" height="37.11"/>
    </clipPath>
  </defs>
  <g id="_레이어_1-2" data-name="레이어 1">
    <g>
      <rect class="cls-48" width="305.92" height="258.74"/>
      <g>
        <g class="cls-51">
          <g>
            <g>
              <g>
                <rect class="cls-50" x="-5.94" y="61.67" width="37.05" height="37.05"/>
                <g class="cls-39">
                  <path class="cls-52" d="M23.71,61.67h3.71l-3.71,37.05h-3.71l3.71-37.05ZM12.59,98.72h3.71l3.71-37.05h-3.71l-3.71,37.05ZM5.18,98.72h3.71l3.71-37.05h-3.71l-3.71,37.05ZM-2.23,98.72H1.47l3.71-37.05H1.47l-3.71,37.05ZM27.41,98.72h3.71l3.71-37.05h-3.71l-3.71,37.05ZM-9.64,98.72h3.71l3.71-37.05h-3.71l-3.71,37.05Z"/>
                </g>
              </g>
              <g>
                <rect class="cls-50" x="31.12" y="61.64" width="37.05" height="37.05"/>
                <g class="cls-42">
                  <path class="cls-52" d="M60.76,61.64h3.71l-3.71,37.05h-3.71l3.71-37.05ZM49.64,98.69h3.71l3.71-37.05h-3.71l-3.71,37.05ZM42.23,98.69h3.71l3.71-37.05h-3.71l-3.71,37.05ZM34.82,98.69h3.71l3.71-37.05h-3.71l-3.71,37.05ZM64.46,98.69h3.71l3.71-37.05h-3.71l-3.71,37.05ZM27.41,98.69h3.71l3.71-37.05h-3.71l-3.71,37.05Z"/>
                </g>
              </g>
              <g>
                <rect class="cls-50" x="68.18" y="61.67" width="37.05" height="37.05"/>
                <g class="cls-40">
                  <path class="cls-52" d="M97.82,61.67h3.71l-3.71,37.05h-3.71l3.71-37.05ZM86.7,98.72h3.71l3.71-37.05h-3.71l-3.71,37.05ZM79.29,98.72h3.71l3.71-37.05h-3.71l-3.71,37.05ZM71.88,98.72h3.71l3.71-37.05h-3.71l-3.71,37.05ZM101.52,98.72h3.71l3.71-37.05h-3.71l-3.71,37.05ZM64.47,98.72h3.71l3.71-37.05h-3.71l-3.71,37.05Z"/>
                </g>
              </g>
              <g>
                <rect class="cls-50" x="105.23" y="61.64" width="37.05" height="37.05"/>
                <g class="cls-41">
                  <path class="cls-52" d="M134.87,61.64h3.71l-3.71,37.05h-3.71l3.71-37.05ZM123.76,98.69h3.71l3.71-37.05h-3.71l-3.71,37.05ZM116.35,98.69h3.71l3.71-37.05h-3.71l-3.71,37.05ZM108.94,98.69h3.71l3.71-37.05h-3.71l-3.71,37.05ZM138.58,98.69h3.71l3.71-37.05h-3.71l-3.71,37.05ZM101.53,98.69h3.71l3.71-37.05h-3.71l-3.71,37.05Z"/>
                </g>
              </g>
              <g>
                <rect class="cls-50" x="142.29" y="61.67" width="37.05" height="37.05"/>
                <g class="cls-47">
                  <path class="cls-52" d="M171.93,61.67h3.71l-3.71,37.05h-3.71l3.71-37.05ZM160.81,98.72h3.71l3.71-37.05h-3.71l-3.71,37.05ZM153.4,98.72h3.71l3.71-37.05h-3.71l-3.71,37.05ZM145.99,98.72h3.71l3.71-37.05h-3.71l-3.71,37.05ZM175.63,98.72h3.71l3.71-37.05h-3.71l-3.71,37.05ZM138.58,98.72h3.71l3.71-37.05h-3.71l-3.71,37.05Z"/>
                </g>
              </g>
              <g>
                <rect class="cls-50" x="179.25" y="61.64" width="37.05" height="37.05"/>
                <g class="cls-44">
                  <path class="cls-52" d="M208.9,61.64h3.71l-3.71,37.05h-3.71l3.71-37.05ZM197.78,98.69h3.71l3.71-37.05h-3.71l-3.71,37.05ZM190.37,98.69h3.71l3.71-37.05h-3.71l-3.71,37.05ZM182.96,98.69h3.71l3.71-37.05h-3.71l-3.71,37.05ZM212.6,98.69h3.71l3.71-37.05h-3.71l-3.71,37.05ZM175.55,98.69h3.71l3.71-37.05h-3.71l-3.71,37.05Z"/>
                </g>
              </g>
              <g>
                <rect class="cls-50" x="216.31" y="61.64" width="37.05" height="37.05"/>
                <g class="cls-43">
                  <path class="cls-52" d="M245.95,61.64h3.71l-3.71,37.05h-3.71l3.71-37.05ZM234.84,98.69h3.71l3.71-37.05h-3.71l-3.71,37.05ZM227.43,98.69h3.71l3.71-37.05h-3.71l-3.71,37.05ZM220.02,98.69h3.71l3.71-37.05h-3.71l-3.71,37.05ZM249.66,98.69h3.71l3.71-37.05h-3.71l-3.71,37.05ZM212.61,98.69h3.71l3.71-37.05h-3.71l-3.71,37.05Z"/>
                </g>
              </g>
              <g>
                <rect class="cls-50" x="253.37" y="61.64" width="37.05" height="37.05"/>
                <g class="cls-46">
                  <path class="cls-52" d="M283.01,61.64h3.71l-3.71,37.05h-3.71l3.71-37.05ZM271.89,98.69h3.71l3.71-37.05h-3.71l-3.71,37.05ZM264.48,98.69h3.71l3.71-37.05h-3.71l-3.71,37.05ZM257.07,98.69h3.71l3.71-37.05h-3.71l-3.71,37.05ZM286.71,98.69h3.71l3.71-37.05h-3.71l-3.71,37.05ZM249.66,98.69h3.71l3.71-37.05h-3.71l-3.71,37.05Z"/>
                </g>
              </g>
              <g>
                <rect class="cls-50" x="290.42" y="61.64" width="37.05" height="37.05"/>
                <g class="cls-45">
                  <path class="cls-52" d="M320.06,61.64h3.71l-3.71,37.05h-3.71l3.71-37.05ZM308.95,98.69h3.71l3.71-37.05h-3.71l-3.71,37.05ZM301.54,98.69h3.71l3.71-37.05h-3.71l-3.71,37.05ZM294.13,98.69h3.71l3.71-37.05h-3.71l-3.71,37.05ZM323.77,98.69h3.71l3.71-37.05h-3.71l-3.71,37.05ZM286.72,98.69h3.71l3.71-37.05h-3.71l-3.71,37.05Z"/>
                </g>
              </g>
            </g>
            <g>
              <g>
                <rect class="cls-50" x="-5.94" y="98.82" width="37.05" height="37.05"/>
                <g class="cls-8">
                  <path class="cls-52" d="M23.71,98.82h3.71l-3.71,37.05h-3.71l3.71-37.05ZM12.59,135.87h3.71l3.71-37.05h-3.71l-3.71,37.05ZM5.18,135.87h3.71l3.71-37.05h-3.71l-3.71,37.05ZM-2.23,135.87H1.47l3.71-37.05H1.47l-3.71,37.05ZM27.41,135.87h3.71l3.71-37.05h-3.71l-3.71,37.05ZM-9.64,135.87h3.71l3.71-37.05h-3.71l-3.71,37.05Z"/>
                </g>
              </g>
              <g>
                <rect class="cls-50" x="31.12" y="98.78" width="37.05" height="37.05"/>
                <g class="cls-5">
                  <path class="cls-52" d="M60.76,98.78h3.71l-3.71,37.05h-3.71l3.71-37.05ZM49.64,135.83h3.71l3.71-37.05h-3.71l-3.71,37.05ZM42.23,135.83h3.71l3.71-37.05h-3.71l-3.71,37.05ZM34.82,135.83h3.71l3.71-37.05h-3.71l-3.71,37.05ZM64.46,135.83h3.71l3.71-37.05h-3.71l-3.71,37.05ZM27.41,135.83h3.71l3.71-37.05h-3.71l-3.71,37.05Z"/>
                </g>
              </g>
              <g>
                <rect class="cls-50" x="68.18" y="98.82" width="37.05" height="37.05"/>
                <g class="cls-12">
                  <path class="cls-52" d="M97.82,98.82h3.71l-3.71,37.05h-3.71l3.71-37.05ZM86.7,135.87h3.71l3.71-37.05h-3.71l-3.71,37.05ZM79.29,135.87h3.71l3.71-37.05h-3.71l-3.71,37.05ZM71.88,135.87h3.71l3.71-37.05h-3.71l-3.71,37.05ZM101.52,135.87h3.71l3.71-37.05h-3.71l-3.71,37.05ZM64.47,135.87h3.71l3.71-37.05h-3.71l-3.71,37.05Z"/>
                </g>
              </g>
              <g>
                <rect class="cls-50" x="105.23" y="98.78" width="37.05" height="37.05"/>
                <g class="cls-10">
                  <path class="cls-52" d="M134.87,98.78h3.71l-3.71,37.05h-3.71l3.71-37.05ZM123.76,135.83h3.71l3.71-37.05h-3.71l-3.71,37.05ZM116.35,135.83h3.71l3.71-37.05h-3.71l-3.71,37.05ZM108.94,135.83h3.71l3.71-37.05h-3.71l-3.71,37.05ZM138.58,135.83h3.71l3.71-37.05h-3.71l-3.71,37.05ZM101.53,135.83h3.71l3.71-37.05h-3.71l-3.71,37.05Z"/>
                </g>
              </g>
              <g>
                <rect class="cls-50" x="142.29" y="98.82" width="37.05" height="37.05"/>
                <g class="cls-11">
                  <path class="cls-52" d="M171.93,98.82h3.71l-3.71,37.05h-3.71l3.71-37.05ZM160.81,135.87h3.71l3.71-37.05h-3.71l-3.71,37.05ZM153.4,135.87h3.71l3.71-37.05h-3.71l-3.71,37.05ZM145.99,135.87h3.71l3.71-37.05h-3.71l-3.71,37.05ZM175.63,135.87h3.71l3.71-37.05h-3.71l-3.71,37.05ZM138.58,135.87h3.71l3.71-37.05h-3.71l-3.71,37.05Z"/>
                </g>
              </g>
              <g>
                <rect class="cls-50" x="179.25" y="98.78" width="37.05" height="37.05"/>
                <g class="cls-9">
                  <path class="cls-52" d="M208.9,98.78h3.71l-3.71,37.05h-3.71l3.71-37.05ZM197.78,135.83h3.71l3.71-37.05h-3.71l-3.71,37.05ZM190.37,135.83h3.71l3.71-37.05h-3.71l-3.71,37.05ZM182.96,135.83h3.71l3.71-37.05h-3.71l-3.71,37.05ZM212.6,135.83h3.71l3.71-37.05h-3.71l-3.71,37.05ZM175.55,135.83h3.71l3.71-37.05h-3.71l-3.71,37.05Z"/>
                </g>
              </g>
              <g>
                <rect class="cls-50" x="216.31" y="98.78" width="37.05" height="37.05"/>
                <g class="cls-6">
                  <path class="cls-52" d="M245.95,98.78h3.71l-3.71,37.05h-3.71l3.71-37.05ZM234.84,135.83h3.71l3.71-37.05h-3.71l-3.71,37.05ZM227.43,135.83h3.71l3.71-37.05h-3.71l-3.71,37.05ZM220.02,135.83h3.71l3.71-37.05h-3.71l-3.71,37.05ZM249.66,135.83h3.71l3.71-37.05h-3.71l-3.71,37.05ZM212.61,135.83h3.71l3.71-37.05h-3.71l-3.71,37.05Z"/>
                </g>
              </g>
              <g>
                <rect class="cls-50" x="253.37" y="98.78" width="37.05" height="37.05"/>
                <g class="cls-3">
                  <path class="cls-52" d="M283.01,98.78h3.71l-3.71,37.05h-3.71l3.71-37.05ZM271.89,135.83h3.71l3.71-37.05h-3.71l-3.71,37.05ZM264.48,135.83h3.71l3.71-37.05h-3.71l-3.71,37.05ZM257.07,135.83h3.71l3.71-37.05h-3.71l-3.71,37.05ZM286.71,135.83h3.71l3.71-37.05h-3.71l-3.71,37.05ZM249.66,135.83h3.71l3.71-37.05h-3.71l-3.71,37.05Z"/>
                </g>
              </g>
              <g>
                <rect class="cls-50" x="290.42" y="98.78" width="37.05" height="37.05"/>
                <g class="cls-7">
                  <path class="cls-52" d="M320.06,98.78h3.71l-3.71,37.05h-3.71l3.71-37.05ZM308.95,135.83h3.71l3.71-37.05h-3.71l-3.71,37.05ZM301.54,135.83h3.71l3.71-37.05h-3.71l-3.71,37.05ZM294.13,135.83h3.71l3.71-37.05h-3.71l-3.71,37.05ZM323.77,135.83h3.71l3.71-37.05h-3.71l-3.71,37.05ZM286.72,135.83h3.71l3.71-37.05h-3.71l-3.71,37.05Z"/>
                </g>
              </g>
            </g>
            <g>
              <g>
                <rect class="cls-50" x="-5.94" y="135.96" width="37.05" height="37.05"/>
                <g class="cls-4">
                  <path class="cls-52" d="M23.71,135.96h3.71l-3.71,37.05h-3.71l3.71-37.05ZM12.59,173.01h3.71l3.71-37.05h-3.71l-3.71,37.05ZM5.18,173.01h3.71l3.71-37.05h-3.71l-3.71,37.05ZM-2.23,173.01H1.47l3.71-37.05H1.47l-3.71,37.05ZM27.41,173.01h3.71l3.71-37.05h-3.71l-3.71,37.05ZM-9.64,173.01h3.71l3.71-37.05h-3.71l-3.71,37.05Z"/>
                </g>
              </g>
              <g>
                <rect class="cls-50" x="31.12" y="135.93" width="37.05" height="37.05"/>
                <g class="cls-27">
                  <path class="cls-52" d="M60.76,135.93h3.71l-3.71,37.05h-3.71l3.71-37.05ZM49.64,172.98h3.71l3.71-37.05h-3.71l-3.71,37.05ZM42.23,172.98h3.71l3.71-37.05h-3.71l-3.71,37.05ZM34.82,172.98h3.71l3.71-37.05h-3.71l-3.71,37.05ZM64.46,172.98h3.71l3.71-37.05h-3.71l-3.71,37.05ZM27.41,172.98h3.71l3.71-37.05h-3.71l-3.71,37.05Z"/>
                </g>
              </g>
              <g>
                <rect class="cls-50" x="68.18" y="135.96" width="37.05" height="37.05"/>
                <g class="cls-28">
                  <path class="cls-52" d="M97.82,135.96h3.71l-3.71,37.05h-3.71l3.71-37.05ZM86.7,173.01h3.71l3.71-37.05h-3.71l-3.71,37.05ZM79.29,173.01h3.71l3.71-37.05h-3.71l-3.71,37.05ZM71.88,173.01h3.71l3.71-37.05h-3.71l-3.71,37.05ZM101.52,173.01h3.71l3.71-37.05h-3.71l-3.71,37.05ZM64.47,173.01h3.71l3.71-37.05h-3.71l-3.71,37.05Z"/>
                </g>
              </g>
              <g>
                <rect class="cls-50" x="105.23" y="135.93" width="37.05" height="37.05"/>
                <g class="cls-29">
                  <path class="cls-52" d="M134.87,135.93h3.71l-3.71,37.05h-3.71l3.71-37.05ZM123.76,172.98h3.71l3.71-37.05h-3.71l-3.71,37.05ZM116.35,172.98h3.71l3.71-37.05h-3.71l-3.71,37.05ZM108.94,172.98h3.71l3.71-37.05h-3.71l-3.71,37.05ZM138.58,172.98h3.71l3.71-37.05h-3.71l-3.71,37.05ZM101.53,172.98h3.71l3.71-37.05h-3.71l-3.71,37.05Z"/>
                </g>
              </g>
              <g>
                <rect class="cls-50" x="142.29" y="135.96" width="37.05" height="37.05"/>
                <g class="cls-30">
                  <path class="cls-52" d="M171.93,135.96h3.71l-3.71,37.05h-3.71l3.71-37.05ZM160.81,173.01h3.71l3.71-37.05h-3.71l-3.71,37.05ZM153.4,173.01h3.71l3.71-37.05h-3.71l-3.71,37.05ZM145.99,173.01h3.71l3.71-37.05h-3.71l-3.71,37.05ZM175.63,173.01h3.71l3.71-37.05h-3.71l-3.71,37.05ZM138.58,173.01h3.71l3.71-37.05h-3.71l-3.71,37.05Z"/>
                </g>
              </g>
              <g>
                <rect class="cls-50" x="179.25" y="135.93" width="37.05" height="37.05"/>
                <g class="cls-31">
                  <path class="cls-52" d="M208.9,135.93h3.71l-3.71,37.05h-3.71l3.71-37.05ZM197.78,172.98h3.71l3.71-37.05h-3.71l-3.71,37.05ZM190.37,172.98h3.71l3.71-37.05h-3.71l-3.71,37.05ZM182.96,172.98h3.71l3.71-37.05h-3.71l-3.71,37.05ZM212.6,172.98h3.71l3.71-37.05h-3.71l-3.71,37.05ZM175.55,172.98h3.71l3.71-37.05h-3.71l-3.71,37.05Z"/>
                </g>
              </g>
              <g>
                <rect class="cls-50" x="216.31" y="135.93" width="37.05" height="37.05"/>
                <g class="cls-32">
                  <path class="cls-52" d="M245.95,135.93h3.71l-3.71,37.05h-3.71l3.71-37.05ZM234.84,172.98h3.71l3.71-37.05h-3.71l-3.71,37.05ZM227.43,172.98h3.71l3.71-37.05h-3.71l-3.71,37.05ZM220.02,172.98h3.71l3.71-37.05h-3.71l-3.71,37.05ZM249.66,172.98h3.71l3.71-37.05h-3.71l-3.71,37.05ZM212.61,172.98h3.71l3.71-37.05h-3.71l-3.71,37.05Z"/>
                </g>
              </g>
              <g>
                <rect class="cls-50" x="253.37" y="135.93" width="37.05" height="37.05"/>
                <g class="cls-25">
                  <path class="cls-52" d="M283.01,135.93h3.71l-3.71,37.05h-3.71l3.71-37.05ZM271.89,172.98h3.71l3.71-37.05h-3.71l-3.71,37.05ZM264.48,172.98h3.71l3.71-37.05h-3.71l-3.71,37.05ZM257.07,172.98h3.71l3.71-37.05h-3.71l-3.71,37.05ZM286.71,172.98h3.71l3.71-37.05h-3.71l-3.71,37.05ZM249.66,172.98h3.71l3.71-37.05h-3.71l-3.71,37.05Z"/>
                </g>
              </g>
              <g>
                <rect class="cls-50" x="290.42" y="135.93" width="37.05" height="37.05"/>
                <g class="cls-23">
                  <path class="cls-52" d="M320.06,135.93h3.71l-3.71,37.05h-3.71l3.71-37.05ZM308.95,172.98h3.71l3.71-37.05h-3.71l-3.71,37.05ZM301.54,172.98h3.71l3.71-37.05h-3.71l-3.71,37.05ZM294.13,172.98h3.71l3.71-37.05h-3.71l-3.71,37.05ZM323.77,172.98h3.71l3.71-37.05h-3.71l-3.71,37.05ZM286.72,172.98h3.71l3.71-37.05h-3.71l-3.71,37.05Z"/>
                </g>
              </g>
            </g>
            <g>
              <g>
                <rect class="cls-50" x="-5.94" y="173.11" width="37.05" height="37.05"/>
                <g class="cls-26">
                  <path class="cls-52" d="M23.71,173.11h3.71l-3.71,37.05h-3.71l3.71-37.05ZM12.59,210.16h3.71l3.71-37.05h-3.71l-3.71,37.05ZM5.18,210.16h3.71l3.71-37.05h-3.71l-3.71,37.05ZM-2.23,210.16H1.47l3.71-37.05H1.47l-3.71,37.05ZM27.41,210.16h3.71l3.71-37.05h-3.71l-3.71,37.05ZM-9.64,210.16h3.71l3.71-37.05h-3.71l-3.71,37.05Z"/>
                </g>
              </g>
              <g>
                <rect class="cls-50" x="31.12" y="173.08" width="37.05" height="37.05"/>
                <g class="cls-24">
                  <path class="cls-52" d="M60.76,173.08h3.71l-3.71,37.05h-3.71l3.71-37.05ZM49.64,210.13h3.71l3.71-37.05h-3.71l-3.71,37.05ZM42.23,210.13h3.71l3.71-37.05h-3.71l-3.71,37.05ZM34.82,210.13h3.71l3.71-37.05h-3.71l-3.71,37.05ZM64.46,210.13h3.71l3.71-37.05h-3.71l-3.71,37.05ZM27.41,210.13h3.71l3.71-37.05h-3.71l-3.71,37.05Z"/>
                </g>
              </g>
              <g>
                <rect class="cls-50" x="68.18" y="173.11" width="37.05" height="37.05"/>
                <g class="cls-19">
                  <path class="cls-52" d="M97.82,173.11h3.71l-3.71,37.05h-3.71l3.71-37.05ZM86.7,210.16h3.71l3.71-37.05h-3.71l-3.71,37.05ZM79.29,210.16h3.71l3.71-37.05h-3.71l-3.71,37.05ZM71.88,210.16h3.71l3.71-37.05h-3.71l-3.71,37.05ZM101.52,210.16h3.71l3.71-37.05h-3.71l-3.71,37.05ZM64.47,210.16h3.71l3.71-37.05h-3.71l-3.71,37.05Z"/>
                </g>
              </g>
              <g>
                <rect class="cls-50" x="105.23" y="173.08" width="37.05" height="37.05"/>
                <g class="cls-13">
                  <path class="cls-52" d="M134.87,173.08h3.71l-3.71,37.05h-3.71l3.71-37.05ZM123.76,210.13h3.71l3.71-37.05h-3.71l-3.71,37.05ZM116.35,210.13h3.71l3.71-37.05h-3.71l-3.71,37.05ZM108.94,210.13h3.71l3.71-37.05h-3.71l-3.71,37.05ZM138.58,210.13h3.71l3.71-37.05h-3.71l-3.71,37.05ZM101.53,210.13h3.71l3.71-37.05h-3.71l-3.71,37.05Z"/>
                </g>
              </g>
              <g>
                <rect class="cls-50" x="142.29" y="173.11" width="37.05" height="37.05"/>
                <g class="cls-14">
                  <path class="cls-52" d="M171.93,173.11h3.71l-3.71,37.05h-3.71l3.71-37.05ZM160.81,210.16h3.71l3.71-37.05h-3.71l-3.71,37.05ZM153.4,210.16h3.71l3.71-37.05h-3.71l-3.71,37.05ZM145.99,210.16h3.71l3.71-37.05h-3.71l-3.71,37.05ZM175.63,210.16h3.71l3.71-37.05h-3.71l-3.71,37.05ZM138.58,210.16h3.71l3.71-37.05h-3.71l-3.71,37.05Z"/>
                </g>
              </g>
              <g>
                <rect class="cls-50" x="179.25" y="173.08" width="37.05" height="37.05"/>
                <g class="cls-15">
                  <path class="cls-52" d="M208.9,173.08h3.71l-3.71,37.05h-3.71l3.71-37.05ZM197.78,210.13h3.71l3.71-37.05h-3.71l-3.71,37.05ZM190.37,210.13h3.71l3.71-37.05h-3.71l-3.71,37.05ZM182.96,210.13h3.71l3.71-37.05h-3.71l-3.71,37.05ZM212.6,210.13h3.71l3.71-37.05h-3.71l-3.71,37.05ZM175.55,210.13h3.71l3.71-37.05h-3.71l-3.71,37.05Z"/>
                </g>
              </g>
              <g>
                <rect class="cls-50" x="216.31" y="173.08" width="37.05" height="37.05"/>
                <g class="cls-16">
                  <path class="cls-52" d="M245.95,173.08h3.71l-3.71,37.05h-3.71l3.71-37.05ZM234.84,210.13h3.71l3.71-37.05h-3.71l-3.71,37.05ZM227.43,210.13h3.71l3.71-37.05h-3.71l-3.71,37.05ZM220.02,210.13h3.71l3.71-37.05h-3.71l-3.71,37.05ZM249.66,210.13h3.71l3.71-37.05h-3.71l-3.71,37.05ZM212.61,210.13h3.71l3.71-37.05h-3.71l-3.71,37.05Z"/>
                </g>
              </g>
              <g>
                <rect class="cls-50" x="253.37" y="173.08" width="37.05" height="37.05"/>
                <g class="cls-17">
                  <path class="cls-52" d="M283.01,173.08h3.71l-3.71,37.05h-3.71l3.71-37.05ZM271.89,210.13h3.71l3.71-37.05h-3.71l-3.71,37.05ZM264.48,210.13h3.71l3.71-37.05h-3.71l-3.71,37.05ZM257.07,210.13h3.71l3.71-37.05h-3.71l-3.71,37.05ZM286.71,210.13h3.71l3.71-37.05h-3.71l-3.71,37.05ZM249.66,210.13h3.71l3.71-37.05h-3.71l-3.71,37.05Z"/>
                </g>
              </g>
              <g>
                <rect class="cls-50" x="290.42" y="173.08" width="37.05" height="37.05"/>
                <g class="cls-20">
                  <path class="cls-52" d="M320.06,173.08h3.71l-3.71,37.05h-3.71l3.71-37.05ZM308.95,210.13h3.71l3.71-37.05h-3.71l-3.71,37.05ZM301.54,210.13h3.71l3.71-37.05h-3.71l-3.71,37.05ZM294.13,210.13h3.71l3.71-37.05h-3.71l-3.71,37.05ZM323.77,210.13h3.71l3.71-37.05h-3.71l-3.71,37.05ZM286.72,210.13h3.71l3.71-37.05h-3.71l-3.71,37.05Z"/>
                </g>
              </g>
            </g>
            <g>
              <g>
                <rect class="cls-50" x="-5.94" y="210.26" width="37.05" height="37.05"/>
                <g class="cls-21">
                  <path class="cls-52" d="M23.71,210.26h3.71l-3.71,37.05h-3.71l3.71-37.05ZM12.59,247.31h3.71l3.71-37.05h-3.71l-3.71,37.05ZM5.18,247.31h3.71l3.71-37.05h-3.71l-3.71,37.05ZM-2.23,247.31H1.47l3.71-37.05H1.47l-3.71,37.05ZM27.41,247.31h3.71l3.71-37.05h-3.71l-3.71,37.05ZM-9.64,247.31h3.71l3.71-37.05h-3.71l-3.71,37.05Z"/>
                </g>
              </g>
              <g>
                <rect class="cls-50" x="31.12" y="210.23" width="37.05" height="37.05"/>
                <g class="cls-22">
                  <path class="cls-52" d="M60.76,210.23h3.71l-3.71,37.05h-3.71l3.71-37.05ZM49.64,247.28h3.71l3.71-37.05h-3.71l-3.71,37.05ZM42.23,247.28h3.71l3.71-37.05h-3.71l-3.71,37.05ZM34.82,247.28h3.71l3.71-37.05h-3.71l-3.71,37.05ZM64.46,247.28h3.71l3.71-37.05h-3.71l-3.71,37.05ZM27.41,247.28h3.71l3.71-37.05h-3.71l-3.71,37.05Z"/>
                </g>
              </g>
              <g>
                <rect class="cls-50" x="68.18" y="210.26" width="37.05" height="37.05"/>
                <g class="cls-18">
                  <path class="cls-52" d="M97.82,210.26h3.71l-3.71,37.05h-3.71l3.71-37.05ZM86.7,247.31h3.71l3.71-37.05h-3.71l-3.71,37.05ZM79.29,247.31h3.71l3.71-37.05h-3.71l-3.71,37.05ZM71.88,247.31h3.71l3.71-37.05h-3.71l-3.71,37.05ZM101.52,247.31h3.71l3.71-37.05h-3.71l-3.71,37.05ZM64.47,247.31h3.71l3.71-37.05h-3.71l-3.71,37.05Z"/>
                </g>
              </g>
              <g>
                <rect class="cls-50" x="105.23" y="210.23" width="37.05" height="37.05"/>
                <g class="cls-38">
                  <path class="cls-52" d="M134.87,210.23h3.71l-3.71,37.05h-3.71l3.71-37.05ZM123.76,247.28h3.71l3.71-37.05h-3.71l-3.71,37.05ZM116.35,247.28h3.71l3.71-37.05h-3.71l-3.71,37.05ZM108.94,247.28h3.71l3.71-37.05h-3.71l-3.71,37.05ZM138.58,247.28h3.71l3.71-37.05h-3.71l-3.71,37.05ZM101.53,247.28h3.71l3.71-37.05h-3.71l-3.71,37.05Z"/>
                </g>
              </g>
              <g>
                <rect class="cls-50" x="142.29" y="210.26" width="37.05" height="37.05"/>
                <g class="cls-33">
                  <path class="cls-52" d="M171.93,210.26h3.71l-3.71,37.05h-3.71l3.71-37.05ZM160.81,247.31h3.71l3.71-37.05h-3.71l-3.71,37.05ZM153.4,247.31h3.71l3.71-37.05h-3.71l-3.71,37.05ZM145.99,247.31h3.71l3.71-37.05h-3.71l-3.71,37.05ZM175.63,247.31h3.71l3.71-37.05h-3.71l-3.71,37.05ZM138.58,247.31h3.71l3.71-37.05h-3.71l-3.71,37.05Z"/>
                </g>
              </g>
              <g>
                <rect class="cls-50" x="179.25" y="210.23" width="37.05" height="37.05"/>
                <g class="cls-34">
                  <path class="cls-52" d="M208.9,210.23h3.71l-3.71,37.05h-3.71l3.71-37.05ZM197.78,247.28h3.71l3.71-37.05h-3.71l-3.71,37.05ZM190.37,247.28h3.71l3.71-37.05h-3.71l-3.71,37.05ZM182.96,247.28h3.71l3.71-37.05h-3.71l-3.71,37.05ZM212.6,247.28h3.71l3.71-37.05h-3.71l-3.71,37.05ZM175.55,247.28h3.71l3.71-37.05h-3.71l-3.71,37.05Z"/>
                </g>
              </g>
              <g>
                <rect class="cls-50" x="216.31" y="210.23" width="37.05" height="37.05"/>
                <g class="cls-35">
                  <path class="cls-52" d="M245.95,210.23h3.71l-3.71,37.05h-3.71l3.71-37.05ZM234.84,247.28h3.71l3.71-37.05h-3.71l-3.71,37.05ZM227.43,247.28h3.71l3.71-37.05h-3.71l-3.71,37.05ZM220.02,247.28h3.71l3.71-37.05h-3.71l-3.71,37.05ZM249.66,247.28h3.71l3.71-37.05h-3.71l-3.71,37.05ZM212.61,247.28h3.71l3.71-37.05h-3.71l-3.71,37.05Z"/>
                </g>
              </g>
              <g>
                <rect class="cls-50" x="253.37" y="210.23" width="37.05" height="37.05"/>
                <g class="cls-36">
                  <path class="cls-52" d="M283.01,210.23h3.71l-3.71,37.05h-3.71l3.71-37.05ZM271.89,247.28h3.71l3.71-37.05h-3.71l-3.71,37.05ZM264.48,247.28h3.71l3.71-37.05h-3.71l-3.71,37.05ZM257.07,247.28h3.71l3.71-37.05h-3.71l-3.71,37.05ZM286.71,247.28h3.71l3.71-37.05h-3.71l-3.71,37.05ZM249.66,247.28h3.71l3.71-37.05h-3.71l-3.71,37.05Z"/>
                </g>
              </g>
              <g>
                <rect class="cls-50" x="290.42" y="210.23" width="37.05" height="37.05"/>
                <g class="cls-37">
                  <path class="cls-52" d="M320.06,210.23h3.71l-3.71,37.05h-3.71l3.71-37.05ZM308.95,247.28h3.71l3.71-37.05h-3.71l-3.71,37.05ZM301.54,247.28h3.71l3.71-37.05h-3.71l-3.71,37.05ZM294.13,247.28h3.71l3.71-37.05h-3.71l-3.71,37.05ZM323.77,247.28h3.71l3.71-37.05h-3.71l-3.71,37.05ZM286.72,247.28h3.71l3.71-37.05h-3.71l-3.71,37.05Z"/>
                </g>
              </g>
            </g>
          </g>
        </g>
        <g>
          <g>
            <line class="cls-2" x1="120.1" y1="148.19" x2="164.99" y2="148.19"/>
            <line class="cls-2" x1="164.99" y1="150.54" x2="120.1" y2="150.54"/>
          </g>
          <polyline class="cls-2" points="81.06 139.87 81.06 148.28 87.97 148.28 87.97 149.9 87.97 151.18 36.57 151.18"/>
          <rect class="cls-2" x="132" y="148.19" width="3.31" height="2.3"/>
          <rect class="cls-2" x="151.71" y="148.19" width="3.31" height="2.3"/>
          <polyline class="cls-2" points="185.77 150.89 185.77 148.19 186.74 148.19 191 148.19"/>
          <polyline class="cls-2" points="180.78 150.89 180.78 148.19 170.79 148.19 170.79 158.47 115.99 158.47 115.99 151.18"/>
          <polyline class="cls-2" points="119.22 186.55 192.78 171.62 193.26 171.52 191 150.74"/>
          <line class="cls-2" x1="199.75" y1="100.72" x2="179" y2="100.72"/>
          <line class="cls-2" x1="195.52" y1="66.89" x2="199.56" y2="69.24"/>
          <line class="cls-2" x1="215.43" y1="105.66" x2="215.43" y2="138.35"/>
          <line class="cls-2" x1="215.43" y1="142.51" x2="215.43" y2="149.94"/>
          <line class="cls-2" x1="227.62" y1="105.66" x2="227.62" y2="138.35"/>
          <line class="cls-2" x1="227.62" y1="142.51" x2="227.62" y2="149.94"/>
          <path class="cls-2" d="M200.7,59.03l13.87,4.75.17-.27c3.85-5.9,16.57-17.11,18.75-19.01l6.68,8.05,4.79-3.57"/>
          <line class="cls-49" x1="215.74" y1="217.88" x2="214.79" y2="213.04"/>
          <line class="cls-49" x1="226.07" y1="215.75" x2="225.44" y2="212.49"/>
          <line class="cls-2" x1="201.86" y1="196.11" x2="189.97" y2="198.52"/>
          <polyline class="cls-2" points="192.48 211.35 204.78 208.9 203.41 201.88"/>
          <polyline class="cls-2" points="201.27 190.99 200.17 185.08 187.87 187.53 189.97 198.52 192.48 211.35 192.48 211.35 194.55 222.06 206.85 219.61 205.7 213.58"/>
          <polyline class="cls-49" points="207.02 166.98 206.85 169.8 210.1 186.91"/>
          <line class="cls-49" x1="221.44" y1="169.41" x2="207.42" y2="172.16"/>
          <line class="cls-49" x1="225.79" y1="176.14" x2="208.76" y2="179.56"/>
          <polyline class="cls-2" points="238.86 173.58 225.42 176.21 223.95 168.71"/>
          <line class="cls-49" x1="219.81" y1="183.21" x2="218.7" y2="177.53"/>
          <polyline class="cls-2" points="227.62 149.86 205.97 149.86 205.97 163.06"/>
          <line class="cls-49" x1="205.97" y1="158.61" x2="236.4" y2="158.47"/>
          <polyline class="cls-49" points="158.65 193.24 165.36 227.77 166.17 227.61"/>
          <line class="cls-49" x1="182.36" y1="188.36" x2="158.65" y2="193.24"/>
          <polyline class="cls-2" points="151.8 194.66 119.55 201.31 119.21 199.57 102.43 202.88"/>
          <polyline class="cls-2" points="125.38 235.61 126.19 235.45 119.55 201.31"/>
          <polyline class="cls-2" points="123.86 223.56 101.58 227.92 97.06 203.86 90.92 205.07"/>
          <polyline class="cls-2" points="84.04 206.56 77.41 207.93 83.45 236.51"/>
          <path class="cls-2" d="M98.55,139.87h15.72v-39.14M114.21,114.37l-69.04-.12v25.62h53.83v8.86h-6.9v2.46h13.06v-2.46h-6.16"/>
          <polyline class="cls-2" points="114.27 139.87 117 139.87 117 100.72"/>
          <g>
            <line class="cls-49" x1="116.35" y1="185.94" x2="115.99" y2="158.47"/>
            <line class="cls-49" x1="116.16" y1="185.94" x2="113.01" y2="151.22"/>
          </g>
          <polyline class="cls-49" points="75.02 196.33 49.75 201.54 49.21 198.72 118.91 185.08 119.41 187.46 91.98 192.78"/>
          <rect class="cls-2" x="111.8" y="148.19" width="4.82" height="3"/>
          <line class="cls-49" x1="286.09" y1="63.04" x2="275.86" y2="37.98"/>
          <path class="cls-2" d="M231.1,70.13c-4.33,5-9.19,10.53-11.75,17.28"/>
          <polyline class="cls-2" points="244.07 94.11 241.83 92.58 239.62 95.94 220.7 84.26"/>
          <path class="cls-2" d="M253.91,83.43l-18.52-18.45c4.74-4.62,9.52-8.16,9.56-8.19"/>
          <polyline class="cls-2" points="192.37 163.06 195.82 162.74 194.09 157.95 194.09 150.33"/>
          <polygon class="cls-2" points="194.09 150.38 191 150.38 191 149.54 191 148.19 194.09 148.19 194.09 150.38"/>
          <path class="cls-2" d="M227.62,149.94h8.11l.12,5.07,3.35,21.22,6.84,35.73L10.07,258.21.59,209.81l40.38-7.91-4.38-51.86h-2.25v-49.32h144.73c10.79-31.65,30.95-57.83,58.91-77.16l13.34,19.37c18.97-13.75,36.46-18.5,45.63-20.41l8.54,42.12c-5.9,1.22-16.56,5.02-16.56,5.02l-2.91-6.76s-32.97,10.93-49.36,42.77h-21.99v-2.57l2.24-9.03h1.52v9.69s15.62,0,15.62,0v-5.81s2.43-3.94,2.43-3.94"/>
          <g>
            <g>
              <rect class="cls-2" x="124.24" y="150.54" width="2.67" height="7.93"/>
              <rect class="cls-2" x="126.85" y="150.54" width="2.67" height="7.93"/>
              <rect class="cls-2" x="129.45" y="150.54" width="2.67" height="7.93"/>
              <rect class="cls-2" x="132.05" y="150.54" width="2.67" height="7.93"/>
              <rect class="cls-2" x="134.66" y="150.54" width="2.67" height="7.93"/>
              <rect class="cls-2" x="137.25" y="150.54" width="2.67" height="7.93"/>
            </g>
            <g>
              <rect class="cls-2" x="147.45" y="150.54" width="2.67" height="7.93"/>
              <rect class="cls-2" x="150.05" y="150.54" width="2.67" height="7.93"/>
              <rect class="cls-2" x="152.65" y="150.54" width="2.67" height="7.93"/>
              <rect class="cls-2" x="155.26" y="150.54" width="2.67" height="7.93"/>
              <rect class="cls-2" x="157.86" y="150.54" width="2.67" height="7.93"/>
              <rect class="cls-2" x="160.45" y="150.54" width="2.67" height="7.93"/>
            </g>
          </g>
          <polyline class="cls-2" points="242.53 193.64 223.19 197.35 221.84 190.45 221.81 190.45 221.81 190.45 211 192.57 211.13 193.24 211.15 193.24 212.63 200.79"/>
          <polyline class="cls-2" points="212.97 202.54 213.57 205.6 213.54 205.61 213.68 206.28 213.7 206.28 213.7 206.28 214.38 206.15 214.37 206.14 224.49 204.16 224.47 204.01 224.49 204 223.19 197.35"/>
          <g>
            <rect class="cls-2" x="200.59" y="69.72" width="2.67" height="7.93" transform="translate(36.78 211.27) rotate(-59.85)"/>
            <rect class="cls-2" x="201.89" y="67.47" width="2.67" height="7.93" transform="translate(39.37 211.28) rotate(-59.85)"/>
            <rect class="cls-2" x="203.2" y="65.22" width="2.67" height="7.93" transform="translate(41.97 211.29) rotate(-59.85)"/>
            <rect class="cls-2" x="204.51" y="62.97" width="2.67" height="7.93" transform="translate(44.57 211.3) rotate(-59.85)"/>
            <rect class="cls-2" x="205.82" y="60.72" width="2.67" height="7.93" transform="translate(47.17 211.32) rotate(-59.85)"/>
            <polygon class="cls-2" points="212.56 63.28 211.21 65.59 204.35 61.61 204.99 60.5 212.56 63.28"/>
          </g>
        </g>
      </g>
    </g>
  </g>
</svg>