<?xml version="1.0" encoding="UTF-8"?>
<svg id="_레이어_2" data-name="레이어 2" xmlns="http://www.w3.org/2000/svg" width="305.98" height="258.8" xmlns:xlink="http://www.w3.org/1999/xlink" viewBox="0 0 305.98 258.8">
  <defs>
    <style>
      .cls-1, .cls-2, .cls-3 {
        fill: none;
      }

      .cls-4, .cls-5, .cls-6 {
        fill: #fff;
      }

      .cls-7 {
        fill: #c8f3fd;
      }

      .cls-5, .cls-6, .cls-2, .cls-3 {
        stroke: #a0a0a0;
      }

      .cls-5, .cls-3 {
        stroke-miterlimit: 10;
      }

      .cls-6, .cls-2 {
        stroke-linejoin: bevel;
      }

      .cls-8 {
        clip-path: url(#clippath);
      }

      .cls-9 {
        fill: #9fd6ff;
      }
    </style>
    <clipPath id="clippath">
      <rect class="cls-1" x="34.26" y="100.72" width="79.82" height="37.5"/>
    </clipPath>
  </defs>
  <g id="_레이어_1-2" data-name="레이어 1">
    <g>
      <rect class="cls-4" x="0" y="0" width="305.92" height="258.74"/>
      <g>
        <g class="cls-8">
          <g>
            <rect class="cls-7" x="6.41" y="84.56" width="135.52" height="81.31"/>
            <g>
              <rect class="cls-9" x="6.42" y="84.56" width="6.77" height="6.77"/>
              <rect class="cls-9" x="13.19" y="91.34" width="6.77" height="6.77"/>
              <rect class="cls-9" x="19.97" y="84.56" width="6.77" height="6.77"/>
              <rect class="cls-9" x="26.74" y="91.34" width="6.77" height="6.77"/>
              <rect class="cls-9" x="26.74" y="104.89" width="6.77" height="6.77"/>
              <rect class="cls-9" x="6.41" y="98.12" width="6.77" height="6.77"/>
              <rect class="cls-9" x="13.18" y="104.89" width="6.77" height="6.77"/>
              <rect class="cls-9" x="19.96" y="98.12" width="6.77" height="6.77"/>
            </g>
            <g>
              <rect class="cls-9" x="33.52" y="84.56" width="6.77" height="6.77"/>
              <rect class="cls-9" x="40.3" y="91.34" width="6.77" height="6.77"/>
              <rect class="cls-9" x="47.07" y="84.56" width="6.77" height="6.77"/>
              <rect class="cls-9" x="53.85" y="91.34" width="6.77" height="6.77"/>
              <rect class="cls-9" x="53.84" y="104.89" width="6.77" height="6.77"/>
              <rect class="cls-9" x="33.51" y="98.12" width="6.77" height="6.77"/>
              <rect class="cls-9" x="40.29" y="104.89" width="6.77" height="6.77"/>
              <rect class="cls-9" x="47.06" y="98.12" width="6.77" height="6.77"/>
            </g>
            <g>
              <rect class="cls-9" x="60.62" y="84.56" width="6.77" height="6.77"/>
              <rect class="cls-9" x="67.4" y="91.34" width="6.77" height="6.77"/>
              <rect class="cls-9" x="74.17" y="84.56" width="6.77" height="6.77"/>
              <rect class="cls-9" x="80.95" y="91.34" width="6.77" height="6.77"/>
              <rect class="cls-9" x="80.94" y="104.89" width="6.77" height="6.77"/>
              <rect class="cls-9" x="60.61" y="98.12" width="6.77" height="6.77"/>
              <rect class="cls-9" x="67.39" y="104.89" width="6.77" height="6.77"/>
              <rect class="cls-9" x="74.16" y="98.12" width="6.77" height="6.77"/>
            </g>
            <g>
              <rect class="cls-9" x="87.72" y="84.56" width="6.77" height="6.77"/>
              <rect class="cls-9" x="94.5" y="91.34" width="6.77" height="6.77"/>
              <rect class="cls-9" x="101.27" y="84.56" width="6.77" height="6.77"/>
              <rect class="cls-9" x="108.05" y="91.34" width="6.77" height="6.77"/>
              <rect class="cls-9" x="108.04" y="104.89" width="6.77" height="6.77"/>
              <rect class="cls-9" x="87.71" y="98.12" width="6.77" height="6.77"/>
              <rect class="cls-9" x="94.49" y="104.89" width="6.77" height="6.77"/>
              <rect class="cls-9" x="101.26" y="98.12" width="6.77" height="6.77"/>
            </g>
            <g>
              <rect class="cls-9" x="114.83" y="84.56" width="6.77" height="6.77"/>
              <rect class="cls-9" x="121.6" y="91.34" width="6.77" height="6.77"/>
              <rect class="cls-9" x="128.38" y="84.56" width="6.77" height="6.77"/>
              <rect class="cls-9" x="135.15" y="91.34" width="6.77" height="6.77"/>
              <rect class="cls-9" x="135.14" y="104.89" width="6.77" height="6.77"/>
              <rect class="cls-9" x="114.82" y="98.12" width="6.77" height="6.77"/>
              <rect class="cls-9" x="121.59" y="104.89" width="6.77" height="6.77"/>
              <rect class="cls-9" x="128.37" y="98.12" width="6.77" height="6.77"/>
            </g>
            <g>
              <rect class="cls-9" x="6.42" y="111.67" width="6.77" height="6.77"/>
              <rect class="cls-9" x="13.19" y="118.44" width="6.77" height="6.77"/>
              <rect class="cls-9" x="19.97" y="111.67" width="6.77" height="6.77"/>
              <rect class="cls-9" x="26.74" y="118.44" width="6.77" height="6.77"/>
              <rect class="cls-9" x="26.74" y="131.99" width="6.77" height="6.77"/>
              <rect class="cls-9" x="6.41" y="125.22" width="6.77" height="6.77"/>
              <rect class="cls-9" x="13.18" y="131.99" width="6.77" height="6.77"/>
              <rect class="cls-9" x="19.96" y="125.22" width="6.77" height="6.77"/>
            </g>
            <g>
              <rect class="cls-9" x="33.52" y="111.67" width="6.77" height="6.77"/>
              <rect class="cls-9" x="40.3" y="118.44" width="6.77" height="6.77"/>
              <rect class="cls-9" x="47.07" y="111.67" width="6.77" height="6.77"/>
              <rect class="cls-9" x="53.85" y="118.44" width="6.77" height="6.77"/>
              <rect class="cls-9" x="53.84" y="131.99" width="6.77" height="6.77"/>
              <rect class="cls-9" x="33.51" y="125.22" width="6.77" height="6.77"/>
              <rect class="cls-9" x="40.29" y="131.99" width="6.77" height="6.77"/>
              <rect class="cls-9" x="47.06" y="125.22" width="6.77" height="6.77"/>
            </g>
            <g>
              <rect class="cls-9" x="60.62" y="111.67" width="6.77" height="6.77"/>
              <rect class="cls-9" x="67.4" y="118.44" width="6.77" height="6.77"/>
              <rect class="cls-9" x="74.17" y="111.67" width="6.77" height="6.77"/>
              <rect class="cls-9" x="80.95" y="118.44" width="6.77" height="6.77"/>
              <rect class="cls-9" x="80.94" y="131.99" width="6.77" height="6.77"/>
              <rect class="cls-9" x="60.61" y="125.22" width="6.77" height="6.77"/>
              <rect class="cls-9" x="67.39" y="131.99" width="6.77" height="6.77"/>
              <rect class="cls-9" x="74.16" y="125.22" width="6.77" height="6.77"/>
            </g>
            <g>
              <rect class="cls-9" x="87.72" y="111.67" width="6.77" height="6.77"/>
              <rect class="cls-9" x="94.5" y="118.44" width="6.77" height="6.77"/>
              <rect class="cls-9" x="101.27" y="111.67" width="6.77" height="6.77"/>
              <rect class="cls-9" x="108.05" y="118.44" width="6.77" height="6.77"/>
              <rect class="cls-9" x="108.04" y="131.99" width="6.77" height="6.77"/>
              <rect class="cls-9" x="87.71" y="125.22" width="6.77" height="6.77"/>
              <rect class="cls-9" x="94.49" y="131.99" width="6.77" height="6.77"/>
              <rect class="cls-9" x="101.26" y="125.22" width="6.77" height="6.77"/>
            </g>
            <g>
              <rect class="cls-9" x="114.83" y="111.67" width="6.77" height="6.77"/>
              <rect class="cls-9" x="121.6" y="118.44" width="6.77" height="6.77"/>
              <rect class="cls-9" x="128.38" y="111.67" width="6.77" height="6.77"/>
              <rect class="cls-9" x="135.15" y="118.44" width="6.77" height="6.77"/>
              <rect class="cls-9" x="135.14" y="131.99" width="6.77" height="6.77"/>
              <rect class="cls-9" x="114.82" y="125.22" width="6.77" height="6.77"/>
              <rect class="cls-9" x="121.59" y="131.99" width="6.77" height="6.77"/>
              <rect class="cls-9" x="128.37" y="125.22" width="6.77" height="6.77"/>
            </g>
            <g>
              <rect class="cls-9" x="6.42" y="138.77" width="6.77" height="6.77"/>
              <rect class="cls-9" x="13.19" y="145.54" width="6.77" height="6.77"/>
              <rect class="cls-9" x="19.97" y="138.77" width="6.77" height="6.77"/>
              <rect class="cls-9" x="26.74" y="145.54" width="6.77" height="6.77"/>
              <rect class="cls-9" x="26.74" y="159.1" width="6.77" height="6.77"/>
              <rect class="cls-9" x="6.41" y="152.32" width="6.77" height="6.77"/>
              <rect class="cls-9" x="13.18" y="159.1" width="6.77" height="6.77"/>
              <rect class="cls-9" x="19.96" y="152.32" width="6.77" height="6.77"/>
            </g>
            <g>
              <rect class="cls-9" x="33.52" y="138.77" width="6.77" height="6.77"/>
              <rect class="cls-9" x="40.3" y="145.54" width="6.77" height="6.77"/>
              <rect class="cls-9" x="47.07" y="138.77" width="6.77" height="6.77"/>
              <rect class="cls-9" x="53.85" y="145.54" width="6.77" height="6.77"/>
              <rect class="cls-9" x="53.84" y="159.1" width="6.77" height="6.77"/>
              <rect class="cls-9" x="33.51" y="152.32" width="6.77" height="6.77"/>
              <rect class="cls-9" x="40.29" y="159.1" width="6.77" height="6.77"/>
              <rect class="cls-9" x="47.06" y="152.32" width="6.77" height="6.77"/>
            </g>
            <g>
              <rect class="cls-9" x="60.62" y="138.77" width="6.77" height="6.77"/>
              <rect class="cls-9" x="67.4" y="145.54" width="6.77" height="6.77"/>
              <rect class="cls-9" x="74.17" y="138.77" width="6.77" height="6.77"/>
              <rect class="cls-9" x="80.95" y="145.54" width="6.77" height="6.77"/>
              <rect class="cls-9" x="80.94" y="159.1" width="6.77" height="6.77"/>
              <rect class="cls-9" x="60.61" y="152.32" width="6.77" height="6.77"/>
              <rect class="cls-9" x="67.39" y="159.1" width="6.77" height="6.77"/>
              <rect class="cls-9" x="74.16" y="152.32" width="6.77" height="6.77"/>
            </g>
            <g>
              <rect class="cls-9" x="87.72" y="138.77" width="6.77" height="6.77"/>
              <rect class="cls-9" x="94.5" y="145.54" width="6.77" height="6.77"/>
              <rect class="cls-9" x="101.27" y="138.77" width="6.77" height="6.77"/>
              <rect class="cls-9" x="108.05" y="145.54" width="6.77" height="6.77"/>
              <rect class="cls-9" x="108.04" y="159.1" width="6.77" height="6.77"/>
              <rect class="cls-9" x="87.71" y="152.32" width="6.77" height="6.77"/>
              <rect class="cls-9" x="94.49" y="159.1" width="6.77" height="6.77"/>
              <rect class="cls-9" x="101.26" y="152.32" width="6.77" height="6.77"/>
            </g>
            <g>
              <rect class="cls-9" x="114.83" y="138.77" width="6.77" height="6.77"/>
              <rect class="cls-9" x="121.6" y="145.54" width="6.77" height="6.77"/>
              <rect class="cls-9" x="128.38" y="138.77" width="6.77" height="6.77"/>
              <rect class="cls-9" x="135.15" y="145.54" width="6.77" height="6.77"/>
              <rect class="cls-9" x="135.14" y="159.1" width="6.77" height="6.77"/>
              <rect class="cls-9" x="114.82" y="152.32" width="6.77" height="6.77"/>
              <rect class="cls-9" x="121.59" y="159.1" width="6.77" height="6.77"/>
              <rect class="cls-9" x="128.37" y="152.32" width="6.77" height="6.77"/>
            </g>
          </g>
        </g>
        <path class="cls-2" d="M305.49,64.68L292.44.49c-53.14,11.05-96.17,49.7-113.41,100.28H34.25v49.33h79.02l3.47,37.01L.49,209.89l9.49,48.41,236.04-46.27-6.84-35.74-3.35-21.23s-1.55-75.29,69.66-90.4Z"/>
        <line class="cls-6" x1="221.68" y1="81.71" x2="251.03" y2="101.05"/>
        <g>
          <polyline class="cls-3" points="163.25 150.64 124.19 150.64 124.19 148.29 170.74 148.29"/>
          <rect class="cls-3" x="136.45" y="148.29" width="3.16" height="2.3"/>
          <rect class="cls-3" x="155.24" y="148.29" width="3.16" height="2.3"/>
        </g>
        <line class="cls-6" x1="251.53" y1="43.56" x2="237.95" y2="23.59"/>
        <polyline class="cls-3" points="190.89 148.89 192.33 163.13 195.04 162.87 192.43 148.89"/>
        <line class="cls-3" x1="80.52" y1="194.16" x2="82.06" y2="202.01"/>
        <g>
          <line class="cls-3" x1="105.15" y1="204.19" x2="101.61" y2="204.88"/>
          <polyline class="cls-3" points="103.14 204.58 109.83 238.69 110.3 238.6"/>
          <line class="cls-3" x1="143.62" y1="196.52" x2="140.07" y2="197.21"/>
          <line class="cls-3" x1="141.85" y1="196.87" x2="148.56" y2="231.1"/>
          <line class="cls-3" x1="182.08" y1="188.85" x2="178.54" y2="189.55"/>
          <line class="cls-3" x1="180.31" y1="189.18" x2="187.05" y2="223.54"/>
          <polyline class="cls-3" points="83.58 208.29 89.18 236.86 89.91 236.72"/>
          <line class="cls-3" x1="95.7" y1="205.91" x2="80.6" y2="208.87"/>
          <line class="cls-3" x1="122.27" y1="200.7" x2="128.99" y2="235"/>
          <line class="cls-3" x1="134.22" y1="198.36" x2="111.04" y2="202.9"/>
          <line class="cls-3" x1="160.93" y1="193" x2="167.68" y2="227.4"/>
          <line class="cls-3" x1="172.66" y1="190.7" x2="149.48" y2="195.24"/>
          <polyline class="cls-3" points="206.07 219.87 206.82 219.72 200.04 185.15 188.09 187.49"/>
        </g>
        <rect class="cls-3" x="78.33" y="237.06" width="20.46" height="5.75" transform="translate(-44.5 21.51) rotate(-11.09)"/>
        <rect class="cls-3" x="100.71" y="146.44" width="15.23" height="3.66"/>
        <rect class="cls-3" x="124.19" y="148.29" width="8.19" height="2.35"/>
        <rect class="cls-3" x="190.89" y="147.23" width="3.09" height="1.66"/>
        <line class="cls-3" x1="70.77" y1="138.21" x2="97.52" y2="138.21"/>
        <line class="cls-5" x1="66" y1="138.21" x2="34.26" y2="138.21"/>
        <polyline class="cls-3" points="34.26 149.95 49.34 149.95 49.34 142.9"/>
        <line class="cls-3" x1="141.93" y1="134.13" x2="165.57" y2="134.13"/>
        <line class="cls-3" x1="153.99" y1="134.13" x2="153.99" y2="100.71"/>
        <line class="cls-3" x1="173.81" y1="134.13" x2="173.81" y2="100.71"/>
        <line class="cls-3" x1="171.66" y1="134.13" x2="175.28" y2="134.13"/>
        <line class="cls-3" x1="136.67" y1="134.19" x2="132.07" y2="134.19"/>
        <line class="cls-3" x1="134.37" y1="134.19" x2="134.37" y2="100.71"/>
        <line class="cls-3" x1="101.33" y1="100.71" x2="100.65" y2="100.71"/>
        <line class="cls-3" x1="126.32" y1="134.07" x2="114.08" y2="134.07"/>
        <polyline class="cls-3" points="114.08 100.77 114.08 133.45 114.08 134.13 114.08 138.21 104.31 138.21"/>
        <g>
          <g>
            <rect class="cls-3" x="124.19" y="150.64" width="2.67" height="7.9"/>
            <rect class="cls-3" x="126.79" y="150.64" width="2.67" height="7.9"/>
            <rect class="cls-3" x="129.39" y="150.64" width="2.67" height="7.9"/>
            <rect class="cls-3" x="132" y="150.64" width="2.67" height="7.9"/>
            <rect class="cls-3" x="134.6" y="150.64" width="2.67" height="7.9"/>
            <rect class="cls-3" x="137.2" y="150.64" width="2.67" height="7.9"/>
          </g>
          <g>
            <rect class="cls-3" x="147.4" y="150.64" width="2.67" height="7.9"/>
            <rect class="cls-3" x="150" y="150.64" width="2.67" height="7.9"/>
            <rect class="cls-3" x="152.61" y="150.64" width="2.67" height="7.9"/>
            <rect class="cls-3" x="155.21" y="150.64" width="2.67" height="7.9"/>
            <rect class="cls-3" x="157.81" y="150.64" width="2.67" height="7.9"/>
            <rect class="cls-3" x="160.41" y="150.64" width="2.67" height="7.9"/>
          </g>
        </g>
        <line class="cls-3" x1="208.22" y1="177.52" x2="210.07" y2="186.98"/>
        <line class="cls-3" x1="227.12" y1="176.01" x2="208.63" y2="179.64"/>
        <polyline class="cls-3" points="238.86 173.64 226.65 176.1 225.24 168.77 206.93 172.15 207.23 173.66"/>
        <line class="cls-3" x1="218.61" y1="177.7" x2="219.73" y2="183.35"/>
        <line class="cls-6" x1="234.2" y1="64.04" x2="260.88" y2="88.87"/>
        <line class="cls-6" x1="243.77" y1="115.98" x2="211.81" y2="102.79"/>
        <line class="cls-2" x1="275.18" y1="76.89" x2="253.87" y2="46.82"/>
        <polyline class="cls-6" points="227.77 38.61 237.71 49.81 236.07 51.26 222.33 35.76 223.96 34.31"/>
        <polyline class="cls-3" points="185.73 150.99 185.73 148.29 190.89 148.29"/>
        <polyline class="cls-3" points="180.75 150.99 180.75 148.29 170.74 148.29"/>
        <polyline class="cls-3" points="242.51 193.72 223.17 197.42 221.81 190.52 221.79 190.53 221.79 190.52 210.97 192.64 211.1 193.32 211.12 193.31 212.6 200.86"/>
        <polyline class="cls-3" points="212.94 202.62 213.54 205.68 213.52 205.69 213.65 206.36 213.67 206.35 213.68 206.36 214.35 206.23 214.35 206.22 224.47 204.24 224.44 204.09 224.47 204.08 223.17 197.42"/>
        <line class="cls-3" x1="195.16" y1="100.73" x2="195.16" y2="134.13"/>
        <polyline class="cls-3" points="181.16 134.13 195.13 134.13 195.16 121.48 197.79 110.94 195.37 110.21 197.9 102.71 200.22 103.41 201.48 100.71 179.02 100.77"/>
        <polyline class="cls-3" points="170.74 148.38 170.74 158.54 115.93 158.54 115.93 146.79"/>
        <polyline class="cls-2" points="116.29 187.21 192.74 171.69 193.22 171.59 192.26 161.57"/>
        <path class="cls-3" d="M207.05,121.98c-.2,1.2-.38,2.41-.55,3.64l32.2,6.47"/>
        <path class="cls-3" d="M218.01,88.28c-7.56,14.26-10.1,29.02-10.1,29.02"/>
        <path class="cls-3" d="M223.75,78.07c-1.6,2.45-3.06,4.94-4.14,7.28"/>
        <path class="cls-3" d="M245.93,52.58c-12.3,10.24-20.15,22.52-20.15,22.52"/>
        <path class="cls-3" d="M253.87,46.11c-1.36,1.02-2.74,2.1-4.13,3.24"/>
      </g>
    </g>
  </g>
</svg>