<?xml version="1.0" encoding="UTF-8"?>
<svg id="_레이어_1" data-name="레이어 1" xmlns="http://www.w3.org/2000/svg" xmlns:xlink="http://www.w3.org/1999/xlink" viewBox="0 0 512 512">
  <defs>
    <style>
      .cls-1 {
        fill: url(#_무제_그라디언트_190-2);
      }

      .cls-2 {
        fill: url(#_무제_그라디언트_190-6);
      }

      .cls-3 {
        fill: url(#_무제_그라디언트_190-3);
      }

      .cls-4 {
        fill: url(#_무제_그라디언트_190-4);
      }

      .cls-5 {
        fill: url(#_무제_그라디언트_190-7);
      }

      .cls-6 {
        fill: url(#_무제_그라디언트_190-5);
      }

      .cls-7 {
        fill: url(#_무제_그라디언트_190-9);
      }

      .cls-8 {
        fill: url(#_무제_그라디언트_190-8);
      }

      .cls-9 {
        fill: url(#_무제_그라디언트_190);
      }

      .cls-10 {
        fill: url(#_무제_그라디언트_190-16);
      }

      .cls-11 {
        fill: url(#_무제_그라디언트_190-17);
      }

      .cls-12 {
        fill: url(#_무제_그라디언트_190-18);
      }

      .cls-13 {
        fill: url(#_무제_그라디언트_190-11);
      }

      .cls-14 {
        fill: url(#_무제_그라디언트_190-12);
      }

      .cls-15 {
        fill: url(#_무제_그라디언트_190-13);
      }

      .cls-16 {
        fill: url(#_무제_그라디언트_190-14);
      }

      .cls-17 {
        fill: url(#_무제_그라디언트_190-10);
      }

      .cls-18 {
        fill: url(#_무제_그라디언트_190-15);
      }

      .cls-19 {
        fill: #b8ffbf;
      }
    </style>
    <linearGradient id="_무제_그라디언트_190" data-name="무제 그라디언트 190" x1="-572" y1="-443.98" x2="-486.68" y2="-443.98" gradientTransform="translate(-401.3 571.97) rotate(90)" gradientUnits="userSpaceOnUse">
      <stop offset=".08" stop-color="#7f6bf2"/>
      <stop offset=".17" stop-color="#7f6bf2" stop-opacity=".86"/>
      <stop offset=".32" stop-color="#7f6bf2" stop-opacity=".66"/>
      <stop offset=".46" stop-color="#7f6bf2" stop-opacity=".5"/>
      <stop offset=".61" stop-color="#7f6bf2" stop-opacity=".37"/>
      <stop offset=".75" stop-color="#7f6bf2" stop-opacity=".27"/>
      <stop offset=".88" stop-color="#7f6bf2" stop-opacity=".22"/>
      <stop offset="1" stop-color="#7f6bf2" stop-opacity=".2"/>
    </linearGradient>
    <linearGradient id="_무제_그라디언트_190-2" data-name="무제 그라디언트 190" x1="-486.5" y1="-529.04" x2="-401.18" y2="-529.04" xlink:href="#_무제_그라디언트_190"/>
    <linearGradient id="_무제_그라디언트_190-3" data-name="무제 그라디언트 190" y1="-614.56" y2="-614.56" xlink:href="#_무제_그라디언트_190"/>
    <linearGradient id="_무제_그라디언트_190-4" data-name="무제 그라디언트 190" x1="-401.18" x2="-315.87" xlink:href="#_무제_그라디언트_190"/>
    <linearGradient id="_무제_그라디언트_190-5" data-name="무제 그라디언트 190" x1="-401.18" y1="-614.56" x2="-315.87" y2="-614.56" xlink:href="#_무제_그라디언트_190"/>
    <linearGradient id="_무제_그라디언트_190-6" data-name="무제 그라디언트 190" x1="-486.5" y1="-699.85" x2="-401.18" y2="-699.85" xlink:href="#_무제_그라디언트_190"/>
    <linearGradient id="_무제_그라디언트_190-7" data-name="무제 그라디언트 190" x1="-486.5" y1="-870.66" x2="-401.18" y2="-870.66" xlink:href="#_무제_그라디언트_190"/>
    <linearGradient id="_무제_그라디언트_190-8" data-name="무제 그라디언트 190" x1="-145.35" y1="-529.04" x2="-60.04" y2="-529.04" xlink:href="#_무제_그라디언트_190"/>
    <linearGradient id="_무제_그라디언트_190-9" data-name="무제 그라디언트 190" x1="-145.35" y1="-699.85" x2="-60.04" y2="-699.85" xlink:href="#_무제_그라디언트_190"/>
    <linearGradient id="_무제_그라디언트_190-10" data-name="무제 그라디언트 190" x1="-145.35" y1="-870.66" x2="-60.04" y2="-870.66" xlink:href="#_무제_그라디언트_190"/>
    <linearGradient id="_무제_그라디언트_190-11" data-name="무제 그라디언트 190" y1="-785.37" y2="-785.37" xlink:href="#_무제_그라디언트_190"/>
    <linearGradient id="_무제_그라디언트_190-12" data-name="무제 그라디언트 190" x1="-401.18" y1="-785.37" x2="-315.87" y2="-785.37" xlink:href="#_무제_그라디언트_190"/>
    <linearGradient id="_무제_그라디언트_190-13" data-name="무제 그라디언트 190" x1="-315.99" y1="-529.04" x2="-230.67" y2="-529.04" xlink:href="#_무제_그라디언트_190"/>
    <linearGradient id="_무제_그라디언트_190-14" data-name="무제 그라디언트 190" x1="-230.67" x2="-145.35" xlink:href="#_무제_그라디언트_190"/>
    <linearGradient id="_무제_그라디언트_190-15" data-name="무제 그라디언트 190" x1="-230.67" y1="-614.56" x2="-145.35" y2="-614.56" xlink:href="#_무제_그라디언트_190"/>
    <linearGradient id="_무제_그라디언트_190-16" data-name="무제 그라디언트 190" x1="-315.99" y1="-699.85" x2="-230.67" y2="-699.85" xlink:href="#_무제_그라디언트_190"/>
    <linearGradient id="_무제_그라디언트_190-17" data-name="무제 그라디언트 190" x1="-315.99" y1="-870.66" x2="-230.67" y2="-870.66" xlink:href="#_무제_그라디언트_190"/>
    <linearGradient id="_무제_그라디언트_190-18" data-name="무제 그라디언트 190" x1="-230.67" y1="-785.37" x2="-145.35" y2="-785.37" xlink:href="#_무제_그라디언트_190"/>
  </defs>
  <rect class="cls-19" x="0" y="0" width="512" height="512"/>
  <polygon class="cls-9" points="85.32 85.29 .03 85.29 .03 85.2 .03 .06 .03 -.03 85.32 -.03 85.32 .06 85.32 85.2 85.32 85.29"/>
  <polygon class="cls-1" points="170.38 170.79 85.09 170.79 85.09 170.7 85.09 85.55 85.09 85.47 170.38 85.47 170.38 85.55 170.38 170.7 170.38 170.79"/>
  <polygon class="cls-3" points="255.9 85.29 170.61 85.29 170.61 85.2 170.61 .06 170.61 -.03 255.9 -.03 255.9 .06 255.9 85.2 255.9 85.29"/>
  <polygon class="cls-4" points="85.32 256.11 .03 256.11 .03 256.02 .03 170.87 .03 170.79 85.32 170.79 85.32 170.87 85.32 256.02 85.32 256.11"/>
  <polygon class="cls-6" points="255.9 256.11 170.61 256.11 170.61 256.02 170.61 170.87 170.61 170.79 255.9 170.79 255.9 170.87 255.9 256.02 255.9 256.11"/>
  <polygon class="cls-2" points="341.19 170.79 255.9 170.79 255.9 170.7 255.9 85.55 255.9 85.47 341.19 85.47 341.19 85.55 341.19 170.7 341.19 170.79"/>
  <polygon class="cls-5" points="512 170.79 426.71 170.79 426.71 170.7 426.71 85.55 426.71 85.47 512 85.47 512 85.55 512 170.7 512 170.79"/>
  <polygon class="cls-8" points="170.38 511.94 85.09 511.94 85.09 511.85 85.09 426.7 85.09 426.62 170.38 426.62 170.38 426.7 170.38 511.85 170.38 511.94"/>
  <polygon class="cls-7" points="341.19 511.94 255.9 511.94 255.9 511.85 255.9 426.7 255.9 426.62 341.19 426.62 341.19 426.7 341.19 511.85 341.19 511.94"/>
  <polygon class="cls-17" points="512 511.94 426.71 511.94 426.71 511.85 426.71 426.7 426.71 426.62 512 426.62 512 426.7 512 511.85 512 511.94"/>
  <polygon class="cls-13" points="426.71 85.29 341.42 85.29 341.42 85.2 341.42 .06 341.42 -.03 426.71 -.03 426.71 .06 426.71 85.2 426.71 85.29"/>
  <polygon class="cls-14" points="426.71 256.11 341.42 256.11 341.42 256.02 341.42 170.87 341.42 170.79 426.71 170.79 426.71 170.87 426.71 256.02 426.71 256.11"/>
  <polygon class="cls-15" points="170.38 341.3 85.09 341.3 85.09 341.21 85.09 256.07 85.09 255.98 170.38 255.98 170.38 256.07 170.38 341.21 170.38 341.3"/>
  <polygon class="cls-16" points="85.32 426.62 .03 426.62 .03 426.53 .03 341.38 .03 341.3 85.32 341.3 85.32 341.38 85.32 426.53 85.32 426.62"/>
  <polygon class="cls-18" points="255.9 426.62 170.61 426.62 170.61 426.53 170.61 341.38 170.61 341.3 255.9 341.3 255.9 341.38 255.9 426.53 255.9 426.62"/>
  <polygon class="cls-10" points="341.19 341.3 255.9 341.3 255.9 341.21 255.9 256.07 255.9 255.98 341.19 255.98 341.19 256.07 341.19 341.21 341.19 341.3"/>
  <polygon class="cls-11" points="512 341.3 426.71 341.3 426.71 341.21 426.71 256.07 426.71 255.98 512 255.98 512 256.07 512 341.21 512 341.3"/>
  <polygon class="cls-12" points="426.71 426.62 341.42 426.62 341.42 426.53 341.42 341.38 341.42 341.3 426.71 341.3 426.71 341.38 426.71 426.53 426.71 426.62"/>
</svg>