<?xml version="1.0" encoding="UTF-8"?>
<svg id="_레이어_1" data-name="레이어 1" xmlns="http://www.w3.org/2000/svg" xmlns:xlink="http://www.w3.org/1999/xlink" viewBox="0 0 512 512">
  <defs>
    <style>
      .cls-1 {
        fill: none;
      }

      .cls-2 {
        fill: url(#_무제_그라디언트_143-2);
      }

      .cls-3 {
        fill: #bbfbff;
      }

      .cls-4 {
        fill: url(#_무제_그라디언트_143);
      }

      .cls-5 {
        clip-path: url(#clippath);
      }
    </style>
    <clipPath id="clippath">
      <rect class="cls-1" x="-.04" y=".8" width="512.09" height="512.09"/>
    </clipPath>
    <linearGradient id="_무제_그라디언트_143" data-name="무제 그라디언트 143" x1="1277.06" y1="5374.16" x2="1277.06" y2="5886.16" gradientTransform="translate(1533.06 5886.16) rotate(-180)" gradientUnits="userSpaceOnUse">
      <stop offset="0" stop-color="#f286df" stop-opacity="0"/>
      <stop offset="1" stop-color="#f286df"/>
    </linearGradient>
    <linearGradient id="_무제_그라디언트_143-2" data-name="무제 그라디언트 143" x1="307.2" y1="512" x2="307.2" y2="0" gradientTransform="translate(512 512) rotate(-180)" xlink:href="#_무제_그라디언트_143"/>
  </defs>
  <g class="cls-5">
    <g>
      <rect class="cls-3" x="0" y="0" width="512" height="512"/>
      <path class="cls-4" d="M409.6,0h51.2l-51.2,512h-51.2L409.6,0ZM256,512h51.2L358.4,0h-51.2l-51.2,512ZM153.6,512h51.2L256,0h-51.2l-51.2,512ZM51.2,512h51.2L153.6,0h-51.2l-51.2,512ZM460.8,512h51.2L563.2,0h-51.2l-51.2,512ZM-51.2,512H0L51.2,0H0l-51.2,512Z"/>
      <path class="cls-2" d="M51.2,512H0L51.2,0h51.2l-51.2,512ZM204.8,0h-51.2l-51.2,512h51.2L204.8,0ZM307.2,0h-51.2l-51.2,512h51.2L307.2,0ZM409.6,0h-51.2l-51.2,512h51.2L409.6,0ZM0,0h-51.2l-51.2,512h51.2L0,0ZM512,0h-51.2l-51.2,512h51.2L512,0Z"/>
    </g>
  </g>
</svg>