<?xml version="1.0" encoding="UTF-8"?>
<svg id="_레이어_1" data-name="레이어 1" xmlns="http://www.w3.org/2000/svg" xmlns:xlink="http://www.w3.org/1999/xlink" viewBox="0 0 512 512">
  <defs>
    <style>
      .cls-1 {
        fill: url(#_무제_그라디언트_158-2);
      }

      .cls-2 {
        fill: #bbfbff;
      }

      .cls-3 {
        fill: url(#_무제_그라디언트_158);
      }
    </style>
    <linearGradient id="_무제_그라디언트_158" data-name="무제 그라디언트 158" x1="256" y1="512" x2="256" y2="256" gradientTransform="translate(512 0) rotate(90)" gradientUnits="userSpaceOnUse">
      <stop offset="0" stop-color="#f286df" stop-opacity="0"/>
      <stop offset=".15" stop-color="#f286df" stop-opacity=".24"/>
      <stop offset=".32" stop-color="#f286df" stop-opacity=".47"/>
      <stop offset=".48" stop-color="#f286df" stop-opacity=".66"/>
      <stop offset=".63" stop-color="#f286df" stop-opacity=".81"/>
      <stop offset=".77" stop-color="#f286df" stop-opacity=".91"/>
      <stop offset=".9" stop-color="#f286df" stop-opacity=".98"/>
      <stop offset="1" stop-color="#f286df"/>
    </linearGradient>
    <linearGradient id="_무제_그라디언트_158-2" data-name="무제 그라디언트 158" x1="256" y1="256" x2="256" y2="0" xlink:href="#_무제_그라디언트_158"/>
  </defs>
  <rect class="cls-2" x="0" width="512" height="512"/>
  <path class="cls-3" d="M74.66,330.67C54.72,350.61,28.2,361.59,0,361.59v150.41c141.38,0,256-114.62,256-256h0C256,114.62,141.38,0,0,0v150.41c28.21,0,54.72,10.98,74.66,30.93,19.94,19.94,30.93,46.46,30.93,74.66h0c0,28.21-10.98,54.72-30.93,74.67Z"/>
  <path class="cls-1" d="M330.66,330.67c-19.94,19.94-46.46,30.93-74.66,30.93v150.41c141.38,0,256-114.62,256-256h0C512,114.62,397.38,0,256,0v150.41c28.21,0,54.72,10.98,74.66,30.93,19.94,19.94,30.93,46.46,30.93,74.66h0c0,28.21-10.98,54.72-30.93,74.67Z"/>
</svg>