<?xml version="1.0" encoding="UTF-8"?>
<svg id="_레이어_1" data-name="레이어 1" xmlns="http://www.w3.org/2000/svg" xmlns:xlink="http://www.w3.org/1999/xlink" viewBox="0 0 512 512">
  <defs>
    <style>
      .cls-1 {
        fill: none;
      }

      .cls-2 {
        fill: url(#_무제_그라디언트_158-5);
      }

      .cls-3 {
        fill: url(#_무제_그라디언트_158-3);
      }

      .cls-4 {
        fill: url(#_무제_그라디언트_158-4);
      }

      .cls-5 {
        fill: url(#_무제_그라디언트_158-2);
      }

      .cls-6 {
        fill: url(#_무제_그라디언트_158-7);
      }

      .cls-7 {
        fill: url(#_무제_그라디언트_158-8);
      }

      .cls-8 {
        fill: url(#_무제_그라디언트_158-6);
      }

      .cls-9 {
        fill: url(#_무제_그라디언트_158-9);
      }

      .cls-10 {
        fill: #bbfbff;
      }

      .cls-11 {
        fill: url(#_무제_그라디언트_158);
      }

      .cls-12 {
        fill: url(#_무제_그라디언트_879);
      }

      .cls-13 {
        fill: url(#_무제_그라디언트_158-12);
      }

      .cls-14 {
        fill: url(#_무제_그라디언트_158-11);
      }

      .cls-15 {
        fill: url(#_무제_그라디언트_158-10);
      }

      .cls-16 {
        clip-path: url(#clippath);
      }
    </style>
    <linearGradient id="_무제_그라디언트_158" data-name="무제 그라디언트 158" x1="76.8" y1="256" x2="128" y2="256" gradientUnits="userSpaceOnUse">
      <stop offset="0" stop-color="#f286df" stop-opacity="0"/>
      <stop offset=".15" stop-color="#f286df" stop-opacity=".24"/>
      <stop offset=".32" stop-color="#f286df" stop-opacity=".47"/>
      <stop offset=".48" stop-color="#f286df" stop-opacity=".66"/>
      <stop offset=".63" stop-color="#f286df" stop-opacity=".81"/>
      <stop offset=".77" stop-color="#f286df" stop-opacity=".91"/>
      <stop offset=".9" stop-color="#f286df" stop-opacity=".98"/>
      <stop offset="1" stop-color="#f286df"/>
    </linearGradient>
    <linearGradient id="_무제_그라디언트_158-2" data-name="무제 그라디언트 158" x1="0" y1="21.33" x2="76.8" y2="21.33" xlink:href="#_무제_그라디언트_158"/>
    <linearGradient id="_무제_그라디언트_158-3" data-name="무제 그라디언트 158" x1="0" y1="490.67" x2="76.8" y2="490.67" xlink:href="#_무제_그라디언트_158"/>
    <linearGradient id="_무제_그라디언트_158-4" data-name="무제 그라디언트 158" x1="204.8" x2="256" xlink:href="#_무제_그라디언트_158"/>
    <linearGradient id="_무제_그라디언트_158-5" data-name="무제 그라디언트 158" x1="128" y1="21.33" x2="204.8" y2="21.33" xlink:href="#_무제_그라디언트_158"/>
    <linearGradient id="_무제_그라디언트_158-6" data-name="무제 그라디언트 158" x1="128" y1="490.67" x2="204.8" y2="490.67" xlink:href="#_무제_그라디언트_158"/>
    <linearGradient id="_무제_그라디언트_158-7" data-name="무제 그라디언트 158" x1="332.8" x2="384" xlink:href="#_무제_그라디언트_158"/>
    <linearGradient id="_무제_그라디언트_158-8" data-name="무제 그라디언트 158" x1="256" y1="21.33" x2="332.8" y2="21.33" xlink:href="#_무제_그라디언트_158"/>
    <linearGradient id="_무제_그라디언트_158-9" data-name="무제 그라디언트 158" x1="256" y1="490.67" x2="332.8" y2="490.67" xlink:href="#_무제_그라디언트_158"/>
    <linearGradient id="_무제_그라디언트_158-10" data-name="무제 그라디언트 158" x1="460.8" x2="512" xlink:href="#_무제_그라디언트_158"/>
    <linearGradient id="_무제_그라디언트_158-11" data-name="무제 그라디언트 158" x1="384" y1="21.33" x2="460.8" y2="21.33" xlink:href="#_무제_그라디언트_158"/>
    <linearGradient id="_무제_그라디언트_158-12" data-name="무제 그라디언트 158" x1="384" y1="490.67" x2="460.8" y2="490.67" xlink:href="#_무제_그라디언트_158"/>
    <clipPath id="clippath">
      <rect class="cls-1" x="611.27" width="512" height="512"/>
    </clipPath>
    <linearGradient id="_무제_그라디언트_879" data-name="무제 그라디언트 879" x1="867.76" y1="0" x2="867.76" y2="512" gradientUnits="userSpaceOnUse">
      <stop offset="0" stop-color="#f27807" stop-opacity=".2"/>
      <stop offset=".67" stop-color="#f27829"/>
    </linearGradient>
  </defs>
  <rect class="cls-10" x="0" width="512" height="512"/>
  <rect class="cls-11" x="76.8" y="42.67" width="51.2" height="426.67"/>
  <rect class="cls-5" y="0" width="76.8" height="42.67"/>
  <rect class="cls-3" y="469.33" width="76.8" height="42.67"/>
  <rect class="cls-4" x="204.8" y="42.67" width="51.2" height="426.67"/>
  <rect class="cls-2" x="128" y="0" width="76.8" height="42.67"/>
  <rect class="cls-8" x="128" y="469.33" width="76.8" height="42.67"/>
  <rect class="cls-6" x="332.8" y="42.67" width="51.2" height="426.67"/>
  <rect class="cls-7" x="256" y="0" width="76.8" height="42.67"/>
  <rect class="cls-9" x="256" y="469.33" width="76.8" height="42.67"/>
  <rect class="cls-15" x="460.8" y="42.67" width="51.2" height="426.67"/>
  <rect class="cls-14" x="384" y="0" width="76.8" height="42.67"/>
  <rect class="cls-13" x="384" y="469.33" width="76.8" height="42.67"/>
  <g class="cls-16">
    <path class="cls-12" d="M867.27,385.88l-125.72-127.09,125.72-127.09,125.72,127.09-125.72,127.09ZM993,0h-251.45l125.72,127.09L993,0ZM1244.45,0h-251.45l125.72,127.09L1244.45,0ZM742.52,0h-251.45l125.72,127.09L742.52,0ZM993,512l-125.72-127.09-125.72,127.09h251.45ZM1244.45,512l-125.72-127.09-125.72,127.09h251.45ZM742.52,512l-125.72-127.09-125.72,127.09h251.45Z"/>
  </g>
</svg>