<?xml version="1.0" encoding="UTF-8"?>
<svg id="_레이어_1" data-name="레이어 1" xmlns="http://www.w3.org/2000/svg" viewBox="0 0 512 512">
  <defs>
    <style>
      .cls-1 {
        fill: none;
        stroke-width: 3.07px;
      }

      .cls-1, .cls-2 {
        stroke: #ddd;
        stroke-miterlimit: 10;
      }

      .cls-3 {
        fill: #ff69c6;
      }

      .cls-2 {
        fill: #94ffab;
        stroke-width: 3.25px;
      }
    </style>
  </defs>
  <circle class="cls-2" cx="459.36" cy="254.9" r="42.72"/>
  <rect class="cls-3" x="1.93" y="0" width="510.07" height="512.38"/>
  <g>
    <path class="cls-1" d="M1.93,173.41c46.8,0,84.74-37.94,84.74-84.74S48.73,3.93,1.93,3.93"/>
    <path class="cls-1" d="M171.61,173.41c46.8,0,84.74-37.94,84.74-84.74S218.41,3.93,171.61,3.93"/>
  </g>
  <g>
    <path class="cls-1" d="M171.41,173.41c0-46.8-37.94-84.74-84.74-84.74-46.8,0-84.74,37.94-84.74,84.74"/>
    <path class="cls-1" d="M341.1,173.41c0-46.8-37.94-84.74-84.74-84.74-46.8,0-84.74,37.94-84.74,84.74"/>
  </g>
  <g>
    <path class="cls-1" d="M1.93,342.89c46.8,0,84.74-37.94,84.74-84.74S48.73,173.41,1.93,173.41"/>
    <path class="cls-1" d="M171.61,342.89c46.8,0,84.74-37.94,84.74-84.74s-37.94-84.74-84.74-84.74"/>
  </g>
  <g>
    <path class="cls-1" d="M171.41,342.89c0-46.8-37.94-84.74-84.74-84.74-46.8,0-84.74,37.94-84.74,84.74"/>
    <path class="cls-1" d="M341.1,342.89c0-46.8-37.94-84.74-84.74-84.74-46.8,0-84.74,37.94-84.74,84.74"/>
  </g>
  <g>
    <path class="cls-1" d="M1.93,512.38c46.8,0,84.74-37.94,84.74-84.74S48.73,342.89,1.93,342.89"/>
    <path class="cls-1" d="M171.61,512.38c46.8,0,84.74-37.94,84.74-84.74s-37.94-84.74-84.74-84.74"/>
  </g>
  <g>
    <path class="cls-1" d="M171.41,512.38c0-46.8-37.94-84.74-84.74-84.74-46.8,0-84.74,37.94-84.74,84.74"/>
    <path class="cls-1" d="M341.1,512.38c0-46.8-37.94-84.74-84.74-84.74-46.8,0-84.74,37.94-84.74,84.74"/>
  </g>
  <path class="cls-1" d="M342.42,173.41c46.8,0,84.74-37.94,84.74-84.74S389.22,3.93,342.42,3.93"/>
  <path class="cls-1" d="M511.9,173.41c0-46.8-37.94-84.74-84.74-84.74-46.8,0-84.74,37.94-84.74,84.74"/>
  <path class="cls-1" d="M342.42,342.89c46.8,0,84.74-37.94,84.74-84.74s-37.94-84.74-84.74-84.74"/>
  <path class="cls-1" d="M511.9,342.89c0-46.8-37.94-84.74-84.74-84.74-46.8,0-84.74,37.94-84.74,84.74"/>
  <path class="cls-1" d="M342.42,512.38c46.8,0,84.74-37.94,84.74-84.74s-37.94-84.74-84.74-84.74"/>
  <path class="cls-1" d="M511.9,512.38c0-46.8-37.94-84.74-84.74-84.74-46.8,0-84.74,37.94-84.74,84.74"/>
</svg>