<?xml version="1.0" encoding="UTF-8"?>
<svg id="_레이어_1" data-name="레이어 1" xmlns="http://www.w3.org/2000/svg" xmlns:xlink="http://www.w3.org/1999/xlink" viewBox="0 0 512 512">
  <defs>
    <style>
      .cls-1 {
        fill: none;
      }

      .cls-2 {
        fill: #9e465e;
      }

      .cls-3 {
        fill: #ff4053;
      }

      .cls-4 {
        fill: #fff;
      }

      .cls-5 {
        clip-path: url(#clippath);
      }
    </style>
    <clipPath id="clippath">
      <rect class="cls-1" x="0" y="-.14" width="512" height="512" transform="translate(511.86 -.14) rotate(90)"/>
    </clipPath>
  </defs>
  <rect class="cls-4" x="-4168.1" y="-2018.47" width="6772.16" height="2680.76"/>
  <rect class="cls-3" width="512" height="512"/>
  <g class="cls-5">
    <g>
      <polygon class="cls-2" points="510.82 520.94 544.02 483.07 510.82 445.2 544.02 407.33 510.82 369.46 544.02 331.6 510.82 293.73 544.02 255.86 544.02 255.86 544.02 255.86 544.02 255.86 544.02 255.86 510.82 217.99 544.02 180.12 510.82 142.25 544.02 104.38 510.82 66.51 544.02 28.64 510.82 -9.23 544.02 -47.1 513.18 -47.1 479.98 -9.23 513.18 28.64 479.98 66.51 513.18 104.38 479.98 142.25 513.18 180.12 479.98 217.99 513.18 255.86 479.98 293.73 513.18 331.6 479.98 369.46 513.18 407.33 479.98 445.2 513.18 483.07 479.98 520.94 513.18 558.81 544.02 558.81 510.82 520.94"/>
      <polygon class="cls-2" points="382.82 520.94 416.02 483.07 382.82 445.2 416.02 407.33 382.82 369.46 416.02 331.6 382.82 293.73 416.02 255.86 416.02 255.86 416.02 255.86 416.02 255.86 416.02 255.86 382.82 217.99 416.02 180.12 382.82 142.25 416.02 104.38 382.82 66.51 416.02 28.64 382.82 -9.23 416.02 -47.1 385.18 -47.1 351.98 -9.23 385.18 28.64 351.98 66.51 385.18 104.38 351.98 142.25 385.18 180.12 351.98 217.99 385.18 255.86 351.98 293.73 385.18 331.6 351.98 369.46 385.18 407.33 351.98 445.2 385.18 483.07 351.98 520.94 385.18 558.81 416.02 558.81 382.82 520.94"/>
      <polygon class="cls-2" points="254.82 520.94 288.02 483.07 254.82 445.2 288.02 407.33 254.82 369.46 288.02 331.6 254.82 293.73 288.02 255.86 288.02 255.86 288.02 255.86 288.02 255.86 288.02 255.86 254.82 217.99 288.02 180.12 254.82 142.25 288.02 104.38 254.82 66.51 288.02 28.64 254.82 -9.23 288.02 -47.1 257.18 -47.1 223.98 -9.23 257.18 28.64 223.98 66.51 257.18 104.38 223.98 142.25 257.18 180.12 223.98 217.99 257.18 255.86 223.98 293.73 257.18 331.6 223.98 369.46 257.18 407.33 223.98 445.2 257.18 483.07 223.98 520.94 257.18 558.81 288.02 558.81 254.82 520.94"/>
      <polygon class="cls-2" points="126.82 520.94 160.02 483.07 126.82 445.2 160.02 407.33 126.82 369.46 160.02 331.6 126.82 293.73 160.02 255.86 160.02 255.86 160.02 255.86 160.02 255.86 160.02 255.86 126.82 217.99 160.02 180.12 126.82 142.25 160.02 104.38 126.82 66.51 160.02 28.64 126.82 -9.23 160.02 -47.1 129.18 -47.1 95.98 -9.23 129.18 28.64 95.98 66.51 129.18 104.38 95.98 142.25 129.18 180.12 95.98 217.99 129.18 255.86 95.98 293.73 129.18 331.6 95.98 369.46 129.18 407.33 95.98 445.2 129.18 483.07 95.98 520.94 129.18 558.81 160.02 558.81 126.82 520.94"/>
      <polygon class="cls-2" points="-1.18 520.94 32.02 483.07 -1.18 445.2 32.02 407.33 -1.18 369.46 32.02 331.6 -1.18 293.73 32.02 255.86 32.02 255.86 32.02 255.86 32.02 255.86 32.02 255.86 -1.18 217.99 32.02 180.12 -1.18 142.25 32.02 104.38 -1.18 66.51 32.02 28.64 -1.18 -9.23 32.02 -47.1 1.18 -47.1 -32.02 -9.23 1.18 28.64 -32.02 66.51 1.18 104.38 -32.02 142.25 1.18 180.12 -32.02 217.99 1.18 255.86 -32.02 293.73 1.18 331.6 -32.02 369.46 1.18 407.33 -32.02 445.2 1.18 483.07 -32.02 520.94 1.18 558.81 32.02 558.81 -1.18 520.94"/>
    </g>
  </g>
</svg>