<?xml version="1.0" encoding="UTF-8"?>
<svg id="_레이어_1" data-name="레이어 1" xmlns="http://www.w3.org/2000/svg" viewBox="0 0 512 512">
  <defs>
    <style>
      .cls-1 {
        fill: none;
        stroke: #ddd;
        stroke-miterlimit: 10;
        stroke-width: 4.88px;
      }

      .cls-2 {
        fill: #ff69c6;
      }
    </style>
  </defs>
  <rect class="cls-2" x="1.93" y="0" width="510.07" height="512.38"/>
  <line class="cls-1" x1="75.48" y1="19.42" x2="129.58" y2="73.52"/>
  <line class="cls-1" x1="129.58" y1="124.18" x2="75.48" y2="178.29"/>
  <line class="cls-1" x1="75.48" y1="228.95" x2="129.58" y2="283.05"/>
  <line class="cls-1" x1="129.58" y1="333.71" x2="75.48" y2="387.82"/>
  <line class="cls-1" x1="75.48" y1="438.48" x2="129.58" y2="492.58"/>
  <line class="cls-1" x1="36.13" y1="19.42" x2="90.23" y2="73.52"/>
  <line class="cls-1" x1="90.23" y1="124.18" x2="36.13" y2="178.29"/>
  <line class="cls-1" x1="36.13" y1="228.95" x2="90.23" y2="283.05"/>
  <line class="cls-1" x1="90.23" y1="333.71" x2="36.13" y2="387.82"/>
  <line class="cls-1" x1="36.13" y1="438.48" x2="90.23" y2="492.58"/>
  <line class="cls-1" x1="248.63" y1="19.42" x2="302.73" y2="73.52"/>
  <line class="cls-1" x1="302.73" y1="124.18" x2="248.63" y2="178.29"/>
  <line class="cls-1" x1="248.63" y1="228.95" x2="302.73" y2="283.05"/>
  <line class="cls-1" x1="302.73" y1="333.71" x2="248.63" y2="387.82"/>
  <line class="cls-1" x1="248.63" y1="438.48" x2="302.73" y2="492.58"/>
  <line class="cls-1" x1="209.27" y1="19.42" x2="263.37" y2="73.52"/>
  <line class="cls-1" x1="263.37" y1="124.18" x2="209.27" y2="178.29"/>
  <line class="cls-1" x1="209.27" y1="228.95" x2="263.37" y2="283.05"/>
  <line class="cls-1" x1="263.37" y1="333.71" x2="209.27" y2="387.82"/>
  <line class="cls-1" x1="209.27" y1="438.48" x2="263.37" y2="492.58"/>
  <line class="cls-1" x1="421.77" y1="19.42" x2="475.87" y2="73.52"/>
  <line class="cls-1" x1="475.87" y1="124.18" x2="421.77" y2="178.29"/>
  <line class="cls-1" x1="421.77" y1="228.95" x2="475.87" y2="283.05"/>
  <line class="cls-1" x1="475.87" y1="333.71" x2="421.77" y2="387.82"/>
  <line class="cls-1" x1="421.77" y1="438.48" x2="475.87" y2="492.58"/>
  <line class="cls-1" x1="382.42" y1="19.42" x2="436.52" y2="73.52"/>
  <line class="cls-1" x1="436.52" y1="124.18" x2="382.42" y2="178.29"/>
  <line class="cls-1" x1="382.42" y1="228.95" x2="436.52" y2="283.05"/>
  <line class="cls-1" x1="436.52" y1="333.71" x2="382.42" y2="387.82"/>
  <line class="cls-1" x1="382.42" y1="438.48" x2="436.52" y2="492.58"/>
</svg>