<?xml version="1.0" encoding="UTF-8"?>
<svg id="_레이어_1" data-name="레이어 1" xmlns="http://www.w3.org/2000/svg" width="512" height="512" xmlns:xlink="http://www.w3.org/1999/xlink" viewBox="0 0 512 512">
  <defs>
    <style>
      .cls-1 {
        fill: none;
      }

      .cls-2 {
        fill: #aaafc4;
      }

      .cls-3 {
        clip-path: url(#clippath-1);
      }

      .cls-4 {
        fill: #294236;
      }

      .cls-5 {
        fill: #1c5127;
      }

      .cls-6 {
        fill: #bbf9f9;
      }

      .cls-7 {
        clip-path: url(#clippath);
      }
    </style>
    <clipPath id="clippath">
      <rect class="cls-1" x="624.88" y="-609.99" width="512" height="512"/>
    </clipPath>
    <clipPath id="clippath-1">
      <rect class="cls-1" x="624.88" y="622.83" width="512" height="512"/>
    </clipPath>
  </defs>
  <rect class="cls-4" width="512" height="512"/>
  <g>
    <polygon class="cls-5" points="512 358.4 512 409.6 0 358.4 0 307.2 512 358.4"/>
    <polygon class="cls-5" points="512 256 512 307.2 0 256 0 204.8 512 256"/>
    <polygon class="cls-5" points="512 153.6 512 204.8 0 153.6 0 102.4 512 153.6"/>
    <polygon class="cls-5" points="512 51.2 512 102.4 0 51.2 0 0 512 51.2"/>
    <polygon class="cls-5" points="512 460.8 512 512 0 460.8 0 409.6 512 460.8"/>
  </g>
  <g class="cls-7">
    <path class="cls-6" d="M714.98,158.35h-344.61V-186.26h344.61V158.35ZM376.78,151.95h331.8V-179.86h-331.8V151.95Z"/>
  </g>
  <g class="cls-3">
    <path class="cls-2" d="M714.98,712.93h-344.61v-344.61h344.61v344.61ZM376.78,706.53h331.8v-331.8h-331.8v331.8Z"/>
  </g>
</svg>