<?xml version="1.0" encoding="UTF-8"?>
<svg id="_레이어_1" data-name="레이어 1" xmlns="http://www.w3.org/2000/svg" xmlns:xlink="http://www.w3.org/1999/xlink" viewBox="0 0 512 512">
  <defs>
    <style>
      .cls-1 {
        fill: none;
      }

      .cls-2 {
        fill: url(#_무제_그라디언트_879);
      }

      .cls-3 {
        fill: #fffcad;
      }

      .cls-4 {
        clip-path: url(#clippath);
      }
    </style>
    <clipPath id="clippath">
      <rect class="cls-1" width="512" height="512"/>
    </clipPath>
    <linearGradient id="_무제_그라디언트_879" data-name="무제 그라디언트 879" x1="256.48" y1="0" x2="256.48" y2="512" gradientUnits="userSpaceOnUse">
      <stop offset="0" stop-color="#f27807" stop-opacity=".2"/>
      <stop offset=".67" stop-color="#f27829"/>
    </linearGradient>
  </defs>
  <rect class="cls-3" width="512" height="512"/>
  <g class="cls-4">
    <path class="cls-2" d="M256,385.88l-125.72-127.09,125.72-127.09,125.72,127.09-125.72,127.09ZM381.72,0h-251.45l125.72,127.09L381.72,0ZM633.17,0h-251.45l125.72,127.09L633.17,0ZM131.24,0H-120.21L5.52,127.09,131.24,0ZM381.72,512l-125.72-127.09-125.72,127.09h251.45ZM633.17,512l-125.72-127.09-125.72,127.09h251.45ZM131.24,512L5.52,384.91l-125.72,127.09h251.45Z"/>
  </g>
</svg>