<?xml version="1.0" encoding="UTF-8"?>
<svg id="_레이어_1" data-name="레이어 1" xmlns="http://www.w3.org/2000/svg" viewBox="0 0 512 512">
  <defs>
    <style>
      .cls-1 {
        fill: #f27831;
      }

      .cls-2 {
        fill: #fffcad;
      }
    </style>
  </defs>
  <rect class="cls-2" y="0" width="512" height="512"/>
  <g>
    <rect class="cls-1" x="448" y=".42" width="6.07" height="512"/>
    <rect class="cls-1" x="384" y=".42" width="6.07" height="512"/>
    <rect class="cls-1" x="320" y=".42" width="6.07" height="512"/>
    <rect class="cls-1" x="256" y=".42" width="6.07" height="512"/>
    <rect class="cls-1" x="192" y=".42" width="6.07" height="512"/>
    <rect class="cls-1" x="128" y=".42" width="6.07" height="512"/>
    <rect class="cls-1" x="64" y=".42" width="6.07" height="512"/>
    <rect class="cls-1" y=".42" width="6.07" height="512"/>
  </g>
  <g>
    <rect class="cls-1" x="0" y="505.93" width="512" height="6.07"/>
    <rect class="cls-1" x="0" y="441.93" width="512" height="6.07"/>
    <rect class="cls-1" x="0" y="377.93" width="512" height="6.07"/>
    <rect class="cls-1" x="0" y="313.93" width="512" height="6.07"/>
    <rect class="cls-1" x="0" y="249.93" width="512" height="6.07"/>
    <rect class="cls-1" x="0" y="185.93" width="512" height="6.07"/>
    <rect class="cls-1" x="0" y="121.93" width="512" height="6.07"/>
    <rect class="cls-1" x="0" y="57.93" width="512" height="6.07"/>
  </g>
</svg>