<?xml version="1.0" encoding="UTF-8"?>
<svg id="_레이어_1" data-name="레이어 1" xmlns="http://www.w3.org/2000/svg" xmlns:xlink="http://www.w3.org/1999/xlink" viewBox="0 0 512 512">
  <defs>
    <style>
      .cls-1 {
        fill: none;
      }

      .cls-2 {
        fill: #294236;
      }

      .cls-3 {
        fill: #5bdda5;
      }

      .cls-4 {
        clip-path: url(#clippath);
      }
    </style>
    <clipPath id="clippath">
      <rect class="cls-1" width="512" height="512"/>
    </clipPath>
  </defs>
  <rect class="cls-2" width="512" height="512"/>
  <g class="cls-4">
    <g>
      <polygon class="cls-3" points="521.08 1.18 483.21 -32.02 445.35 1.18 407.48 -32.02 369.61 1.18 331.74 -32.02 293.87 1.18 256 -32.02 256 -32.02 256 -32.02 256 -32.02 256 -32.02 218.13 1.18 180.26 -32.02 142.39 1.18 104.52 -32.02 66.65 1.18 28.79 -32.02 -9.08 1.18 -46.95 -32.02 -46.95 -1.18 -9.08 32.02 28.79 -1.18 66.65 32.02 104.52 -1.18 142.39 32.02 180.26 -1.18 218.13 32.02 256 -1.18 293.87 32.02 331.74 -1.18 369.61 32.02 407.48 -1.18 445.35 32.02 483.21 -1.18 521.08 32.02 558.95 -1.18 558.95 -32.02 521.08 1.18"/>
      <polygon class="cls-3" points="521.08 129.18 483.21 95.98 445.35 129.18 407.48 95.98 369.61 129.18 331.74 95.98 293.87 129.18 256 95.98 256 95.98 256 95.98 256 95.98 256 95.98 218.13 129.18 180.26 95.98 142.39 129.18 104.52 95.98 66.65 129.18 28.79 95.98 -9.08 129.18 -46.95 95.98 -46.95 126.82 -9.08 160.02 28.79 126.82 66.65 160.02 104.52 126.82 142.39 160.02 180.26 126.82 218.13 160.02 256 126.82 293.87 160.02 331.74 126.82 369.61 160.02 407.48 126.82 445.35 160.02 483.21 126.82 521.08 160.02 558.95 126.82 558.95 95.98 521.08 129.18"/>
      <polygon class="cls-3" points="521.08 257.18 483.21 223.98 445.35 257.18 407.48 223.98 369.61 257.18 331.74 223.98 293.87 257.18 256 223.98 256 223.98 256 223.98 256 223.98 256 223.98 218.13 257.18 180.26 223.98 142.39 257.18 104.52 223.98 66.65 257.18 28.79 223.98 -9.08 257.18 -46.95 223.98 -46.95 254.82 -9.08 288.02 28.79 254.82 66.65 288.02 104.52 254.82 142.39 288.02 180.26 254.82 218.13 288.02 256 254.82 293.87 288.02 331.74 254.82 369.61 288.02 407.48 254.82 445.35 288.02 483.21 254.82 521.08 288.02 558.95 254.82 558.95 223.98 521.08 257.18"/>
      <polygon class="cls-3" points="521.08 385.18 483.21 351.98 445.35 385.18 407.48 351.98 369.61 385.18 331.74 351.98 293.87 385.18 256 351.98 256 351.98 256 351.98 256 351.98 256 351.98 218.13 385.18 180.26 351.98 142.39 385.18 104.52 351.98 66.65 385.18 28.79 351.98 -9.08 385.18 -46.95 351.98 -46.95 382.82 -9.08 416.02 28.79 382.82 66.65 416.02 104.52 382.82 142.39 416.02 180.26 382.82 218.13 416.02 256 382.82 293.87 416.02 331.74 382.82 369.61 416.02 407.48 382.82 445.35 416.02 483.21 382.82 521.08 416.02 558.95 382.82 558.95 351.98 521.08 385.18"/>
      <polygon class="cls-3" points="521.08 513.18 483.21 479.98 445.35 513.18 407.48 479.98 369.61 513.18 331.74 479.98 293.87 513.18 256 479.98 256 479.98 256 479.98 256 479.98 256 479.98 218.13 513.18 180.26 479.98 142.39 513.18 104.52 479.98 66.65 513.18 28.79 479.98 -9.08 513.18 -46.95 479.98 -46.95 510.82 -9.08 544.02 28.79 510.82 66.65 544.02 104.52 510.82 142.39 544.02 180.26 510.82 218.13 544.02 256 510.82 293.87 544.02 331.74 510.82 369.61 544.02 407.48 510.82 445.35 544.02 483.21 510.82 521.08 544.02 558.95 510.82 558.95 479.98 521.08 513.18"/>
    </g>
  </g>
</svg>