<?xml version="1.0" encoding="UTF-8"?>
<svg id="_레이어_1" data-name="레이어 1" xmlns="http://www.w3.org/2000/svg" viewBox="0 0 512 512">
  <defs>
    <style>
      .cls-1 {
        fill: #ddd;
      }

      .cls-2 {
        fill: #f53;
      }
    </style>
  </defs>
  <rect class="cls-2" x="0" y="0" width="512" height="512"/>
  <rect class="cls-1" x="0" y="0" width="85.33" height="85.33" transform="translate(85.33 0) rotate(90)"/>
  <rect class="cls-1" x="170.67" y="0" width="85.33" height="85.33" transform="translate(256 -170.67) rotate(90)"/>
  <rect class="cls-1" x="85.33" y="85.33" width="85.33" height="85.33" transform="translate(256 0) rotate(90)"/>
  <rect class="cls-1" x="426.67" y="85.33" width="85.33" height="85.33" transform="translate(597.33 -341.33) rotate(90)"/>
  <rect class="cls-1" x="341.33" y="0" width="85.33" height="85.33" transform="translate(426.67 -341.33) rotate(90)"/>
  <rect class="cls-1" x="256" y="85.33" width="85.33" height="85.33" transform="translate(426.67 -170.67) rotate(90)"/>
  <rect class="cls-1" x="0" y="170.67" width="85.33" height="85.33" transform="translate(256 170.67) rotate(90)"/>
  <rect class="cls-1" x="170.67" y="170.67" width="85.33" height="85.33" transform="translate(426.67 0) rotate(90)"/>
  <rect class="cls-1" x="85.33" y="256" width="85.33" height="85.33" transform="translate(426.67 170.67) rotate(90)"/>
  <rect class="cls-1" x="426.67" y="256" width="85.33" height="85.33" transform="translate(768 -170.67) rotate(90)"/>
  <rect class="cls-1" x="341.33" y="170.67" width="85.33" height="85.33" transform="translate(597.33 -170.67) rotate(90)"/>
  <rect class="cls-1" x="256" y="256" width="85.33" height="85.33" transform="translate(597.33 0) rotate(90)"/>
  <rect class="cls-1" x="0" y="341.33" width="85.33" height="85.33" transform="translate(426.67 341.33) rotate(90)"/>
  <rect class="cls-1" x="170.67" y="341.33" width="85.33" height="85.33" transform="translate(597.33 170.67) rotate(90)"/>
  <rect class="cls-1" x="85.33" y="426.67" width="85.33" height="85.33" transform="translate(597.33 341.33) rotate(90)"/>
  <rect class="cls-1" x="426.67" y="426.67" width="85.33" height="85.33" transform="translate(938.67 0) rotate(90)"/>
  <rect class="cls-1" x="341.33" y="341.33" width="85.33" height="85.33" transform="translate(768 0) rotate(90)"/>
  <rect class="cls-1" x="256" y="426.67" width="85.33" height="85.33" transform="translate(768 170.67) rotate(90)"/>
</svg>