<?xml version="1.0" encoding="UTF-8"?>
<svg id="_레이어_1" data-name="레이어 1" xmlns="http://www.w3.org/2000/svg" xmlns:xlink="http://www.w3.org/1999/xlink" viewBox="0 0 512 512">
  <defs>
    <style>
      .cls-1 {
        fill: url(#_무제_그라디언트_306-5);
      }

      .cls-2 {
        fill: url(#_무제_그라디언트_306-4);
      }

      .cls-3 {
        fill: url(#_무제_그라디언트_306-3);
      }

      .cls-4 {
        fill: url(#_무제_그라디언트_306-2);
      }

      .cls-5 {
        fill: url(#_무제_그라디언트_306-7);
      }

      .cls-6 {
        fill: url(#_무제_그라디언트_306-6);
      }

      .cls-7 {
        fill: url(#_무제_그라디언트_306);
      }

      .cls-8 {
        fill: #fffcad;
      }
    </style>
    <linearGradient id="_무제_그라디언트_306" data-name="무제 그라디언트 306" x1="171.5" y1="-.04" x2="171.5" y2="512" gradientUnits="userSpaceOnUse">
      <stop offset="0" stop-color="#f27831"/>
      <stop offset=".15" stop-color="#f27826" stop-opacity=".76"/>
      <stop offset=".32" stop-color="#f2781d" stop-opacity=".53"/>
      <stop offset=".48" stop-color="#f27815" stop-opacity=".34"/>
      <stop offset=".63" stop-color="#f2780f" stop-opacity=".19"/>
      <stop offset=".77" stop-color="#f2780a" stop-opacity=".09"/>
      <stop offset=".9" stop-color="#f27807" stop-opacity=".02"/>
      <stop offset="1" stop-color="#f27807" stop-opacity="0"/>
    </linearGradient>
    <linearGradient id="_무제_그라디언트_306-2" data-name="무제 그라디언트 306" x1="343.23" x2="343.23" xlink:href="#_무제_그라디언트_306"/>
    <linearGradient id="_무제_그라디언트_306-3" data-name="무제 그라디언트 306" x1="64.79" y1="-.73" x2="64.79" y2="511.31" gradientTransform="translate(151.98 511.96) rotate(-180)" xlink:href="#_무제_그라디언트_306"/>
    <linearGradient id="_무제_그라디언트_306-4" data-name="무제 그라디언트 306" x1="482" x2="482" xlink:href="#_무제_그라디언트_306"/>
    <linearGradient id="_무제_그라디언트_306-5" data-name="무제 그라디언트 306" x1="31.11" x2="31.11" xlink:href="#_무제_그라디언트_306"/>
    <linearGradient id="_무제_그라디언트_306-6" data-name="무제 그라디언트 306" x1="-275.37" y1="-.73" x2="-275.37" y2="511.31" gradientTransform="translate(151.98 511.96) rotate(-180)" xlink:href="#_무제_그라디언트_306"/>
    <linearGradient id="_무제_그라디언트_306-7" data-name="무제 그라디언트 306" x1="-105.29" y1="-.73" x2="-105.29" y2="511.31" gradientTransform="translate(151.98 511.96) rotate(-180)" xlink:href="#_무제_그라디언트_306"/>
  </defs>
  <rect class="cls-8" x="-.04" y="-.04" width="512.09" height="512.09"/>
  <g>
    <polygon class="cls-7" points="232.42 512 110.58 512 147.13 -.04 195.87 -.04 232.42 512"/>
    <polygon class="cls-4" points="404.15 512 282.32 512 318.87 -.04 367.6 -.04 404.15 512"/>
    <polyline class="cls-3" points="148.11 .65 111.56 512.69 62.83 512.69 26.28 .65"/>
    <polygon class="cls-2" points="512 512 452.01 512 488.56 -.04 512 -.04 512 512"/>
    <polygon class="cls-1" points="62.26 512 -.04 512 -.04 -.04 25.71 -.04 62.26 512"/>
    <polyline class="cls-6" points="488.27 .65 451.72 512.69 402.98 512.69 366.43 .65"/>
    <polyline class="cls-5" points="318.19 .65 281.64 512.69 232.9 512.69 196.35 .65"/>
  </g>
</svg>