<?xml version="1.0" encoding="UTF-8"?>
<svg id="_레이어_1" data-name="레이어 1" xmlns="http://www.w3.org/2000/svg" xmlns:xlink="http://www.w3.org/1999/xlink" viewBox="0 0 512 512">
  <defs>
    <style>
      .cls-1 {
        fill: url(#_무제_그라디언트_279-4);
      }

      .cls-2 {
        fill: url(#_무제_그라디언트_279-3);
      }

      .cls-3 {
        fill: url(#_무제_그라디언트_279-2);
      }

      .cls-4 {
        fill: url(#_무제_그라디언트_279);
      }

      .cls-5 {
        fill: #fffcad;
      }
    </style>
    <linearGradient id="_무제_그라디언트_279" data-name="무제 그라디언트 279" x1="1.12" y1="128.19" x2="257.22" y2="128.19" gradientUnits="userSpaceOnUse">
      <stop offset="0" stop-color="#f27831"/>
      <stop offset=".15" stop-color="#f27826" stop-opacity=".76"/>
      <stop offset=".32" stop-color="#f2781d" stop-opacity=".53"/>
      <stop offset=".48" stop-color="#f27815" stop-opacity=".34"/>
      <stop offset=".63" stop-color="#f2780f" stop-opacity=".19"/>
      <stop offset=".77" stop-color="#f2780a" stop-opacity=".09"/>
      <stop offset=".9" stop-color="#f27807" stop-opacity=".02"/>
      <stop offset="1" stop-color="#f27807" stop-opacity="0"/>
    </linearGradient>
    <linearGradient id="_무제_그라디언트_279-2" data-name="무제 그라디언트 279" x1="256.36" y1="128.19" x2="512.46" y2="128.19" xlink:href="#_무제_그라디언트_279"/>
    <linearGradient id="_무제_그라디언트_279-3" data-name="무제 그라디언트 279" y1="384.06" y2="384.06" xlink:href="#_무제_그라디언트_279"/>
    <linearGradient id="_무제_그라디언트_279-4" data-name="무제 그라디언트 279" x1="256.36" y1="384.06" x2="512.46" y2="384.06" xlink:href="#_무제_그라디언트_279"/>
  </defs>
  <rect class="cls-5" width="512" height="512"/>
  <path class="cls-5" d="M0,0c0,141.38,114.62,256,256,256S512,141.38,512,0"/>
  <g>
    <polygon class="cls-4" points="1.12 256.13 257.22 256.13 1.12 .25 1.12 256.13"/>
    <polygon class="cls-3" points="256.36 .25 256.36 256.13 512.46 .25 256.36 .25"/>
    <polygon class="cls-2" points="1.12 512 257.22 512 1.12 256.13 1.12 512"/>
    <polygon class="cls-1" points="256.36 256.13 256.36 512 512.46 256.13 256.36 256.13"/>
  </g>
</svg>