<?xml version="1.0" encoding="UTF-8"?>
<svg id="_레이어_1" data-name="레이어 1" xmlns="http://www.w3.org/2000/svg" viewBox="0 0 512 512">
  <defs>
    <style>
      .cls-1 {
        fill: none;
      }

      .cls-2 {
        fill: #a47ae6;
      }

      .cls-3 {
        fill: #bbe0ff;
      }
    </style>
  </defs>
  <rect class="cls-3" y="0" width="512" height="512"/>
  <g>
    <rect class="cls-2" x="248.45" y="150.96" width="263.55" height="8.12"/>
    <rect class="cls-2" x="248.45" y="107.95" width="263.55" height="8.12"/>
    <rect class="cls-2" x="248.45" y="64.94" width="263.55" height="8.12"/>
    <rect class="cls-2" x="248.45" y="21.93" width="263.55" height="8.12"/>
    <rect class="cls-2" x="0" y="129.46" width="248.45" height="8.12"/>
    <rect class="cls-2" x="0" y="86.44" width="248.45" height="8.12"/>
    <rect class="cls-2" x="0" y="43.43" width="248.45" height="8.12"/>
    <rect class="cls-2" x="0" y=".42" width="248.45" height="8.12"/>
  </g>
  <g>
    <rect class="cls-2" x="248.45" y="319.86" width="263.55" height="8.12"/>
    <rect class="cls-2" x="248.45" y="276.85" width="263.55" height="8.12"/>
    <rect class="cls-2" x="248.45" y="233.84" width="263.55" height="8.12"/>
    <rect class="cls-2" x="248.45" y="190.83" width="263.55" height="8.12"/>
    <rect class="cls-2" x="0" y="298.35" width="248.45" height="8.12"/>
    <rect class="cls-2" x="0" y="255.34" width="248.45" height="8.12"/>
    <rect class="cls-2" x="0" y="212.33" width="248.45" height="8.12"/>
    <rect class="cls-2" x="0" y="169.32" width="248.45" height="8.12"/>
  </g>
  <g>
    <rect class="cls-2" x="248.45" y="488.76" width="263.55" height="8.12"/>
    <rect class="cls-2" x="248.45" y="445.75" width="263.55" height="8.12"/>
    <rect class="cls-2" x="248.45" y="402.74" width="263.55" height="8.12"/>
    <rect class="cls-2" x="248.45" y="359.73" width="263.55" height="8.12"/>
    <rect class="cls-2" x="0" y="467.25" width="248.45" height="8.12"/>
    <rect class="cls-2" x="0" y="424.24" width="248.45" height="8.12"/>
    <rect class="cls-2" x="0" y="381.23" width="248.45" height="8.12"/>
    <rect class="cls-2" x="0" y="338.22" width="248.45" height="8.12"/>
  </g>
  <polygon class="cls-1" points="-.04 -492.61 0 19.48 512.04 19.48 512.04 -492.61 -.04 -492.61"/>
</svg>