<?xml version="1.0" encoding="UTF-8"?>
<svg id="_레이어_1" data-name="레이어 1" xmlns="http://www.w3.org/2000/svg" xmlns:xlink="http://www.w3.org/1999/xlink" viewBox="0 0 512 512">
  <defs>
    <style>
      .cls-1 {
        fill: url(#_무제_그라디언트_792-9);
      }

      .cls-2 {
        fill: url(#_무제_그라디언트_792-4);
      }

      .cls-3 {
        fill: url(#_무제_그라디언트_792-6);
      }

      .cls-4 {
        fill: url(#_무제_그라디언트_792-5);
      }

      .cls-5 {
        fill: url(#_무제_그라디언트_792-3);
      }

      .cls-6 {
        fill: url(#_무제_그라디언트_792-2);
      }

      .cls-7 {
        fill: url(#_무제_그라디언트_792-7);
      }

      .cls-8 {
        fill: url(#_무제_그라디언트_792-8);
      }

      .cls-9 {
        fill: #d1c0ff;
      }

      .cls-10 {
        fill: url(#_무제_그라디언트_792);
      }

      .cls-11 {
        fill: url(#_무제_그라디언트_792-16);
      }

      .cls-12 {
        fill: url(#_무제_그라디언트_792-14);
      }

      .cls-13 {
        fill: url(#_무제_그라디언트_792-13);
      }

      .cls-14 {
        fill: url(#_무제_그라디언트_792-11);
      }

      .cls-15 {
        fill: url(#_무제_그라디언트_792-10);
      }

      .cls-16 {
        fill: url(#_무제_그라디언트_792-15);
      }

      .cls-17 {
        fill: url(#_무제_그라디언트_792-12);
      }
    </style>
    <linearGradient id="_무제_그라디언트_792" data-name="무제 그라디언트 792" x1="63.96" y1="135.41" x2="63.96" y2="263.41" gradientTransform="translate(0 391.41) scale(1 -1)" gradientUnits="userSpaceOnUse">
      <stop offset="0" stop-color="#9f73e5"/>
      <stop offset="1" stop-color="#9f73e5" stop-opacity="0"/>
    </linearGradient>
    <linearGradient id="_무제_그라디언트_792-2" data-name="무제 그라디언트 792" x1="63.96" y1="244.53" x2="63.96" y2="372.53" gradientTransform="translate(0 -244.53)" xlink:href="#_무제_그라디언트_792"/>
    <linearGradient id="_무제_그라디언트_792-3" data-name="무제 그라디언트 792" x1="72.08" y1="-120.29" x2="72.08" y2="7.71" gradientTransform="translate(136.04 375.98) rotate(-180) scale(1 -1)" xlink:href="#_무제_그라디언트_792"/>
    <linearGradient id="_무제_그라디언트_792-4" data-name="무제 그라디언트 792" x1="72.08" y1="500.23" x2="72.08" y2="628.23" gradientTransform="translate(136.04 1011.92) rotate(-180)" xlink:href="#_무제_그라디언트_792"/>
    <linearGradient id="_무제_그라디언트_792-5" data-name="무제 그라디언트 792" x1="191.97" x2="191.97" xlink:href="#_무제_그라디언트_792"/>
    <linearGradient id="_무제_그라디언트_792-6" data-name="무제 그라디언트 792" x1="191.97" y1="244.53" x2="191.97" y2="372.53" gradientTransform="translate(0 -244.53)" xlink:href="#_무제_그라디언트_792"/>
    <linearGradient id="_무제_그라디언트_792-7" data-name="무제 그라디언트 792" x1="-55.93" y1="-120.29" x2="-55.93" y2="7.71" gradientTransform="translate(136.04 375.98) rotate(-180) scale(1 -1)" xlink:href="#_무제_그라디언트_792"/>
    <linearGradient id="_무제_그라디언트_792-8" data-name="무제 그라디언트 792" x1="-55.93" y1="500.23" x2="-55.93" y2="628.23" gradientTransform="translate(136.04 1011.92) rotate(-180)" xlink:href="#_무제_그라디언트_792"/>
    <linearGradient id="_무제_그라디언트_792-9" data-name="무제 그라디언트 792" x1="319.98" x2="319.98" xlink:href="#_무제_그라디언트_792"/>
    <linearGradient id="_무제_그라디언트_792-10" data-name="무제 그라디언트 792" x1="319.98" y1="244.53" x2="319.98" y2="372.53" gradientTransform="translate(0 -244.53)" xlink:href="#_무제_그라디언트_792"/>
    <linearGradient id="_무제_그라디언트_792-11" data-name="무제 그라디언트 792" x1="-183.94" y1="-120.29" x2="-183.94" y2="7.71" gradientTransform="translate(136.04 375.98) rotate(-180) scale(1 -1)" xlink:href="#_무제_그라디언트_792"/>
    <linearGradient id="_무제_그라디언트_792-12" data-name="무제 그라디언트 792" x1="-183.94" y1="500.23" x2="-183.94" y2="628.23" gradientTransform="translate(136.04 1011.92) rotate(-180)" xlink:href="#_무제_그라디언트_792"/>
    <linearGradient id="_무제_그라디언트_792-13" data-name="무제 그라디언트 792" x1="447.99" x2="447.99" xlink:href="#_무제_그라디언트_792"/>
    <linearGradient id="_무제_그라디언트_792-14" data-name="무제 그라디언트 792" x1="447.99" y1="244.53" x2="447.99" y2="372.53" gradientTransform="translate(0 -244.53)" xlink:href="#_무제_그라디언트_792"/>
    <linearGradient id="_무제_그라디언트_792-15" data-name="무제 그라디언트 792" x1="-311.95" y1="-120.29" x2="-311.95" y2="7.71" gradientTransform="translate(136.04 375.98) rotate(-180) scale(1 -1)" xlink:href="#_무제_그라디언트_792"/>
    <linearGradient id="_무제_그라디언트_792-16" data-name="무제 그라디언트 792" x1="-311.95" y1="500.23" x2="-311.95" y2="628.23" gradientTransform="translate(136.04 1011.92) rotate(-180)" xlink:href="#_무제_그라디언트_792"/>
  </defs>
  <rect class="cls-9" x="-.04" y=".8" width="512.09" height="512.09"/>
  <g>
    <polygon class="cls-10" points="63.95 128 -.04 128 63.98 256 127.97 256 63.95 128"/>
    <polygon class="cls-6" points="63.95 128 -.04 128 63.98 0 127.97 0 63.95 128"/>
  </g>
  <g>
    <polygon class="cls-5" points="63.98 383.69 127.97 383.69 63.95 255.69 -.04 255.69 63.98 383.69"/>
    <polygon class="cls-2" points="63.98 383.69 127.97 383.69 63.95 511.69 -.04 511.69 63.98 383.69"/>
  </g>
  <g>
    <polygon class="cls-4" points="191.96 128 127.97 128 191.99 256 255.98 256 191.96 128"/>
    <polygon class="cls-3" points="191.96 128 127.97 128 191.99 0 255.98 0 191.96 128"/>
  </g>
  <g>
    <polygon class="cls-7" points="191.99 383.69 255.98 383.69 191.96 255.69 127.97 255.69 191.99 383.69"/>
    <polygon class="cls-8" points="191.99 383.69 255.98 383.69 191.96 511.69 127.97 511.69 191.99 383.69"/>
  </g>
  <g>
    <polygon class="cls-1" points="319.97 128 255.98 128 320 256 383.99 256 319.97 128"/>
    <polygon class="cls-15" points="319.97 128 255.98 128 320 0 383.99 0 319.97 128"/>
  </g>
  <g>
    <polygon class="cls-14" points="320 383.69 383.99 383.69 319.97 255.69 255.98 255.69 320 383.69"/>
    <polygon class="cls-17" points="320 383.69 383.99 383.69 319.97 511.69 255.98 511.69 320 383.69"/>
  </g>
  <g>
    <polygon class="cls-13" points="447.98 128 383.99 128 448.01 256 512 256 447.98 128"/>
    <polygon class="cls-12" points="447.98 128 383.99 128 448.01 0 512 0 447.98 128"/>
  </g>
  <g>
    <polygon class="cls-16" points="448.01 383.69 512 383.69 447.98 255.69 383.99 255.69 448.01 383.69"/>
    <polygon class="cls-11" points="448.01 383.69 512 383.69 447.98 511.69 383.99 511.69 448.01 383.69"/>
  </g>
</svg>