<?xml version="1.0" encoding="UTF-8"?>
<svg id="_레이어_1" data-name="레이어 1" xmlns="http://www.w3.org/2000/svg" xmlns:xlink="http://www.w3.org/1999/xlink" viewBox="0 0 512 512">
  <defs>
    <style>
      .cls-1 {
        fill: none;
      }

      .cls-2 {
        fill: url(#_무제_그라디언트_821-2);
      }

      .cls-3 {
        fill: url(#_무제_그라디언트_821-6);
      }

      .cls-4 {
        fill: url(#_무제_그라디언트_821-4);
      }

      .cls-5 {
        fill: url(#_무제_그라디언트_821-3);
      }

      .cls-6 {
        fill: url(#_무제_그라디언트_821-5);
      }

      .cls-7 {
        fill: url(#_무제_그라디언트_821);
      }

      .cls-8 {
        fill: #fffcad;
      }

      .cls-9 {
        fill: #e6cfff;
      }
    </style>
    <linearGradient id="_무제_그라디언트_821" data-name="무제 그라디언트 821" x1="256.02" y1="342.19" x2="256.02" y2="512.89" gradientUnits="userSpaceOnUse">
      <stop offset=".16" stop-color="#9f73e5"/>
      <stop offset=".83" stop-color="#9f73e5" stop-opacity=".2"/>
    </linearGradient>
    <linearGradient id="_무제_그라디언트_821-2" data-name="무제 그라디언트 821" x1="0" y1="27.34" x2="512" y2="27.34" xlink:href="#_무제_그라디언트_821"/>
    <linearGradient id="_무제_그라디언트_821-3" data-name="무제 그라디언트 821" x1="0" y1="368.73" x2="512" y2="368.73" xlink:href="#_무제_그라디언트_821"/>
    <linearGradient id="_무제_그라디언트_821-4" data-name="무제 그라디언트 821" x1="256.02" y1="171.5" x2="256.02" y2="394.06" xlink:href="#_무제_그라디언트_821"/>
    <linearGradient id="_무제_그라디언트_821-5" data-name="무제 그라디언트 821" x1="0" y1="198.04" x2="512" y2="198.04" xlink:href="#_무제_그라디언트_821"/>
    <linearGradient id="_무제_그라디언트_821-6" data-name="무제 그라디언트 821" x1="256.02" y1=".8" x2="256.02" y2="223.36" xlink:href="#_무제_그라디언트_821"/>
  </defs>
  <polygon class="cls-9" points="-.04 .8 0 512.89 512.04 512.89 512.04 .8 -.04 .8"/>
  <polygon class="cls-8" points="-.04 .8 0 512.89 512.04 512.89 512.04 .8 -.04 .8"/>
  <g>
    <polygon class="cls-7" points="512.04 342.19 0 512.89 165.59 512.89 512.04 399.2 512.04 342.19"/>
    <rect class="cls-2" x="0" y=".8" width="512" height="53.07"/>
    <g>
      <rect class="cls-5" x="0" y="342.19" width="512" height="53.07"/>
      <polygon class="cls-4" points="0 368.02 7.55 394.06 512.04 228.5 512.04 171.5 0 342.19 0 368.02"/>
    </g>
    <g>
      <rect class="cls-6" x="0" y="171.5" width="512" height="53.07"/>
      <polygon class="cls-3" points="0 197.33 7.55 223.36 512.04 57.81 512.04 .8 0 171.5 0 197.33"/>
    </g>
  </g>
  <polyline class="cls-1" points="512.04 161.25 -.04 161.25 0 673.33 512.04 673.33"/>
</svg>