<?xml version="1.0" encoding="UTF-8"?>
<svg id="_레이어_1" data-name="레이어 1" xmlns="http://www.w3.org/2000/svg" xmlns:xlink="http://www.w3.org/1999/xlink" viewBox="0 0 512 512">
  <defs>
    <style>
      .cls-1 {
        fill: none;
      }

      .cls-2 {
        fill: #b5b6ff;
      }

      .cls-3 {
        fill: url(#_무제_그라디언트_730-2);
      }

      .cls-4 {
        fill: url(#_무제_그라디언트_730);
      }

      .cls-5 {
        clip-path: url(#clippath);
      }
    </style>
    <clipPath id="clippath">
      <rect class="cls-1" x="-.04" y=".8" width="512.09" height="512.09"/>
    </clipPath>
    <linearGradient id="_무제_그라디언트_730" data-name="무제 그라디언트 730" x1="-1194.9" y1="5373.31" x2="-1194.9" y2="5885.31" gradientTransform="translate(-885.05 5886.16) rotate(-180)" gradientUnits="userSpaceOnUse">
      <stop offset="0" stop-color="#7e61a8"/>
      <stop offset="1" stop-color="#7e61a8" stop-opacity="0"/>
    </linearGradient>
    <linearGradient id="_무제_그라디언트_730-2" data-name="무제 그라디언트 730" x1="-2164.77" y1="511.15" x2="-2164.77" y2="-.85" gradientTransform="translate(-1906.11 512) rotate(-180)" xlink:href="#_무제_그라디언트_730"/>
  </defs>
  <rect class="cls-2" x="-.04" y=".8" width="512.09" height="512.09"/>
  <g class="cls-5">
    <g>
      <path class="cls-4" d="M463.46.85h51.2l-51.2,512h-51.2L463.46.85ZM309.86,512.85h51.2L412.26.85h-51.2l-51.2,512ZM207.46,512.85h51.2L309.86.85h-51.2l-51.2,512ZM105.06,512.85h51.2L207.46.85h-51.2l-51.2,512ZM514.66,512.85h51.2L617.06.85h-51.2l-51.2,512ZM2.66,512.85h51.2L105.06.85h-51.2L2.66,512.85Z"/>
      <path class="cls-3" d="M105.06,512.85h-51.2L105.06.85h51.2l-51.2,512ZM258.66.85h-51.2l-51.2,512h51.2L258.66.85ZM361.06.85h-51.2l-51.2,512h51.2L361.06.85ZM463.46.85h-51.2l-51.2,512h51.2L463.46.85ZM53.86.85H2.66l-51.2,512H2.66L53.86.85ZM565.86.85h-51.2l-51.2,512h51.2L565.86.85Z"/>
    </g>
  </g>
</svg>