<?xml version="1.0" encoding="UTF-8"?>
<svg id="_레이어_1" data-name="레이어 1" xmlns="http://www.w3.org/2000/svg" xmlns:xlink="http://www.w3.org/1999/xlink" viewBox="0 0 512 512">
  <defs>
    <style>
      .cls-1 {
        fill: url(#_무제_그라디언트_597-9);
      }

      .cls-2 {
        fill: url(#_무제_그라디언트_597-7);
      }

      .cls-3 {
        fill: url(#_무제_그라디언트_597-8);
      }

      .cls-4 {
        fill: url(#_무제_그라디언트_597-5);
      }

      .cls-5 {
        fill: url(#_무제_그라디언트_597-6);
      }

      .cls-6 {
        fill: url(#_무제_그라디언트_597-2);
      }

      .cls-7 {
        fill: url(#_무제_그라디언트_597-3);
      }

      .cls-8 {
        fill: url(#_무제_그라디언트_597-4);
      }

      .cls-9 {
        fill: url(#_무제_그라디언트_597);
      }

      .cls-10 {
        fill: #228735;
      }

      .cls-11 {
        fill: url(#_무제_그라디언트_597-33);
      }

      .cls-12 {
        fill: url(#_무제_그라디언트_597-32);
      }

      .cls-13 {
        fill: url(#_무제_그라디언트_597-31);
      }

      .cls-14 {
        fill: url(#_무제_그라디언트_597-30);
      }

      .cls-15 {
        fill: url(#_무제_그라디언트_597-37);
      }

      .cls-16 {
        fill: url(#_무제_그라디언트_597-36);
      }

      .cls-17 {
        fill: url(#_무제_그라디언트_597-35);
      }

      .cls-18 {
        fill: url(#_무제_그라디언트_597-34);
      }

      .cls-19 {
        fill: url(#_무제_그라디언트_597-39);
      }

      .cls-20 {
        fill: url(#_무제_그라디언트_597-38);
      }

      .cls-21 {
        fill: url(#_무제_그라디언트_597-49);
      }

      .cls-22 {
        fill: url(#_무제_그라디언트_597-48);
      }

      .cls-23 {
        fill: url(#_무제_그라디언트_597-41);
      }

      .cls-24 {
        fill: url(#_무제_그라디언트_597-40);
      }

      .cls-25 {
        fill: url(#_무제_그라디언트_597-43);
      }

      .cls-26 {
        fill: url(#_무제_그라디언트_597-42);
      }

      .cls-27 {
        fill: url(#_무제_그라디언트_597-45);
      }

      .cls-28 {
        fill: url(#_무제_그라디언트_597-44);
      }

      .cls-29 {
        fill: url(#_무제_그라디언트_597-47);
      }

      .cls-30 {
        fill: url(#_무제_그라디언트_597-46);
      }

      .cls-31 {
        fill: url(#_무제_그라디언트_597-11);
      }

      .cls-32 {
        fill: url(#_무제_그라디언트_597-15);
      }

      .cls-33 {
        fill: url(#_무제_그라디언트_597-18);
      }

      .cls-34 {
        fill: url(#_무제_그라디언트_597-13);
      }

      .cls-35 {
        fill: url(#_무제_그라디언트_597-16);
      }

      .cls-36 {
        fill: url(#_무제_그라디언트_597-19);
      }

      .cls-37 {
        fill: url(#_무제_그라디언트_597-12);
      }

      .cls-38 {
        fill: url(#_무제_그라디언트_597-14);
      }

      .cls-39 {
        fill: url(#_무제_그라디언트_597-17);
      }

      .cls-40 {
        fill: url(#_무제_그라디언트_597-10);
      }

      .cls-41 {
        fill: url(#_무제_그라디언트_597-29);
      }

      .cls-42 {
        fill: url(#_무제_그라디언트_597-23);
      }

      .cls-43 {
        fill: url(#_무제_그라디언트_597-22);
      }

      .cls-44 {
        fill: url(#_무제_그라디언트_597-25);
      }

      .cls-45 {
        fill: url(#_무제_그라디언트_597-28);
      }

      .cls-46 {
        fill: url(#_무제_그라디언트_597-27);
      }

      .cls-47 {
        fill: url(#_무제_그라디언트_597-24);
      }

      .cls-48 {
        fill: url(#_무제_그라디언트_597-21);
      }

      .cls-49 {
        fill: url(#_무제_그라디언트_597-26);
      }

      .cls-50 {
        fill: url(#_무제_그라디언트_597-20);
      }
    </style>
    <linearGradient id="_무제_그라디언트_597" data-name="무제 그라디언트 597" x1="13.62" y1="16.01" x2="65.48" y2="67.87" gradientTransform="translate(-3.59 -4.4)" gradientUnits="userSpaceOnUse">
      <stop offset=".15" stop-color="#a6ffa5"/>
      <stop offset=".29" stop-color="#a6ffa5" stop-opacity=".79"/>
      <stop offset=".54" stop-color="#a6ffa5" stop-opacity=".46"/>
      <stop offset=".74" stop-color="#a6ffa5" stop-opacity=".21"/>
      <stop offset=".88" stop-color="#a6ffa5" stop-opacity=".06"/>
      <stop offset=".96" stop-color="#a6ffa5" stop-opacity="0"/>
      <stop offset="1" stop-color="#5c7080" stop-opacity="0"/>
    </linearGradient>
    <linearGradient id="_무제_그라디언트_597-2" data-name="무제 그라디언트 597" x1="65.48" y1="-35.84" x2="117.34" y2="16.01" gradientTransform="translate(17.89 47.46)" xlink:href="#_무제_그라디언트_597"/>
    <linearGradient id="_무제_그라디언트_597-3" data-name="무제 그라디언트 597" x1="117.34" y1="-87.7" x2="169.2" y2="-35.84" gradientTransform="translate(39.37 99.31)" xlink:href="#_무제_그라디언트_597"/>
    <linearGradient id="_무제_그라디언트_597-4" data-name="무제 그라디언트 597" x1="169.2" y1="-139.56" x2="221.05" y2="-87.7" gradientTransform="translate(60.85 151.17)" xlink:href="#_무제_그라디언트_597"/>
    <linearGradient id="_무제_그라디언트_597-5" data-name="무제 그라디언트 597" x1="221.05" y1="-191.42" x2="272.91" y2="-139.56" gradientTransform="translate(82.33 203.03)" xlink:href="#_무제_그라디언트_597"/>
    <linearGradient id="_무제_그라디언트_597-6" data-name="무제 그라디언트 597" x1="272.91" y1="-243.28" x2="324.77" y2="-191.42" gradientTransform="translate(103.81 254.89)" xlink:href="#_무제_그라디언트_597"/>
    <linearGradient id="_무제_그라디언트_597-7" data-name="무제 그라디언트 597" x1="324.77" y1="-295.14" x2="376.63" y2="-243.28" gradientTransform="translate(125.29 306.75)" xlink:href="#_무제_그라디언트_597"/>
    <linearGradient id="_무제_그라디언트_597-8" data-name="무제 그라디언트 597" x1="64.99" y1="67.39" x2="116.85" y2="119.25" gradientTransform="translate(-54.96 16.88)" xlink:href="#_무제_그라디언트_597"/>
    <linearGradient id="_무제_그라디언트_597-9" data-name="무제 그라디언트 597" x1="116.85" y1="15.53" x2="168.71" y2="67.39" gradientTransform="translate(-33.48 68.74)" xlink:href="#_무제_그라디언트_597"/>
    <linearGradient id="_무제_그라디언트_597-10" data-name="무제 그라디언트 597" x1="168.71" y1="-36.33" x2="220.57" y2="15.53" gradientTransform="translate(-12 120.59)" xlink:href="#_무제_그라디언트_597"/>
    <linearGradient id="_무제_그라디언트_597-11" data-name="무제 그라디언트 597" x1="220.57" y1="-88.19" x2="272.43" y2="-36.33" gradientTransform="translate(9.48 172.45)" xlink:href="#_무제_그라디언트_597"/>
    <linearGradient id="_무제_그라디언트_597-12" data-name="무제 그라디언트 597" x1="272.43" y1="-140.05" x2="324.29" y2="-88.19" gradientTransform="translate(30.96 224.31)" xlink:href="#_무제_그라디언트_597"/>
    <linearGradient id="_무제_그라디언트_597-13" data-name="무제 그라디언트 597" x1="324.29" y1="-191.91" x2="376.14" y2="-140.05" gradientTransform="translate(52.44 276.17)" xlink:href="#_무제_그라디언트_597"/>
    <linearGradient id="_무제_그라디언트_597-14" data-name="무제 그라디언트 597" x1="376.14" y1="-243.76" x2="428" y2="-191.91" gradientTransform="translate(73.92 328.03)" xlink:href="#_무제_그라디언트_597"/>
    <linearGradient id="_무제_그라디언트_597-15" data-name="무제 그라디언트 597" x1="116.37" y1="118.76" x2="168.23" y2="170.62" gradientTransform="translate(-106.33 38.16)" xlink:href="#_무제_그라디언트_597"/>
    <linearGradient id="_무제_그라디언트_597-16" data-name="무제 그라디언트 597" x1="168.23" y1="66.9" x2="220.08" y2="118.76" gradientTransform="translate(-84.85 90.01)" xlink:href="#_무제_그라디언트_597"/>
    <linearGradient id="_무제_그라디언트_597-17" data-name="무제 그라디언트 597" x1="220.08" y1="15.04" x2="271.94" y2="66.9" gradientTransform="translate(-63.37 141.87)" xlink:href="#_무제_그라디언트_597"/>
    <linearGradient id="_무제_그라디언트_597-18" data-name="무제 그라디언트 597" x1="271.94" y1="-36.82" x2="323.8" y2="15.04" gradientTransform="translate(-41.89 193.73)" xlink:href="#_무제_그라디언트_597"/>
    <linearGradient id="_무제_그라디언트_597-19" data-name="무제 그라디언트 597" x1="323.8" y1="-88.67" x2="375.66" y2="-36.82" gradientTransform="translate(-20.41 245.59)" xlink:href="#_무제_그라디언트_597"/>
    <linearGradient id="_무제_그라디언트_597-20" data-name="무제 그라디언트 597" x1="375.66" y1="-140.53" x2="427.52" y2="-88.67" gradientTransform="translate(1.07 297.45)" xlink:href="#_무제_그라디언트_597"/>
    <linearGradient id="_무제_그라디언트_597-21" data-name="무제 그라디언트 597" x1="427.52" y1="-192.39" x2="479.38" y2="-140.53" gradientTransform="translate(22.55 349.31)" xlink:href="#_무제_그라디언트_597"/>
    <linearGradient id="_무제_그라디언트_597-22" data-name="무제 그라디언트 597" x1="167.74" y1="170.13" x2="219.6" y2="221.99" gradientTransform="translate(-157.71 59.44)" xlink:href="#_무제_그라디언트_597"/>
    <linearGradient id="_무제_그라디언트_597-23" data-name="무제 그라디언트 597" x1="219.6" y1="118.27" x2="271.46" y2="170.13" gradientTransform="translate(-136.23 111.29)" xlink:href="#_무제_그라디언트_597"/>
    <linearGradient id="_무제_그라디언트_597-24" data-name="무제 그라디언트 597" x1="271.46" y1="66.42" x2="323.32" y2="118.27" gradientTransform="translate(-114.75 163.15)" xlink:href="#_무제_그라디언트_597"/>
    <linearGradient id="_무제_그라디언트_597-25" data-name="무제 그라디언트 597" x1="323.32" y1="14.56" x2="375.17" y2="66.42" gradientTransform="translate(-93.27 215.01)" xlink:href="#_무제_그라디언트_597"/>
    <linearGradient id="_무제_그라디언트_597-26" data-name="무제 그라디언트 597" x1="375.17" y1="-37.3" x2="427.03" y2="14.56" gradientTransform="translate(-71.79 266.87)" xlink:href="#_무제_그라디언트_597"/>
    <linearGradient id="_무제_그라디언트_597-27" data-name="무제 그라디언트 597" x1="427.03" y1="-89.16" x2="478.89" y2="-37.3" gradientTransform="translate(-50.31 318.73)" xlink:href="#_무제_그라디언트_597"/>
    <linearGradient id="_무제_그라디언트_597-28" data-name="무제 그라디언트 597" x1="478.89" y1="-141.02" x2="530.75" y2="-89.16" gradientTransform="translate(-28.82 370.59)" xlink:href="#_무제_그라디언트_597"/>
    <linearGradient id="_무제_그라디언트_597-29" data-name="무제 그라디언트 597" x1="219.11" y1="221.51" x2="270.97" y2="273.37" gradientTransform="translate(-209.08 80.72)" xlink:href="#_무제_그라디언트_597"/>
    <linearGradient id="_무제_그라디언트_597-30" data-name="무제 그라디언트 597" x1="270.97" y1="169.65" x2="322.83" y2="221.51" gradientTransform="translate(-187.6 132.57)" xlink:href="#_무제_그라디언트_597"/>
    <linearGradient id="_무제_그라디언트_597-31" data-name="무제 그라디언트 597" x1="322.83" y1="117.79" x2="374.69" y2="169.65" gradientTransform="translate(-166.12 184.43)" xlink:href="#_무제_그라디언트_597"/>
    <linearGradient id="_무제_그라디언트_597-32" data-name="무제 그라디언트 597" x1="374.69" y1="65.93" x2="426.55" y2="117.79" gradientTransform="translate(-144.64 236.29)" xlink:href="#_무제_그라디언트_597"/>
    <linearGradient id="_무제_그라디언트_597-33" data-name="무제 그라디언트 597" x1="426.55" y1="14.07" x2="478.41" y2="65.93" gradientTransform="translate(-123.16 288.15)" xlink:href="#_무제_그라디언트_597"/>
    <linearGradient id="_무제_그라디언트_597-34" data-name="무제 그라디언트 597" x1="478.41" y1="-37.79" x2="530.26" y2="14.07" gradientTransform="translate(-101.68 340.01)" xlink:href="#_무제_그라디언트_597"/>
    <linearGradient id="_무제_그라디언트_597-35" data-name="무제 그라디언트 597" x1="530.26" y1="-89.64" x2="582.12" y2="-37.79" gradientTransform="translate(-80.2 391.87)" xlink:href="#_무제_그라디언트_597"/>
    <linearGradient id="_무제_그라디언트_597-36" data-name="무제 그라디언트 597" x1="270.49" y1="272.88" x2="322.34" y2="324.74" gradientTransform="translate(-260.45 101.99)" xlink:href="#_무제_그라디언트_597"/>
    <linearGradient id="_무제_그라디언트_597-37" data-name="무제 그라디언트 597" x1="322.34" y1="221.02" x2="374.2" y2="272.88" gradientTransform="translate(-238.97 153.85)" xlink:href="#_무제_그라디언트_597"/>
    <linearGradient id="_무제_그라디언트_597-38" data-name="무제 그라디언트 597" x1="374.2" y1="169.16" x2="426.06" y2="221.02" gradientTransform="translate(-217.49 205.71)" xlink:href="#_무제_그라디언트_597"/>
    <linearGradient id="_무제_그라디언트_597-39" data-name="무제 그라디언트 597" x1="426.06" y1="117.3" x2="477.92" y2="169.16" gradientTransform="translate(-196.01 257.57)" xlink:href="#_무제_그라디언트_597"/>
    <linearGradient id="_무제_그라디언트_597-40" data-name="무제 그라디언트 597" x1="477.92" y1="65.45" x2="529.78" y2="117.3" gradientTransform="translate(-174.53 309.43)" xlink:href="#_무제_그라디언트_597"/>
    <linearGradient id="_무제_그라디언트_597-41" data-name="무제 그라디언트 597" x1="529.78" y1="13.59" x2="581.64" y2="65.45" gradientTransform="translate(-153.05 361.29)" xlink:href="#_무제_그라디언트_597"/>
    <linearGradient id="_무제_그라디언트_597-42" data-name="무제 그라디언트 597" x1="581.64" y1="-38.27" x2="633.5" y2="13.59" gradientTransform="translate(-131.57 413.15)" xlink:href="#_무제_그라디언트_597"/>
    <linearGradient id="_무제_그라디언트_597-43" data-name="무제 그라디언트 597" x1="321.86" y1="324.25" x2="373.72" y2="376.11" gradientTransform="translate(-311.83 123.27)" xlink:href="#_무제_그라디언트_597"/>
    <linearGradient id="_무제_그라디언트_597-44" data-name="무제 그라디언트 597" x1="373.72" y1="272.39" x2="425.58" y2="324.25" gradientTransform="translate(-290.35 175.13)" xlink:href="#_무제_그라디언트_597"/>
    <linearGradient id="_무제_그라디언트_597-45" data-name="무제 그라디언트 597" x1="425.58" y1="220.54" x2="477.43" y2="272.39" gradientTransform="translate(-268.87 226.99)" xlink:href="#_무제_그라디언트_597"/>
    <linearGradient id="_무제_그라디언트_597-46" data-name="무제 그라디언트 597" x1="477.43" y1="168.68" x2="529.29" y2="220.54" gradientTransform="translate(-247.39 278.85)" xlink:href="#_무제_그라디언트_597"/>
    <linearGradient id="_무제_그라디언트_597-47" data-name="무제 그라디언트 597" x1="529.29" y1="116.82" x2="581.15" y2="168.68" gradientTransform="translate(-225.91 330.71)" xlink:href="#_무제_그라디언트_597"/>
    <linearGradient id="_무제_그라디언트_597-48" data-name="무제 그라디언트 597" x1="581.15" y1="64.96" x2="633.01" y2="116.82" gradientTransform="translate(-204.42 382.57)" xlink:href="#_무제_그라디언트_597"/>
    <linearGradient id="_무제_그라디언트_597-49" data-name="무제 그라디언트 597" x1="633.01" y1="13.1" x2="684.87" y2="64.96" gradientTransform="translate(-182.94 434.43)" xlink:href="#_무제_그라디언트_597"/>
  </defs>
  <rect class="cls-10" x="-.04" y="-.54" width="512.09" height="512.09"/>
  <g>
    <rect class="cls-9" x="10.03" y="11.61" width="51.86" height="51.86" transform="translate(37.08 -14.43) rotate(45)"/>
    <rect class="cls-6" x="83.37" y="11.61" width="51.86" height="51.86" transform="translate(58.56 -66.29) rotate(45)"/>
    <rect class="cls-7" x="156.71" y="11.61" width="51.86" height="51.86" transform="translate(80.04 -118.15) rotate(45)"/>
    <rect class="cls-8" x="230.05" y="11.61" width="51.86" height="51.86" transform="translate(101.52 -170.01) rotate(45)"/>
    <rect class="cls-4" x="303.39" y="11.61" width="51.86" height="51.86" transform="translate(123 -221.87) rotate(45)"/>
    <rect class="cls-5" x="376.73" y="11.61" width="51.86" height="51.86" transform="translate(144.48 -273.73) rotate(45)"/>
    <rect class="cls-2" x="450.07" y="11.61" width="51.86" height="51.86" transform="translate(165.96 -325.58) rotate(45)"/>
    <rect class="cls-3" x="10.03" y="84.26" width="51.86" height="51.86" transform="translate(88.45 6.85) rotate(45)"/>
    <rect class="cls-1" x="83.37" y="84.26" width="51.86" height="51.86" transform="translate(109.93 -45.01) rotate(45)"/>
    <rect class="cls-40" x="156.71" y="84.26" width="51.86" height="51.86" transform="translate(131.41 -96.87) rotate(45)"/>
    <rect class="cls-31" x="230.05" y="84.26" width="51.86" height="51.86" transform="translate(152.89 -148.73) rotate(45)"/>
    <rect class="cls-37" x="303.39" y="84.26" width="51.86" height="51.86" transform="translate(174.37 -200.59) rotate(45)"/>
    <rect class="cls-34" x="376.73" y="84.26" width="51.86" height="51.86" transform="translate(195.85 -252.45) rotate(45)"/>
    <rect class="cls-38" x="450.07" y="84.26" width="51.86" height="51.86" transform="translate(217.33 -304.3) rotate(45)"/>
    <rect class="cls-32" x="10.03" y="156.92" width="51.86" height="51.86" transform="translate(139.82 28.13) rotate(45)"/>
    <rect class="cls-35" x="83.37" y="156.92" width="51.86" height="51.86" transform="translate(161.3 -23.73) rotate(45)"/>
    <rect class="cls-39" x="156.71" y="156.92" width="51.86" height="51.86" transform="translate(182.79 -75.59) rotate(45)"/>
    <rect class="cls-33" x="230.05" y="156.92" width="51.86" height="51.86" transform="translate(204.27 -127.45) rotate(45)"/>
    <rect class="cls-36" x="303.39" y="156.92" width="51.86" height="51.86" transform="translate(225.75 -179.31) rotate(45)"/>
    <rect class="cls-50" x="376.73" y="156.92" width="51.86" height="51.86" transform="translate(247.23 -231.17) rotate(45)"/>
    <rect class="cls-48" x="450.07" y="156.92" width="51.86" height="51.86" transform="translate(268.71 -283.03) rotate(45)"/>
    <rect class="cls-43" x="10.03" y="229.57" width="51.86" height="51.86" transform="translate(191.2 49.41) rotate(45)"/>
    <rect class="cls-42" x="83.37" y="229.57" width="51.86" height="51.86" transform="translate(212.68 -2.45) rotate(45)"/>
    <rect class="cls-47" x="156.71" y="229.57" width="51.86" height="51.86" transform="translate(234.16 -54.31) rotate(45)"/>
    <rect class="cls-44" x="230.05" y="229.57" width="51.86" height="51.86" transform="translate(255.64 -106.17) rotate(45)"/>
    <rect class="cls-49" x="303.39" y="229.57" width="51.86" height="51.86" transform="translate(277.12 -158.03) rotate(45)"/>
    <rect class="cls-46" x="376.73" y="229.57" width="51.86" height="51.86" transform="translate(298.6 -209.89) rotate(45)"/>
    <rect class="cls-45" x="450.07" y="229.57" width="51.86" height="51.86" transform="translate(320.08 -261.75) rotate(45)"/>
    <rect class="cls-41" x="10.03" y="302.22" width="51.86" height="51.86" transform="translate(242.57 70.68) rotate(45)"/>
    <rect class="cls-14" x="83.37" y="302.22" width="51.86" height="51.86" transform="translate(264.05 18.83) rotate(45)"/>
    <rect class="cls-13" x="156.71" y="302.22" width="51.86" height="51.86" transform="translate(285.53 -33.03) rotate(45)"/>
    <rect class="cls-12" x="230.05" y="302.22" width="51.86" height="51.86" transform="translate(307.01 -84.89) rotate(45)"/>
    <rect class="cls-11" x="303.39" y="302.22" width="51.86" height="51.86" transform="translate(328.49 -136.75) rotate(45)"/>
    <rect class="cls-18" x="376.73" y="302.22" width="51.86" height="51.86" transform="translate(349.97 -188.61) rotate(45)"/>
    <rect class="cls-17" x="450.07" y="302.22" width="51.86" height="51.86" transform="translate(371.45 -240.47) rotate(45)"/>
    <rect class="cls-16" x="10.03" y="374.87" width="51.86" height="51.86" transform="translate(293.94 91.96) rotate(45)"/>
    <rect class="cls-15" x="83.37" y="374.87" width="51.86" height="51.86" transform="translate(315.42 40.11) rotate(45)"/>
    <rect class="cls-20" x="156.71" y="374.87" width="51.86" height="51.86" transform="translate(336.9 -11.75) rotate(45)"/>
    <rect class="cls-19" x="230.05" y="374.87" width="51.86" height="51.86" transform="translate(358.39 -63.61) rotate(45)"/>
    <rect class="cls-24" x="303.39" y="374.87" width="51.86" height="51.86" transform="translate(379.87 -115.47) rotate(45)"/>
    <rect class="cls-23" x="376.73" y="374.87" width="51.86" height="51.86" transform="translate(401.35 -167.33) rotate(45)"/>
    <rect class="cls-26" x="450.07" y="374.87" width="51.86" height="51.86" transform="translate(422.83 -219.19) rotate(45)"/>
    <rect class="cls-25" x="10.03" y="447.53" width="51.86" height="51.86" transform="translate(345.32 113.24) rotate(45)"/>
    <rect class="cls-28" x="83.37" y="447.53" width="51.86" height="51.86" transform="translate(366.8 61.39) rotate(45)"/>
    <rect class="cls-27" x="156.71" y="447.53" width="51.86" height="51.86" transform="translate(388.28 9.53) rotate(45)"/>
    <rect class="cls-30" x="230.05" y="447.53" width="51.86" height="51.86" transform="translate(409.76 -42.33) rotate(45)"/>
    <rect class="cls-29" x="303.39" y="447.53" width="51.86" height="51.86" transform="translate(431.24 -94.19) rotate(45)"/>
    <rect class="cls-22" x="376.73" y="447.53" width="51.86" height="51.86" transform="translate(452.72 -146.05) rotate(45)"/>
    <rect class="cls-21" x="450.07" y="447.53" width="51.86" height="51.86" transform="translate(474.2 -197.91) rotate(45)"/>
  </g>
</svg>