<?xml version="1.0" encoding="UTF-8"?>
<svg id="_레이어_1" data-name="레이어 1" xmlns="http://www.w3.org/2000/svg" xmlns:xlink="http://www.w3.org/1999/xlink" viewBox="0 0 512 512">
  <defs>
    <style>
      .cls-1 {
        fill: url(#_무제_그라디언트_889);
      }

      .cls-2 {
        fill: url(#_무제_그라디언트_890);
      }
    </style>
    <linearGradient id="_무제_그라디언트_890" data-name="무제 그라디언트 890" x1="635.31" y1="-1575.59" x2="1147.35" y2="-1575.59" gradientTransform="translate(-635.35 1830.91)" gradientUnits="userSpaceOnUse">
      <stop offset="0" stop-color="#22753c"/>
      <stop offset=".5" stop-color="#fff3ac"/>
      <stop offset=".75" stop-color="#8eb373"/>
      <stop offset="1" stop-color="#22753c"/>
    </linearGradient>
    <linearGradient id="_무제_그라디언트_889" data-name="무제 그라디언트 889" x1="255.98" y1=".7" x2="255.98" y2="512.7" gradientUnits="userSpaceOnUse">
      <stop offset="0" stop-color="#fff3ac"/>
      <stop offset=".1" stop-color="#bdcd8a"/>
      <stop offset=".21" stop-color="#85ad6e"/>
      <stop offset=".3" stop-color="#5a9558"/>
      <stop offset=".38" stop-color="#3b8349"/>
      <stop offset=".45" stop-color="#28783f"/>
      <stop offset=".5" stop-color="#22753c"/>
      <stop offset=".55" stop-color="#2c7b41"/>
      <stop offset=".63" stop-color="#498b50"/>
      <stop offset=".74" stop-color="#78a667"/>
      <stop offset=".87" stop-color="#b8ca88"/>
      <stop offset="1" stop-color="#fff3ac"/>
    </linearGradient>
  </defs>
  <rect class="cls-2" x="-.04" y="-.7" width="512.04" height="512.04" transform="translate(511.3 -.65) rotate(90)"/>
  <path class="cls-1" d="M106.7.7l-42.58,256,42.58,256h42.58l42.58-256L149.28.7h-42.58ZM234.64.7l-42.58,256,42.58,256h42.58l42.58-256L277.22.7h-42.58ZM362.57.7l-42.58,256,42.58,256h42.58l42.58-256L405.15.7h-42.58ZM490.75.7l-42.58,256,42.58,256h21.25V.7h-21.25ZM-.04.7L0,256.7v256h21.25l42.58-256L21.25.7H-.04Z"/>
</svg>