<?xml version="1.0" encoding="UTF-8"?>
<svg id="_레이어_1" data-name="레이어 1" xmlns="http://www.w3.org/2000/svg" xmlns:xlink="http://www.w3.org/1999/xlink" viewBox="0 0 512 512">
  <defs>
    <style>
      .cls-1 {
        fill: none;
      }

      .cls-2 {
        fill: url(#_무제_그라디언트_821-2);
      }

      .cls-3 {
        fill: url(#_무제_그라디언트_821-3);
      }

      .cls-4 {
        fill: #d1c0ff;
      }

      .cls-5 {
        fill: url(#_무제_그라디언트_821);
      }

      .cls-6 {
        clip-path: url(#clippath);
      }
    </style>
    <clipPath id="clippath">
      <polygon class="cls-1" points="-.04 .8 0 512.89 512.04 512.89 512.04 .8 -.04 .8"/>
    </clipPath>
    <linearGradient id="_무제_그라디언트_821" data-name="무제 그라디언트 821" x1="269.3" y1="-25.76" x2="269.3" y2="184.31" gradientUnits="userSpaceOnUse">
      <stop offset=".16" stop-color="#9f73e5"/>
      <stop offset=".83" stop-color="#9f73e5" stop-opacity=".2"/>
    </linearGradient>
    <linearGradient id="_무제_그라디언트_821-2" data-name="무제 그라디언트 821" y1="138.53" y2="348.6" xlink:href="#_무제_그라디언트_821"/>
    <linearGradient id="_무제_그라디언트_821-3" data-name="무제 그라디언트 821" y1="302.82" y2="512.89" xlink:href="#_무제_그라디언트_821"/>
  </defs>
  <polygon class="cls-4" points="-.04 .8 0 512.89 512.04 512.89 512.04 .8 -.04 .8"/>
  <g class="cls-6">
    <g>
      <polygon class="cls-5" points="533 184.31 0 184.31 0 144.92 525.32 -25.76 538.61 12.59 129.37 143.88 533 143.88 533 184.31"/>
      <polygon class="cls-2" points="533 348.6 0 348.6 0 309.21 525.32 138.53 538.61 176.88 129.37 308.17 533 308.17 533 348.6"/>
      <polygon class="cls-3" points="533 512.89 0 512.89 0 473.5 525.32 302.82 538.61 341.17 129.36 472.47 533 472.47 533 512.89"/>
    </g>
  </g>
</svg>