<?xml version="1.0" encoding="UTF-8"?>
<svg id="_레이어_1" data-name="레이어 1" xmlns="http://www.w3.org/2000/svg" xmlns:xlink="http://www.w3.org/1999/xlink" viewBox="0 0 512 512">
  <defs>
    <style>
      .cls-1, .cls-2 {
        fill: none;
      }

      .cls-3 {
        fill: #ffc50d;
      }

      .cls-2 {
        stroke: #ddd;
        stroke-miterlimit: 10;
        stroke-width: 4px;
      }

      .cls-4 {
        clip-path: url(#clippath);
      }
    </style>
    <clipPath id="clippath">
      <rect class="cls-1" x="-.41" y=".71" width="512.82" height="510.58"/>
    </clipPath>
  </defs>
  <g class="cls-4">
    <rect class="cls-3" x="-.41" y=".71" width="512.82" height="510.58"/>
    <g>
      <polygon class="cls-2" points="32.08 170.83 91.64 170.83 59.73 85.54 .17 85.54 32.08 170.83"/>
      <polygon class="cls-2" points="59.73 85.54 .17 85.54 32.08 .25 91.64 .25 59.73 85.54"/>
      <polygon class="cls-2" points="32.08 341.42 91.64 341.42 59.73 256.13 .17 256.13 32.08 341.42"/>
      <polygon class="cls-2" points="59.73 256.13 .17 256.13 32.08 170.83 91.64 170.83 59.73 256.13"/>
      <polygon class="cls-2" points="32.08 512 91.64 512 59.73 426.71 .17 426.71 32.08 512"/>
      <polygon class="cls-2" points="59.73 426.71 .17 426.71 32.08 341.42 91.64 341.42 59.73 426.71"/>
      <polygon class="cls-2" points="138.04 170.83 197.61 170.83 165.7 85.54 106.14 85.54 138.04 170.83"/>
      <polygon class="cls-2" points="165.7 85.54 106.14 85.54 138.04 .25 197.61 .25 165.7 85.54"/>
      <polygon class="cls-2" points="138.04 341.42 197.61 341.42 165.7 256.13 106.14 256.13 138.04 341.42"/>
      <polygon class="cls-2" points="165.7 256.13 106.14 256.13 138.04 170.83 197.61 170.83 165.7 256.13"/>
      <polygon class="cls-2" points="138.04 512 197.61 512 165.7 426.71 106.14 426.71 138.04 512"/>
      <polygon class="cls-2" points="165.7 426.71 106.14 426.71 138.04 341.42 197.61 341.42 165.7 426.71"/>
      <polygon class="cls-2" points="244.01 170.83 303.58 170.83 271.67 85.54 212.1 85.54 244.01 170.83"/>
      <polygon class="cls-2" points="271.67 85.54 212.1 85.54 244.01 .25 303.58 .25 271.67 85.54"/>
      <polygon class="cls-2" points="244.01 341.42 303.58 341.42 271.67 256.13 212.1 256.13 244.01 341.42"/>
      <polygon class="cls-2" points="271.67 256.13 212.1 256.13 244.01 170.83 303.58 170.83 271.67 256.13"/>
      <polygon class="cls-2" points="244.01 512 303.58 512 271.67 426.71 212.1 426.71 244.01 512"/>
      <polygon class="cls-2" points="271.67 426.71 212.1 426.71 244.01 341.42 303.58 341.42 271.67 426.71"/>
      <polygon class="cls-2" points="349.98 170.83 409.54 170.83 377.63 85.54 318.07 85.54 349.98 170.83"/>
      <polygon class="cls-2" points="377.63 85.54 318.07 85.54 349.98 .25 409.54 .25 377.63 85.54"/>
      <polygon class="cls-2" points="349.98 341.42 409.54 341.42 377.63 256.13 318.07 256.13 349.98 341.42"/>
      <polygon class="cls-2" points="377.63 256.13 318.07 256.13 349.98 170.83 409.54 170.83 377.63 256.13"/>
      <polygon class="cls-2" points="349.98 512 409.54 512 377.63 426.71 318.07 426.71 349.98 512"/>
      <polygon class="cls-2" points="377.63 426.71 318.07 426.71 349.98 341.42 409.54 341.42 377.63 426.71"/>
      <polygon class="cls-2" points="455.95 170.83 515.51 170.83 483.6 85.54 424.04 85.54 455.95 170.83"/>
      <polygon class="cls-2" points="483.6 85.54 424.04 85.54 455.95 .25 515.51 .25 483.6 85.54"/>
      <polygon class="cls-2" points="455.95 341.42 515.51 341.42 483.6 256.13 424.04 256.13 455.95 341.42"/>
      <polygon class="cls-2" points="483.6 256.13 424.04 256.13 455.95 170.83 515.51 170.83 483.6 256.13"/>
      <polygon class="cls-2" points="455.95 512 515.51 512 483.6 426.71 424.04 426.71 455.95 512"/>
      <polygon class="cls-2" points="483.6 426.71 424.04 426.71 455.95 341.42 515.51 341.42 483.6 426.71"/>
    </g>
  </g>
</svg>