<?xml version="1.0" encoding="UTF-8"?>
<svg id="_레이어_1" data-name="레이어 1" xmlns="http://www.w3.org/2000/svg" xmlns:xlink="http://www.w3.org/1999/xlink" viewBox="0 0 512 512">
  <defs>
    <style>
      .cls-1 {
        fill: none;
      }

      .cls-2 {
        fill: url(#_무제_그라디언트_821-2);
      }

      .cls-3 {
        fill: url(#_무제_그라디언트_821-6);
      }

      .cls-4 {
        fill: url(#_무제_그라디언트_821-4);
      }

      .cls-5 {
        fill: url(#_무제_그라디언트_821-3);
      }

      .cls-6 {
        fill: url(#_무제_그라디언트_821-5);
      }

      .cls-7 {
        fill: url(#_무제_그라디언트_821);
      }

      .cls-8 {
        clip-path: url(#clippath);
      }

      .cls-9 {
        fill: #e6cfff;
      }
    </style>
    <clipPath id="clippath">
      <polygon class="cls-1" points="-.04 .8 0 512.89 512.04 512.89 512.04 .8 -.04 .8"/>
    </clipPath>
    <linearGradient id="_무제_그라디언트_821" data-name="무제 그라디언트 821" x1="0" y1="326.15" x2="512" y2="326.15" gradientUnits="userSpaceOnUse">
      <stop offset=".16" stop-color="#9f73e5"/>
      <stop offset=".83" stop-color="#9f73e5" stop-opacity=".2"/>
    </linearGradient>
    <linearGradient id="_무제_그라디언트_821-2" data-name="무제 그라디언트 821" y1="160.09" y2="160.09" xlink:href="#_무제_그라디언트_821"/>
    <linearGradient id="_무제_그라디언트_821-3" data-name="무제 그라디언트 821" x1="269.3" y1="-25.76" x2="269.3" y2="141.32" xlink:href="#_무제_그라디언트_821"/>
    <linearGradient id="_무제_그라디언트_821-4" data-name="무제 그라디언트 821" x1="269.3" y1="140.3" x2="269.3" y2="307.38" xlink:href="#_무제_그라디언트_821"/>
    <linearGradient id="_무제_그라디언트_821-5" data-name="무제 그라디언트 821" y1="492.21" y2="492.21" xlink:href="#_무제_그라디언트_821"/>
    <linearGradient id="_무제_그라디언트_821-6" data-name="무제 그라디언트 821" x1="269.3" y1="306.37" x2="269.3" y2="473.45" xlink:href="#_무제_그라디언트_821"/>
  </defs>
  <polygon class="cls-9" points="-.04 .8 0 512.89 512.04 512.89 512.04 .8 -.04 .8"/>
  <polygon class="cls-1" points="-.04 .8 0 512.89 512.04 512.89 512.04 .8 -.04 .8"/>
  <g class="cls-8">
    <g>
      <polygon class="cls-7" points="512 345.94 0 345.94 0 307.38 124.27 306.37 512 306.37 512 345.94"/>
      <g>
        <polygon class="cls-2" points="512 179.87 0 179.87 0 141.32 124.27 140.3 512 140.3 512 179.87"/>
        <polyline class="cls-5" points="538.61 11.78 129.37 140.3 0 141.32 525.32 -25.76"/>
        <polyline class="cls-4" points="538.61 177.84 129.37 306.37 0 307.38 525.32 140.3"/>
        <polygon class="cls-6" points="512 512 0 512 0 473.45 124.27 472.43 512 472.43 512 512"/>
      </g>
      <polyline class="cls-3" points="538.61 343.91 129.37 472.43 0 473.45 525.32 306.37"/>
    </g>
  </g>
</svg>