<?xml version="1.0" encoding="UTF-8"?>
<svg id="_레이어_1" data-name="레이어 1" xmlns="http://www.w3.org/2000/svg" viewBox="0 0 512 512">
  <defs>
    <style>
      .cls-1 {
        fill: #ddd;
      }

      .cls-2 {
        fill: #ffcc4d;
      }
    </style>
  </defs>
  <rect class="cls-2" x="0" y="0" width="512" height="512"/>
  <path class="cls-1" d="M256,0h9.42c0,135.96,110.62,246.58,246.58,246.58v9.42C370.84,256,256,141.16,256,0Z"/>
  <path class="cls-1" d="M312.35,0h9.42c0,104.89,85.34,190.23,190.23,190.23v9.42C401.91,199.65,312.35,110.09,312.35,0Z"/>
  <path class="cls-1" d="M381.65,0h9.42c0,66.68,54.25,120.93,120.93,120.93v9.42C440.12,130.35,381.65,71.88,381.65,0Z"/>
  <path class="cls-1" d="M256,0h9.42c0,135.96,110.62,246.58,246.58,246.58v9.42C370.84,256,256,141.16,256,0Z"/>
  <path class="cls-1" d="M312.35,0h9.42c0,104.89,85.34,190.23,190.23,190.23v9.42C401.91,199.65,312.35,110.09,312.35,0Z"/>
  <path class="cls-1" d="M381.65,0h9.42c0,66.68,54.25,120.93,120.93,120.93v9.42C440.12,130.35,381.65,71.88,381.65,0Z"/>
  <path class="cls-1" d="M0,256c141.16,0,256,114.84,256,256h-9.42C246.58,376.04,135.96,265.42,0,265.42v-9.42Z"/>
  <path class="cls-1" d="M0,312.34c110.09,0,199.66,89.57,199.66,199.66h-9.42C190.24,407.1,104.9,321.76,0,321.76v-9.42Z"/>
  <path class="cls-1" d="M0,381.64c71.88,0,130.36,58.48,130.36,130.36h-9.42C120.94,445.32,66.68,391.06,0,391.06v-9.42Z"/>
  <path class="cls-1" d="M512,256v27.26c-126.12,0-228.74,102.61-228.74,228.73h-27.26c0-141.16,114.84-256,256-256Z"/>
  <path class="cls-1" d="M512,310.34v27.26c-96.16,0-174.39,78.23-174.39,174.39h-27.26c0-111.19,90.46-201.65,201.66-201.65Z"/>
  <path class="cls-1" d="M512,377.18v27.26c-59.31,0-107.55,48.25-107.55,107.55h-27.26c0-74.34,60.48-134.82,134.82-134.82Z"/>
  <path class="cls-1" d="M228.79.5h27.21c0,140.88-114.62,255.5-255.5,255.5v-27.21c125.88,0,228.29-102.41,228.29-228.29Z"/>
  <path class="cls-1" d="M174.55.5h27.21C201.76,111.48,111.48,201.76.5,201.76v-27.21c95.97,0,174.05-78.08,174.05-174.05Z"/>
  <path class="cls-1" d="M107.84.5h27.21c0,74.19-60.36,134.55-134.55,134.55v-27.21c59.19,0,107.34-48.15,107.34-107.34Z"/>
</svg>