<?xml version="1.0" encoding="UTF-8"?>
<svg id="_레이어_1" data-name="레이어 1" xmlns="http://www.w3.org/2000/svg" width="512" height="512" viewBox="0 0 512 512">
  <defs>
    <style>
      .cls-1 {
        fill: #11ffbd;
      }

      .cls-2 {
        fill: #64ccc9;
      }
    </style>
  </defs>
  <g>
    <rect class="cls-1" x="127.82" y="127.53" width="128.51" height="383.35"/>
    <rect class="cls-2" x="192.12" y="127.53" width="64.21" height="383.35"/>
    <g>
      <g>
        <ellipse class="cls-2" cx="192.12" cy="319.2" rx="63.89" ry="63.64"/>
        <path class="cls-1" d="M192.12,382.85c35.29,0,63.89-28.49,63.89-63.64s-28.61-63.64-63.89-63.64"/>
      </g>
      <g>
        <ellipse class="cls-2" cx="192.12" cy="128.63" rx="63.89" ry="63.64"/>
        <path class="cls-1" d="M192.12,192.27c35.29,0,63.89-28.49,63.89-63.64s-28.61-63.64-63.89-63.64"/>
      </g>
      <g>
        <ellipse class="cls-2" cx="192.12" cy="510.88" rx="63.89" ry="63.64"/>
        <path class="cls-1" d="M192.12,574.52c35.29,0,63.89-28.49,63.89-63.64s-28.61-63.64-63.89-63.64"/>
      </g>
    </g>
  </g>
  <g>
    <g>
      <rect class="cls-1" x=".1" y="127.53" width="128.51" height="383.35"/>
      <rect class="cls-2" x="64.4" y="127.53" width="64.21" height="383.35"/>
      <g>
        <g>
          <ellipse class="cls-2" cx="64.4" cy="319.2" rx="63.89" ry="63.64"/>
          <path class="cls-1" d="M64.4,382.85c35.29,0,63.89-28.49,63.89-63.64s-28.61-63.64-63.89-63.64"/>
        </g>
        <g>
          <ellipse class="cls-2" cx="64.4" cy="128.63" rx="63.89" ry="63.64"/>
          <path class="cls-1" d="M64.4,192.27c35.29,0,63.89-28.49,63.89-63.64s-28.61-63.64-63.89-63.64"/>
        </g>
        <g>
          <ellipse class="cls-2" cx="64.4" cy="510.88" rx="63.89" ry="63.64"/>
          <path class="cls-1" d="M64.4,574.52c35.29,0,63.89-28.49,63.89-63.64s-28.61-63.64-63.89-63.64"/>
        </g>
      </g>
    </g>
    <g>
      <rect class="cls-1" x=".1" y="-254.66" width="128.51" height="383.35"/>
      <rect class="cls-2" x="64.4" y="-254.66" width="64.21" height="383.35"/>
      <g>
        <g>
          <ellipse class="cls-2" cx="64.4" cy="-62.98" rx="63.89" ry="63.64"/>
          <path class="cls-1" d="M64.4.66c35.29,0,63.89-28.49,63.89-63.64s-28.61-63.64-63.89-63.64"/>
        </g>
        <g>
          <ellipse class="cls-2" cx="64.4" cy="128.69" rx="63.89" ry="63.64"/>
          <path class="cls-1" d="M64.4,192.33c35.29,0,63.89-28.49,63.89-63.64s-28.61-63.64-63.89-63.64"/>
        </g>
      </g>
    </g>
  </g>
  <g>
    <g>
      <rect class="cls-1" x="254.9" y="127.53" width="128.51" height="383.35"/>
      <rect class="cls-2" x="319.21" y="127.53" width="64.21" height="383.35"/>
      <g>
        <g>
          <ellipse class="cls-2" cx="319.21" cy="319.2" rx="63.89" ry="63.64"/>
          <path class="cls-1" d="M319.21,382.85c35.29,0,63.89-28.49,63.89-63.64s-28.61-63.64-63.89-63.64"/>
        </g>
        <g>
          <ellipse class="cls-2" cx="319.21" cy="128.63" rx="63.89" ry="63.64"/>
          <path class="cls-1" d="M319.21,192.27c35.29,0,63.89-28.49,63.89-63.64s-28.61-63.64-63.89-63.64"/>
        </g>
        <g>
          <ellipse class="cls-2" cx="319.21" cy="510.88" rx="63.89" ry="63.64"/>
          <path class="cls-1" d="M319.21,574.52c35.29,0,63.89-28.49,63.89-63.64s-28.61-63.64-63.89-63.64"/>
        </g>
      </g>
    </g>
    <g>
      <rect class="cls-1" x="254.9" y="-254.66" width="128.51" height="383.35"/>
      <rect class="cls-2" x="319.21" y="-254.66" width="64.21" height="383.35"/>
      <g>
        <g>
          <ellipse class="cls-2" cx="319.21" cy="-62.98" rx="63.89" ry="63.64"/>
          <path class="cls-1" d="M319.21.66c35.29,0,63.89-28.49,63.89-63.64s-28.61-63.64-63.89-63.64"/>
        </g>
        <g>
          <ellipse class="cls-2" cx="319.21" cy="128.69" rx="63.89" ry="63.64"/>
          <path class="cls-1" d="M319.21,192.33c35.29,0,63.89-28.49,63.89-63.64s-28.61-63.64-63.89-63.64"/>
        </g>
      </g>
    </g>
  </g>
  <g>
    <g>
      <rect class="cls-1" x="383.9" y="127.53" width="128.51" height="383.35"/>
      <rect class="cls-2" x="448.2" y="127.53" width="64.21" height="383.35"/>
      <g>
        <g>
          <ellipse class="cls-2" cx="448.2" cy="319.2" rx="63.89" ry="63.64"/>
          <path class="cls-1" d="M448.2,382.85c35.29,0,63.89-28.49,63.89-63.64s-28.61-63.64-63.89-63.64"/>
        </g>
        <g>
          <ellipse class="cls-2" cx="448.2" cy="128.63" rx="63.89" ry="63.64"/>
          <path class="cls-1" d="M448.2,192.27c35.29,0,63.89-28.49,63.89-63.64s-28.61-63.64-63.89-63.64"/>
        </g>
        <g>
          <ellipse class="cls-2" cx="448.2" cy="510.88" rx="63.89" ry="63.64"/>
          <path class="cls-1" d="M448.2,574.52c35.29,0,63.89-28.49,63.89-63.64s-28.61-63.64-63.89-63.64"/>
        </g>
      </g>
    </g>
    <g>
      <rect class="cls-1" x="383.9" y="-254.66" width="128.51" height="383.35"/>
      <rect class="cls-2" x="448.2" y="-254.66" width="64.21" height="383.35"/>
      <g>
        <g>
          <ellipse class="cls-2" cx="448.2" cy="-62.98" rx="63.89" ry="63.64"/>
          <path class="cls-1" d="M448.2.66c35.29,0,63.89-28.49,63.89-63.64s-28.61-63.64-63.89-63.64"/>
        </g>
        <g>
          <ellipse class="cls-2" cx="448.2" cy="128.69" rx="63.89" ry="63.64"/>
          <path class="cls-1" d="M448.2,192.33c35.29,0,63.89-28.49,63.89-63.64s-28.61-63.64-63.89-63.64"/>
        </g>
      </g>
    </g>
  </g>
  <g>
    <rect class="cls-1" x="127.82" y="-254.66" width="128.51" height="383.35"/>
    <rect class="cls-2" x="192.12" y="-254.66" width="64.21" height="383.35"/>
    <g>
      <g>
        <ellipse class="cls-2" cx="192.12" cy="-62.98" rx="63.89" ry="63.64"/>
        <path class="cls-1" d="M192.12.66c35.29,0,63.89-28.49,63.89-63.64s-28.61-63.64-63.89-63.64"/>
      </g>
      <g>
        <ellipse class="cls-2" cx="192.12" cy="128.69" rx="63.89" ry="63.64"/>
        <path class="cls-1" d="M192.12,192.33c35.29,0,63.89-28.49,63.89-63.64s-28.61-63.64-63.89-63.64"/>
      </g>
    </g>
  </g>
</svg>