<?xml version="1.0" encoding="UTF-8"?>
<svg id="_레이어_1" data-name="레이어 1" xmlns="http://www.w3.org/2000/svg" xmlns:xlink="http://www.w3.org/1999/xlink" viewBox="0 0 512 512">
  <defs>
    <style>
      .cls-1 {
        fill: none;
      }

      .cls-2 {
        fill: url(#_무제_그라디언트_143-2);
      }

      .cls-3 {
        fill: url(#_무제_그라디언트_143);
      }

      .cls-4 {
        fill: #c7f8fd;
      }

      .cls-5 {
        clip-path: url(#clippath);
      }
    </style>
    <clipPath id="clippath">
      <rect class="cls-1" x="-.04" y=".36" width="512.09" height="512.09"/>
    </clipPath>
    <linearGradient id="_무제_그라디언트_143" data-name="무제 그라디언트 143" x1="-7803.94" y1="3326.71" x2="-7803.94" y2="3838.71" gradientTransform="translate(-7547.9361 3838.2672) rotate(-180)" gradientUnits="userSpaceOnUse">
      <stop offset="0" stop-color="#e58bda" stop-opacity="0"/>
      <stop offset="1" stop-color="#e58bda"/>
    </linearGradient>
    <linearGradient id="_무제_그라디언트_143-2" data-name="무제 그라디언트 143" x1="-8773.8" y1="-1535.44" x2="-8773.8" y2="-2047.44" gradientTransform="translate(-8568.9987 -1535.8895) rotate(-180)" xlink:href="#_무제_그라디언트_143"/>
  </defs>
  <rect class="cls-4" x="0" y="-.44" width="512" height="512"/>
  <g class="cls-5">
    <g>
      <path class="cls-3" d="M409.6-.44h51.2l-51.2,512h-51.2L409.6-.44ZM256,511.56h51.2L358.4-.44h-51.2l-51.2,512ZM153.6,511.56h51.2L256-.44h-51.2l-51.2,512ZM51.2,511.56h51.2L153.6-.44h-51.2l-51.2,512ZM460.8,511.56h51.2L563.2-.44h-51.2l-51.2,512ZM-51.2,511.56H0L51.2-.44H0l-51.2,512Z"/>
      <path class="cls-2" d="M51.2,511.56H0L51.2-.44h51.2l-51.2,512ZM204.8-.44h-51.2l-51.2,512h51.2L204.8-.44ZM307.2-.44h-51.2l-51.2,512h51.2L307.2-.44ZM409.6-.44h-51.2l-51.2,512h51.2L409.6-.44ZM0-.44h-51.2l-51.2,512h51.2L0-.44ZM512-.44h-51.2l-51.2,512h51.2L512-.44Z"/>
    </g>
  </g>
</svg>