<?xml version="1.0" encoding="UTF-8"?>
<svg id="_레이어_1" data-name="레이어 1" xmlns="http://www.w3.org/2000/svg" width="512" height="512" xmlns:xlink="http://www.w3.org/1999/xlink" viewBox="0 0 512 512">
  <defs>
    <style>
      .cls-1, .cls-2 {
        fill: none;
      }

      .cls-2 {
        stroke: #85ff7d;
        stroke-miterlimit: 10;
        stroke-width: 6px;
      }

      .cls-3 {
        clip-path: url(#clippath-1);
      }

      .cls-4 {
        clip-path: url(#clippath-3);
      }

      .cls-5 {
        clip-path: url(#clippath-4);
      }

      .cls-6 {
        clip-path: url(#clippath-2);
      }

      .cls-7 {
        clip-path: url(#clippath-6);
      }

      .cls-8 {
        fill: #82ff95;
      }

      .cls-9 {
        clip-path: url(#clippath);
      }

      .cls-10 {
        fill: #ad70ff;
      }
    </style>
    <clipPath id="clippath">
      <rect class="cls-1" x="0" y="-622.83" width="512" height="512"/>
    </clipPath>
    <clipPath id="clippath-1">
      <rect class="cls-1" x="0" y="0" width="512" height="512"/>
    </clipPath>
    <clipPath id="clippath-2">
      <rect class="cls-1" x="0" width="512" height="512"/>
    </clipPath>
    <clipPath id="clippath-3">
      <rect class="cls-1" x="0" width="512" height="512"/>
    </clipPath>
    <clipPath id="clippath-4">
      <rect class="cls-1" x="0" y="0" width="512" height="512"/>
    </clipPath>
    <clipPath id="clippath-6">
      <rect class="cls-1" x="0" y="0" width="512" height="512"/>
    </clipPath>
  </defs>
  <g class="cls-9">
    <g>
      <path class="cls-8" d="M90.1,145.51H-254.51V-199.1H90.1V145.51ZM-248.11,139.11H83.7V-192.7H-248.11V139.11Z"/>
      <path class="cls-8" d="M766.51,145.51h-344.61V-199.1h344.61V145.51ZM428.3,139.11h331.8V-192.7h-331.8V139.11Z"/>
    </g>
  </g>
  <g>
    <rect class="cls-10" x="0" y="0" width="512" height="512"/>
    <g class="cls-3">
      <g>
        <g class="cls-6">
          <line class="cls-2" x1="295.53" y1="457.12" x2="-93.06" y2="845.7"/>
          <line class="cls-2" x1="333.28" y1="681.46" x2="-55.3" y2="292.88"/>
        </g>
        <g class="cls-4">
          <line class="cls-2" x1="588.44" y1="-158.83" x2="199.86" y2="229.76"/>
          <line class="cls-2" x1="101.23" y1="147.89" x2="-287.35" y2="-240.69"/>
        </g>
        <g class="cls-5">
          <line class="cls-2" x1="792.41" y1="-54.88" x2="403.83" y2="333.7"/>
          <line class="cls-2" x1="805.67" y1="187.33" x2="460.45" y2="187.33"/>
          <line class="cls-2" x1="870.21" y1="366.56" x2="326.03" y2="443.16"/>
          <line class="cls-2" x1="941.33" y1="245.24" x2="430.88" y2="263.76"/>
        </g>
        <line class="cls-2" x1="220.75" y1="167.61" x2="365.07" y2="388"/>
        <line class="cls-2" x1="295.53" y1="-54.88" x2="-93.06" y2="333.7"/>
        <line class="cls-2" x1="588.44" y1="353.17" x2="199.86" y2="741.76"/>
        <line class="cls-2" x1="201.52" y1="187.33" x2="-240.75" y2="187.33"/>
        <line class="cls-2" x1="333.28" y1="169.46" x2="-55.3" y2="-219.12"/>
        <line class="cls-2" x1="743.62" y1="443.16" x2="355.04" y2="54.58"/>
        <line class="cls-2" x1="373.32" y1="366.56" x2="-170.85" y2="443.16"/>
        <line class="cls-2" x1="320.33" y1="249.74" x2="-104.73" y2="265.17"/>
        <line class="cls-2" x1="666.76" y1="166.79" x2="298.04" y2="74.13"/>
        <g class="cls-7">
          <line class="cls-2" x1="231.62" y1="443.16" x2="-156.96" y2="54.58"/>
          <line class="cls-2" x1="154.76" y1="166.79" x2="-378.2" y2="32.85"/>
        </g>
      </g>
    </g>
  </g>
</svg>