<?xml version="1.0" encoding="UTF-8"?>
<svg id="_레이어_1" data-name="레이어 1" xmlns="http://www.w3.org/2000/svg" width="512" height="512" xmlns:xlink="http://www.w3.org/1999/xlink" viewBox="0 0 512 512">
  <defs>
    <style>
      .cls-1, .cls-2 {
        fill: none;
      }

      .cls-2 {
        stroke: #85ff7d;
        stroke-miterlimit: 10;
        stroke-width: 6px;
      }

      .cls-3 {
        clip-path: url(#clippath-1);
      }

      .cls-4 {
        clip-path: url(#clippath-2);
      }

      .cls-5 {
        fill: #60a09f;
      }

      .cls-6 {
        fill: #82ff95;
      }

      .cls-7 {
        clip-path: url(#clippath);
      }

      .cls-8 {
        fill: #ad70ff;
      }
    </style>
    <clipPath id="clippath">
      <rect class="cls-1" x="-644.61" y="-622.83" width="512" height="512"/>
    </clipPath>
    <clipPath id="clippath-1">
      <rect class="cls-1" x="-644.61" y="0" width="512" height="512"/>
    </clipPath>
    <clipPath id="clippath-2">
      <rect class="cls-1" x="-644.61" y="0" width="512" height="512"/>
    </clipPath>
  </defs>
  <g>
    <rect class="cls-8" y=".37" width="512" height="512" transform="translate(512.37 .37) rotate(90)"/>
    <rect class="cls-5" x="170.67" y="-3.05" width="170.67" height="512" transform="translate(508.95 -3.05) rotate(90)"/>
    <rect class="cls-5" x=".36" y="427.04" width="512" height="85.33"/>
    <rect class="cls-5" x="213.37" y="-213.52" width="84.96" height="512" transform="translate(298.34 -213.37) rotate(90)"/>
  </g>
  <g class="cls-7">
    <path class="cls-6" d="M121.9,145.51H-222.71V-199.1H121.9V145.51ZM-216.31,139.11H115.5V-192.7H-216.31V139.11Z"/>
  </g>
  <g class="cls-3">
    <g>
      <g class="cls-4">
        <line class="cls-2" x1="147.8" y1="-54.88" x2="-240.78" y2="333.7"/>
        <line class="cls-2" x1="161.06" y1="187.33" x2="-184.16" y2="187.33"/>
        <line class="cls-2" x1="225.6" y1="366.56" x2="-318.58" y2="443.16"/>
        <line class="cls-2" x1="296.72" y1="245.24" x2="-213.73" y2="263.76"/>
      </g>
      <line class="cls-2" x1="99.01" y1="443.16" x2="-289.57" y2="54.58"/>
      <line class="cls-2" x1="22.15" y1="166.79" x2="-346.57" y2="74.13"/>
    </g>
  </g>
</svg>