<?xml version="1.0" encoding="UTF-8"?>
<svg id="_레이어_1" data-name="레이어 1" xmlns="http://www.w3.org/2000/svg" xmlns:xlink="http://www.w3.org/1999/xlink" viewBox="0 0 512 512">
  <defs>
    <style>
      .cls-1 {
        fill: none;
      }

      .cls-2 {
        clip-path: url(#clippath-17);
      }

      .cls-3 {
        clip-path: url(#clippath-19);
      }

      .cls-4 {
        clip-path: url(#clippath-11);
      }

      .cls-5 {
        clip-path: url(#clippath-16);
      }

      .cls-6 {
        clip-path: url(#clippath-10);
      }

      .cls-7 {
        clip-path: url(#clippath-15);
      }

      .cls-8 {
        clip-path: url(#clippath-14);
      }

      .cls-9 {
        clip-path: url(#clippath-12);
      }

      .cls-10 {
        clip-path: url(#clippath-1);
      }

      .cls-11 {
        clip-path: url(#clippath-4);
      }

      .cls-12 {
        clip-path: url(#clippath-2);
      }

      .cls-13 {
        clip-path: url(#clippath-7);
      }

      .cls-14 {
        clip-path: url(#clippath-6);
      }

      .cls-15 {
        clip-path: url(#clippath-9);
      }

      .cls-16 {
        clip-path: url(#clippath-5);
      }

      .cls-17 {
        fill: #ff2934;
      }

      .cls-18 {
        clip-path: url(#clippath);
      }

      .cls-19 {
        fill: #fc4457;
      }
    </style>
    <clipPath id="clippath">
      <rect class="cls-1" x="-2.01" y=".28" width="256.92" height="256.92"/>
    </clipPath>
    <clipPath id="clippath-1">
      <rect class="cls-1" x="-2.01" y=".28" width="256.92" height="256.92"/>
    </clipPath>
    <clipPath id="clippath-2">
      <rect class="cls-1" x="-2.01" y=".28" width="256.92" height="256.92"/>
    </clipPath>
    <clipPath id="clippath-4">
      <rect class="cls-1" x="-2.01" y=".28" width="256.92" height="256.92"/>
    </clipPath>
    <clipPath id="clippath-5">
      <rect class="cls-1" x="253.31" y=".28" width="256.92" height="256.92"/>
    </clipPath>
    <clipPath id="clippath-6">
      <rect class="cls-1" x="253.31" y=".28" width="256.92" height="256.92"/>
    </clipPath>
    <clipPath id="clippath-7">
      <rect class="cls-1" x="253.31" y=".28" width="256.92" height="256.92"/>
    </clipPath>
    <clipPath id="clippath-9">
      <rect class="cls-1" x="253.31" y=".28" width="256.92" height="256.92"/>
    </clipPath>
    <clipPath id="clippath-10">
      <rect class="cls-1" x="-2.01" y="255.61" width="256.92" height="256.92"/>
    </clipPath>
    <clipPath id="clippath-11">
      <rect class="cls-1" x="-2.01" y="255.61" width="256.92" height="256.92"/>
    </clipPath>
    <clipPath id="clippath-12">
      <rect class="cls-1" x="-2.01" y="255.61" width="256.92" height="256.92"/>
    </clipPath>
    <clipPath id="clippath-14">
      <rect class="cls-1" x="-2.01" y="255.61" width="256.92" height="256.92"/>
    </clipPath>
    <clipPath id="clippath-15">
      <rect class="cls-1" x="253.31" y="255.61" width="256.92" height="256.92"/>
    </clipPath>
    <clipPath id="clippath-16">
      <rect class="cls-1" x="253.31" y="255.61" width="256.92" height="256.92"/>
    </clipPath>
    <clipPath id="clippath-17">
      <rect class="cls-1" x="253.31" y="255.61" width="256.92" height="256.92"/>
    </clipPath>
    <clipPath id="clippath-19">
      <rect class="cls-1" x="253.31" y="255.61" width="256.92" height="256.92"/>
    </clipPath>
  </defs>
  <rect class="cls-17" x="-2.01" y=".28" width="512" height="512"/>
  <g>
    <g class="cls-18">
      <g>
        <circle class="cls-19" cx="167.24" cy="7.4" r="19.02"/>
        <circle class="cls-19" cx="-13.82" cy="70.23" r="19.02"/>
        <circle class="cls-19" cx="254.91" cy="176.88" r="19.02"/>
        <circle class="cls-19" cx="84.44" cy="-7.58" r="19.02"/>
        <circle class="cls-19" cx="46.47" cy="95.54" r="19.02"/>
        <circle class="cls-19" cx="112.87" cy="73.63" r="19.02"/>
        <circle class="cls-19" cx="68.81" cy="198.66" r="19.02"/>
        <circle class="cls-19" cx="27.45" cy="38.48" r="19.02"/>
        <circle class="cls-19" cx="170.05" cy="95.54" r="19.02"/>
        <circle class="cls-19" cx="136.8" cy="170.51" r="19.02"/>
        <circle class="cls-19" cx="229.05" cy="231.81" r="19.02"/>
        <rect class="cls-1" x="-2.01" y=".28" width="256.92" height="256.92"/>
        <g class="cls-10">
          <circle class="cls-19" cx="-2.01" cy="176.88" r="19.02"/>
        </g>
        <g class="cls-12">
          <circle class="cls-19" cx="167.24" cy="264.32" r="19.02"/>
          <circle class="cls-19" cx="84.44" cy="249.34" r="19.02"/>
        </g>
        <g class="cls-11">
          <circle class="cls-19" cx="243.09" cy="70.23" r="19.02"/>
        </g>
      </g>
    </g>
    <g class="cls-16">
      <g>
        <circle class="cls-19" cx="422.56" cy="7.4" r="19.02"/>
        <circle class="cls-19" cx="241.5" cy="70.23" r="19.02"/>
        <circle class="cls-19" cx="510.23" cy="176.88" r="19.02"/>
        <circle class="cls-19" cx="339.76" cy="-7.58" r="19.02"/>
        <circle class="cls-19" cx="301.79" cy="95.54" r="19.02"/>
        <circle class="cls-19" cx="348.12" cy="129.77" r="19.02"/>
        <circle class="cls-19" cx="381.77" cy="57.5" r="19.02"/>
        <circle class="cls-19" cx="324.13" cy="198.66" r="19.02"/>
        <circle class="cls-19" cx="405.83" cy="162.87" r="19.02"/>
        <circle class="cls-19" cx="282.78" cy="38.48" r="19.02"/>
        <circle class="cls-19" cx="425.37" cy="95.54" r="19.02"/>
        <circle class="cls-19" cx="484.37" cy="231.81" r="19.02"/>
        <rect class="cls-1" x="253.31" y=".28" width="256.92" height="256.92"/>
        <g class="cls-14">
          <circle class="cls-19" cx="253.31" cy="176.88" r="19.02"/>
        </g>
        <g class="cls-13">
          <circle class="cls-19" cx="422.56" cy="264.32" r="19.02"/>
          <circle class="cls-19" cx="339.76" cy="249.34" r="19.02"/>
        </g>
        <g class="cls-15">
          <circle class="cls-19" cx="498.41" cy="70.23" r="19.02"/>
        </g>
      </g>
    </g>
    <g class="cls-6">
      <g>
        <circle class="cls-19" cx="167.24" cy="262.73" r="19.02"/>
        <circle class="cls-19" cx="-13.82" cy="325.56" r="19.02"/>
        <circle class="cls-19" cx="254.91" cy="432.2" r="19.02"/>
        <circle class="cls-19" cx="84.44" cy="247.75" r="19.02"/>
        <circle class="cls-19" cx="46.47" cy="350.86" r="19.02"/>
        <circle class="cls-19" cx="126.45" cy="312.83" r="19.02"/>
        <circle class="cls-19" cx="195.36" cy="365.7" r="19.02"/>
        <circle class="cls-19" cx="68.81" cy="453.98" r="19.02"/>
        <circle class="cls-19" cx="27.45" cy="293.81" r="19.02"/>
        <circle class="cls-19" cx="153.92" cy="400.09" r="19.02"/>
        <circle class="cls-19" cx="229.05" cy="487.13" r="19.02"/>
        <rect class="cls-1" x="-2.01" y="255.61" width="256.92" height="256.92"/>
        <g class="cls-4">
          <circle class="cls-19" cx="-2.01" cy="432.2" r="19.02"/>
        </g>
        <g class="cls-9">
          <circle class="cls-19" cx="167.24" cy="519.64" r="19.02"/>
          <circle class="cls-19" cx="84.44" cy="504.66" r="19.02"/>
        </g>
        <g class="cls-8">
          <circle class="cls-19" cx="243.09" cy="325.56" r="19.02"/>
        </g>
      </g>
    </g>
    <g class="cls-7">
      <g>
        <circle class="cls-19" cx="422.56" cy="262.73" r="19.02"/>
        <circle class="cls-19" cx="241.5" cy="325.56" r="19.02"/>
        <circle class="cls-19" cx="510.23" cy="432.2" r="19.02"/>
        <circle class="cls-19" cx="339.76" cy="247.75" r="19.02"/>
        <circle class="cls-19" cx="301.79" cy="350.86" r="19.02"/>
        <circle class="cls-19" cx="381.77" cy="312.83" r="19.02"/>
        <circle class="cls-19" cx="383.47" cy="393.45" r="19.02"/>
        <circle class="cls-19" cx="324.13" cy="453.98" r="19.02"/>
        <circle class="cls-19" cx="282.78" cy="293.81" r="19.02"/>
        <circle class="cls-19" cx="425.37" cy="350.86" r="19.02"/>
        <circle class="cls-19" cx="445.74" cy="416.21" r="19.02"/>
        <circle class="cls-19" cx="484.37" cy="487.13" r="19.02"/>
        <rect class="cls-1" x="253.31" y="255.61" width="256.92" height="256.92"/>
        <g class="cls-5">
          <circle class="cls-19" cx="253.31" cy="432.2" r="19.02"/>
        </g>
        <g class="cls-2">
          <circle class="cls-19" cx="422.56" cy="519.64" r="19.02"/>
          <circle class="cls-19" cx="339.76" cy="504.66" r="19.02"/>
        </g>
        <g class="cls-3">
          <circle class="cls-19" cx="498.41" cy="325.56" r="19.02"/>
        </g>
      </g>
    </g>
    <circle class="cls-19" cx="227.96" cy="126.94" r="19.02"/>
  </g>
</svg>