<?xml version="1.0" encoding="UTF-8"?>
<svg id="_레이어_1" data-name="레이어 1" xmlns="http://www.w3.org/2000/svg" width="512" height="512" xmlns:xlink="http://www.w3.org/1999/xlink" viewBox="0 0 512 512">
  <defs>
    <style>
      .cls-1 {
        fill: none;
      }

      .cls-2 {
        fill: #678e6e;
      }

      .cls-3 {
        fill: #82ff95;
      }

      .cls-4 {
        fill: #3563f2;
      }

      .cls-5 {
        clip-path: url(#clippath);
      }
    </style>
    <clipPath id="clippath">
      <rect class="cls-1" x="-644.61" y="0" width="512" height="512"/>
    </clipPath>
    <clipPath id="clippath-1">
      <rect class="cls-1" x="-644.61" y="622.83" width="512" height="512"/>
    </clipPath>
  </defs>
  <rect class="cls-4" x="-.29" y="0" width="512" height="512"/>
  <g class="cls-5">
    <g>
      <path class="cls-3" d="M121.9,90.1H-222.71V-254.51H121.9V90.1ZM-216.31,83.7H115.5V-248.11H-216.31V83.7Z"/>
      <path class="cls-3" d="M121.9,768.34H-222.71v-344.61H121.9v344.61ZM-216.31,761.94H115.5v-331.8H-216.31v331.8Z"/>
    </g>
  </g>
  <g>
    <path class="cls-2" d="M219.62,128.82c25.15-25.15,25.15-65.94,0-91.09-25.15-25.15-65.94-25.15-91.09,0"/>
    <path class="cls-2" d="M37.44,128.82c-25.15,25.15-25.15,65.94,0,91.09,25.15,25.15,65.94,25.15,91.09,0"/>
    <path class="cls-2" d="M128.53,219.91c25.15,25.15,65.94,25.15,91.09,0s25.15-65.94,0-91.09"/>
    <path class="cls-2" d="M128.53,37.73c-25.15-25.15-65.94-25.15-91.09,0-25.15,25.15-25.15,65.94,0,91.09"/>
  </g>
  <g>
    <path class="cls-2" d="M477.59,128.82c25.15-25.15,25.15-65.94,0-91.09s-65.94-25.15-91.09,0"/>
    <path class="cls-2" d="M295.41,128.82c-25.15,25.15-25.15,65.94,0,91.09,25.15,25.15,65.94,25.15,91.09,0"/>
    <path class="cls-2" d="M386.5,219.91c25.15,25.15,65.94,25.15,91.09,0s25.15-65.94,0-91.09"/>
    <path class="cls-2" d="M386.5,37.73c-25.15-25.15-65.94-25.15-91.09,0-25.15,25.15-25.15,65.94,0,91.09"/>
  </g>
  <g>
    <path class="cls-2" d="M219.62,383.42c25.15-25.15,25.15-65.94,0-91.09s-65.94-25.15-91.09,0"/>
    <path class="cls-2" d="M37.44,383.42c-25.15,25.15-25.15,65.94,0,91.09s65.94,25.15,91.09,0"/>
    <path class="cls-2" d="M128.53,474.51c25.15,25.15,65.94,25.15,91.09,0s25.15-65.94,0-91.09"/>
    <path class="cls-2" d="M128.53,292.33c-25.15-25.15-65.94-25.15-91.09,0-25.15,25.15-25.15,65.94,0,91.09"/>
  </g>
  <g>
    <path class="cls-2" d="M386.5,292.33c-25.15-25.15-65.94-25.15-91.09,0-25.15,25.15-25.15,65.94,0,91.09"/>
    <path class="cls-2" d="M386.5,474.51c25.15,25.15,65.94,25.15,91.09,0,25.15-25.15,25.15-65.94,0-91.09"/>
    <path class="cls-2" d="M477.59,383.42c25.15-25.15,25.15-65.94,0-91.09-25.15-25.15-65.94-25.15-91.09,0"/>
    <path class="cls-2" d="M295.41,383.42c-25.15,25.15-25.15,65.94,0,91.09s65.94,25.15,91.09,0"/>
  </g>
</svg>