<?xml version="1.0" encoding="UTF-8"?>
<svg id="_레이어_1" data-name="레이어 1" xmlns="http://www.w3.org/2000/svg" xmlns:xlink="http://www.w3.org/1999/xlink" viewBox="0 0 512 512">
  <defs>
    <style>
      .cls-1 {
        fill: none;
      }

      .cls-2 {
        fill: #ff8c52;
      }

      .cls-3 {
        fill: #aaafc4;
      }

      .cls-4 {
        clip-path: url(#clippath);
      }

      .cls-5 {
        fill: #ff48d0;
      }
    </style>
    <clipPath id="clippath">
      <rect class="cls-1" x="-678.69" y="-.02" width="512" height="512"/>
    </clipPath>
  </defs>
  <g class="cls-4">
    <g>
      <path class="cls-3" d="M87.81,90.08h-344.61V-254.52H87.81V90.08ZM-250.39,83.68H81.41V-248.12H-250.39V83.68Z"/>
      <path class="cls-3" d="M87.81,768.32h-344.61v-344.61H87.81v344.61ZM-250.39,761.92H81.41v-331.8H-250.39v331.8Z"/>
    </g>
  </g>
  <rect class="cls-5" x="0" y="-.02" width="512" height="512"/>
  <g>
    <rect class="cls-2" x="-24.04" y="-24.06" width="48.09" height="48.09"/>
    <rect class="cls-2" x="103.96" y="-24.06" width="48.09" height="48.09"/>
    <rect class="cls-2" x="231.96" y="-24.06" width="48.09" height="48.09"/>
    <rect class="cls-2" x="359.96" y="-24.06" width="48.09" height="48.09"/>
    <rect class="cls-2" x="487.96" y="-24.06" width="48.09" height="48.09"/>
  </g>
  <g>
    <rect class="cls-2" x="-24.04" y="103.94" width="48.09" height="48.09"/>
    <rect class="cls-2" x="103.96" y="103.94" width="48.09" height="48.09"/>
    <rect class="cls-2" x="231.96" y="103.94" width="48.09" height="48.09"/>
    <rect class="cls-2" x="359.96" y="103.94" width="48.09" height="48.09"/>
    <rect class="cls-2" x="487.96" y="103.94" width="48.09" height="48.09"/>
  </g>
  <g>
    <rect class="cls-2" x="-24.04" y="231.94" width="48.09" height="48.09"/>
    <rect class="cls-2" x="103.96" y="231.94" width="48.09" height="48.09"/>
    <rect class="cls-2" x="231.96" y="231.94" width="48.09" height="48.09"/>
    <rect class="cls-2" x="359.96" y="231.94" width="48.09" height="48.09"/>
    <rect class="cls-2" x="487.96" y="231.94" width="48.09" height="48.09"/>
  </g>
  <g>
    <rect class="cls-2" x="-24.04" y="359.94" width="48.09" height="48.09"/>
    <rect class="cls-2" x="103.96" y="359.94" width="48.09" height="48.09"/>
    <rect class="cls-2" x="231.96" y="359.94" width="48.09" height="48.09"/>
    <rect class="cls-2" x="359.96" y="359.94" width="48.09" height="48.09"/>
    <rect class="cls-2" x="487.96" y="359.94" width="48.09" height="48.09"/>
  </g>
  <g>
    <rect class="cls-2" x="-24.04" y="487.94" width="48.09" height="48.09"/>
    <rect class="cls-2" x="103.96" y="487.94" width="48.09" height="48.09"/>
    <rect class="cls-2" x="231.96" y="487.94" width="48.09" height="48.09"/>
    <rect class="cls-2" x="359.96" y="487.94" width="48.09" height="48.09"/>
    <rect class="cls-2" x="487.96" y="487.94" width="48.09" height="48.09"/>
  </g>
</svg>