<?xml version="1.0" encoding="UTF-8"?>
<svg id="_레이어_1" data-name="레이어 1" xmlns="http://www.w3.org/2000/svg" viewBox="0 0 512 512">
  <defs>
    <style>
      .cls-1 {
        fill: none;
        stroke: #ff5cf3;
        stroke-miterlimit: 10;
        stroke-width: 7px;
      }

      .cls-2 {
        fill: #9e5aed;
      }
    </style>
  </defs>
  <rect class="cls-2" width="512" height="512"/>
  <path class="cls-1" d="M91.78,128.54c4.47,10.47,16.73,16.97,27.9,14.78"/>
  <path class="cls-1" d="M154.17,38.64c1.36,10.93-.68,22.25-5.76,32.02"/>
  <path class="cls-1" d="M268.95,115.62c1.39,20.85,15.25,40.39,34.48,48.59"/>
  <path class="cls-1" d="M366.5,77.28c6.86,11.65,15.23,22.41,24.83,31.91"/>
  <path class="cls-1" d="M440.47,214.03l-8.55,19.25"/>
  <path class="cls-1" d="M325.86,249.21c-6.6,13.26-18.77,23.63-32.9,28.06"/>
  <path class="cls-1" d="M210.81,220.34c2.66,5.7,2.55,12.63-.31,18.23"/>
  <path class="cls-1" d="M245.87,54.71c9.83,3.95,21.18,3.95,31.01,0"/>
  <path class="cls-1" d="M63.06,196.11c3.82,7.16,4.22,16.04,1.08,23.52"/>
  <path class="cls-1" d="M85.54,337.21c16.2-3.95,33.87-1.51,48.39,6.68"/>
  <path class="cls-1" d="M113.29,224.72c.41,6.02,2.26,11.93,5.35,17.11"/>
  <path class="cls-1" d="M221.2,337c.93,11.55,9.36,22.13,20.41,25.61"/>
  <path class="cls-1" d="M364.55,349.82v21.38"/>
  <path class="cls-1" d="M470.34,42.94c-2.34,10.92-7.94,21.12-15.9,28.96"/>
  <path class="cls-1" d="M63.06,31.25c-8.98,4.53-15.57,13.52-17.18,23.45"/>
  <path class="cls-1" d="M345.41-11.56c-1.8,8.41-2.25,17.11-1.33,25.66"/>
  <path class="cls-1" d="M345.41,499.17c-1.8,8.41-2.25,17.11-1.33,25.66"/>
  <path class="cls-1" d="M475.82,432.17c-2.44,7.95-7.91,14.93-15.06,19.19"/>
  <path class="cls-1" d="M469.35,312.23c7.49.31,14.97.63,22.46.94"/>
  <path class="cls-1" d="M493.93,149.87c-4.15,7.1-6.38,15.3-6.42,23.52"/>
  <path class="cls-1" d="M149.63,410.83c5.38,1.18,10.2,4.73,12.92,9.52"/>
  <path class="cls-1" d="M37.53,320.01c-4.98,6.13-4.07,16.18,1.93,21.32"/>
  <path class="cls-1" d="M14.89,451.44c8.94,6.22,15.87,15.28,19.54,25.53"/>
  <path class="cls-1" d="M264.05,477.06l-5.35,9.62"/>
  <path class="cls-1" d="M316.57,330.71c-5.69,5.49-9.89,12.52-12.02,20.14"/>
</svg>