<?xml version="1.0" encoding="UTF-8"?>
<svg id="_레이어_1" data-name="레이어 1" xmlns="http://www.w3.org/2000/svg" width="512" height="512" xmlns:xlink="http://www.w3.org/1999/xlink" viewBox="0 0 512 512">
  <defs>
    <style>
      .cls-1, .cls-2 {
        fill: none;
      }

      .cls-2 {
        stroke: #85ff7d;
        stroke-miterlimit: 10;
        stroke-width: 6px;
      }

      .cls-3 {
        clip-path: url(#clippath-1);
      }

      .cls-4 {
        clip-path: url(#clippath-3);
      }

      .cls-5 {
        clip-path: url(#clippath-4);
      }

      .cls-6 {
        clip-path: url(#clippath-2);
      }

      .cls-7 {
        fill: #82ff95;
      }

      .cls-8 {
        fill: #7558c9;
      }

      .cls-9 {
        fill: #3563f2;
      }

      .cls-10 {
        clip-path: url(#clippath);
      }
    </style>
    <clipPath id="clippath">
      <rect class="cls-1" x="624.88" y="0" width="512" height="512"/>
    </clipPath>
    <clipPath id="clippath-1">
      <rect class="cls-1" x="624.88" y="622.83" width="512" height="512"/>
    </clipPath>
    <clipPath id="clippath-2">
      <rect class="cls-1" x="624.88" y="622.83" width="512" height="512"/>
    </clipPath>
    <clipPath id="clippath-3">
      <rect class="cls-1" x="0" y="-609.99" width="512" height="512"/>
    </clipPath>
    <clipPath id="clippath-4">
      <rect class="cls-1" x="0" y="-609.99" width="512" height="512"/>
    </clipPath>
  </defs>
  <rect class="cls-9" x="0" y="0" width="512" height="512"/>
  <g class="cls-10">
    <g>
      <path class="cls-7" d="M714.98,90.1h-344.61V-254.51h344.61V90.1ZM376.78,83.7h331.8V-248.11h-331.8V83.7Z"/>
      <path class="cls-7" d="M714.98,768.34h-344.61v-344.61h344.61v344.61ZM376.78,761.94h331.8v-331.8h-331.8v331.8Z"/>
    </g>
  </g>
  <g>
    <rect class="cls-8" x="76.8" y="42.67" width="51.2" height="426.67"/>
    <rect class="cls-8" y="0" width="76.8" height="42.67"/>
    <rect class="cls-8" y="469.33" width="76.8" height="42.67"/>
    <rect class="cls-8" x="204.8" y="42.67" width="51.2" height="426.67"/>
    <rect class="cls-8" x="128" y="0" width="76.8" height="42.67"/>
    <rect class="cls-8" x="128" y="469.33" width="76.8" height="42.67"/>
    <rect class="cls-8" x="332.8" y="42.67" width="51.2" height="426.67"/>
    <rect class="cls-8" x="256" y="0" width="76.8" height="42.67"/>
    <rect class="cls-8" x="256" y="469.33" width="76.8" height="42.67"/>
    <rect class="cls-8" x="460.8" y="42.67" width="51.2" height="426.67"/>
    <rect class="cls-8" x="384" y="0" width="76.8" height="42.67"/>
    <rect class="cls-8" x="384" y="469.33" width="76.8" height="42.67"/>
  </g>
  <g class="cls-3">
    <g class="cls-6">
      <line class="cls-2" x1="726.12" y1="770.72" x2="337.54" y2="382.14"/>
    </g>
  </g>
  <g class="cls-4">
    <g class="cls-5">
      <path class="cls-7" d="M361.81-163.86c8.24,141.14,129.34,248.88,270.49,240.64l-2.98-51.11c-54.61,3.19-107.2-15.08-148.07-51.44-40.87-36.36-65.14-86.46-68.32-141.07l-51.11,2.98Z"/>
    </g>
    <path class="cls-7" d="M248.4,89.94c90.84-108.34,76.65-269.81-31.7-360.65l-32.9,39.23c41.92,35.15,67.64,84.51,72.43,139.01,4.79,54.49-11.93,107.59-47.08,149.51l39.23,32.9Z"/>
    <path class="cls-7" d="M379,8.09C301.48-110.15,142.79-143.16,24.55-65.64l28.07,42.82c45.75-29.99,100.44-40.37,154-29.23,53.56,11.14,99.57,42.47,129.56,88.22l42.82-28.07Z"/>
  </g>
</svg>