<?xml version="1.0" encoding="UTF-8"?>
<svg id="_레이어_1" data-name="레이어 1" xmlns="http://www.w3.org/2000/svg" width="512" height="512" xmlns:xlink="http://www.w3.org/1999/xlink" viewBox="0 0 512 512">
  <defs>
    <style>
      .cls-1 {
        fill: none;
      }

      .cls-2 {
        fill: #85e843;
      }

      .cls-3 {
        clip-path: url(#clippath-1);
      }

      .cls-4 {
        clip-path: url(#clippath-3);
      }

      .cls-5 {
        clip-path: url(#clippath-4);
      }

      .cls-6 {
        clip-path: url(#clippath-2);
      }

      .cls-7 {
        clip-path: url(#clippath-5);
      }

      .cls-8 {
        fill: #82ff95;
      }

      .cls-9 {
        clip-path: url(#clippath);
      }
    </style>
    <clipPath id="clippath">
      <rect class="cls-1" x="624.88" y="609.99" width="512" height="512"/>
    </clipPath>
    <clipPath id="clippath-1">
      <rect class="cls-1" x="0" y="0" width="512" height="512"/>
    </clipPath>
    <clipPath id="clippath-2">
      <rect class="cls-1" x="0" y="0" width="512" height="512"/>
    </clipPath>
    <clipPath id="clippath-3">
      <rect class="cls-1" x="0" y="0" width="512" height="512"/>
    </clipPath>
    <clipPath id="clippath-4">
      <rect class="cls-1" x="-.94" y="0" width="512" height="512"/>
    </clipPath>
    <clipPath id="clippath-5">
      <rect class="cls-1" x="-.94" y="0" width="512" height="512"/>
    </clipPath>
  </defs>
  <g class="cls-9">
    <path class="cls-8" d="M714.98,700.09h-344.61v-344.61h344.61v344.61ZM376.78,693.69h331.8v-331.8h-331.8v331.8Z"/>
  </g>
  <g class="cls-3">
    <g>
      <rect class="cls-2" x="0" y="0" width="512" height="512"/>
      <g>
        <path class="cls-8" d="M319.78,371.09c133.81,45.66,279.3-25.8,324.96-159.61l-48.46-16.54c-17.67,51.77-54.44,93.57-103.54,117.68-49.1,24.12-104.65,27.67-156.43,10l-16.54,48.46Z"/>
        <path class="cls-8" d="M361.81-65.87c8.24,141.14,129.34,248.88,270.49,240.64l-2.98-51.11c-54.61,3.19-107.2-15.08-148.07-51.44-40.87-36.36-65.14-86.46-68.32-141.07l-51.11,2.98Z"/>
      </g>
      <g class="cls-6">
        <g>
          <path class="cls-8" d="M361.81,446.13c8.24,141.14,129.34,248.88,270.49,240.64l-2.98-51.11c-54.61,3.19-107.2-15.08-148.07-51.44-40.87-36.36-65.14-86.46-68.32-141.07l-51.11,2.98Z"/>
          <path class="cls-8" d="M379,106.08C301.48-12.16,142.79-45.17,24.55,32.35l28.07,42.82c45.75-29.99,100.44-40.37,154-29.23,53.56,11.14,99.57,42.47,129.56,88.22l42.82-28.07Z"/>
        </g>
      </g>
      <g class="cls-4">
        <path class="cls-8" d="M248.4,187.93c90.84-108.34,76.65-269.81-31.7-360.65l-32.9,39.23c41.92,35.15,67.64,84.51,72.43,139.01,4.79,54.49-11.93,107.59-47.08,149.51l39.23,32.9Z"/>
      </g>
      <g class="cls-5">
        <g>
          <path class="cls-8" d="M-193.15,371.09c133.81,45.66,279.3-25.8,324.96-159.61l-48.46-16.54c-17.67,51.77-54.44,93.57-103.54,117.68-49.1,24.12-104.65,27.67-156.43,10l-16.54,48.46Z"/>
          <path class="cls-8" d="M-151.13-65.87C-142.89,75.27-21.79,183.01,119.36,174.77l-2.98-51.11c-54.61,3.19-107.2-15.08-148.07-51.44C-72.56,35.86-96.83-14.24-100.02-68.86l-51.11,2.98Z"/>
        </g>
      </g>
      <g class="cls-7">
        <path class="cls-8" d="M435.89,214.72c81.07,115.83,240.69,144.01,356.53,62.94l-29.36-41.95c-44.82,31.37-99.17,43.4-153.04,33.89-53.87-9.51-100.81-39.43-132.18-84.25l-41.95,29.36Z"/>
      </g>
      <path class="cls-8" d="M379,106.08C301.48-12.16,142.79-45.17,24.55,32.35l28.07,42.82c45.75-29.99,100.44-40.37,154-29.23,53.56,11.14,99.57,42.47,129.56,88.22l42.82-28.07Z"/>
    </g>
    <path class="cls-8" d="M-76.11,214.72c81.07,115.83,240.69,144.01,356.53,62.94l-29.36-41.95c-44.82,31.37-99.17,43.4-153.04,33.89-53.87-9.51-100.81-39.43-132.18-84.25l-41.95,29.36Z"/>
    <path class="cls-8" d="M163.48,484.28c141.19-7.45,249.61-127.94,242.16-269.13l-51.13,2.7c2.88,54.63-15.68,107.11-52.28,147.77-36.59,40.66-86.83,64.65-141.46,67.53l2.7,51.13Z"/>
    <path class="cls-8" d="M248.4,699.93c90.84-108.34,76.65-269.81-31.7-360.65l-32.9,39.23c41.92,35.15,67.64,84.51,72.43,139.01,4.79,54.49-11.93,107.59-47.08,149.51l39.23,32.9Z"/>
    <path class="cls-8" d="M379,618.08c-77.52-118.24-236.21-151.25-354.45-73.73l28.07,42.82c45.75-29.99,100.44-40.37,154-29.23,53.56,11.14,99.57,42.47,129.56,88.22l42.82-28.07Z"/>
  </g>
</svg>