<?xml version="1.0" encoding="UTF-8"?>
<svg id="_레이어_1" data-name="레이어 1" xmlns="http://www.w3.org/2000/svg" width="512" height="512" xmlns:xlink="http://www.w3.org/1999/xlink" viewBox="0 0 512 512">
  <defs>
    <style>
      .cls-1 {
        fill: none;
      }

      .cls-2 {
        fill: #85e843;
      }

      .cls-3 {
        clip-path: url(#clippath-1);
      }

      .cls-4 {
        clip-path: url(#clippath-3);
      }

      .cls-5 {
        clip-path: url(#clippath-2);
      }

      .cls-6 {
        fill: #82ff95;
      }

      .cls-7 {
        clip-path: url(#clippath);
      }
    </style>
    <clipPath id="clippath">
      <rect class="cls-1" x="0" y="609.99" width="512" height="512"/>
    </clipPath>
    <clipPath id="clippath-1">
      <rect class="cls-1" x="-624.88" y="0" width="512" height="512"/>
    </clipPath>
    <clipPath id="clippath-2">
      <rect class="cls-1" x="-624.88" y="0" width="512" height="512"/>
    </clipPath>
    <clipPath id="clippath-3">
      <rect class="cls-1" x="-625.82" y="0" width="512" height="512"/>
    </clipPath>
  </defs>
  <g class="cls-7">
    <g>
      <path class="cls-6" d="M90.1,700.09H-254.51v-344.61H90.1v344.61ZM-248.11,693.69H83.7v-331.8H-248.11v331.8Z"/>
      <path class="cls-6" d="M766.51,700.09h-344.61v-344.61h344.61v344.61ZM428.3,693.69h331.8v-331.8h-331.8v331.8Z"/>
    </g>
  </g>
  <rect class="cls-2" x="0" width="512" height="512"/>
  <g>
    <g>
      <path class="cls-6" d="M103.35,33.31l-37.96,103.58h-6.4s37.96-103.58,37.96-103.58h6.4Z"/>
      <path class="cls-6" d="M219.9,33.31l-37.96,103.58h-6.4s37.96-103.58,37.96-103.58h6.4Z"/>
      <path class="cls-6" d="M336.46,33.31l-37.96,103.58h-6.4s37.96-103.58,37.96-103.58h6.4Z"/>
      <path class="cls-6" d="M453.01,33.31l-37.96,103.58h-6.4s37.96-103.58,37.96-103.58h6.4Z"/>
    </g>
    <g>
      <path class="cls-6" d="M103.35,375.1l-37.96,103.58h-6.4s37.96-103.58,37.96-103.58h6.4Z"/>
      <path class="cls-6" d="M219.9,375.1l-37.96,103.58h-6.4s37.96-103.58,37.96-103.58h6.4Z"/>
      <path class="cls-6" d="M336.46,375.1l-37.96,103.58h-6.4s37.96-103.58,37.96-103.58h6.4Z"/>
      <path class="cls-6" d="M453.01,375.1l-37.96,103.58h-6.4s37.96-103.58,37.96-103.58h6.4Z"/>
    </g>
    <g>
      <polygon class="cls-6" points="415.05 202.71 453.01 306.29 446.61 306.29 408.65 202.71 415.05 202.71"/>
      <path class="cls-6" d="M298.5,202.71l37.96,103.58h-6.4s-37.96-103.58-37.96-103.58h6.4Z"/>
      <path class="cls-6" d="M181.95,202.71l37.96,103.58h-6.4s-37.96-103.58-37.96-103.58h6.4Z"/>
      <path class="cls-6" d="M65.39,202.71l37.96,103.58h-6.4s-37.96-103.58-37.96-103.58h6.4Z"/>
    </g>
  </g>
  <g class="cls-3">
    <g>
      <g>
        <path class="cls-6" d="M-305.1,371.09C-171.29,416.75-25.8,345.29,19.86,211.48l-48.46-16.54c-17.67,51.77-54.44,93.57-103.54,117.68-49.1,24.12-104.65,27.67-156.43,10l-16.54,48.46Z"/>
        <path class="cls-6" d="M-263.08-65.87C-254.84,75.27-133.73,183.01,7.41,174.77l-2.98-51.11c-54.61,3.19-107.2-15.08-148.07-51.44-40.87-36.36-65.14-86.46-68.32-141.07l-51.11,2.98Z"/>
      </g>
      <g class="cls-5">
        <path class="cls-6" d="M-263.08,446.13c8.24,141.14,129.34,248.88,270.49,240.64l-2.98-51.11c-54.61,3.19-107.2-15.08-148.07-51.44-40.87-36.36-65.14-86.46-68.32-141.07l-51.11,2.98Z"/>
      </g>
      <g class="cls-4">
        <path class="cls-6" d="M-188.99,214.72c81.07,115.83,240.69,144.01,356.53,62.94l-29.36-41.95c-44.82,31.37-99.17,43.4-153.04,33.89-53.87-9.51-100.81-39.43-132.18-84.25l-41.95,29.36Z"/>
      </g>
    </g>
  </g>
</svg>