<?xml version="1.0" encoding="UTF-8"?>
<svg id="_레이어_1" data-name="레이어 1" xmlns="http://www.w3.org/2000/svg" viewBox="0 0 512 512">
  <defs>
    <style>
      .cls-1 {
        fill: #938087;
      }

      .cls-2 {
        fill: #ffc436;
      }
    </style>
  </defs>
  <rect class="cls-2" y="-5.92" width="512" height="512"/>
  <g>
    <g>
      <rect class="cls-1" x="170.16" y="336.06" width="85.08" height="84.87"/>
      <rect class="cls-1" x="85.08" y="420.93" width="85.08" height="84.87"/>
      <rect class="cls-1" x="85.08" y="251.19" width="85.08" height="84.87"/>
      <rect class="cls-1" y="336.06" width="85.08" height="84.87"/>
      <rect class="cls-1" x="170.16" y="165.07" width="85.08" height="84.87"/>
      <rect class="cls-1" x="85.08" y="249.94" width="85.08" height="84.87"/>
      <rect class="cls-1" x="85.08" y="80.2" width="85.08" height="84.87"/>
      <rect class="cls-1" y="165.07" width="85.08" height="84.87"/>
      <rect class="cls-1" x="170.16" y="-5.92" width="85.08" height="84.87"/>
      <rect class="cls-1" x="85.08" y="78.95" width="85.08" height="84.87"/>
      <rect class="cls-1" y="-5.92" width="85.08" height="84.87"/>
      <rect class="cls-1" x="85.08" y="420.93" width="85.08" height="84.87"/>
      <rect class="cls-1" x="256.5" y="249.94" width="85.08" height="84.87"/>
      <rect class="cls-1" x="256.5" y="78.95" width="85.08" height="84.87"/>
      <rect class="cls-1" x="256.5" y="420.93" width="85.08" height="84.87"/>
    </g>
    <g>
      <rect class="cls-1" x="426.85" y="420.93" width="85.08" height="84.87"/>
      <rect class="cls-1" x="426.85" y="251.19" width="85.08" height="84.87"/>
      <rect class="cls-1" x="341.77" y="336.06" width="85.08" height="84.87"/>
      <rect class="cls-1" x="426.85" y="249.94" width="85.08" height="84.87"/>
      <rect class="cls-1" x="426.85" y="80.2" width="85.08" height="84.87"/>
      <rect class="cls-1" x="341.77" y="165.07" width="85.08" height="84.87"/>
      <rect class="cls-1" x="426.85" y="78.95" width="85.08" height="84.87"/>
      <rect class="cls-1" x="341.77" y="-5.92" width="85.08" height="84.87"/>
      <rect class="cls-1" x="426.85" y="420.93" width="85.08" height="84.87"/>
    </g>
  </g>
</svg>